<?xml version="1.0" encoding="UTF-8" standalone="no"?>
<!-- Created with Inkscape (http://www.inkscape.org/) -->

<svg
   viewBox="0 0 211.66666 211.66667"
   version="1.1"
   id="svg307"
   xmlns="http://www.w3.org/2000/svg"
   xmlns:svg="http://www.w3.org/2000/svg">
  <defs
     id="defs304" />
  <g
     id="layer1">
    <path
       style="display:inline;fill:#ead5c2;fill-opacity:1;stroke-width:0.0749551"
       d="m 108.03342,187.18013 v -5.60334 l 0.14856,-0.45126 c 0.0818,-0.24814 0.27205,-0.63806 0.4229,-0.86647 l 0.27414,-0.41537 0.42995,-0.32876 0.42989,-0.32875 0.4788,-0.15356 0.47864,-0.15365 0.59896,0.005 0.5989,0.005 0.36778,0.10217 c 0.20216,0.0563 0.56751,0.20745 0.81185,0.33588 0.24427,0.12849 0.61158,0.38997 0.81613,0.58113 0.20457,0.19101 0.49534,0.53353 0.64622,0.76104 0.15085,0.22755 0.36258,0.65021 0.47088,0.93929 l 0.19652,0.52542 0.0119,5.23339 0.0124,5.23328 -0.0608,-0.26177 c -0.0338,-0.14407 -0.1021,-0.59745 -0.15242,-1.00778 -0.0504,-0.41029 -0.11125,-0.77749 -0.13533,-0.81604 l -0.0438,-0.0702 -2.4362,-0.0544 -2.43622,-0.0545 -0.93757,1.22785 c -0.51577,0.67523 -0.94991,1.22765 -0.96496,1.22765 -0.015,0 -0.0272,-2.52144 -0.0272,-5.60311 z m -9.780648,0.005 v -5.37002 l 0.11257,-0.44966 c 0.0621,-0.24721 0.199967,-0.6158 0.306377,-0.81903 0.10652,-0.20317 0.369757,-0.54256 0.585277,-0.75428 l 0.391707,-0.38489 0.497017,-0.24252 0.49704,-0.24263 0.75033,-0.0295 0.75033,-0.0295 0.50284,0.15862 0.50289,0.15881 0.44287,0.29725 c 0.24361,0.16367 0.56859,0.43124 0.72213,0.59479 0.15353,0.16362 0.37822,0.44609 0.49912,0.62802 0.12107,0.18189 0.30765,0.54284 0.4148,0.80223 l 0.19477,0.47154 0.0213,4.19476 0.0213,4.19497 -2.22758,-0.0448 -2.22744,-0.0449 -1.287007,1.13742 c -0.707847,0.62559 -1.328271,1.13872 -1.378801,1.14054 l -0.0919,0.004 z m 19.929948,-0.22173 0.004,-5.52425 0.0983,-0.38193 c 0.0542,-0.21009 0.18995,-0.5693 0.30192,-0.79809 l 0.20347,-0.41607 0.42851,-0.44504 0.42825,-0.44501 0.5374,-0.26343 0.5375,-0.26358 0.51967,-0.0824 0.51955,-0.0823 0.48201,0.0799 c 0.26509,0.044 0.62574,0.13282 0.80165,0.19721 0.17588,0.0644 0.45315,0.19846 0.61636,0.29784 0.16312,0.0992 0.48292,0.38368 0.71076,0.63191 l 0.41433,0.45128 0.19331,0.39625 c 0.10635,0.21805 0.24275,0.61791 0.30323,0.88878 l 0.10983,0.49237 -0.0191,5.18079 -0.0185,5.18091 -0.32266,-1.10787 c -0.1774,-0.60921 -0.34285,-1.13106 -0.36766,-1.15977 -0.0247,-0.0283 -1.09524,0.024 -2.3789,0.11731 l -2.33372,0.16924 -0.0636,0.0737 c -0.0347,0.0406 -0.40176,0.56308 -0.81493,1.161 -0.41326,0.59816 -0.78226,1.10729 -0.81991,1.13146 l -0.0687,0.0439 0.004,-5.5242 z m -29.547391,-0.91586 0.02061,-5.83406 0.239724,-0.50583 0.239652,-0.50572 0.303066,-0.28441 c 0.166617,-0.15637 0.485901,-0.37131 0.709452,-0.47764 l 0.406296,-0.19325 0.502146,-0.0373 0.502146,-0.0373 0.460764,0.0914 0.460827,0.0914 0.625122,0.31661 0.625068,0.31662 0.63459,0.65641 0.634644,0.65638 0.333531,0.7221 c 0.183402,0.39706 0.369441,0.90421 0.413316,1.12679 l 0.07974,0.40497 v 3.73832 3.73816 l -0.312579,-0.0361 c -0.171882,-0.0198 -1.090143,-0.0889 -2.040669,-0.15334 -0.950499,-0.0646 -1.802727,-0.13437 -1.893771,-0.15501 l -0.165672,-0.0376 -1.326231,1.09006 c -0.729459,0.59964 -1.359072,1.10193 -1.399257,1.11644 l -0.07308,0.0264 z m 40.650921,-0.0524 v -5.59213 l 0.14974,-0.4621 c 0.0824,-0.25394 0.23521,-0.60535 0.33947,-0.78053 0.10425,-0.17529 0.32637,-0.46653 0.49368,-0.6473 0.16721,-0.18072 0.45562,-0.42976 0.64084,-0.5535 0.18536,-0.12378 0.52364,-0.29175 0.75176,-0.37329 0.22821,-0.0815 0.63927,-0.17052 0.9134,-0.19791 l 0.49844,-0.0495 0.53421,0.11726 0.53416,0.11712 0.43139,0.23891 0.4312,0.23876 0.41743,0.43357 0.41738,0.43356 0.24585,0.51037 0.24579,0.51037 0.083,0.521 0.0832,0.521 -0.0205,4.8513 -0.0205,4.85119 -0.51416,-1.05181 -0.51411,-1.05178 -0.62579,0.0481 c -0.34414,0.0264 -1.41604,0.10451 -2.38201,0.17332 l -1.75618,0.12506 -0.64794,1.2881 c -0.35642,0.70843 -0.66641,1.3072 -0.68898,1.33059 -0.0224,0.0233 -0.0409,-2.47395 -0.0409,-5.54969 z m -51.51636,4.32736 c -0.02169,-0.0585 -0.02952,-2.59682 -0.01854,-5.64092 l 0.02097,-5.53484 0.197685,-0.4381 c 0.108765,-0.24101 0.28503,-0.55712 0.391752,-0.70247 0.106749,-0.14532 0.349812,-0.36813 0.540198,-0.49508 l 0.346095,-0.23062 0.475191,-0.12657 0.475263,-0.12638 0.508743,0.049 0.508626,0.049 0.497295,0.17975 0.497457,0.17973 0.516807,0.35679 0.516771,0.35696 0.438453,0.49718 0.438534,0.4971 0.293913,0.588 c 0.161685,0.32348 0.346446,0.79933 0.410643,1.05744 l 0.116676,0.46948 v 3.8389 3.83894 l -0.514827,-0.0497 c -0.283095,-0.0272 -1.244871,-0.1519 -2.137068,-0.27677 -0.892413,-0.12483 -1.646514,-0.24252 -1.675917,-0.26141 -0.02952,-0.0191 -0.449433,0.26506 -0.933075,0.63117 -0.483795,0.36598 -1.102977,0.8307 -1.375875,1.03253 l -0.496287,0.36704 z m 61.66739,-5.4076 v -5.30973 l 0.0737,-0.53043 0.0738,-0.53046 0.26127,-0.56456 0.26142,-0.56445 0.4279,-0.43768 0.42782,-0.43771 0.46734,-0.23577 c 0.25704,-0.12972 0.64261,-0.27379 0.85702,-0.32003 0.21436,-0.0463 0.59492,-0.0837 0.84563,-0.0832 0.25084,0.004 0.63374,0.0499 0.85087,0.11006 0.21717,0.0599 0.5804,0.20575 0.80719,0.32383 l 0.41243,0.21466 0.4062,0.42111 0.40614,0.42123 0.24255,0.475 0.24252,0.47488 0.10543,0.51724 0.10563,0.51716 0.005,4.63667 0.005,4.63667 -0.0569,0.0365 c -0.0314,0.0202 -0.33208,-0.42483 -0.6688,-0.98858 -0.33646,-0.56371 -0.64512,-1.04631 -0.6856,-1.07226 -0.0405,-0.0257 -1.12781,0.17053 -2.41644,0.4369 l -2.34268,0.48423 -0.48344,1.22466 c -0.26599,0.67349 -0.51526,1.27611 -0.55398,1.33926 l -0.0704,0.11451 v -5.30965 z m -72.585774,-2.0897 v -5.46016 l 0.140107,-0.46758 c 0.07704,-0.25711 0.228207,-0.58761 0.336054,-0.73424 0.107604,-0.14691 0.28449,-0.35572 0.39303,-0.46426 0.108378,-0.10856 0.379251,-0.28666 0.601605,-0.39569 l 0.404469,-0.19835 0.669645,-0.0314 0.669528,-0.0314 0.43353,0.13 c 0.238446,0.0716 0.665181,0.25504 0.948276,0.40761 l 0.514764,0.27751 0.626355,0.65157 0.626427,0.65152 0.240975,0.47551 c 0.132588,0.26168 0.313191,0.67411 0.401445,0.91678 l 0.160326,0.44121 0.02367,4.15551 0.02403,4.15547 -0.352881,-0.0494 c -0.194067,-0.0267 -1.20132,-0.22231 -2.238192,-0.43377 l -1.885158,-0.38445 -1.27692,0.86694 c -0.70227,0.47689 -1.318347,0.89262 -1.36893,0.92403 l -0.09194,0.0571 z m 88.492194,2.58575 -1.18872,-0.87709 -2.26766,0.57452 c -1.24712,0.31596 -2.32539,0.59317 -2.39616,0.61593 l -0.12878,0.0412 v -4.15843 -4.15845 l 0.0734,-0.41142 c 0.0405,-0.22631 0.18941,-0.65715 0.33114,-0.95728 l 0.25756,-0.54575 0.41219,-0.42821 0.41225,-0.42817 0.5252,-0.26801 0.52536,-0.26812 0.5935,-0.0859 0.59355,-0.0857 0.55607,0.1177 c 0.30585,0.0647 0.73561,0.20917 0.95526,0.32088 0.21955,0.11172 0.55974,0.34563 0.7559,0.5198 0.19613,0.1742 0.48478,0.52278 0.64151,0.77457 l 0.2849,0.45785 0.14554,0.49986 0.14563,0.49967 -0.0195,4.5637 -0.0195,4.5639 z m -99.375978,-5.45544 v -5.26455 l 0.135916,-0.4537 c 0.07479,-0.24955 0.241125,-0.61251 0.369756,-0.80674 0.128673,-0.19425 0.373599,-0.45145 0.544392,-0.57146 0.170721,-0.12002 0.442798,-0.27169 0.604637,-0.33694 0.161797,-0.0652 0.492676,-0.14217 0.735316,-0.17098 l 0.441246,-0.0524 0.544621,0.11803 c 0.299589,0.065 0.746335,0.21704 0.992818,0.33788 0.246479,0.1209 0.656926,0.38388 0.912167,0.58453 0.255165,0.20056 0.625854,0.57267 0.82376,0.82679 0.198025,0.25416 0.477212,0.70526 0.620463,1.00243 0.143333,0.29714 0.310672,0.74852 0.371814,1.0031 l 0.111251,0.46285 -0.01905,4.13056 -0.01905,4.13053 -1.728173,-0.47646 c -0.95049,-0.26207 -1.943229,-0.53772 -2.206076,-0.61251 l -0.478026,-0.13584 -1.309225,0.77477 c -0.720152,0.42623 -1.340573,0.77476 -1.378778,0.77476 h -0.06975 z m 104.143898,4.90184 c -0.0366,-0.0735 -1.11894,-2.97002 -2.40548,-6.43642 -1.28669,-3.46665 -2.35225,-6.31954 -2.36802,-6.33982 -0.0157,-0.0202 -0.51458,0.0963 -1.10856,0.25893 -0.59389,0.16257 -1.94034,0.51091 -2.99195,0.77403 -1.05151,0.263 -2.77239,0.6705 -3.82395,0.90558 -1.05171,0.23503 -2.77244,0.59792 -3.82409,0.80618 -1.05162,0.20835 -2.8055,0.5349 -3.89759,0.72547 -1.09199,0.19074 -2.77973,0.46635 -3.75051,0.61262 -0.97065,0.14621 -2.82388,0.40261 -4.11814,0.56977 -1.29426,0.16706 -3.23021,0.39124 -4.30197,0.49815 -1.07189,0.10683 -2.7762,0.2628 -3.78728,0.34636 -1.01129,0.0837 -2.66588,0.20435 -3.67706,0.26801 -1.01105,0.0638 -2.53336,0.15248 -3.38273,0.19729 -0.84929,0.0448 -3.89399,0.10093 -6.76567,0.12444 l -5.22126,0.0429 -2.57382,-0.0881 c -1.41567,-0.0485 -3.186181,-0.12177 -3.934338,-0.1628 -0.748287,-0.041 -2.121672,-0.12689 -3.051831,-0.19073 -0.93033,-0.0639 -2.485719,-0.18539 -3.456351,-0.2698 -0.970695,-0.0845 -2.57571,-0.23918 -3.566664,-0.34396 -0.99099,-0.10465 -2.612448,-0.29342 -3.603402,-0.41944 -0.990873,-0.12608 -2.513259,-0.33326 -3.38283,-0.46045 -0.869607,-0.12719 -2.401542,-0.36716 -3.404286,-0.53333 -1.002744,-0.16622 -2.822805,-0.49245 -4.044573,-0.72508 -1.221876,-0.23252 -3.01572,-0.59606 -3.98646,-0.80771 -0.970776,-0.21176 -2.608834,-0.58873 -3.640167,-0.83804 -1.031448,-0.24915 -2.752216,-0.69172 -3.82404,-0.9833 -1.071868,-0.29168 -2.698137,-0.75425 -3.613995,-1.02792 -0.915772,-0.27379 -2.504174,-0.7719 -3.529769,-1.10698 -1.025666,-0.33499 -2.543165,-0.85503 -3.37225,-1.15566 -0.829194,-0.30059 -2.202575,-0.81542 -3.051982,-1.14421 -0.849368,-0.32867 -2.161899,-0.85693 -2.916726,-1.17377 -0.754827,-0.3168 -2.194322,-0.95123 -3.198924,-1.40974 -1.004687,-0.45858 -2.526368,-1.18161 -3.381556,-1.60679 -0.855459,-0.42507 -2.228807,-1.13829 -3.052028,-1.58484 -0.823141,-0.44656 -2.075855,-1.15726 -2.783629,-1.57929 -0.707856,-0.42213 -1.750324,-1.05869 -2.316471,-1.41478 -0.566347,-0.35599 -1.691478,-1.10368 -2.500346,-1.66149 -0.808867,-0.55786 -1.944781,-1.37328 -2.524086,-1.81232 -0.579258,-0.43907 -1.555629,-1.21388 -2.169377,-1.72185 -0.613905,-0.50808 -1.430493,-1.20333 -1.814793,-1.54503 -0.384181,-0.3417 -1.23595,-1.14034 -1.892608,-1.77472 -0.656806,-0.63424 -1.671885,-1.68869 -2.25592,-2.343 -0.583959,-0.65438 -1.34142,-1.53783 -1.683172,-1.9633 -0.341786,-0.42548 -0.921515,-1.18652 -1.288361,-1.69124 -0.366841,-0.50474 -0.979584,-1.41148 -1.361637,-2.01494 -0.382014,-0.6036 -0.882957,-1.43868 -1.113139,-1.856 -0.230376,-0.41727 -0.645518,-1.22878 -0.922567,-1.80347 -0.277083,-0.57464 -0.658788,-1.41935 -0.848274,-1.87701 -0.189347,-0.45777 -0.519373,-1.3823 -0.7333817,-2.05463 -0.214126,-0.67236 -0.4888027,-1.65211 -0.6105657,-2.17733 -0.6669737,-7.33201 -1.1412664,-4.97136 0.5421387,0.73296 0.1870847,0.62627 0.4911277,1.55112 0.6756547,2.05498 0.184414,0.50401 0.514951,1.32901 0.734392,1.83357 0.219556,0.50451 0.56809,1.24394 0.774731,1.64317 0.206564,0.39908 0.59024,1.1038 0.852583,1.56591 0.262346,0.46224 0.708007,1.2014 0.990328,1.64265 0.282473,0.4412 0.835714,1.24913 1.229596,1.79547 0.393802,0.54617 1.074935,1.44011 1.513466,1.98625 0.438722,0.54624 1.443523,1.67591 2.23307,2.51047 0.789555,0.83447 1.849202,1.9028 2.35476,2.37391 0.505602,0.47116 1.332814,1.21326 1.838454,1.64905 0.505639,0.43584 1.581116,1.3062 2.390098,1.93438 0.808868,0.62802 2.281447,1.69954 3.272476,2.38098 0.990871,0.68152 2.298045,1.54923 2.904777,1.92845 0.606648,0.3793 1.69877,1.03172 2.42668,1.44988 0.728181,0.41817 1.869877,1.05573 2.537155,1.41687 0.667393,0.36096 1.991097,1.04011 2.941587,1.50885 0.950533,0.46883 2.538898,1.21474 3.529927,1.65773 0.990838,0.44292 2.579327,1.124 3.529855,1.51347 0.950533,0.38946 2.340364,0.93896 3.088605,1.22087 0.748312,0.28216 2.038812,0.7513 2.868001,1.04265 0.829156,0.29125 2.202542,0.75445 3.051948,1.02936 0.849326,0.27502 2.389213,0.75087 3.422057,1.05767 1.032648,0.30683 3.001594,0.85196 4.375451,1.21159 1.373895,0.35948 3.32523,0.8427 4.33643,1.07365 1.011123,0.23089 2.774556,0.611 3.918609,0.84471 1.144143,0.23356 3.046914,0.59618 4.228479,0.80576 1.181727,0.20956 3.306654,0.5516 4.722165,0.76012 1.415673,0.20857 3.285432,0.46657 4.155084,0.57344 0.869535,0.10679 2.557287,0.29562 3.750498,0.41976 1.193085,0.12416 3.046248,0.29527 4.118121,0.38046 1.071828,0.0851 2.792655,0.20659 3.824154,0.26975 1.031284,0.0632 2.785165,0.15757 3.897459,0.20982 l 2.02232,0.095 5.40508,0.005 5.40516,0.005 2.09587,-0.0968 c 1.15267,-0.0533 2.9397,-0.14725 3.97112,-0.20874 1.03139,-0.0616 2.55357,-0.16427 3.38277,-0.22824 0.82918,-0.0638 2.07015,-0.16731 2.75775,-0.22971 0.68757,-0.0625 1.92862,-0.18368 2.75778,-0.26937 0.8291,-0.0857 2.56641,-0.29326 3.86076,-0.46111 1.29421,-0.16808 3.14749,-0.42565 4.11809,-0.57259 0.97084,-0.14702 2.45998,-0.3871 3.30931,-0.5335 0.84945,-0.14639 2.52056,-0.4575 3.71385,-0.69124 1.19315,-0.23369 3.06287,-0.62598 4.15485,-0.87165 1.09196,-0.24565 2.6309,-0.60524 3.41963,-0.79916 0.78867,-0.19372 2.08754,-0.52806 2.88636,-0.74264 l 1.45241,-0.39028 v -0.0922 c 0,-0.0506 -0.0992,-0.34221 -0.2206,-0.64792 -0.12129,-0.30551 -0.22069,-0.61817 -0.22069,-0.69452 0,-0.0762 -0.0395,-0.23484 -0.0877,-0.35234 -0.0482,-0.11745 -0.12539,-0.26528 -0.17126,-0.32828 -0.0457,-0.0631 -0.15588,-0.3168 -0.24441,-0.5639 l -0.16083,-0.44931 0.2345,-2.24894 0.23446,-2.24886 0.063,0.11703 c 0.0343,0.0643 0.43906,1.10655 0.89869,2.31617 0.45953,1.2096 0.95931,2.51344 1.11071,2.89759 l 0.27508,0.69831 0.24831,0.0418 c 0.13664,0.023 0.3511,0.11792 0.47669,0.21079 l 0.2285,0.16894 0.17464,0.38961 0.17464,0.38969 v 1.14592 1.14604 l 0.57836,1.56603 c 0.31804,0.86147 0.91597,2.47842 1.32845,3.59346 l 0.74995,2.02713 -0.0793,1.02866 c -0.0438,0.5658 -0.1123,1.42413 -0.15264,1.90739 -0.0405,0.48326 -0.0923,1.0418 -0.11549,1.24142 -0.0233,0.1995 -0.0711,0.36293 -0.1063,0.36293 -0.0353,0 -0.0939,-0.0601 -0.13025,-0.13379 z M 51.298038,181.24177 c -0.687648,-0.25079 -1.792524,-0.66508 -2.455383,-0.9207 l -1.205312,-0.46473 -1.056895,0.74576 -1.056861,0.7456 -0.05434,-0.0564 -0.05442,-0.0564 -0.02053,-4.67303 -0.02095,-4.6732 0.06901,-0.59863 0.069,-0.59873 0.230653,-0.48675 0.230695,-0.4867 0.303924,-0.27023 c 0.16703,-0.14856 0.444737,-0.34101 0.616815,-0.42762 0.17215,-0.0865 0.531819,-0.19279 0.799324,-0.23609 l 0.48628,-0.0785 0.566737,0.11905 0.566657,0.11908 0.625149,0.32069 0.625036,0.32049 0.628378,0.65549 0.628331,0.65537 0.31033,0.65432 0.310171,0.65432 0.108109,0.5299 0.108032,0.52979 0.0043,4.22103 0.0043,4.22092 -0.05508,-0.004 c -0.03028,-0.005 -0.617786,-0.20925 -1.305391,-0.4601 z m 110.219722,-6.49952 0.0347,-3.23544 0.11972,-0.6494 c 0.066,-0.35719 0.2036,-0.99312 0.30595,-1.4133 l 0.18612,-0.76398 0.20668,-0.26743 0.20675,-0.26738 0.33323,-0.14423 0.33309,-0.14414 0.28433,0.14414 0.28417,0.14423 0.16349,0.31063 c 0.09,0.17088 0.22166,0.5319 0.29252,0.8022 l 0.12906,0.49155 0.005,3.62885 0.004,3.62892 -1.21958,0.43047 c -0.67074,0.23678 -1.32744,0.45501 -1.45922,0.48511 l -0.23956,0.0546 z m -119.595937,2.66896 c -0.182013,-0.0801 -1.048559,-0.49067 -1.925502,-0.91229 l -1.594652,-0.76662 -0.867528,0.69249 -0.867622,0.69257 -0.05932,-0.0617 -0.05958,-0.0617 0.02095,-5.30289 0.02134,-5.3028 0.171422,-0.44182 c 0.0946,-0.24303 0.276573,-0.58326 0.404583,-0.75611 l 0.232858,-0.31444 0.404398,-0.23702 0.404513,-0.23705 0.524451,0.005 0.524533,0.005 0.54982,0.28236 0.549741,0.28224 0.522046,0.57089 0.522008,0.57099 0.331665,0.7098 0.33166,0.70999 0.113234,0.51111 0.113423,0.51114 -0.01858,4.50028 -0.01862,4.50022 -0.33096,-0.14567 z m 125.697937,-4.77756 0.0353,-3.11313 0.12158,-0.72582 c 0.0669,-0.39926 0.22169,-1.11787 0.34409,-1.5972 0.12249,-0.47922 0.27198,-0.97067 0.33243,-1.09196 0.0604,-0.12138 0.21583,-0.28784 0.34527,-0.36988 0.12941,-0.0819 0.32814,-0.1493 0.4413,-0.14942 0.1132,0 0.30318,0.052 0.42215,0.11588 l 0.21621,0.11624 0.16036,0.32305 c 0.0881,0.17778 0.20983,0.51224 0.27032,0.74335 l 0.10977,0.42023 0.03,3.63435 0.0295,3.63417 -0.097,0.0783 c -0.0533,0.0429 -0.68333,0.30699 -1.40003,0.58659 -0.71667,0.27973 -1.32417,0.50855 -1.35003,0.50855 -0.0253,0 -0.031,-1.40096 -0.011,-3.11328 z m -59.58634,-4.36568 v -5.56901 l 0.14787,-0.49734 0.14791,-0.49733 0.31951,-0.45091 0.31953,-0.45106 0.40064,-0.27619 c 0.2204,-0.15199 0.6047,-0.34773 0.85404,-0.43493 l 0.45328,-0.15861 h 0.61965 0.61972 l 0.46724,0.15199 c 0.25713,0.0836 0.63289,0.25166 0.8351,0.37347 0.20216,0.12183 0.52165,0.3627 0.70982,0.53546 0.1881,0.1727 0.46811,0.51123 0.6221,0.75221 0.15402,0.24103 0.36405,0.66227 0.46681,0.93601 l 0.1869,0.49781 0.0214,4.39279 c 0.0117,2.41605 0.0117,4.78823 0,5.27141 l -0.0214,0.87861 -0.14209,-1.04945 c -0.0783,-0.57717 -0.16095,-1.07901 -0.18391,-1.11528 l -0.0418,-0.066 -2.43803,-0.0505 -2.43801,-0.0503 -0.93082,1.22309 c -0.51192,0.67266 -0.9453,1.22302 -0.96322,1.22302 -0.0175,0 -0.0322,-2.50608 -0.0322,-5.56901 z m -9.780648,-0.0684 v -5.40814 l 0.11398,-0.45538 c 0.0629,-0.25054 0.201247,-0.60951 0.307527,-0.79804 0.10621,-0.18844 0.341397,-0.50723 0.522637,-0.70851 l 0.329437,-0.36576 0.537637,-0.27608 0.53768,-0.27618 0.68606,-0.0373 0.68605,-0.0373 0.39374,0.0877 c 0.21652,0.0483 0.61203,0.19553 0.87876,0.32704 l 0.48508,0.23926 0.55858,0.58039 0.55859,0.58019 0.22782,0.49878 c 0.12549,0.27429 0.26207,0.65242 0.30377,0.84037 l 0.0758,0.3417 0.004,4.00326 0.005,4.0034 -2.22699,-0.042 -2.22729,-0.0419 -1.321057,1.17234 c -0.726637,0.64478 -1.345951,1.17409 -1.376251,1.17634 l -0.0553,0.005 v -5.40869 z m 19.929068,-0.24768 v -5.57937 l 0.15276,-0.47507 c 0.0842,-0.26126 0.25056,-0.63423 0.36988,-0.82896 0.1193,-0.19465 0.39772,-0.53147 0.61862,-0.74851 l 0.40179,-0.39473 0.46058,-0.22395 c 0.25332,-0.12316 0.63865,-0.25896 0.85634,-0.30179 0.21775,-0.0429 0.56636,-0.078 0.77477,-0.078 0.2085,0 0.57626,0.0526 0.81729,0.11695 0.24108,0.0643 0.60563,0.20411 0.81012,0.31056 0.20451,0.10648 0.52364,0.32844 0.7092,0.49327 0.18568,0.16481 0.45215,0.48053 0.5922,0.70168 0.14013,0.22107 0.33396,0.60832 0.43068,0.86034 l 0.17583,0.45855 0.0214,5.42067 c 0.0114,2.98151 0.007,5.40519 -0.01,5.38603 -0.0172,-0.0185 -0.17073,-0.51607 -0.34137,-1.10425 -0.17069,-0.5883 -0.33652,-1.09875 -0.36872,-1.13433 l -0.0583,-0.0648 -2.26888,0.16362 c -1.24787,0.09 -2.30466,0.17604 -2.34839,0.19125 -0.0438,0.0156 -0.45158,0.5637 -0.90583,1.21896 -0.45441,0.65533 -0.84036,1.1915 -0.85791,1.1915 -0.0176,0 -0.0322,-2.51078 -0.0322,-5.57953 z m -85.636279,4.52732 c -0.687562,-0.41223 -1.584141,-0.96291 -1.99233,-1.22382 -0.408203,-0.26093 -0.757476,-0.47433 -0.776207,-0.47433 -0.01824,0 -0.291702,0.30954 -0.606457,0.68792 l -0.572319,0.68795 -0.06708,-0.0431 -0.06699,-0.0429 0.0048,-4.67491 0.0043,-4.67492 0.07681,-0.49648 c 0.04234,-0.27317 0.159582,-0.68567 0.26079,-0.91679 0.101203,-0.23111 0.289765,-0.53488 0.419057,-0.6751 0.129212,-0.14031 0.36025,-0.32202 0.51324,-0.40402 l 0.278173,-0.14896 0.474136,-0.009 0.474026,-0.009 0.470997,0.24081 0.470925,0.24085 0.469874,0.51743 0.469834,0.51748 0.305981,0.61106 c 0.168355,0.33613 0.381315,0.86807 0.473288,1.18205 l 0.16703,0.57092 0.02486,3.89615 c 0.014,2.14304 0.01505,4.23228 0.0048,4.64269 l -0.02172,0.74633 -1.250184,-0.74944 z m 141.600159,-1.98761 0.005,-2.65178 0.0753,-0.68761 c 0.0414,-0.37817 0.1605,-1.08265 0.26446,-1.56533 0.10396,-0.48286 0.24041,-1.01123 0.30328,-1.17438 l 0.1142,-0.2966 0.33371,-0.21987 0.3338,-0.21999 h 0.25166 0.25155 l 0.27789,0.28873 0.27785,0.28845 0.13401,0.41813 0.13402,0.41816 0.0243,3.40813 0.0243,3.4082 -0.64699,0.28969 c -0.35581,0.15931 -0.98621,0.43787 -1.4007,0.61879 l -0.75366,0.3291 0.005,-2.65182 z m -85.510391,-3.42264 0.02061,-5.87921 0.239724,-0.50579 0.239652,-0.50579 0.303066,-0.28438 c 0.166617,-0.15637 0.489006,-0.37453 0.716319,-0.48465 l 0.413235,-0.20029 0.735435,-0.005 0.735363,-0.005 0.495819,0.17801 0.495909,0.17789 0.533682,0.36216 0.533646,0.36215 0.466929,0.52949 0.466812,0.52939 0.317538,0.68764 c 0.174519,0.37813 0.35334,0.86973 0.397215,1.09235 l 0.07974,0.4049 v 3.74228 3.74241 l -0.349389,-0.0403 c -0.192024,-0.0221 -1.126989,-0.0932 -2.077335,-0.15772 -0.950643,-0.0646 -1.789965,-0.1315 -1.865295,-0.14849 l -0.137043,-0.031 -1.260243,1.03696 c -0.693153,0.57034 -1.319085,1.0901 -1.391076,1.155 l -0.130878,0.11803 0.02061,-5.87918 z m 39.329231,0.19781 v -5.53884 l 0.10159,-0.38197 c 0.0557,-0.21013 0.15259,-0.50456 0.21502,-0.65436 0.0623,-0.14978 0.2397,-0.44513 0.39386,-0.65634 0.1543,-0.21133 0.39643,-0.48729 0.53783,-0.61344 0.14173,-0.12603 0.40648,-0.31762 0.58846,-0.42565 0.18198,-0.10808 0.51068,-0.25098 0.73027,-0.3177 l 0.39949,-0.12107 h 0.63513 0.63512 l 0.39944,0.12168 c 0.21973,0.067 0.56516,0.21949 0.76775,0.33892 0.20265,0.11936 0.53964,0.39606 0.74895,0.61452 l 0.38062,0.39758 0.23446,0.45679 c 0.12893,0.25133 0.2796,0.63339 0.3349,0.84898 l 0.10039,0.39206 -0.005,5.08044 -0.005,5.08036 -0.51921,-1.0695 c -0.28556,-0.58819 -0.52378,-1.07272 -0.52935,-1.0764 -0.006,-0.004 -1.06699,0.07 -2.35877,0.16404 l -2.34872,0.17106 -0.0913,0.12972 c -0.0503,0.0714 -0.34114,0.63362 -0.64638,1.2493 -0.30527,0.61573 -0.58835,1.17099 -0.62912,1.23402 l -0.0739,0.11458 v -5.53878 z m 10.23809,-1.57875 0.0219,-5.87007 0.0896,-0.27053 c 0.0492,-0.14876 0.2077,-0.47422 0.352,-0.72337 l 0.26246,-0.4528 -0.23536,-0.63269 -0.2356,-0.63271 h -0.1414 c -0.0778,0 -0.57779,0.0706 -1.11095,0.1569 -0.53316,0.0862 -1.6975,0.25843 -2.58742,0.38284 -0.88973,0.1242 -2.46159,0.32809 -3.49301,0.45315 -1.03142,0.12502 -2.53708,0.29524 -3.34599,0.37817 -0.8089,0.083 -2.2981,0.2199 -3.30932,0.30416 -1.01112,0.0843 -2.6162,0.20473 -3.5667,0.26758 -0.95045,0.0628 -2.45612,0.15059 -3.34592,0.195 -0.8899,0.0446 -2.69348,0.11412 -4.00792,0.15481 -1.31452,0.0406 -3.74694,0.0739 -5.40517,0.0739 -1.6583,-8e-5 -4.10714,-0.0333 -5.44189,-0.0746 -1.33468,-0.0409 -3.154817,-0.1106 -4.044631,-0.15447 -0.889834,-0.0438 -2.395536,-0.13061 -3.345981,-0.19255 -0.95049,-0.0622 -2.737512,-0.19986 -3.971061,-0.30619 -1.233675,-0.10624 -3.02076,-0.27797 -3.971178,-0.38181 -0.950526,-0.10369 -2.671335,-0.31025 -3.824001,-0.45893 -1.152864,-0.14881 -2.989422,-0.40696 -4.0815,-0.5738 -1.091997,-0.16684 -2.874636,-0.45959 -3.961242,-0.65053 -1.086732,-0.19089 -2.724822,-0.49707 -3.640293,-0.68039 -0.915354,-0.18332 -2.39238,-0.49264 -3.28221,-0.68753 -0.889857,-0.19477 -2.461748,-0.5594 -3.49312,-0.81002 -1.031405,-0.25075 -2.702595,-0.68106 -3.713717,-0.95643 -1.011164,-0.27535 -2.467251,-0.68889 -3.235742,-0.91899 -0.768557,-0.23015 -2.026086,-0.6212 -2.794449,-0.86923 -0.768491,-0.24793 -2.32862,-0.7771 -3.466705,-1.17599 -1.138356,-0.39884 -2.809465,-1.01534 -3.713797,-1.37025 -0.904289,-0.35478 -2.14063,-0.85208 -2.747362,-1.10487 -0.606648,-0.2528 -1.599386,-0.68175 -2.206071,-0.95302 -0.606771,-0.27119 -1.632676,-0.74145 -2.279709,-1.04498 -0.647143,-0.30362 -2.053619,-1.00722 -3.125567,-1.56363 -1.071758,-0.55641 -2.362286,-1.24565 -2.867925,-1.53185 -0.505563,-0.28612 -1.43216,-0.829 -2.059133,-1.20632 -0.62686,-0.37732 -1.652803,-1.01441 -2.279705,-1.41582 -0.62694,-0.40134 -1.777398,-1.17304 -2.556704,-1.71472 -0.77927,-0.54179 -2.003666,-1.44309 -2.720951,-2.00292 -0.717237,-0.55975 -1.734297,-1.38449 -2.259987,-1.83261 -0.525851,-0.44822 -1.491119,-1.31256 -2.144977,-1.92072 -6.353599,-19.25283 -25.4041354,-24.27117 0.601137,-0.14 0.404632,0.37488 1.099642,0.99356 1.544226,1.37491 0.444737,0.38123 1.288285,1.07163 1.874801,1.5341 0.586516,0.46246 1.51307,1.16885 2.059172,1.56975 0.545901,0.40086 1.489067,1.06516 2.095795,1.47641 0.606729,0.41127 1.748418,1.15062 2.537117,1.64287 0.788622,0.49241 2.145482,1.29993 3.015091,1.79451 0.86958,0.49436 2.391813,1.31657 3.382718,1.82697 0.99099,0.51033 2.399453,1.20827 3.130082,1.55094 0.730586,0.34256 2.037717,0.92975 2.904811,1.30461 0.86698,0.37507 2.27144,0.9583 3.120799,1.29632 0.849325,0.33795 2.288858,0.88866 3.198929,1.22377 0.910075,0.33515 2.233769,0.80476 2.941548,1.04347 0.70786,0.2388 2.097734,0.68795 3.088686,0.99813 0.990914,0.31018 2.480019,0.75701 3.309247,0.99301 0.82908,0.23593 2.288348,0.63059 3.242767,0.87702 0.954405,0.24625 2.625513,0.65441 3.713755,0.90658 1.088082,0.25222 2.905128,0.64843 4.037544,0.88021 1.132542,0.23188 2.820213,0.56021 3.750543,0.72962 0.930276,0.1694 2.551806,0.44519 3.603474,0.61292 1.051578,0.16763 2.656476,0.40824 3.566547,0.53466 0.910107,0.1263 2.366127,0.31545 3.235698,0.4203 0.86958,0.10481 2.424978,0.27631 3.456423,0.38116 1.031328,0.10478 2.735559,0.25994 3.787191,0.34458 1.051578,0.0847 2.72277,0.20444 3.713796,0.26607 0.990909,0.0616 2.72827,0.15663 3.860764,0.21098 l 2.059137,0.099 h 6.39781 6.39789 l 1.87527,-0.098 c 1.03144,-0.054 2.7026,-0.14892 3.7138,-0.21122 1.01113,-0.0624 2.69891,-0.18313 3.75054,-0.26839 1.05156,-0.0854 2.7552,-0.24074 3.78595,-0.34536 1.03061,-0.10462 2.43697,-0.25858 3.12539,-0.34225 0.68828,-0.0836 1.78094,-0.22091 2.42811,-0.30505 0.64704,-0.0842 2.00391,-0.27577 3.01505,-0.42588 1.01117,-0.14989 1.86076,-0.29493 1.88799,-0.32227 0.0272,-0.0272 -0.0319,-0.25587 -0.13172,-0.50802 -0.0997,-0.25205 -0.19256,-0.54434 -0.20632,-0.64936 -0.0133,-0.10504 -0.0641,-0.29341 -0.11183,-0.41854 -0.0478,-0.12534 -0.11029,-0.24563 -0.13891,-0.26743 -0.0286,-0.0221 -0.0922,-0.13475 -0.14135,-0.2509 l -0.0894,-0.2111 0.32985,-2.13602 c 0.18144,-1.17481 0.3297,-2.17833 0.3297,-2.22989 v -0.0938 l 0.0639,0.0726 c 0.0347,0.04 0.63432,1.5165 1.33141,3.28136 0.69728,1.76467 1.29188,3.24307 1.3214,3.28504 0.03,0.042 0.12997,0.27588 0.22312,0.51984 l 0.16922,0.44346 0.11849,-0.0489 c 0.0653,-0.0264 0.28837,-0.0867 0.49587,-0.13255 l 0.37738,-0.0839 0.33618,0.13345 0.33629,0.13348 0.22093,0.26137 0.22088,0.26126 0.11344,0.39699 0.11349,0.39702 v 2.27605 2.27617 l 0.56303,1.41897 0.56297,1.41905 -0.19911,0.89393 c -0.10945,0.49172 -0.3552,1.54691 -0.54579,2.34487 l -0.34695,1.4509 -0.66055,0.13013 c -0.36333,0.0716 -1.45481,0.27058 -2.42555,0.44199 -0.9706,0.17153 -1.85675,0.33109 -1.96891,0.35444 l -0.20408,0.0426 0.0219,-5.86995 z m -60.451264,0.11641 0.02097,-5.68085 0.231975,-0.5087 0.232047,-0.50867 0.302094,-0.30466 c 0.166266,-0.16754 0.458856,-0.38143 0.650529,-0.47523 0.191511,-0.0938 0.563436,-0.205 0.826362,-0.2474 l 0.477864,-0.077 0.541908,0.0952 0.541989,0.0952 0.671382,0.34866 0.671634,0.34862 0.589653,0.61863 0.589896,0.61883 0.304704,0.60944 c 0.167571,0.33515 0.357183,0.82066 0.421344,1.07878 l 0.116685,0.46948 v 3.85364 3.85368 l -1.856925,-0.24888 c -1.021284,-0.1369 -2.022354,-0.27142 -2.224575,-0.299 l -0.367695,-0.0501 -1.02951,0.7797 c -0.566235,0.42879 -1.187739,0.89924 -1.380996,1.04545 l -0.351639,0.26587 z m 65.973004,4.69644 c 0.0272,-0.0279 0.0711,-0.0279 0.0981,0 0.0266,0.028 0.005,0.051 -0.049,0.051 -0.0539,0 -0.0761,-0.0232 -0.0491,-0.051 z m 0.41677,-0.0635 c 0,-0.0213 0.0166,-0.038 0.0366,-0.038 0.02,0 0.0367,0.0175 0.0367,0.038 0,0.0205 -0.0172,0.0384 -0.0367,0.0384 -0.02,0 -0.0366,-0.0175 -0.0366,-0.0384 z m 0.36766,-0.0764 c 0,-0.0213 0.0172,-0.038 0.0367,-0.038 0.02,0 0.0366,0.017 0.0366,0.038 0,0.0205 -0.0166,0.0384 -0.0366,0.0384 -0.02,0 -0.0367,-0.0175 -0.0367,-0.0384 z m 0.36767,-0.0764 c 0,-0.0213 0.0166,-0.0381 0.0367,-0.0381 0.02,0 0.0366,0.0171 0.0366,0.0381 0,0.021 -0.0166,0.0384 -0.0366,0.0384 -0.02,0 -0.0367,-0.0175 -0.0367,-0.0384 z m 35.81495,-3.04551 0.005,-3.06622 0.10897,-0.79645 c 0.0599,-0.43807 0.20521,-1.17711 0.32308,-1.64252 0.11787,-0.46541 0.24637,-0.93211 0.28575,-1.03715 0.0391,-0.10513 0.13735,-0.25261 0.21794,-0.3279 0.0805,-0.0754 0.25979,-0.15614 0.39862,-0.1796 l 0.25212,-0.0424 0.24622,0.21505 0.24613,0.21525 0.12921,0.30807 c 0.071,0.16941 0.16717,0.56592 0.21335,0.88106 l 0.0841,0.57306 -0.0219,3.31414 -0.0219,3.31409 -1.23176,0.66895 -1.23178,0.66887 z m -35.44724,2.96914 c 0,-0.021 0.0166,-0.038 0.0366,-0.038 0.02,0 0.0367,0.0171 0.0367,0.038 0,0.021 -0.0166,0.0384 -0.0367,0.0384 -0.02,0 -0.0366,-0.0175 -0.0366,-0.0384 z m 0.3678,-0.0763 c 0,-0.021 0.0166,-0.0384 0.0367,-0.0384 0.02,0 0.0367,0.0175 0.0367,0.0384 0,0.0205 -0.0166,0.038 -0.0367,0.038 -0.0205,0 -0.0367,-0.0175 -0.0367,-0.038 z m 0.31867,-0.0893 c 0.0262,-0.0279 0.0709,-0.0279 0.098,0 0.0272,0.028 0.004,0.0509 -0.049,0.0509 -0.054,0 -0.076,-0.0229 -0.049,-0.0509 z m -79.079164,-6.23924 v -5.45888 l 0.148837,-0.50044 0.148766,-0.50044 0.370411,-0.421 0.370458,-0.421 0.4104,-0.20866 0.41049,-0.20873 0.599274,-0.0326 0.599247,-0.0326 0.423126,0.0912 0.423099,0.0913 0.600903,0.31234 0.600795,0.31251 0.598194,0.61732 0.598005,0.61735 0.268857,0.5042 c 0.147753,0.27732 0.342252,0.70705 0.43236,0.955 l 0.163467,0.45066 0.02403,4.17433 0.02322,4.17428 -0.316017,-0.0647 c -0.17379,-0.0356 -1.182276,-0.23834 -2.241072,-0.45056 l -1.924992,-0.38585 -1.273932,0.86589 c -0.700641,0.47631 -1.315285,0.89119 -1.365868,0.92197 l -0.09193,0.0561 z M 25.19167,167.4912 c -0.44497,-0.34515 -0.896802,-0.71212 -1.004292,-0.81534 l -0.195272,-0.18782 -0.687224,0.5384 -0.687062,0.53839 -0.05862,-0.0608 -0.05865,-0.0608 0.02596,-5.07311 0.02562,-5.07299 0.113577,-0.38201 c 0.06238,-0.21006 0.183828,-0.52484 0.269676,-0.69951 0.086,-0.17452 0.242793,-0.38804 0.348339,-0.47434 0.105513,-0.0862 0.258271,-0.17863 0.339381,-0.20548 0.08096,-0.0264 0.264785,-0.0256 0.408356,0.005 l 0.260941,0.0509 0.385887,0.40086 0.385858,0.40091 0.29807,0.64412 c 0.164006,0.35436 0.372194,0.91915 0.462853,1.25543 l 0.164826,0.61111 0.02714,3.97269 c 0.01509,2.18493 0.01705,4.25897 0.0054,4.60874 l -0.0221,0.63613 -0.80891,-0.6276 z m 161.01384,-3.37573 9e-5,-2.46388 0.0746,-0.84032 c 0.041,-0.46216 0.12544,-1.13259 0.1876,-1.48977 0.0621,-0.35719 0.1995,-0.98792 0.30541,-1.40174 l 0.19246,-0.75239 0.1735,-0.0822 0.17368,-0.0821 0.20013,0.15318 0.20007,0.15326 0.14636,0.4139 0.14625,0.41397 0.0229,3.71571 0.0233,3.71577 -0.84701,0.50506 c -0.46592,0.27801 -0.88135,0.50536 -0.92321,0.50536 h -0.076 z M 55.967722,160.98186 v -5.30026 l 0.115323,-0.41491 c 0.06342,-0.2282 0.228205,-0.58865 0.366531,-0.80075 0.138218,-0.21223 0.343768,-0.45701 0.456844,-0.54378 0.113114,-0.0869 0.338837,-0.22863 0.501643,-0.31479 0.162725,-0.0864 0.504087,-0.19613 0.758633,-0.24399 l 0.462853,-0.0872 0.50595,0.0816 c 0.278239,0.0447 0.685199,0.15117 0.904369,0.2364 0.219128,0.0851 0.606186,0.29449 0.860342,0.46502 0.254122,0.17052 0.631126,0.49012 0.837799,0.71021 0.206802,0.21991 0.50483,0.6015 0.662283,0.84809 0.15753,0.2464 0.387867,0.70786 0.511921,1.02533 l 0.225614,0.57724 0.02134,4.33053 0.02095,4.3305 -1.492015,-0.4051 c -0.820545,-0.22289 -1.825542,-0.49962 -2.23315,-0.61517 l -0.741098,-0.21002 -1.318002,0.78296 c -0.724924,0.43053 -1.342821,0.79765 -1.373153,0.81557 l -0.05508,0.033 z m 90.747328,0.70301 v -3.82443 l 0.0796,-0.54935 0.0795,-0.54948 0.16688,-0.26734 c 0.0918,-0.14705 0.36952,-0.42069 0.61735,-0.60805 0.2478,-0.18744 0.59203,-0.40032 0.76482,-0.47324 l 0.31418,-0.13259 0.35233,-0.004 0.35223,-0.005 0.285,0.15106 c 0.15673,0.0832 0.35799,0.25757 0.44714,0.38759 0.0892,0.12999 0.20779,0.39412 0.26356,0.58675 l 0.10149,0.35052 v 3.95139 3.95162 l -0.33752,0.0883 c -0.18555,0.0485 -0.99883,0.2415 -1.80718,0.42917 -0.80848,0.18748 -1.51705,0.34101 -1.57458,0.34101 h -0.10472 z m -126.119592,1.87918 c -0.262885,-0.25043 -0.72791,-0.70687 -1.033348,-1.01438 l -0.555212,-0.55917 -0.632174,0.3078 c -0.347763,0.16922 -0.667165,0.30786 -0.709994,0.30786 -0.04277,0 -0.09786,-0.11188 -0.122463,-0.24842 -0.02481,-0.13647 -0.03257,-2.32811 -0.01781,-4.87027 l 0.02758,-4.62209 0.128397,-0.45838 c 0.07052,-0.25211 0.211993,-0.60674 0.314206,-0.78789 l 0.185885,-0.32944 0.233134,-0.15203 0.233291,-0.15209 0.280182,0.0356 0.280231,0.0354 0.234448,0.16738 c 0.129102,0.0921 0.33988,0.31014 0.468516,0.48465 0.128668,0.17456 0.332289,0.52334 0.452494,0.77524 0.120249,0.25176 0.304038,0.76384 0.408432,1.13785 l 0.189767,0.6802 0.07844,0.80957 0.07846,0.80964 -0.02172,4.04915 -0.02248,4.04906 z m 169.971602,-2.96343 0.0424,-2.84588 0.0796,-0.61107 c 0.0438,-0.33617 0.14844,-0.97226 0.23293,-1.41335 0.0842,-0.44129 0.19617,-0.88812 0.24856,-0.9932 0.0525,-0.10509 0.17774,-0.27087 0.27856,-0.36875 l 0.18298,-0.1777 0.20763,0.0252 0.20751,0.0248 0.15663,0.24216 c 0.0861,0.13318 0.20298,0.45972 0.25965,0.72578 l 0.10331,0.48369 v 3.20234 3.20242 l -0.94955,0.67477 c -0.52221,0.37114 -0.98175,0.6748 -1.02099,0.6748 h -0.0714 z m -36.42461,-1.49599 v -3.73072 l 0.0868,-0.44873 0.0868,-0.44851 0.46292,-0.47402 0.46296,-0.4739 0.45481,-0.23613 0.45483,-0.23616 h 0.43434 0.43438 l 0.1605,0.0858 c 0.0884,0.0472 0.2516,0.17381 0.36271,0.28146 l 0.20198,0.19574 0.14735,0.40902 0.14726,0.40893 v 3.65522 3.65542 l -0.12863,0.0384 c -0.0707,0.0213 -0.91388,0.26579 -1.87353,0.54369 -0.95959,0.27774 -1.77865,0.50509 -1.82013,0.50509 h -0.0753 z m -101.925193,3.44811 c -0.181999,-0.0647 -1.290333,-0.47514 -2.46306,-0.91212 l -2.132176,-0.79441 -1.079473,0.76543 c -0.59365,0.42084 -1.100223,0.76534 -1.125674,0.76534 -0.02519,0 -0.03487,-2.32912 -0.02134,-5.17587 l 0.02486,-5.17597 0.124359,-0.38547 c 0.06843,-0.21203 0.229995,-0.55106 0.359087,-0.75356 l 0.234763,-0.36804 0.33678,-0.25424 c 0.185309,-0.13972 0.518441,-0.31343 0.740212,-0.38604 l 0.403345,-0.13182 0.515955,0.005 0.515922,0.004 0.441245,0.13337 c 0.242712,0.0732 0.671232,0.25845 0.952391,0.41129 l 0.511187,0.27814 0.592022,0.6127 0.591993,0.61277 0.244149,0.43279 c 0.134217,0.23814 0.332671,0.68498 0.441084,0.99324 l 0.197106,0.56026 0.0221,4.45028 0.02248,4.45013 -0.05892,-0.007 c -0.03258,-0.005 -0.207921,-0.059 -0.390039,-0.12386 z m 109.300543,-5.1607 0.0347,-3.22786 0.12135,-0.64932 c 0.0669,-0.35718 0.2076,-0.99312 0.31299,-1.41339 0.10535,-0.42014 0.25366,-0.85603 0.32971,-0.96868 0.076,-0.11249 0.24898,-0.27584 0.38452,-0.36286 l 0.24641,-0.15823 h 0.30957 0.30942 l 0.20312,0.21111 0.20316,0.21102 0.16108,0.44707 0.16106,0.44722 0.0735,0.7743 0.0737,0.77426 -0.0205,3.08753 -0.0205,3.08747 -1.39584,0.48416 c -0.76762,0.26618 -1.42423,0.48403 -1.45908,0.48403 h -0.0633 z m 33.38466,-0.37558 0.0324,-3.2341 0.15916,-1.03145 c 0.0876,-0.56724 0.20055,-1.22048 0.25117,-1.45155 l 0.0919,-0.42018 0.15935,-0.0238 0.1593,-0.024 0.12041,0.1907 c 0.0662,0.10481 0.1663,0.45936 0.22264,0.78776 l 0.10239,0.59703 0.005,3.3769 0.005,3.3769 -0.53321,0.46821 c -0.29318,0.25749 -0.59403,0.50273 -0.66856,0.54489 l -0.13549,0.0769 z m -179.341197,1.00583 c -0.402803,-0.52528 -0.738888,-0.96605 -0.746808,-0.9796 -0.0089,-0.0135 -0.274244,0.0608 -0.591522,0.16494 l -0.576933,0.18961 -0.04783,-0.16489 c -0.02596,-0.0908 -0.0505,-2.07306 -0.05384,-4.40514 l -0.0058,-4.24003 0.06982,-0.68769 0.06994,-0.68753 0.150971,-0.45583 0.151014,-0.45594 0.196049,-0.21258 0.196043,-0.21258 h 0.237987 0.238025 l 0.22809,0.1994 0.228048,0.19922 0.28965,0.62197 0.289612,0.62194 0.199154,0.80215 0.199034,0.80216 0.02753,4.20195 c 0.01553,2.311 0.01752,4.52847 0.0074,4.92763 l -0.02172,0.72582 z m 25.51484,-0.0248 c -0.647104,-0.30661 -1.514161,-0.7231 -1.926588,-0.92544 l -0.749946,-0.36804 -0.831242,0.66983 c -0.457038,0.36841 -0.873695,0.7046 -0.925788,0.74723 l -0.09476,0.0775 0.02134,-5.41695 0.02134,-5.41695 0.171526,-0.44171 c 0.09454,-0.24303 0.276468,-0.58325 0.404517,-0.75615 l 0.232862,-0.31444 0.402451,-0.23496 0.402422,-0.23484 h 0.524756 0.524765 l 0.551574,0.2833 0.551526,0.28308 0.522046,0.57101 0.522047,0.57104 0.331622,0.70987 0.331584,0.70983 0.113343,0.51108 0.113433,0.51118 -0.01858,4.51103 -0.01905,4.51107 z m 126.524267,-2.20996 v -2.61659 l 0.0775,-0.87863 c 0.0428,-0.48317 0.14297,-1.22225 0.22302,-1.6425 0.08,-0.42027 0.24389,-1.09701 0.36419,-1.50424 l 0.21879,-0.74021 0.22331,-0.16525 c 0.12292,-0.0908 0.34886,-0.1827 0.50226,-0.20408 l 0.27894,-0.0389 0.26546,0.24228 0.26551,0.24221 0.14792,0.41038 c 0.0813,0.22568 0.18217,0.69535 0.22422,1.04385 l 0.0764,0.63353 v 3.33505 3.33508 l -0.0919,0.0741 c -0.0506,0.0408 -0.66409,0.30284 -1.36341,0.58238 -0.69928,0.27956 -1.30317,0.50823 -1.34203,0.50823 h -0.0707 v -2.61668 z m 30.81343,-1.48968 0.005,-2.7313 0.0773,-0.91674 c 0.0424,-0.50426 0.14116,-1.3056 0.21932,-1.78089 0.0781,-0.47527 0.22145,-1.14565 0.31851,-1.48977 0.0971,-0.34411 0.24013,-0.7918 0.31808,-0.99507 0.0778,-0.2031 0.23318,-0.48876 0.34529,-0.63461 l 0.20388,-0.26537 0.15887,0.0237 0.15888,0.0236 0.12855,0.27297 0.12854,0.27282 0.0763,0.60572 0.0765,0.6056 -0.021,4.08313 -0.0214,4.08286 -0.24785,0.15039 -0.24783,0.1504 -0.0661,-0.12267 -0.0661,-0.12289 -0.71442,0.75973 c -0.39286,0.41788 -0.73972,0.75971 -0.77071,0.75971 h -0.0564 l 0.005,-2.7311 z m -90.37883,-3.7657 -0.005,-5.54186 0.1142,-0.45533 c 0.0627,-0.25055 0.20109,-0.60963 0.30734,-0.79804 0.10637,-0.18845 0.34151,-0.50734 0.5227,-0.70851 l 0.32938,-0.36576 0.55149,-0.28326 0.55153,-0.28313 0.75704,-0.0291 0.75704,-0.0291 0.50281,0.1587 0.50294,0.15865 0.4526,0.30393 c 0.24901,0.16711 0.58414,0.4447 0.74497,0.61681 0.16076,0.17212 0.39696,0.48233 0.52493,0.68947 0.12798,0.20726 0.30423,0.5582 0.39187,0.78012 l 0.15922,0.4035 0.0105,5.27146 0.0104,5.27144 -0.14294,-1.02862 c -0.0787,-0.56577 -0.14976,-1.03401 -0.158,-1.04061 -0.009,-0.007 -1.1235,-0.0348 -2.47843,-0.0636 l -2.46345,-0.0516 -0.84577,1.11725 c -0.46505,0.61457 -0.90285,1.19197 -0.97275,1.28336 l -0.12704,0.1658 z m 10.16309,-0.48307 0.0205,-5.81672 0.26458,-0.57294 0.26475,-0.57298 0.3419,-0.39308 c 0.18795,-0.21606 0.50173,-0.49954 0.69728,-0.62991 l 0.35528,-0.23694 -0.57488,-1.76451 -0.57483,-1.7646 0.66731,-2.30395 c 0.36705,-1.26718 0.67628,-2.31325 0.68694,-2.32458 0.01,-0.0109 0.56922,1.63879 1.24097,3.66701 0.67171,2.0283 1.83835,5.54427 2.59249,7.81326 0.75414,2.26895 1.50443,4.53798 1.66735,5.04231 l 0.29618,0.91671 -0.70375,2.06278 c -0.38696,1.13443 -0.72466,2.11988 -0.75062,2.18974 l -0.0472,0.12704 0.13402,0.0361 0.13421,0.0356 -0.15936,0.009 c -0.0877,0.005 -0.1712,-0.028 -0.18559,-0.0728 l -0.0257,-0.0817 -1.06461,0.0817 c -0.58562,0.045 -1.31291,0.0959 -1.61618,0.11311 -0.30337,0.0175 -1.04794,0.068 -1.65468,0.11301 -0.60675,0.0449 -1.31088,0.0957 -1.56482,0.11287 l -0.46187,0.031 z m -19.945288,0.35389 v -5.41268 l 0.11257,-0.44962 c 0.0621,-0.24734 0.202727,-0.62209 0.312657,-0.83288 0.10994,-0.21071 0.356017,-0.5459 0.546907,-0.74471 l 0.347177,-0.36149 0.461727,-0.23562 0.4618,-0.23554 0.5884,-0.0878 0.58821,-0.0879 0.56957,0.12162 0.56945,0.12149 0.49163,0.25144 0.49179,0.25156 0.48334,0.49842 0.48345,0.49839 0.23651,0.46459 c 0.12995,0.25557 0.28701,0.66678 0.34896,0.91372 l 0.11264,0.44905 v 3.99492 3.99483 l -0.93769,-0.009 c -0.51564,-0.005 -1.51202,-0.0303 -2.21418,-0.0572 l -1.27668,-0.0489 -1.312997,1.15891 c -0.722157,0.63738 -1.347271,1.18087 -1.389121,1.2078 l -0.0761,0.0489 z m -4.265278,5.21268 c 0,-0.021 0.01629,-0.0384 0.0369,-0.0384 0.02016,0 0.03681,0.0171 0.03681,0.0384 0,0.021 -0.01629,0.0384 -0.03681,0.0384 -0.02016,0 -0.0369,-0.0175 -0.0369,-0.0384 z m 80.102166,-3.3425 0.0291,-3.38054 0.15892,-0.84036 c 0.0874,-0.46219 0.22793,-1.09817 0.31237,-1.4133 l 0.1537,-0.57302 0.16029,-0.18228 c 0.0884,-0.10024 0.302,-0.24842 0.47502,-0.32927 l 0.31456,-0.14689 0.1635,0.0516 c 0.0899,0.0283 0.24108,0.12491 0.3359,0.21455 0.0951,0.0898 0.23121,0.28344 0.30261,0.43049 0.0715,0.14714 0.17588,0.4565 0.23193,0.68759 l 0.10183,0.42021 v 3.5885 3.58855 l -1.28688,0.62771 c -0.70786,0.34524 -1.33074,0.62988 -1.38437,0.63253 l -0.0972,0.005 z m -48.56759,3.1757 c 0.053,-0.0221 0.11639,-0.0191 0.14082,0.007 0.0243,0.0252 -0.0185,0.0434 -0.0965,0.0401 l -0.14093,-0.007 z m 0.80886,-0.0764 c 0.0531,-0.0221 0.11649,-0.0194 0.14097,0.007 0.0243,0.0252 -0.0191,0.0435 -0.0965,0.0401 l -0.14102,-0.006 z m 0.77367,-0.0751 c 0.0262,-0.0279 0.0711,-0.0279 0.098,0 0.0266,0.028 0.005,0.0508 -0.049,0.0508 -0.0539,0 -0.076,-0.0229 -0.049,-0.0508 z m -38.468929,-6.08 0.0198,-5.82534 0.21177,-0.47632 0.211761,-0.47627 0.360594,-0.35044 c 0.198297,-0.19271 0.51669,-0.42277 0.707508,-0.51121 l 0.346905,-0.16091 0.615609,-0.0346 0.615762,-0.0348 0.413793,0.0961 c 0.227619,0.0528 0.57933,0.17355 0.781551,0.26816 0.202257,0.0947 0.512901,0.27526 0.690129,0.40129 0.177237,0.12599 0.516042,0.42783 0.752661,0.67062 0.236664,0.24278 0.565767,0.65766 0.731475,0.92175 0.165636,0.26424 0.389466,0.73148 0.497457,1.0385 l 0.196353,0.55816 0.02052,3.91548 0.02133,3.91535 h -0.278406 c -0.153027,0 -0.94005,-0.0505 -1.749078,-0.11214 -0.808866,-0.0615 -1.685772,-0.13181 -1.948698,-0.15601 l -0.478017,-0.0442 -1.343556,1.11112 c -0.7389,0.6112 -1.360125,1.11117 -1.380573,1.11117 -0.02052,0 -0.0279,-2.62137 -0.01701,-5.82526 z m -55.759183,4.44652 c -0.505635,-0.2997 -1.412371,-0.85659 -2.01499,-1.23731 l -1.095727,-0.69234 -0.337981,0.41278 c -0.185923,0.22688 -0.477984,0.56738 -0.649128,0.75649 l -0.311134,0.34384 -0.0048,-4.77492 -0.0048,-4.77485 0.07688,-0.49653 c 0.04219,-0.27316 0.159625,-0.68569 0.260871,-0.91681 0.101089,-0.23111 0.28965,-0.53489 0.418981,-0.67516 0.129207,-0.1403 0.36013,-0.32203 0.513121,-0.40397 l 0.278363,-0.14895 0.473983,-0.009 0.474102,-0.009 0.474607,0.24272 0.474727,0.24279 0.474645,0.53266 0.474878,0.53277 0.297328,0.59385 c 0.163701,0.32673 0.372747,0.85091 0.464638,1.16485 l 0.167112,0.57099 0.02444,3.89619 c 0.01357,2.14293 0.01552,4.23291 0.0048,4.64452 l -0.02172,0.74819 -0.919225,-0.54508 z m 44.874898,-5.70707 0.02097,-5.63433 0.167922,-0.43159 0.167931,-0.43136 0.295596,-0.34876 0.295542,-0.34877 0.481077,-0.24617 0.481122,-0.24612 0.599751,-0.0318 0.599625,-0.0318 0.478098,0.12894 c 0.262881,0.0708 0.709605,0.25498 0.992664,0.40882 l 0.514827,0.28003 0.526509,0.51882 c 0.289575,0.28535 0.660222,0.73238 0.823923,0.99313 0.163341,0.26106 0.389763,0.71518 0.503037,1.00934 l 0.205659,0.53469 0.02169,4.03006 0.02169,4.02994 h -0.09708 c -0.05337,0 -0.87318,-0.10391 -1.821888,-0.23087 -0.948555,-0.12709 -1.904364,-0.26018 -2.123802,-0.29594 l -0.399042,-0.0651 -1.340577,1.02167 c -0.737217,0.56192 -1.36179,1.02183 -1.387818,1.02183 -0.02592,0 -0.03798,-2.5356 -0.02673,-5.63438 z m -66.210335,3.68406 c -0.389301,-0.79719 -0.763091,-1.60485 -0.83078,-1.79461 l -0.123082,-0.34513 -0.492881,-0.56657 -0.4929187,-0.56665 -0.02057,-3.51291 -0.02057,-3.51279 0.149581,-0.61433 0.1495,-0.61444 0.1837547,-0.28837 0.183633,-0.2883 0.194767,-0.0508 0.194773,-0.0508 0.243177,0.136 c 0.133832,0.0749 0.325765,0.26033 0.426702,0.41228 0.100898,0.15193 0.266718,0.47219 0.368478,0.71204 0.101632,0.23961 0.250199,0.7037 0.330184,1.03125 0.07995,0.32762 0.181385,0.88789 0.225453,1.24504 l 0.08025,0.64931 -0.02095,4.73459 -0.02095,4.7345 z m 169.148959,-2.51787 v -3.2428 l 0.11568,-0.86127 c 0.0635,-0.47372 0.22912,-1.32584 0.36795,-1.89346 l 0.25237,-1.03219 0.2215,-0.21016 0.22151,-0.21002 h 0.18749 c 0.10312,0 0.25842,0.0393 0.3451,0.0876 0.0867,0.0481 0.21659,0.15997 0.28889,0.24826 0.0722,0.0885 0.20593,0.40137 0.29713,0.69556 l 0.16597,0.53481 v 3.84937 3.84941 l -0.73532,0.43221 c -0.40449,0.2376 -0.95885,0.55882 -1.23178,0.71375 l -0.49649,0.28178 z m 20.97886,0.13251 0.0366,-3.1132 0.12245,-0.80219 c 0.0673,-0.44117 0.20278,-1.13693 0.30133,-1.54605 0.0984,-0.40901 0.26164,-0.95515 0.36275,-1.21366 0.10102,-0.2583 0.26536,-0.581 0.36514,-0.71688 0.0999,-0.13597 0.25175,-0.26626 0.33747,-0.28951 l 0.15603,-0.0424 0.13868,0.14407 c 0.0763,0.0792 0.19797,0.34318 0.27027,0.58641 l 0.13168,0.44232 v 3.8739 3.87388 l -0.14711,0.11435 -0.14707,0.11437 -0.0892,-0.12193 c -0.049,-0.067 -0.10511,-0.16002 -0.12444,-0.20656 l -0.0347,-0.0847 -0.0853,0.14073 c -0.0472,0.0773 -0.41334,0.55001 -0.81429,1.05046 -0.4011,0.50044 -0.7489,0.9098 -0.77319,0.9098 -0.0243,0 -0.0272,-1.40089 -0.009,-3.11323 z M 66.851506,145.9638 v -5.48554 l 0.108651,-0.38007 c 0.05986,-0.20916 0.214284,-0.54591 0.343417,-0.74832 l 0.23472,-0.36807 0.336825,-0.25693 c 0.185265,-0.1412 0.502299,-0.31629 0.704601,-0.38929 l 0.367659,-0.13245 h 0.588258 0.588375 l 0.514836,0.16662 c 0.283059,0.0916 0.72423,0.29613 0.980289,0.45432 0.256131,0.15803 0.657081,0.48151 0.890982,0.71852 0.234027,0.23713 0.531054,0.59059 0.660177,0.78562 0.129105,0.19497 0.332055,0.55829 0.450873,0.80709 0.118854,0.24885 0.265401,0.66946 0.325494,0.93479 l 0.109512,0.48212 0.0045,3.9583 0.0045,3.95818 -0.324567,-0.0504 c -0.178434,-0.028 -1.18917,-0.22801 -2.245869,-0.44478 -1.05678,-0.21675 -1.944819,-0.37138 -1.973565,-0.34353 -0.02871,0.028 -0.639504,0.44862 -1.357533,0.93521 l -1.305227,0.88463 v -5.48541 z m -4.927021,4.30392 c 0,-0.021 0.01671,-0.0384 0.03681,-0.0384 0.01981,0 0.03686,0.0175 0.03686,0.0384 0,0.021 -0.01667,0.0384 -0.03686,0.0384 -0.0202,0 -0.03681,-0.0175 -0.03681,-0.0384 z m -36.950156,-1.97395 -1.026295,-0.79948 -0.701883,0.56351 -0.701878,0.56352 -0.01981,-4.83016 -0.0202,-4.83023 0.07452,-0.49669 c 0.04096,-0.27308 0.10749,-0.61805 0.147828,-0.76662 0.04029,-0.14846 0.172464,-0.43232 0.293608,-0.63093 l 0.220256,-0.36076 0.25047,-0.12417 0.250474,-0.12406 0.275529,0.0537 0.275573,0.0536 0.385934,0.40087 0.385767,0.40091 0.298114,0.64427 c 0.164044,0.35428 0.372313,0.91911 0.462967,1.25531 l 0.164783,0.61115 0.02714,3.97265 c 0.01553,2.18501 0.01705,4.25857 0.0054,4.60785 l -0.0221,0.63524 z m 161.109641,0.67247 c -0.0233,-0.0639 -0.0257,-1.56777 -0.006,-3.34182 l 0.0367,-3.22567 0.12134,-0.9549 c 0.0668,-0.52531 0.20637,-1.35039 0.31009,-1.83354 0.10359,-0.48324 0.23403,-0.99257 0.2898,-1.13187 l 0.10125,-0.2533 0.24065,0.024 0.24084,0.024 0.1625,0.34373 c 0.0893,0.18914 0.19664,0.56731 0.23845,0.84048 l 0.076,0.49659 0.005,3.94166 0.004,3.94182 -0.12873,0.11629 c -0.0707,0.0639 -0.46906,0.344 -0.88492,0.62244 l -0.75624,0.50621 -0.0428,-0.11621 z m -130.100113,-6.00618 0.02057,-5.45415 0.239806,-0.5058 0.239692,-0.50574 0.302957,-0.28438 c 0.166568,-0.15641 0.488999,-0.37457 0.716351,-0.48477 l 0.413118,-0.20028 0.735521,-0.004 0.735278,-0.005 0.502072,0.18003 0.50191,0.18011 0.542606,0.37703 0.542496,0.37687 0.389497,0.44834 c 0.214241,0.24664 0.501253,0.6409 0.637842,0.87609 0.136655,0.23527 0.335227,0.65952 0.44124,0.94277 l 0.192915,0.51507 0.02128,4.29733 0.02095,4.29745 h -0.09965 c -0.05493,0 -1.017674,-0.25696 -2.139624,-0.57108 -1.121712,-0.31401 -2.069802,-0.5904 -2.106807,-0.61414 -0.03686,-0.0237 -0.649395,0.30412 -1.361365,0.72814 -0.711889,0.4243 -1.342787,0.7907 -1.40198,0.81426 l -0.107756,0.043 0.02057,-5.45419 z m 148.975993,0.23798 -0.005,-3.32615 0.10521,-0.87571 c 0.0579,-0.48166 0.16025,-1.15077 0.22745,-1.48686 0.0671,-0.33615 0.19783,-0.85905 0.29046,-1.1619 0.0926,-0.30287 0.25503,-0.70451 0.36119,-0.89261 l 0.19289,-0.34186 0.15206,-0.0501 0.15212,-0.0503 0.12954,0.12188 c 0.0713,0.067 0.17378,0.25063 0.22793,0.40796 l 0.0983,0.28627 0.0305,2.94129 0.03,2.94128 -0.12492,0.57301 -0.12482,0.57291 -0.17536,0.28491 c -0.0964,0.15664 -0.17545,0.30319 -0.17545,0.32569 0,0.0225 -0.18035,0.46154 -0.40095,0.97567 -0.22046,0.51425 -0.53407,1.1927 -0.69671,1.50784 l -0.2958,0.57309 -0.005,-3.32627 z m -14.39227,-0.58918 0.0428,-3.266 0.0779,-0.64936 c 0.0428,-0.35718 0.14473,-1.06198 0.2264,-1.56619 l 0.14845,-0.91686 0.16321,-0.33065 0.16335,-0.33068 0.19732,-0.12321 0.19726,-0.12312 0.18174,0.0859 0.18164,0.086 0.14887,0.41328 0.14893,0.41327 0.0787,0.73459 0.0788,0.73474 v 3.24407 3.24405 l -0.3861,0.33681 c -0.21241,0.18538 -0.65713,0.54901 -0.98836,0.80814 -0.33133,0.25905 -0.62537,0.47111 -0.65332,0.47111 -0.0281,0 -0.0314,-1.46971 -0.009,-3.26599 z m -170.570777,1.35519 -1.003059,-0.99053 -0.696797,0.34287 c -0.383328,0.18857 -0.719804,0.34296 -0.747808,0.34296 -0.02829,0 -0.03915,-2.20895 -0.02444,-4.90864 l 0.02639,-4.90852 0.127506,-0.45838 c 0.535077,-1.67706 1.180677,-1.74384 2.316785,-0.63967 l 0.293956,0.58722 0.293798,0.58725 0.187866,0.69478 c 0.103337,0.38214 0.221571,1.00108 0.26289,1.37518 l 0.07502,0.68032 0.0048,4.1446 0.0048,4.14461 -0.05513,-0.005 c -0.03029,-0.005 -0.506567,-0.44752 -1.058293,-0.9923 z m 32.404292,0.81845 c -0.121377,-0.0405 -1.014851,-0.36626 -1.985624,-0.72407 -0.970665,-0.35765 -1.987877,-0.74471 -2.260578,-0.85985 l -0.495671,-0.20954 -1.122141,0.79499 -1.122264,0.79493 -0.02095,-4.79544 -0.02095,-4.79528 0.07495,-0.59417 0.07475,-0.59411 0.198644,-0.42124 0.198534,-0.42131 c 1.393875,-1.49584 3.285316,-1.24157 4.790013,-0.0409 0.242678,0.19601 0.600019,0.5532 0.794242,0.7937 0.193992,0.24066 0.484227,0.71256 0.644819,1.04863 l 0.291898,0.61132 0.109433,0.55202 0.109585,0.55212 -0.01858,4.19096 -0.01905,4.19089 z m 101.005935,-3.53641 v -2.62474 l 0.38604,-0.11343 c 0.21237,-0.0625 0.47711,-0.13588 0.58827,-0.16331 l 0.20231,-0.0497 v 2.63457 2.63452 l -0.58821,0.15353 -0.58841,0.1535 z m 43.28355,0.57969 c -0.19917,-0.35715 -0.39081,-0.68908 -0.426,-0.73749 l -0.064,-0.088 -0.55608,0.54641 c -0.30579,0.30067 -0.60545,0.57589 -0.66589,0.61173 l -0.10977,0.0652 0.0353,-3.6941 0.0353,-3.69409 0.11682,-0.87314 c 1.57605,-7.1061 2.03863,-1.94206 2.01744,3.24148 l -0.0219,5.27141 z M 41.811381,140.52427 c -0.161716,-0.0804 -0.993586,-0.48532 -1.848612,-0.89999 l -1.554661,-0.75374 -0.886949,0.71363 c -0.487837,0.39241 -0.905152,0.71364 -0.927383,0.71364 -0.02172,0 -0.04034,-2.29875 -0.04034,-5.1083 1.646601,-9.83623 5.676272,-8.17971 5.719525,0.77222 l 0.0229,4.71747 -0.09511,-0.005 c -0.05233,-0.005 -0.22751,-0.0705 -0.389268,-0.15083 z m -25.99934,-1.18537 c -0.264666,-0.33399 -0.593888,-0.76201 -0.73121,-0.95109 -0.137432,-0.18913 -0.257837,-0.35597 -0.267734,-0.3708 -0.0097,-0.0148 -0.276615,0.0625 -0.592754,0.17192 -0.316116,0.10936 -0.599518,0.19888 -0.629737,0.19888 h -0.05489 l 0.0048,-4.41198 c -0.657815,-9.41373 2.736072,-7.91155 2.779406,0.28654 0.01129,2.24793 0.01129,4.44648 3.7e-5,4.88567 l -0.02172,0.79844 -0.481355,-0.60758 z M 198.4346,134.81619 c 0.39358,-5.0465 2.14742,-12.61707 2.17842,-2.01895 l -0.005,5.47591 -0.32809,-0.68749 c -0.18045,-0.37817 -0.34423,-0.67957 -0.36395,-0.66983 -0.02,0.01 -0.35285,0.39658 -0.74019,0.85941 -0.38733,0.46308 -0.72108,0.8418 -0.74161,0.8418 -0.0204,0 -0.021,-1.71034 0,-3.80085 z m -84.3529,3.49529 c 0.005,-0.0678 0.0124,0.21079 0.0744,0.18872 -0.0214,-0.0609 -0.0534,-0.13632 -0.0744,-0.18872 z m 59.03383,-4.14953 c -0.18045,-2.72576 1.5443,-4.62121 1.5443,-0.69398 v 2.48013 l -0.70775,0.34133 c -0.38939,0.18767 -0.73682,0.34124 -0.7722,0.34124 h -0.0643 z m -140.571903,1.46722 c -0.641137,-0.38282 -1.465483,-0.88653 -1.831943,-1.11947 -0.366527,-0.23293 -0.721466,-0.47243 -0.788727,-0.53225 l -0.122315,-0.10877 -0.649857,0.77738 -0.649863,0.77733 -0.02172,-0.71415 c 1.469241,-13.69684 5.354064,-10.98045 5.354064,1.61588 h -0.06171 c -0.03381,0 -0.586173,-0.31321 -1.227186,-0.69595 z m 171.349613,-2.37101 c -0.78876,-2.07353 -0.37557,-1.60556 -1.538,0.22052 -0.3279,0.51433 -0.62493,0.93548 -0.66022,0.93587 l -0.064,0.005 c -0.68637,-10.37717 3.46033,-21.37443 2.26218,-1.15791 z m -192.126504,-0.1554 c -3.1318901,-7.2651 0.360217,-17.26298 0.482051,0.94122 z M 61.434981,63.747396 c 0.923925,-0.256679 2.49596,-0.668331 3.493117,-0.914961 0.997235,-0.246589 2.656978,-0.638342 3.688387,-0.8707 1.031373,-0.232205 2.652912,-0.576853 3.603402,-0.765886 0.950454,-0.188947 2.406546,-0.465987 3.235734,-0.615415 0.829206,-0.149419 2.36799,-0.408384 3.419532,-0.575386 1.051587,-0.166988 2.788992,-0.42301 3.860784,-0.568909 1.0719,-0.145886 2.87541,-0.369518 4.007952,-0.496943 1.13238,-0.127349 2.803644,-0.300553 3.713679,-0.384967 0.910035,-0.08437 2.332998,-0.204617 3.162267,-0.266996 0.829116,-0.06252 2.434014,-0.165906 3.566543,-0.229562 1.132464,-0.06374 2.982352,-0.150352 4.110502,-0.192677 1.12854,-0.04219 4.0903,-0.07664 6.58191,-0.07642 2.49159,0 5.50647,0.03487 6.69966,0.07777 1.19312,0.04262 3.09597,0.128636 4.22849,0.191124 1.13245,0.0625 2.75399,0.165793 3.60338,0.229334 0.84946,0.06373 2.30546,0.185457 3.23576,0.270491 0.93031,0.08506 2.30367,0.222389 3.05186,0.305281 0.74819,0.08274 1.92301,0.219633 2.61061,0.304081 0.68751,0.08441 1.99473,0.257575 2.90484,0.384615 0.91002,0.127116 2.4985,0.367002 3.52978,0.533138 1.03151,0.166297 2.63651,0.441631 3.56672,0.61201 0.93026,0.170292 2.60143,0.498033 3.71376,0.728214 1.11228,0.230105 2.83302,0.607505 3.82395,0.838624 0.99098,0.231072 2.79459,0.680857 4.00798,0.99964 1.21339,0.318587 3.17382,0.866041 4.35659,1.216361 29.01934,12.847422 -17.43723,-0.71774 -33.11042,-2.06797 -12.71754,-0.881916 -32.007793,-3.777339 -44.57956,-2.454574 -29.731489,7.363092 -49.933456,1.414282 -18.087209,3.790683 z m -33.191439,0.0074 c 0.95049,-0.657391 2.340445,-1.576615 3.088644,-2.042417 0.748279,-0.46592 1.906462,-1.16315 2.573816,-1.54935 0.66736,-0.38612 2.288924,-1.25973 3.603394,-1.941286 1.314511,-0.681399 3.188298,-1.60691 4.164043,-2.056424 0.975785,-0.44966 2.560006,-1.147505 3.52066,-1.551046 0.960692,-0.403507 2.462288,-1.009498 3.336908,-1.346864 0.874732,-0.337318 2.417601,-0.903474 3.428956,-1.258023 1.01105,-0.354511 2.533355,-0.86919 3.382757,-1.143748 0.849406,-0.27452 2.288934,-0.717404 3.19897,-0.984161 0.90999,-0.266847 2.349485,-0.673994 3.19881,-0.904647 0.849482,-0.230838 2.188888,-0.579529 2.976615,-0.775072 0.787722,-0.195511 2.161075,-0.522476 3.051867,-0.726677 0.890793,-0.204154 2.470788,-0.546021 3.510963,-0.759714 1.040292,-0.213698 3.058884,-0.592531 4.485969,-0.841838 1.42704,-0.249351 3.537657,-0.591951 4.690359,-0.76131 1.152747,-0.169283 2.625363,-0.376233 3.272553,-0.459829 0.647109,-0.08347 1.937718,-0.237791 2.867994,-0.342795 0.930204,-0.105042 2.419353,-0.260481 3.309219,-0.345238 0.889785,-0.08503 2.527929,-0.222818 3.640167,-0.306372 1.112292,-0.08351 3.015099,-0.204383 4.228509,-0.268434 1.213451,-0.06416 3.347875,-0.150851 4.743265,-0.192476 1.39538,-0.04158 3.79464,-0.07548 5.33153,-0.07521 1.53705,0 3.88665,0.03377 5.22132,0.07494 1.33473,0.0411 3.15486,0.110319 4.04469,0.154077 0.88977,0.04367 2.61061,0.148494 3.824,0.232624 1.21334,0.08414 2.96739,0.221852 3.89751,0.305905 0.9304,0.08402 2.46916,0.238144 3.41971,0.342524 0.95046,0.104313 2.65467,0.310096 3.78719,0.457228 1.13252,0.147214 2.16251,0.287055 2.28886,0.31103 l 0.22964,0.04348 0.0343,-0.243058 0.0343,-0.242983 -0.0802,-0.03062 c -0.0443,-0.01671 -1.12261,-0.166912 -2.39663,-0.333447 -1.27411,-0.166487 -3.32584,-0.407184 -4.55952,-0.534767 -1.23344,-0.127659 -3.05367,-0.299971 -4.0446,-0.383019 -0.99096,-0.08302 -2.61245,-0.202649 -3.60348,-0.265833 -0.99093,-0.06319 -2.56272,-0.151014 -3.493,-0.195239 -0.93029,-0.04415 -3.11447,-0.1111 -4.85362,-0.148761 -1.73923,-0.03762 -4.37011,-0.05377 -5.84648,-0.03568 -1.47623,0.01781 -3.64386,0.06722 -4.81674,0.109971 -1.172887,0.04281 -2.777878,0.112419 -3.566655,0.154814 -0.788621,0.04239 -2.377103,0.14539 -3.529895,0.228905 -1.152702,0.08356 -3.00582,0.23833 -4.118112,0.344077 -1.112283,0.10586 -2.617956,0.260984 -3.345984,0.344657 -0.7281,0.08383 -2.129535,0.256832 -3.11436,0.384648 -0.984897,0.127739 -1.806642,0.215603 -1.826307,0.195234 -0.0198,-0.0202 0.157455,-0.0607 0.393336,-0.08968 0.236007,-0.0291 0.537246,-0.07487 0.669411,-0.101865 l 0.240381,-0.04907 -0.644733,-0.512859 -0.64494,-0.51285 -0.205317,-0.572986 c -0.112995,-0.315058 -0.328131,-0.761033 -0.478062,-0.990828 -0.149886,-0.229796 -0.364752,-0.49241 -0.477396,-0.583492 l -0.204741,-0.165521 -0.290079,-0.04038 -0.290034,-0.04048 -0.183519,0.124905 -0.183564,0.124982 -0.288099,0.629808 c -0.158535,0.346329 -0.370998,0.904875 -0.472158,1.241041 -0.101286,0.33608 -0.243846,0.910847 -0.316656,1.27715 -0.0729,0.366298 -0.114894,0.684462 -0.0931,0.707117 0.02169,0.0229 0.705303,-0.06222 1.518939,-0.188524 0.813636,-0.126301 1.571805,-0.226385 1.684836,-0.222232 0.112959,0.0048 -0.638415,0.139298 -1.669752,0.300395 -1.031409,0.161057 -2.582811,0.416885 -3.447612,0.568247 -0.864729,0.151475 -1.587519,0.259394 -1.606212,0.240153 -0.01863,-0.019 0.126306,-0.05981 0.322119,-0.08972 0.195849,-0.02986 0.41463,-0.07657 0.486396,-0.103456 l 0.13014,-0.049 -0.628911,-0.474997 c -0.345831,-0.261466 -0.648321,-0.535291 -0.672252,-0.608996 -0.02403,-0.07362 -0.1746,-0.42119 -0.334647,-0.772292 l -0.291087,-0.638374 -0.318519,-0.330932 -0.318582,-0.331037 -0.254898,-0.04965 -0.254934,-0.04966 -0.229482,0.123277 -0.229761,0.123397 -0.248796,0.513745 c -0.136863,0.282397 -0.348156,0.805806 -0.469341,1.162988 -0.12114,0.35715 -0.290547,1.007402 -0.376542,1.444805 -0.08568,0.437602 -0.145701,0.80631 -0.133056,0.819382 0.01197,0.01319 0.710262,-0.11277 1.550475,-0.279834 0.840168,-0.166959 1.599462,-0.300985 1.68705,-0.29788 0.08784,0.0048 -0.667593,0.170874 -1.678716,0.37278 -1.011195,0.201829 -2.477214,0.508744 -3.257811,0.681866 -0.780507,0.173121 -1.436031,0.314901 -1.456623,0.314901 -0.02061,0 -0.01863,-0.03219 0.0054,-0.0718 l 0.04248,-0.07161 -0.608273,-0.431429 -0.608134,-0.431202 -0.205935,-0.54753 C 65.981092,45.162297 65.765998,44.727767 65.616265,44.497738 65.466566,44.267862 65.231727,44.00152 65.094143,43.905745 l -0.249736,-0.174012 h -0.251336 c -0.138246,0 -0.315749,0.03572 -0.394302,0.07943 l -0.14287,0.07952 -0.284959,0.589007 c -0.156672,0.323983 -0.384686,0.898398 -0.506526,1.276607 -0.121887,0.378205 -0.295355,1.088508 -0.385353,1.578479 l -0.16373,0.890987 -0.242797,0.04734 c -0.133359,0.02562 -0.85483,0.217422 -1.603071,0.425382 l -1.360242,0.378214 -0.649238,-0.460101 -0.64909,-0.459985 -0.123435,-0.376267 c -0.06792,-0.206984 -0.245546,-0.617811 -0.394811,-0.91301 l -0.271492,-0.536749 -0.281087,-0.26378 -0.280959,-0.263666 -0.252798,-0.04927 -0.252803,-0.04927 -0.216799,0.116486 -0.216765,0.116495 -0.226809,0.444117 c -0.124868,0.244226 -0.346753,0.803168 -0.493305,1.241884 -0.146433,0.438688 -0.350086,1.227582 -0.452495,1.753158 -0.102488,0.525423 -0.172235,1.010883 -0.155205,1.078968 l 0.03144,0.123468 -1.613044,0.556612 -1.61292,0.556608 -0.605139,-0.418357 -0.605218,-0.418443 -0.09365,-0.334099 c -0.05154,-0.183714 -0.211441,-0.584539 -0.35532,-0.890716 L 49.476518,49.074253 49.145438,48.77133 48.814163,48.468411 H 48.497281 48.18048 l -0.184957,0.251988 c -0.10187,0.138637 -0.298308,0.510407 -0.436864,0.826013 -0.13856,0.315797 -0.368127,0.950061 -0.510449,1.409662 -0.142171,0.459666 -0.330651,1.235331 -0.418862,1.723787 l -0.160216,0.888115 -0.526966,0.213232 c -0.289807,0.117148 -0.97404,0.406575 -1.520566,0.642962 l -0.993548,0.430072 -0.578372,-0.347057 -0.57841,-0.347144 -0.281702,-0.680937 c -0.154887,-0.374409 -0.377124,-0.804173 -0.493838,-0.954834 -0.116844,-0.150819 -0.321588,-0.351525 -0.455371,-0.446099 -0.133636,-0.09449 -0.319369,-0.171955 -0.412542,-0.171955 -0.09317,0 -0.250241,0.03838 -0.348886,0.08495 l -0.17929,0.08487 -0.307029,0.643742 c -0.168816,0.353959 -0.373865,0.840091 -0.455642,1.080092 -0.08185,0.24015 -0.240464,0.763557 -0.352644,1.16326 -0.112186,0.399545 -0.246636,1.024852 -0.298809,1.389373 -0.05224,0.364398 -0.114667,0.69342 -0.138951,0.730973 -0.02405,0.03762 -0.759986,0.447104 -1.635109,0.910337 l -1.59128,0.841996 -0.568909,-0.313273 -0.568981,-0.31339 -0.126648,-0.381939 c -0.06964,-0.210122 -0.212618,-0.557688 -0.317621,-0.772239 -0.105199,-0.214675 -0.279678,-0.499439 -0.38783,-0.632994 -0.10819,-0.133598 -0.290389,-0.293256 -0.404865,-0.354668 -0.114585,-0.0616 -0.294765,-0.111867 -0.400588,-0.111867 -0.105818,0 -0.25377,0.0341 -0.328912,0.07591 -0.0751,0.04177 -0.234763,0.25668 -0.354626,0.477522 -0.119824,0.220795 -0.337637,0.715728 -0.48407,1.099828 -0.146433,0.383915 -0.363979,1.085641 -0.483531,1.559047 -0.11963,0.473521 -0.273196,1.246308 -0.341315,1.717581 l -0.123977,0.856737 -0.228091,0.138016 c -0.125529,0.07595 -0.691448,0.447294 -1.257833,0.825356 -0.566113,0.378014 -1.050146,0.719452 -1.075434,0.758747 l -0.04615,0.07118 -0.556369,-0.214861 -0.556498,-0.215093 -0.04591,-0.194462 C 26.636769,62.804081 26.502514,62.469934 26.363606,62.168492 26.224659,61.867045 26.00638,61.511648 25.878488,61.378784 25.750514,61.24581 25.560634,61.103444 25.45644,61.062292 l -0.189376,-0.07474 -0.240816,0.04686 -0.240773,0.04701 -0.320645,0.664792 c -0.176422,0.365684 -0.441988,1.002321 -0.590359,1.414705 0.273048,11.280338 -13.46947,8.489766 -7.33396,0.858941 0.441794,-0.548616 1.245427,-1.482504 1.785742,-2.075307 0.540402,-0.592645 1.363152,-1.453062 1.828253,-1.912039 0.465139,-0.458938 1.251546,-1.203216 1.747333,-1.65393 0.496019,-0.450785 1.373009,-1.209689 1.94889,-1.686625 0.575854,-0.476741 1.509084,-1.218571 2.073764,-1.648568 0.564752,-0.429845 1.656718,-1.219972 2.426794,-1.755796 0.770073,-0.535857 1.913006,-1.301777 2.540023,-1.702065 0.626782,-0.400321 1.752028,-1.089017 2.500269,-1.53022 0.748351,-0.441555 2.037017,-1.172575 2.863924,-1.624793 0.826866,-0.45199 2.249758,-1.191073 3.162153,-1.642057 0.912324,-0.451057 2.30414,-1.113916 3.092758,-1.4732 0.788737,-0.359201 1.84765,-0.832217 2.353246,-1.051155 0.505607,-0.218974 1.581193,-0.665068 2.390066,-0.991185 0.808863,-0.326155 2.132681,-0.841177 2.94151,-1.144329 0.808978,-0.303185 2.21542,-0.807934 3.125457,-1.121673 0.909952,-0.313782 2.528692,-0.843934 3.59696,-1.1782 1.068338,-0.334337 2.739408,-0.833028 3.713759,-1.10802 0.974193,-0.275257 2.489483,-0.685432 3.366931,-0.911623 0.877599,-0.22619 2.482576,-0.617125 3.56659,-0.868608 1.084041,-0.251366 2.980494,-0.663364 4.214034,-0.915229 1.23363,-0.251751 3.235788,-0.630779 4.449168,-0.841958 1.213416,-0.211136 2.901051,-0.489732 3.750444,-0.619025 0.849411,-0.129211 2.437821,-0.352453 3.529971,-0.496171 1.092078,-0.14357 2.61423,-0.331042 3.382803,-0.4165 0.768411,-0.08542 2.108664,-0.223589 2.978244,-0.306833 0.869571,-0.0832 2.491074,-0.220647 3.603393,-0.305168 1.112292,-0.08453 2.982051,-0.205821 4.154925,-0.269752 1.173074,-0.06377 3.175135,-0.150195 4.449185,-0.191939 1.27397,-0.04163 3.0859,-0.07607 4.02634,-0.0763 h 1.70967 V 32.272535 32.043358 H 105.993 c -1.00108,0 -2.84604,0.0341 -4.09977,0.07641 -1.2539,0.04191 -3.239451,0.128869 -4.412365,0.193101 -1.173001,0.06423 -2.8111,0.167578 -3.640171,0.229681 -0.829107,0.06211 -2.268765,0.182046 -3.199041,0.26669 -0.930213,0.08464 -2.336652,0.222971 -3.125376,0.307491 -0.788742,0.08456 -2.377071,0.274606 -3.529863,0.422315 -1.152666,0.147794 -2.890152,0.388491 -3.860811,0.535043 -0.970668,0.146632 -2.757726,0.439812 -3.971106,0.651729 -1.213371,0.211955 -3.132819,0.573595 -4.265208,0.803667 -1.132488,0.22999 -3.018816,0.638575 -4.191696,0.907899 -1.17304,0.269405 -2.875529,0.681438 -3.783471,0.915695 -0.907894,0.234225 -2.546075,0.680162 -3.640169,0.991191 -1.09418,0.310982 -2.816681,0.826979 -3.827922,1.14681 -1.011121,0.319831 -2.620361,0.853007 -3.575741,1.185058 -0.955653,0.332012 -2.474348,0.883038 -3.374961,1.224514 -0.900759,0.341591 -2.452005,0.959644 -3.447302,1.373544 -0.995296,0.41398 -2.520939,1.077106 -3.390556,1.473627 -0.869609,0.396406 -2.093972,0.969926 -2.720945,1.274163 -0.626902,0.304468 -1.818322,0.909024 -2.647517,1.343526 -0.829118,0.434492 -2.136757,1.147853 -2.906011,1.58526 -0.769191,0.437559 -2.076326,1.21668 -2.904858,1.731468 -0.828375,0.514874 -2.167981,1.391627 -2.976972,1.94843 -0.808897,0.556841 -1.983686,1.399765 -2.610583,1.873168 -0.627012,0.473559 -1.685925,1.315674 -2.353204,1.871738 -0.66736,0.556069 -1.544384,1.311635 -1.948853,1.679181 -0.404436,0.367541 -1.196388,1.120011 -1.759939,1.67208 -0.56348,0.552031 -1.469364,1.502136 -2.01317,2.111426 -0.543888,0.609324 -1.323818,1.529444 -1.733293,2.044665 -1.255434,1.912506 -0.852817,0.0048 -0.857474,-1.166093 l -0.0048,-1.604387 0.07855,-0.725776 c 0.04315,-0.399202 0.145737,-1.121102 0.227895,-1.604352 0.08212,-0.483103 0.215984,-1.153601 0.297294,-1.489805 0.08142,-0.336162 0.247913,-0.95022 0.369942,-1.364661 0.122115,-0.4144 0.401841,-1.219311 0.621863,-1.788762 0.219937,-0.569447 0.673723,-1.588332 1.008597,-2.264188 0.33469,-0.675928 0.836377,-1.607063 1.114697,-2.069259 0.278325,-0.462267 0.73454,-1.177261 1.013837,-1.588874 0.279339,-0.411647 0.775315,-1.09929 1.102399,-1.527973 0.327083,-0.428715 0.916238,-1.157554 1.309225,-1.619906 0.392959,-0.462154 1.322308,-1.459112 2.065378,-2.215535 0.742892,-0.756232 1.880239,-1.835119 2.527463,-2.39739 0.647105,-0.562165 1.73907,-1.459358 2.426599,-1.993816 0.687609,-0.534347 1.713509,-1.299147 2.27978,-1.699317 0.566271,-0.400273 1.492982,-1.029966 2.059133,-1.399375 0.566233,-0.369441 1.774098,-1.1138 2.684174,-1.654392 0.909994,-0.540434 2.59771,-1.476185 3.750535,-2.079188 1.15271,-0.60328 2.757602,-1.407567 3.566584,-1.787252 0.808906,-0.379839 2.182258,-0.99832 3.051834,-1.374515 0.869575,-0.375962 2.425046,-1.012208 3.456303,-1.413696 1.031453,-0.401559 2.719201,-1.026443 3.750574,-1.388821 1.031328,-0.362311 2.735646,-0.929044 3.787226,-1.259157 1.051621,-0.330146 2.583236,-0.793119 3.40363,-1.028733 0.820421,-0.235692 2.408719,-0.665379 3.529812,-0.954758 1.12113,-0.289579 2.865676,-0.716623 3.876871,-0.949095 1.011087,-0.232514 2.599533,-0.577986 3.529818,-0.767558 0.930321,-0.189609 2.444022,-0.482945 3.363939,-0.652071 0.919881,-0.168974 2.640573,-0.462311 3.82401,-0.651963 1.183428,-0.189647 3.19392,-0.481665 4.467969,-0.649048 1.274121,-0.167302 3.110715,-0.389839 4.08141,-0.494385 0.970785,-0.104661 2.526066,-0.259319 3.456387,-0.343805 0.930321,-0.08453 2.783475,-0.222543 4.118238,-0.306676 1.334709,-0.08422 3.270561,-0.196868 4.301925,-0.250513 l 1.875237,-0.09749 h 6.39797 6.39796 l 1.94873,0.0988 c 1.07193,0.05427 2.74299,0.149615 3.71368,0.211804 0.97079,0.0621 2.39111,0.164935 3.15637,0.228475 l 1.39146,0.115367 0.0472,-0.07882 c 0.0252,-0.04339 0.22512,-1.076525 0.44287,-2.29584 l 0.39623,-2.217014 0.0776,0.02405 c 0.0428,0.01357 0.18279,0.246006 0.31142,0.517045 0.12855,0.271063 0.30337,0.712041 0.38853,0.979852 0.0852,0.267851 0.2496,0.685551 0.36543,0.928029 0.11573,0.242526 0.23398,0.551221 0.26236,0.685948 0.0285,0.134717 0.14469,0.439379 0.25822,0.677013 0.11335,0.237668 0.27785,0.652848 0.36533,0.922563 0.0876,0.269829 0.23951,0.647421 0.33766,0.839162 0.0983,0.191666 0.1787,0.392759 0.1787,0.446913 0,0.05392 0.11582,0.351793 0.25736,0.661695 0.14159,0.309817 0.25841,0.592566 0.25984,0.628102 0.005,0.03533 0.0665,0.202173 0.14459,0.370215 0.0782,0.168078 0.1433,0.350399 0.14463,0.405012 0.004,0.05474 0.0646,0.226696 0.14065,0.382058 0.0761,0.155348 0.19078,0.402803 0.25493,0.549859 0.0643,0.14709 0.16993,0.422124 0.23484,0.611181 0.0649,0.18911 0.16274,0.481398 0.21727,0.649482 0.0545,0.168044 0.18488,0.486631 0.28965,0.708045 0.10477,0.221347 0.2357,0.530819 0.29089,0.68761 0.0552,0.156796 0.20703,0.560144 0.33738,0.896264 0.13044,0.336085 0.29665,0.748627 0.36924,0.916667 0.0725,0.16816 0.20164,0.462615 0.28675,0.654439 0.0851,0.191977 0.15473,0.410061 0.15473,0.484889 0,0.07475 0.0472,0.227195 0.1053,0.338724 0.0579,0.111561 0.16964,0.357606 0.24832,0.54652 0.0787,0.189145 0.21798,0.550174 0.3096,0.802279 0.0916,0.252103 0.22794,0.565642 0.30323,0.696523 0.0752,0.130997 0.13669,0.280345 0.13669,0.331508 0,0.05124 0.10101,0.31983 0.22436,0.59687 0.12344,0.277086 0.32814,0.781131 0.45505,1.12013 0.12673,0.339035 0.27395,0.684272 0.32709,0.767246 0.0531,0.08285 0.0966,0.197949 0.0966,0.255744 0,0.05783 0.0476,0.213507 0.10563,0.3459 0.0581,0.132426 0.1925,0.464168 0.29847,0.737378 0.10601,0.27312 0.30656,0.743694 0.44577,1.04576 0.1393,0.301985 0.25303,0.590935 0.25303,0.641984 0,0.05106 0.0844,0.285232 0.18726,0.520341 0.10301,0.235273 0.23541,0.518866 0.29418,0.630356 0.059,0.111561 0.10706,0.26273 0.10706,0.336003 0,0.07308 0.19698,0.55215 0.43772,1.064386 l 0.43777,0.931402 -0.54249,2.438129 c -0.29843,1.340769 -0.55331,2.505501 -0.56645,2.587968 l -0.0239,0.150123 1.32363,0.135765 c 0.72801,0.0748 1.91948,0.222819 2.64748,0.329066 0.72795,0.106365 1.88614,0.298298 2.57389,0.426819 0.68757,0.12855 2.21847,0.437869 3.40195,0.68741 1.18339,0.249577 2.87117,0.625968 3.75042,0.836559 0.8793,0.210593 2.49227,0.620073 3.58431,0.909919 1.09204,0.289884 2.84597,0.784434 3.89758,1.098942 1.05161,0.31452 2.64005,0.813526 3.52978,1.108996 0.88992,0.295389 2.16393,0.7314 2.8313,0.968915 0.66742,0.237368 2.04068,0.752391 3.05191,1.144334 1.01122,0.391983 2.52064,1.004722 3.35451,1.361599 0.83382,0.356835 2.20708,0.974155 3.05186,1.371676 0.84472,0.397607 1.77555,0.838739 2.06859,0.980366 l 0.53278,0.257532 0.005,6.979405 c 1.98577,12.588531 -8.69709,3.103393 -15.75045,0.897542 -0.87768,-0.273554 -2.3252,-0.705603 -3.21688,-0.960111 -0.89154,-0.254313 -2.34115,-0.647957 -3.22107,-0.874572 -0.88002,-0.226623 -2.42677,-0.607509 -3.43714,-0.846458 -1.01041,-0.238839 -2.64862,-0.604518 -3.64017,-0.812478 -0.9917,-0.207916 -2.69658,-0.546563 -3.78862,-0.752503 -1.09209,-0.20594 -2.96185,-0.530662 -4.1549,-0.721628 -1.19314,-0.191081 -3.04638,-0.466535 -4.11828,-0.612315 -1.0718,-0.145623 -2.70976,-0.352296 -3.64012,-0.458934 -0.9303,-0.10675 -2.36982,-0.262456 -3.19901,-0.345931 -0.82911,-0.08367 -2.36792,-0.220951 -3.41953,-0.304978 -1.05163,-0.0841 -2.78899,-0.204036 -3.86076,-0.266567 -1.07188,-0.06261 -2.90852,-0.154743 -4.08144,-0.204892 l -2.13271,-0.09105 -4.66967,0.0048 -4.6698,0.0048 -2.16942,0.0893 c -1.19309,0.04919 -2.798131,0.124362 -3.566648,0.167192 -0.768414,0.04277 -2.3403,0.14589 -3.493083,0.229138 -1.152666,0.08316 -3.005946,0.238253 -4.118193,0.344343 -1.112247,0.106251 -2.899152,0.296514 -3.971142,0.422667 -1.071747,0.126573 -2.693322,0.332437 -3.603321,0.457962 -0.910035,0.125454 -2.515077,0.365298 -3.566619,0.533028 -1.051614,0.167688 -2.673198,0.443771 -3.603519,0.613515 -0.930285,0.169674 -2.584755,0.492685 -3.676869,0.717742 -1.092114,0.224957 -2.730213,0.581945 -3.640176,0.7932 -0.910152,0.211335 -2.217203,0.524689 -2.904851,0.696611 -0.687562,0.171764 -1.945129,0.502805 -2.79453,0.735548 -0.849287,0.23271 -2.123375,0.594551 -2.831273,0.804058 -8.218889,13.072286 -62.8386991,21.82083 -31.476996,0.07126 z m 17.061033,0.379334 c 0,-0.02596 -0.198535,-0.228325 -0.441241,-0.450285 l -0.441169,-0.403503 v -2.134619 c 0,-1.174166 -0.0093,-2.134662 -0.02057,-2.134662 -0.01048,0 -0.234692,0.09473 -0.496525,0.210516 -0.261604,0.115867 -0.517083,0.238255 -0.567666,0.272001 l -0.09193,0.06133 v 2.753921 c -0.01124,2.915707 -0.614834,3.488492 2.059062,1.8253 z m 122.498685,-2.418026 -0.0195,-2.795502 -0.44125,-0.18989 c -0.2426,-0.104299 -0.50734,-0.217413 -0.58826,-0.251123 l -0.14706,-0.06156 0.0204,2.159413 0.0205,2.159489 -0.47468,0.451828 -0.47472,0.451956 0.96893,0.428992 c 0.53292,0.235801 1.01064,0.431854 1.0618,0.435459 l 0.0928,0.007 z M 57.038231,59.855601 c 0.240383,-0.08169 0.679152,-0.221423 0.975203,-0.310411 l 0.537992,-0.161753 -0.482876,-0.56057 -0.482903,-0.560527 v -1.994007 c 0,-1.096732 -0.01939,-1.994044 -0.04381,-1.994044 -0.02405,0 -0.272196,0.07215 -0.551488,0.160319 l -0.507811,0.160168 v 2.704739 2.704608 h 0.05916 c 0.03257,0 0.256022,-0.06679 0.496524,-0.148522 z m 97.545419,-3.100755 v -2.714501 l -0.0918,-0.03605 c -0.0507,-0.01981 -0.30708,-0.1 -0.57007,-0.177817 l -0.47801,-0.141622 0.021,2.019876 0.0205,2.019842 -0.46197,0.541406 -0.46201,0.541482 -0.0386,-2.70578 -0.0381,-2.705777 -0.0172,2.725755 -0.0171,2.725831 0.42287,0.125569 c 0.23255,0.06909 0.67108,0.20621 0.97431,0.304661 0.30342,0.09853 0.59293,0.182008 0.64346,0.185424 l 0.092,0.0074 z m 11.91339,1.606759 c 0,-0.02128 -0.0166,-0.03838 -0.0366,-0.03838 -0.02,0 -0.0367,0.01705 -0.0367,0.03838 0,0.02095 0.0162,0.03843 0.0367,0.03843 0.02,0 0.0366,-0.01781 0.0366,-0.03843 z m -0.2206,-0.07638 c 0,-0.02095 -0.0162,-0.03838 -0.0366,-0.03838 -0.02,0 -0.0367,0.01705 -0.0367,0.03838 0,0.02053 0.0162,0.03805 0.0367,0.03805 0.0205,0 0.0366,-0.01752 0.0366,-0.03805 z m -0.14711,-0.07645 c 0,-0.02129 -0.0171,-0.03839 -0.0366,-0.03839 -0.02,0 -0.0367,0.01752 -0.0367,0.03839 0,0.02057 0.0171,0.03801 0.0367,0.03801 0.02,0 0.0366,-0.01705 0.0366,-0.03801 z m -0.22069,-0.07638 c 0,-0.02053 -0.0166,-0.03839 -0.0367,-0.03839 -0.02,0 -0.0366,0.01748 -0.0366,0.03839 0,0.02095 0.0166,0.03801 0.0366,0.03801 0.02,0 0.0367,-0.01705 0.0367,-0.03801 z m -93.097813,-2.29251 c 0.498042,-0.105356 0.914454,-0.200864 0.925632,-0.212384 0.01044,-0.01124 -0.193257,-0.28437 -0.454131,-0.606219 L 72.80819,54.435886 v -1.95254 -1.952534 l -0.05508,0.0048 c -0.03033,0.0043 -0.204129,0.03567 -0.386163,0.07696 -0.181971,0.04138 -0.405405,0.09271 -0.496368,0.114238 l -0.165483,0.03905 v 2.634247 2.634287 h 0.100233 c 0.05517,0 0.507618,-0.08619 1.005498,-0.191548 z m 66.550253,-3.006638 v -2.663733 l -0.31242,-0.04553 c -0.17202,-0.02524 -0.42014,-0.06843 -0.55163,-0.09635 l -0.23904,-0.0507 v 1.958897 1.958859 l -0.45958,0.582411 -0.45963,0.582482 -0.041,-0.679227 -0.0414,-0.679071 -0.0133,0.703236 -0.0138,0.703242 0.27575,0.051 c 0.15169,0.02795 0.55703,0.112071 0.90083,0.186818 0.34381,0.07467 0.69956,0.139261 0.79058,0.143413 l 0.16544,0.0093 z m -50.574551,0.605133 0.204084,-0.0048 -0.479844,-0.661112 -0.479961,-0.660953 v -1.909284 -1.909248 l -0.52398,0.05062 c -0.288297,0.02795 -0.553005,0.0692 -0.588339,0.09186 l -0.06426,0.04125 v 2.54208 c 0,1.398213 0.01584,2.558725 0.03528,2.579008 0.01935,0.01981 0.408312,-0.0074 0.864027,-0.05919 0.455832,-0.05279 0.920583,-0.0981 1.032849,-0.100579 z m 64.399851,0.186542 c 0,-0.02095 -0.0166,-0.03801 -0.0366,-0.03801 -0.02,0 -0.0366,0.01705 -0.0366,0.03801 0,0.02134 0.0162,0.03805 0.0366,0.03805 0.02,0 0.0366,-0.01748 0.0366,-0.03805 z m -0.2205,-0.07634 c 0,-0.02134 -0.0166,-0.03801 -0.0366,-0.03801 -0.0205,0 -0.0367,0.01705 -0.0367,0.03801 0,0.02095 0.0162,0.03805 0.0367,0.03805 0.02,0 0.0366,-0.01705 0.0366,-0.03805 z m -0.29423,-0.07646 c 0,-0.02053 -0.0171,-0.03801 -0.0366,-0.03801 -0.0205,0 -0.0367,0.01705 -0.0367,0.03801 0,0.02134 0.0162,0.03843 0.0367,0.03843 0.02,0 0.0366,-0.01781 0.0366,-0.03843 z m -15.3883,-2.769433 c -0.0124,-0.493689 -0.0233,-0.08972 -0.0233,0.897694 0,0.987428 0.01,1.391355 0.0233,0.897626 0.0129,-0.493771 0.0129,-1.301553 0,-1.79532 z m -13.07126,-0.210085 v -2.5503 l -0.0644,-0.04125 c -0.0353,-0.02286 -0.30013,-0.06408 -0.58831,-0.09193 l -0.52397,-0.05051 v 1.91965 1.919716 l -0.47604,0.640513 -0.47591,0.640637 1.00914,0.109004 c 0.55503,0.05985 1.03399,0.09663 1.06433,0.0818 l 0.0552,-0.02714 z m -20.01567,1.910598 c 0.0166,-0.01629 -0.17317,-0.321025 -0.42026,-0.676703 l -0.44928,-0.646605 v -1.87883 -1.878992 l -0.31249,0.0048 c -0.17189,0.0048 -0.43671,0.0221 -0.58835,0.04821 l -0.27576,0.04734 v 2.498364 2.498442 l 0.0552,0.06005 0.0552,0.05998 0.95333,-0.05098 c 0.52441,-0.02795 0.96652,-0.06451 0.98246,-0.08108 z m 33.91455,-2.445453 c 0,-0.02053 -0.0166,-0.03801 -0.0366,-0.03801 -0.02,0 -0.0367,0.01752 -0.0367,0.03801 0,0.02134 0.0166,0.03843 0.0367,0.03843 0.02,0 0.0366,-0.01705 0.0366,-0.03843 z m -0.3678,-0.07629 c 0,-0.02134 -0.0162,-0.03838 -0.0367,-0.03838 -0.02,0 -0.0366,0.01667 -0.0366,0.03838 0,0.02053 0.0166,0.03801 0.0366,0.03801 0.0205,0 0.0367,-0.01705 0.0367,-0.03801 z M 30.103022,48.250508 c 0.372704,-0.245664 0.821356,-0.540316 0.996925,-0.654787 l 0.319325,-0.208155 -0.484727,-0.347682 -0.484851,-0.347719 v -2.855671 c 0,-1.570563 -0.01905,-2.855505 -0.04229,-2.855505 -0.02324,0 -0.271419,0.154001 -0.551568,0.342248 l -0.509202,0.342328 v 3.515778 c 0,1.93368 0.01752,3.515839 0.03938,3.515839 0.02172,0 0.344309,-0.201053 0.71698,-0.446708 z m 56.794353,-4.589326 c 0.724464,-0.08053 1.756341,-0.190544 2.29293,-0.244379 0.536598,-0.05381 0.966861,-0.122625 0.956079,-0.15288 -0.01044,-0.03028 -0.277785,-0.273478 -0.59292,-0.540316 l -0.573246,-0.485194 -0.247023,-0.63648 c -0.135846,-0.350172 -0.369873,-0.821749 -0.519831,-1.048131 -0.150165,-0.22638 -0.380619,-0.480659 -0.512163,-0.565146 L 87.4619,39.835004 h -0.290043 -0.289998 l -0.161289,0.156134 c -0.08883,0.08589 -0.240147,0.317848 -0.336348,0.515687 -0.09641,0.197753 -0.277209,0.659868 -0.401769,1.027066 -0.124668,0.367038 -0.295974,0.985986 -0.381078,1.375096 -0.08496,0.389187 -0.167769,0.750722 -0.183906,0.803167 l -0.02943,0.09551 h 0.09597 c 0.05292,0 0.688887,-0.06595 1.413468,-0.146479 z m 9.259497,-0.807278 c 1.051586,-0.06583 1.95618,-0.127473 2.01018,-0.136812 l 0.0982,-0.01752 -0.649797,-0.554089 -0.649627,-0.554012 -0.206135,-0.571856 c -0.113347,-0.3146 -0.345016,-0.786407 -0.514765,-1.048558 l -0.308655,-0.476665 -0.318321,-0.250083 -0.318204,-0.250008 h -0.334836 -0.334998 l -0.241317,0.154896 -0.241326,0.155005 -0.328833,0.666314 c -0.180873,0.36646 -0.399537,0.872599 -0.486,1.124695 -0.08649,0.252148 -0.235899,0.79859 -0.331704,1.214428 l -0.174636,0.75584 0.709326,-0.04601 c 0.390123,-0.02519 1.569834,-0.1 2.621448,-0.16583 z m 10.654398,-0.373789 c 0.0356,-0.0093 -0.21253,-0.268776 -0.55168,-0.577632 l -0.61616,-0.561656 -0.26086,-0.639194 c -0.14342,-0.351639 -0.39819,-0.856421 -0.56604,-1.121868 l -0.30539,-0.48248 -0.27961,-0.198806 c -0.15373,-0.109428 -0.39532,-0.219949 -0.53687,-0.245704 l -0.25742,-0.04681 -0.33096,0.175178 -0.33092,0.175212 -0.42143,0.878653 -0.42154,0.878501 -0.2215,0.878571 c -0.12172,0.483218 -0.22168,0.901346 -0.22199,0.929078 0,0.02758 1.18261,0.03334 2.62858,0.01243 1.44594,-0.02053 2.65815,-0.04491 2.69379,-0.05373 z M 44.172233,40.629991 c 0.44086,-0.192986 0.881791,-0.383568 0.980018,-0.423444 l 0.178626,-0.07261 -0.453542,-0.475307 -0.453423,-0.47534 -0.01905,-2.872811 -0.01939,-2.872936 -0.551568,0.252299 -0.551608,0.252334 -0.01862,3.519334 -0.019,3.519383 h 0.06339 c 0.03487,0 0.424096,-0.157876 0.864837,-0.350901 z m 13.327452,-4.959839 c 0.471968,-0.1476 0.902122,-0.285193 0.955962,-0.305557 l 0.09799,-0.03724 -0.484109,-0.550903 -0.483884,-0.550987 v -2.839841 -2.839955 l -0.53318,0.169045 -0.53322,0.169169 -0.01905,3.527331 -0.019,3.527332 h 0.08018 c 0.0442,0 0.466464,-0.120796 0.938389,-0.26851 z M 73.675367,31.61996 73.770317,31.58662 73.289159,30.982526 72.80819,30.378477 V 27.54341 24.708384 l -0.05508,0.0048 c -0.03033,0.0048 -0.204129,0.03568 -0.386163,0.07708 -0.181971,0.04125 -0.405405,0.09271 -0.496368,0.114124 l -0.165483,0.03905 v 3.538347 3.538347 l 0.937647,-0.181661 c 0.515691,-0.09985 0.98037,-0.196781 1.032624,-0.21537 z m 14.574105,-2.1764 c 0.342756,-0.04134 0.648504,-0.07518 0.679374,-0.07518 0.03105,0 -0.158571,-0.288917 -0.420948,-0.642071 l -0.47709,-0.642142 v -2.86273 -2.862762 l -0.349272,0.03648 c -0.192168,0.01939 -0.448731,0.0609 -0.569988,0.09101 l -0.220563,0.05453 -0.01863,3.433034 c -0.01044,1.888221 -0.0045,3.477405 0.01701,3.531479 l 0.03609,0.09818 0.35055,-0.04215 c 0.192906,-0.02329 0.631044,-0.0761 0.973764,-0.117496 z m 15.558998,-1.709552 -0.48159,-0.717638 v -2.83805 -2.838092 l -0.56987,0.0221 -0.57,0.0221 -0.0191,3.533412 -0.0186,3.53339 h 1.07071 1.07067 z M 51.040701,51.791205 c 0,-0.02134 0.01671,-0.03801 0.03682,-0.03801 0.0202,0 0.03686,0.01705 0.03686,0.03801 0,0.02095 -0.01671,0.03838 -0.03686,0.03838 -0.01981,0 -0.03682,-0.01705 -0.03682,-0.03838 z m 3.77489,-1.31144 c 0.02677,-0.02791 0.07111,-0.02791 0.09807,0 0.02677,0.02795 0.0048,0.05093 -0.049,0.05093 -0.05384,0 -0.07595,-0.02291 -0.04907,-0.05093 z m 0.269673,-0.06366 c 0,-0.02095 0.01629,-0.03801 0.03686,-0.03801 0.0202,0 0.03681,0.01705 0.03681,0.03801 0,0.02095 -0.01671,0.03805 -0.03681,0.03805 -0.0202,0 -0.03686,-0.01705 -0.03686,-0.03805 z m 0.220603,-0.07646 c 0,-0.02095 0.01671,-0.03801 0.03686,-0.03801 0.0202,0 0.03686,0.01705 0.03686,0.03801 0,0.02095 -0.01677,0.03838 -0.03686,0.03838 -0.0202,0 -0.03686,-0.01705 -0.03686,-0.03838 z m 0.220642,-0.07638 c 0,-0.02095 0.01629,-0.03805 0.03686,-0.03805 0.0202,0 0.03682,0.01705 0.03682,0.03805 0,0.02053 -0.01705,0.03838 -0.03682,0.03838 -0.02057,0 -0.03686,-0.01748 -0.03686,-0.03838 z m 0.245126,-0.08906 c 0.02677,-0.02795 0.07118,-0.02795 0.09817,0 0.02639,0.02795 0.0048,0.05093 -0.0491,0.05093 -0.054,0 -0.07596,-0.0229 -0.04907,-0.05093 z m 0.220594,-0.07641 c 0.02714,-0.02791 0.07111,-0.02791 0.09815,0 0.02672,0.02795 0.005,0.05093 -0.04907,0.05093 -0.05388,0 -0.07603,-0.02286 -0.04908,-0.05093 z m 0.2696,-0.06373 c 0,-0.02053 0.01671,-0.03801 0.03686,-0.03801 0.01981,0 0.03681,0.01752 0.03681,0.03801 0,0.02095 -0.01629,0.03843 -0.03681,0.03843 -0.0202,0 -0.03686,-0.01752 -0.03686,-0.03843 z m 0.24516,-0.08911 c 0.02672,-0.02795 0.07123,-0.02795 0.09803,0 0.02677,0.02795 0.005,0.05094 -0.04892,0.05094 -0.05392,0 -0.07611,-0.02286 -0.04911,-0.05094 z m 0.220608,-0.07642 c 0.02677,-0.02791 0.07114,-0.02791 0.09806,0 0.02714,0.02795 0.0054,0.05098 -0.04903,0.05098 -0.05384,0 -0.07592,-0.02291 -0.04903,-0.05098 z m 0.26971,-0.06369 c 0,-0.02053 0.01671,-0.03801 0.03686,-0.03801 0.02053,0 0.03681,0.01671 0.03681,0.03801 0,0.02134 -0.01671,0.03838 -0.03681,0.03838 -0.01981,0 -0.03686,-0.01705 -0.03686,-0.03838 z m 0.245122,-0.08906 c 0.02677,-0.02795 0.07106,-0.02795 0.09802,0 0.02714,0.02795 0.0054,0.05098 -0.04903,0.05098 -0.05388,0 -0.076,-0.02324 -0.04899,-0.05098 z m 0.220641,-0.07642 c 0.02639,-0.02795 0.07102,-0.02795 0.09799,0 0.02714,0.02791 0.0048,0.05094 -0.04896,0.05094 -0.05399,0 -0.07603,-0.02324 -0.04903,-0.05094 z m 0.563666,-0.140066 c 0,-0.02053 0.01705,-0.03805 0.03686,-0.03805 0.01976,0 0.03681,0.01752 0.03681,0.03805 0,0.02134 -0.01705,0.03838 -0.03681,0.03838 -0.01981,0 -0.03686,-0.01752 -0.03686,-0.03838 z m 0.220608,-0.07634 c 0,-0.02095 0.01705,-0.03801 0.03681,-0.03801 0.01981,0 0.03686,0.01705 0.03686,0.03801 0,0.02095 -0.01671,0.03805 -0.03686,0.03805 -0.02053,0 -0.03681,-0.01705 -0.03681,-0.03805 z m 0.245231,-0.08911 c 0.02714,-0.02791 0.07115,-0.02791 0.09803,0 0.02672,0.02795 0.0058,0.05089 -0.04892,0.05089 -0.054,0 -0.07603,-0.02324 -0.04911,-0.05089 z m 0.220604,-0.07646 c 0.02677,-0.02795 0.07111,-0.02795 0.09814,0 0.02672,0.02795 0.005,0.05092 -0.0491,0.05092 -0.05388,0 -0.07596,-0.0229 -0.04904,-0.05092 z m 0.294194,-0.07646 c 0.02677,-0.02795 0.07102,-0.02795 0.09802,0 0.02714,0.02791 0.005,0.05101 -0.04895,0.05101 -0.054,0 -0.07607,-0.02324 -0.04907,-0.05101 z m 0.269715,-0.06365 c 0,-0.02095 0.01667,-0.03801 0.03686,-0.03801 0.0202,0 0.03682,0.01752 0.03682,0.03801 0,0.02095 -0.01671,0.03838 -0.03682,0.03838 -0.01981,0 -0.03686,-0.01671 -0.03686,-0.03838 z m 3.589586,-1.007168 c 0.05307,-0.02248 0.116491,-0.019 0.140966,0.007 0.02405,0.02524 -0.019,0.04343 -0.09659,0.04005 l -0.140927,-0.0069 z m 0.294075,-0.07634 c 0.05315,-0.0221 0.116562,-0.019 0.141004,0.0069 0.02443,0.02524 -0.01905,0.04339 -0.09651,0.04005 l -0.14097,-0.0062 z m 0.294227,-0.07635 c 0.05299,-0.02248 0.116529,-0.019 0.140927,0.0067 0.02448,0.02562 -0.01858,0.04339 -0.09647,0.04015 l -0.141079,-0.0067 z m 0.294075,-0.07638 c 0.05322,-0.02209 0.116529,-0.01905 0.141004,0.0066 0.02444,0.02524 -0.01862,0.04343 -0.09655,0.04001 l -0.140889,-0.0059 z m 0.294194,-0.07645 c 0.05317,-0.0221 0.116524,-0.01905 0.140998,0.0073 0.02443,0.02562 -0.01858,0.04348 -0.09643,0.04015 l -0.141042,-0.0062 z m 0.294147,-0.07641 c 0.05315,-0.0221 0.116566,-0.019 0.141007,0.0062 0.02481,0.02524 -0.01905,0.04353 -0.09656,0.04015 l -0.140927,-0.0062 z m 0.294188,-0.07638 c 0.05311,-0.02172 0.116525,-0.01939 0.141008,0.0069 0.02486,0.02562 -0.019,0.04339 -0.09659,0.04015 l -0.140966,-0.0077 z m 0.294151,-0.07642 c 0.0531,-0.02248 0.116524,-0.01939 0.140932,0.0062 0.02448,0.02524 -0.019,0.04343 -0.09647,0.0401 l -0.141009,-0.0077 z m 0.294118,-0.07642 c 0.05318,-0.02248 0.116558,-0.01939 0.141041,0.0069 0.024,0.02524 -0.01862,0.04343 -0.09659,0.0401 l -0.14089,-0.0066 z m 0.289569,-0.07475 c 0.05054,-0.02134 0.133289,-0.02134 0.183867,0 l 0.09197,0.03838 h -0.183866 -0.183828 z m 0.37239,-0.07801 c 0.05303,-0.0221 0.116496,-0.019 0.140813,0.0074 0.02481,0.02562 -0.01858,0.04343 -0.09643,0.04015 l -0.140931,-0.0073 z m 0.332437,-0.07513 c 0.02677,-0.02791 0.07099,-0.02791 0.09803,0 0.02672,0.02795 0.005,0.05089 -0.04908,0.05089 -0.05384,0 -0.07603,-0.02286 -0.04895,-0.05089 z m 0.329336,-0.07771 c 0.05306,-0.0221 0.116567,-0.01939 0.140966,0.0067 0.02443,0.02519 -0.019,0.04348 -0.09655,0.04019 l -0.140937,-0.0074 z m 0.294156,-0.07629 c 0.0531,-0.0221 0.116448,-0.01905 0.141003,0.0069 0.024,0.02524 -0.01905,0.04333 -0.09655,0.04 l -0.140965,-0.0067 z m 0.28957,-0.07475 c 0.05054,-0.02134 0.133319,-0.02134 0.183836,0 l 0.09189,0.03838 h -0.183834 -0.183904 z m 6.990851,-1.453262 c 0.05301,-0.0221 0.116451,-0.019 0.14085,0.007 0.02448,0.02524 -0.01854,0.04353 -0.09647,0.04015 l -0.140967,-0.0059 z"
       id="path417" />
  </g>
</svg>
