<?xml version="1.0" encoding="UTF-8"?>
<svg id="Layer_2" data-name="Layer 2" xmlns="http://www.w3.org/2000/svg" viewBox="0 0 475.48 86.89">
  <defs>
    <style>
      .cls-1, .cls-2 {
        stroke-width: 0px;
      }

      .cls-2 {
        fill: #505355;
      }
    </style>
  </defs>
  <g id="Layer_3" data-name="Layer 3">
    <g>
      <g>
        <path class="cls-2" d="M458.16,86.89H17.39v-10.75c0-.27-.17-.49-.37-.49H5.84l-.23-.61C1.89,64.97,0,54.33,0,43.45S1.89,21.93,5.61,11.85l.23-.61h11.18c.2,0,.37-.22.37-.49V0h440.77v10.75c0,.27.17.49.37.49h11.18l.23.61c7.39,20.08,7.39,43.11,0,63.19l-.23.61h-11.18c-.2,0-.37.22-.37.49v10.75ZM19.26,85.02h437.03v-8.87c0-1.3,1.01-2.36,2.24-2.36h9.87c6.94-19.32,6.94-41.35,0-60.67h-9.87c-1.24,0-2.24-1.06-2.24-2.36V1.87H19.26v8.87c0,1.3-1.01,2.36-2.24,2.36H7.15C3.65,22.8,1.87,33,1.87,43.45s1.77,20.65,5.27,30.34h9.87c1.24,0,2.24,1.06,2.24,2.36v8.87Z"/>
        <g>
          <circle class="cls-2" cx="461.66" cy="41.92" r="3.19"/>
          <path class="cls-1" d="M461.66,45.22c-1.82,0-3.3-1.48-3.3-3.3s1.48-3.3,3.3-3.3,3.3,1.48,3.3,3.3-1.48,3.3-3.3,3.3ZM461.66,38.83c-1.7,0-3.08,1.38-3.08,3.09s1.38,3.09,3.08,3.09,3.09-1.38,3.09-3.09-1.38-3.09-3.09-3.09Z"/>
        </g>
        <g>
          <circle class="cls-2" cx="12.61" cy="41.92" r="3.19"/>
          <path class="cls-1" d="M12.61,45.22c-1.82,0-3.3-1.48-3.3-3.3s1.48-3.3,3.3-3.3,3.3,1.48,3.3,3.3-1.48,3.3-3.3,3.3ZM12.61,38.83c-1.7,0-3.09,1.38-3.09,3.09s1.38,3.09,3.09,3.09,3.09-1.38,3.09-3.09-1.38-3.09-3.09-3.09Z"/>
        </g>
      </g>
      <g>
        <path class="cls-2" d="M46.85,64.32c-6.53,0-12.39-4.63-12.8-11.44-.36-3.95-.77-7.81-.77-11.8,0-8.76.45-20.24,14.25-20.24,4.36,0,7.9,1.45,10.48,4.86,1.63,2.13,2.63,5.76,2.63,7.99,0,.59-6.63,1.95-8.94,2.5-.09.05-.14.05-.18.05-.86,0,.68-7.49-4.13-7.49-2.04,0-3.63,1.54-3.77,4.45-.32,3.45-.41,6.9-.41,10.35,0,3.68.18,7.35,1.13,10.98.32,1.27,2,1.91,3,1.91,3.9,0,4.13-5.35,4.13-8.71,0-.23.14-.32.36-.32,2.54.32,5.13.82,7.67,1.27,1.36.27,1.27-.18,1.27,2.63,0,3.36-1.13,6.35-3.4,8.99-.32.32-.54.73-1.04.82v.05s-.04.04-.09.04-.09,0-.09-.04v-.05c-.18.14-.41.18-.54.41v-.05c-.09.05-.18.09-.18.23v-.05c-.18.05-.23.09-.23.18,0,.04,0,.14.05.23-2.27,1.54-4.95,2.27-8.4,2.27Z"/>
        <path class="cls-2" d="M87.96,63.09c-1.59,0-3.13,0-4.72.09-.86,0-1-5.49-1.32-7.08-.32-1.45-2.68-1.36-3.68-1.36-1.36,0-3.45.04-3.63,1.54-.14,1.22-.54,6.76-.95,6.76-.36.04-.68.04-1,.04-2.72-.04-5.45-.04-8.17-.09-.23,0-.45,0-.64.05-.23,0-.32-.05-.32-.23,0-.73.32-1.59.45-2.31,2.63-12.52,5.31-24.91,7.99-37.35.14-1.18.23-1.36,1.82-1.36,1.91,0,3.77.14,5.63.14,1.36,0,2.86-.09,4.08-.09.64,0,.73.23.95,1.41,2.68,13.11,5.45,26.18,8.4,39.25.04.14.04.27.09.59h-4.99ZM78.16,34c-.32,0-2.45,10.89-2.45,12.93,0,.23.18.41.41.41.77,0,1.41-.23,2.13-.23.59,0,1.27.23,1.86.23.27,0,.41-.14.41-.5-.45-2.18-1.63-12.84-2.36-12.84Z"/>
        <path class="cls-2" d="M122.9,50.84c0,3.9-1.77,8.99-5.58,10.67-2.68,1.18-5.45,1.68-8.44,1.68-4.08,0-8.12-.14-12.16-.14q-.59,0-.59-.59c0-13.3.18-26.59.18-39.89,0-.59.5-.73,1.04-.73,1.13,0,2.36.09,3.54.09,2.41,0,4.9-.14,7.35-.14,4.22,0,7.53.36,10.35,3.09,2.13,2.09,3.27,4.58,3.27,7.44,0,3.54-1.5,6.44-3.95,8.67-.18.18-.41.27-.5.59,3.77,1.27,5.49,5.9,5.49,9.26ZM105.75,30.33c0,1.95.05,3.9.05,5.81,0,1.09.27,1.81,1.36,1.81,2.54,0,5.54-1.45,5.54-4.76,0-2.77-1.68-4.45-4.54-4.58-1.63.18-2.41.27-2.41,1.72ZM105.75,52.93c0,1.54.27,2.9,1.95,2.9,3.63,0,5.49-3.09,5.49-5.72s-2.22-5.08-4.58-5.08c-1.45,0-2.77.05-2.77,1.91v3.54c0,.77-.09,1.63-.09,2.45Z"/>
        <path class="cls-2" d="M135.38,62.41c0,1.09-.18.77-3.27.77-2.68,0-6.4-.04-6.49-.41,0-13.25.18-26.68.18-40.03,0-.59.04-.86.73-.86,2.72,0,5.4.14,8.08.14.68,0,.68.09.68,1.09v7.67c0,5.54,0,11.94.09,11.94v19.69Z"/>
        <path class="cls-2" d="M166.73,62.41c0,.68-.04.77-.63.77-2.9,0-5.76-.14-8.67-.14-.41,0-.45-.36-.45-.86,0-2.72.09-5.4.09-8.12v-.18l-.05-.36v-.27l.05-.23c0-1.13-.68-1.68-1.54-2.31-2.27-1.59-3.81-3.4-5.76-5.45-.09-.09-.18-.09-.27-.09-.32,0-.41,2.81-.41,5.35v6.13c0,2.13.09,4.13.09,6.17-.09.32-.32.36-.59.36-2.86,0-5.76-.09-8.62-.14-.45,0-.5-.05-.5-.45,0-13.43.18-26.77.18-40.21.04-.41.14-.5.59-.5,2.81,0,5.58.14,8.39.14.77.09,1.13,3.13,1.5,4.45,1.04,4.17,3.13,7.8,6.26,10.94.09.09.18.14.27.14.45,0,.54-3.86.54-7.85,0-2.5-.04-5.08-.04-6.81,0-1,.09-1,1-1,2.63,0,5.31.14,7.9.14.59,0,.59.09.59.82,0,1.77-.05,19.79.09,19.79v19.79Z"/>
        <path class="cls-2" d="M189.96,41.81c3.18,2.27,4.22,6.31,4.22,10.07,0,7.81-4.54,11.34-12.71,12.3-.27.05-.59.05-.86.05-6.94,0-11.62-5.26-11.62-12.12,0-.54,8.62-3.49,8.8-3.49.23,0,.27.18.27.32v.36l-.05.82c0,2.22.09,6.58,3.22,6.58,2.09,0,3.77-1.72,3.77-3.9,0-1.54-1.18-3.18-2.41-4.17-1.63-1.32-3.18-2.68-4.99-3.72-4.81-2.77-7.94-6.67-7.94-12.62,0-7.71,5.58-11.39,12.21-11.39,5.54,0,10.48,3.09,11.44,8.4.05.14.05.36.05.45,0,.59-5.63,2.9-7.58,3.77-.14.09-.27.18-.45.18-.09,0-.64-3.27-.91-3.81-.73-1.41-1.59-1.95-2.59-1.95-2,0-3.04,1.77-3.22,3.45,0,1.77,1.82,3.63,3.22,4.77v-.05c0,.23,1.5,1.13,2.04,1.59,2.09.95,4.08,2.72,6.08,4.13ZM183.88,37.59s0,.04-.05.04c0,0,0-.04.05-.04Z"/>
        <path class="cls-2" d="M197.9,42.08c-.41,0-.5-.09-.5-1.04,0-2.81-.04-5.72-.04-8.58.14-.54,6.72-.45,8.49-.45.95,0,1-.04,1,.64,0,1.41-.09,2.86-.09,4.31-.05,1.63.04,4.95-.45,4.95-2.63,0-5.22.14-7.81.18h-.59ZM206.84,53.47c0,2.77-.14,5.58-.23,8.35,0,1.41.14,1.18-1.22,1.23-2.31.04-4.67.14-6.99.14-1.04,0-1-.32-1-1.18,0-2.68-.04-5.26-.04-7.9,0-.86.14-.86.82-.86,2.81,0,5.58-.04,8.35-.04.18,0,.32.09.32.27Z"/>
        <path class="cls-2" d="M227.44,62.68c0-9.58.18-19.29.18-28.95,0-2.95-.09-3.72-3.04-3.72-1.54,0-3.09.05-4.63.05-.73,0-.86-.05-.86-.5,0-2.27.45-4.9.73-7.31.04-.36.27-.41.68-.41,7.85,0,15.7.09,23.55.09,1.09,0,.91.04,1,1.13.18,2.04.68,4.31.68,6.4,0,.23-.09.45-.36.45l-.09-.04c-2.31.04-4.54.04-6.76.04-1.23,0-1.41,1.32-1.41,2.68,0,10.07.09,20.15.09,30.22,0,.32-.23.36-.45.36-3.08,0-6.13-.09-9.21-.09-.09-.14-.09-.27-.09-.41Z"/>
        <path class="cls-2" d="M274.9,62.28c0,1,0,.91-.95.91-1.54,0-8.76-.04-8.76-.36,0-4.95.04-9.94.04-14.88,0-1.63-1.41-1.77-3.45-1.77-2.22,0-3.63.18-3.63,2.31,0,4.67.05,9.26.05,13.93,0,.86-.05.77-1.09.77-1.59,0-8.62-.04-8.62-.36-.04-.23-.04-.45-.04-.63.09-13.21.18-26.32.18-39.66,0-.36.09-.64.91-.64,2.63,0,5.4.14,8.12.14.54.09.45.82.45,1.32,0,4.22,0,8.44.04,12.71,0,.18-.04.41-.04.59,0,.63.18,1.04.77,1.04,1,0,2-.23,2.99-.23.91,0,1.86.23,2.72.23.77,0,.73-.32.73-1.13,0-4.67.05-9.26.05-13.93,0-.41.09-.73.68-.73,2.68,0,5.35.14,8.08.14.64,0,.73.32.73.68,0,6.72-.05,13.34.04,19.97v19.6Z"/>
        <path class="cls-2" d="M279.26,31.92c0-1.04-.09-2.09-.09-3.13,0-2.09.04-4.22.04-6.35,0-.59.27-.59,1.09-.59,3.45,0,6.94.18,10.35.18s7.03-.09,10.57-.09c.59,0,.54.09.59,1.04.09,2.31.36,4.58.36,6.81,0,.23-.86.27-1.86.27-2.41,0-3.86-.09-5.85-.09-1.32,0-2.54.04-3.86.04-2.31,0-1.95.73-1.95,4.4,0,1.36.18,2.77,1.18,2.95,2.63,0,5.22.05,7.9.05h.27c.36,0,.77.04.77.41-.18,2.31-.27,4.63-.41,6.99-.05.95-.09,1.04-1.13,1.04-1.41,0-2.95.14-4.45.14-.86,0-1.68-.04-2.45-.18-.82,0-1.63.54-1.63,1.41,0,2,.05,3.99.05,5.99,0,1.72,1.18,1.59,2.99,1.59h9.8c.36,0,.5.09.5.59,0,1.5-.09,7.76-.64,7.76-.32.04-.59.04-.91.04-6.85,0-13.93-.04-20.97-.04-.54-.05-.5-.14-.5-1.13,0-4.81,0-9.62.14-14.39,0-5.26.09-10.48.09-15.7Z"/>
        <path class="cls-2" d="M328.17,27.83c-3.09,0-3.72,2.72-3.9,5.31-.23,3.68-.36,7.17-.36,10.94,0,4.76.23,11.3,3.68,11.3,1.54,0,3.45-1.77,4.08-2.77,1-1.54,1.41-3.45,1.41-5.58,0-1.41-1.36-1.63-2.81-1.63-.82,0-1.63.05-2.31.05-.95,0-.91,0-.95-.95-.05-1.77-.18-3.49-.18-5.22,0-.68.14-.64.95-.64,4.31,0,8.71.05,12.98.05.63,0,.86.09.86,1,0,7.58.04,15.2.04,22.78,0,1.09-.04,1.18-1.18,1.18-.95,0-2.81.09-4.45.09-3.54,0-3.36-.82-3.81-.82-1.5,0-3,.5-4.49.5-6.49,0-11.93-4.27-12.8-10.26-.64-4.36-.95-8.76-.95-13.16,0-9.71,1.13-20.06,14.39-20.06,5.85,0,10.57,3.13,12.43,9.21.32,1,.59,2.04.59,3.09,0,1.13-1.27,1.13-2.04,1.32-2.41.59-4.76,1.18-7.26,1.82-.54-3.27-.18-7.53-3.9-7.53Z"/>
        <path class="cls-2" d="M369.24,63.09c-1.59,0-3.13,0-4.72.09-.86,0-1-5.49-1.32-7.08-.32-1.45-2.68-1.36-3.68-1.36-1.36,0-3.45.04-3.63,1.54-.14,1.22-.54,6.76-.95,6.76-.36.04-.68.04-1,.04-2.72-.04-5.45-.04-8.17-.09-.23,0-.45,0-.64.05-.23,0-.32-.05-.32-.23,0-.73.32-1.59.45-2.31,2.63-12.52,5.31-24.91,7.99-37.35.14-1.18.23-1.36,1.82-1.36,1.91,0,3.77.14,5.63.14,1.36,0,2.86-.09,4.08-.09.64,0,.73.23.95,1.41,2.68,13.11,5.45,26.18,8.4,39.25.04.14.04.27.09.59h-4.99ZM359.44,34c-.32,0-2.45,10.89-2.45,12.93,0,.23.18.41.41.41.77,0,1.41-.23,2.13-.23.59,0,1.27.23,1.86.23.27,0,.41-.14.41-.5-.45-2.18-1.63-12.84-2.36-12.84Z"/>
        <path class="cls-2" d="M377.63,22.48c0-.45.14-.59.59-.59,3.68,0,7.03.09,10.53.23.41,0,.45.04.54.45.32,1.68.82,3.36,1.22,5.04,1.5,5.95,2.95,12.03,4.63,17.97.09.41.18.91.59.91.77,0,1.91-5.4,2.5-7.62,1.41-5.4,2.9-10.85,4.27-16.29,0-.68.23-.77.54-.77,3.4.32,6.9.18,10.26.18,1.68,0,1.54.05,1.54,1.63.05,13.02.09,26.05.09,39.12-.04.45-.18.45-.82.45-1.59,0-8.89,0-8.89-.32-.04-.23-.04-.45-.04-.64.04-5.94.09-11.89.09-17.83,0-.5-.05-1-.23-1-.41,0-2.13,6.76-2.81,9.17-.77,2.63-1.54,5.45-2.27,8.17-.14.5-.23,1-.45,1.45-.59,0-1.63.04-2.68.04-2.13,0-4.54-.09-4.67-.59-1.59-5.49-2.86-11.21-4.67-16.7l-.09-.05c-.23,0-.27,4.22-.27,8.62,0,3.72.05,7.62.05,9.03,0,.64-.09.59-1.09.59-2.54,0-5.08-.14-7.62-.14-.23,0-.45.09-.64.09-.32,0-.41-.27-.41-.5,0-1.82.09-20.06.23-20.06v-20.06Z"/>
        <path class="cls-2" d="M419.28,31.92c0-1.04-.09-2.09-.09-3.13,0-2.09.04-4.22.04-6.35,0-.59.27-.59,1.09-.59,3.45,0,6.94.18,10.35.18s7.03-.09,10.57-.09c.59,0,.54.09.59,1.04.09,2.31.36,4.58.36,6.81,0,.23-.86.27-1.86.27-2.41,0-3.86-.09-5.85-.09-1.32,0-2.54.04-3.86.04-2.31,0-1.95.73-1.95,4.4,0,1.36.18,2.77,1.18,2.95,2.63,0,5.22.05,7.9.05h.27c.36,0,.77.04.77.41-.18,2.31-.27,4.63-.41,6.99-.05.95-.09,1.04-1.13,1.04-1.41,0-2.95.14-4.45.14-.86,0-1.68-.04-2.45-.18-.82,0-1.63.54-1.63,1.41,0,2,.05,3.99.05,5.99,0,1.72,1.18,1.59,2.99,1.59h9.8c.36,0,.5.09.5.59,0,1.5-.09,7.76-.64,7.76-.32.04-.59.04-.91.04-6.85,0-13.93-.04-20.97-.04-.54-.05-.5-.14-.5-1.13,0-4.81,0-9.62.14-14.39,0-5.26.09-10.48.09-15.7Z"/>
      </g>
    </g>
  </g>
</svg>