<?xml version="1.0" encoding="UTF-8"?>
<svg id="Layer_2" data-name="Layer 2" xmlns="http://www.w3.org/2000/svg" viewBox="0 0 174.71 165.08">
  <defs>
    <style>
      .cls-1 {
        isolation: isolate;
      }

      .cls-2 {
        fill: #25272e;
        stroke-width: 0px;
      }
    </style>
  </defs>
  <g id="Layer_9" data-name="Layer 9">
    <g>
      <g id="text3806-8-6-9-0-8-7-0">
        <g class="cls-1">
          <path class="cls-2" d="M4.35,160.39c-2.84-3.12-4.25-7.98-4.25-14.59,0-12.77,5.85-19.16,17.55-19.16,1.76,0,3.49.19,5.19.57s3.06.85,4.06,1.43c.9.54,1.35,1.04,1.35,1.51,0,.57-.28,1.33-.83,2.26s-1.05,1.4-1.48,1.4c-.11,0-.56-.2-1.35-.59-.79-.39-1.76-.75-2.91-1.08-1.15-.32-2.48-.48-3.98-.48-3.98,0-6.93,1.14-8.83,3.42-1.9,2.28-2.85,5.88-2.85,10.79s.94,8.43,2.83,10.77c1.88,2.33,4.78,3.5,8.69,3.5,1.72,0,3.21-.21,4.47-.62,1.26-.41,2.46-.91,3.61-1.48.5-.29.84-.43,1.02-.43.32,0,.65.22,1,.67.34.45.64.95.89,1.51.25.56.38.96.38,1.21,0,.72-.59,1.38-1.78,1.99-1.08.61-2.49,1.11-4.25,1.51-1.76.39-3.54.59-5.33.59-5.96,0-10.35-1.56-13.19-4.68Z"/>
          <path class="cls-2" d="M31,163.84c0-.22.05-.5.16-.86l12.49-35.15c.21-.61,1.02-.92,2.42-.92h1.88c1.4,0,2.21.31,2.42.92l12.49,35.2c.11.32.16.59.16.81,0,.65-.81.97-2.42.97h-.97c-1.36,0-2.17-.3-2.42-.92l-2.85-8.18h-14.91l-2.8,8.18c-.25.61-1,.92-2.26.92h-.81c-1.72,0-2.58-.32-2.58-.97ZM52.63,150.76l-4.9-14.21c-.14-.5-.28-1.09-.4-1.78-.13-.68-.22-1.17-.3-1.45h-.11c-.29,1.51-.56,2.58-.81,3.23l-4.95,14.21h11.46Z"/>
          <path class="cls-2" d="M68.84,164.27c-.29-.29-.43-.73-.43-1.35v-34.12c0-.61.14-1.06.43-1.35.29-.29.73-.43,1.35-.43h9.9c4.05,0,7.11.85,9.18,2.56,2.06,1.71,3.09,4.03,3.09,6.97,0,1.76-.58,3.44-1.75,5.03-1.17,1.6-2.56,2.65-4.17,3.15l.05.22c.68.14,1.61.55,2.77,1.21,1.17.66,2.23,1.64,3.2,2.93s1.45,2.87,1.45,4.74c0,7.25-4.63,10.87-13.89,10.87h-9.85c-.61,0-1.06-.14-1.35-.43ZM79.65,142.9c1.97,0,3.59-.54,4.84-1.61,1.25-1.08,1.88-2.42,1.88-4.04,0-1.79-.55-3.12-1.64-3.98-1.1-.86-2.83-1.29-5.19-1.29h-5.38v10.93h5.49ZM81.27,159.75c2.12,0,3.77-.55,4.95-1.64,1.18-1.09,1.78-2.61,1.78-4.55,0-1.83-.65-3.24-1.94-4.23-1.29-.99-3.19-1.48-5.71-1.48h-6.19v11.9h7.11Z"/>
          <path class="cls-2" d="M100.11,163.46v-35.2c0-.9.83-1.35,2.48-1.35h.86c1.65,0,2.48.45,2.48,1.35v35.2c0,.9-.83,1.35-2.48,1.35h-.86c-1.65,0-2.48-.45-2.48-1.35Z"/>
          <path class="cls-2" d="M115.18,163.46v-35.2c0-.9.83-1.35,2.48-1.35h1.45c.65,0,1.17.08,1.59.24.41.16.76.46,1.05.89l15.5,23.58c.65.93,1.26,1.99,1.83,3.18l.21-.05c-.07-.83-.11-2.05-.11-3.66v-22.82c0-.9.83-1.35,2.48-1.35h.7c1.65,0,2.48.45,2.48,1.35v35.2c0,.9-.83,1.35-2.48,1.35h-1.35c-.61,0-1.09-.07-1.45-.21-.36-.14-.66-.39-.92-.75l-15.88-24.06c-.61-.86-1.22-1.94-1.83-3.23l-.21.05c.07.83.11,2.05.11,3.66v23.2c0,.9-.83,1.35-2.48,1.35h-.7c-1.65,0-2.48-.45-2.48-1.35Z"/>
          <path class="cls-2" d="M156.52,164.29c-1.87-.52-3.28-1.14-4.25-1.86-.75-.54-1.13-1.06-1.13-1.56,0-.54.29-1.25.86-2.13.57-.88,1.04-1.32,1.4-1.32.25,0,.66.2,1.24.59,1.18.61,2.36,1.11,3.53,1.51,1.17.4,2.54.59,4.12.59,1.87,0,3.42-.49,4.66-1.48,1.24-.99,1.86-2.36,1.86-4.12,0-1.15-.3-2.11-.92-2.88-.61-.77-1.37-1.4-2.29-1.88s-2.18-1.07-3.79-1.75l-1.18-.48c-1.87-.75-3.39-1.51-4.57-2.26-1.18-.75-2.18-1.8-2.99-3.15-.81-1.35-1.21-3.1-1.21-5.25s.53-3.89,1.59-5.44c1.06-1.54,2.5-2.73,4.33-3.55,1.83-.83,3.91-1.24,6.24-1.24,1.4,0,2.84.18,4.33.54,1.49.36,2.66.83,3.53,1.4.75.47,1.13.97,1.13,1.51,0,.5-.26,1.19-.78,2.07-.52.88-.96,1.32-1.32,1.32-.18,0-.7-.22-1.56-.65-1.65-.79-3.37-1.18-5.17-1.18-2.01,0-3.58.47-4.71,1.4-1.13.93-1.7,2.19-1.7,3.77,0,1.15.3,2.08.89,2.8.59.72,1.3,1.27,2.13,1.67.83.4,2.12.93,3.88,1.61,2.12.83,3.85,1.62,5.19,2.4,1.35.77,2.49,1.88,3.45,3.34.95,1.45,1.43,3.31,1.43,5.57,0,3.48-1.11,6.16-3.34,8.05-2.23,1.88-5.11,2.83-8.67,2.83-2.26,0-4.32-.26-6.19-.78Z"/>
        </g>
      </g>
      <g>
        <path class="cls-2" d="M105.22,116.56H3.79c-2.09,0-3.79-1.7-3.79-3.79V30.43c0-2.09,1.7-3.79,3.79-3.79h55.13c.87,0,1.57.7,1.57,1.57s-.7,1.57-1.57,1.57H3.79c-.36,0-.65.29-.65.65v82.35c0,.36.29.65.65.65h101.43c.87,0,1.57.7,1.57,1.57s-.7,1.57-1.57,1.57Z"/>
        <path class="cls-2" d="M170.89,116.56h-28.95c-.87,0-1.57-.7-1.57-1.57s.7-1.57,1.57-1.57h28.95c.36,0,.65-.29.65-.65V30.43c0-.36-.29-.65-.65-.65h-74.54c-.87,0-1.57-.7-1.57-1.57s.7-1.57,1.57-1.57h74.54c2.09,0,3.79,1.7,3.79,3.79v82.35c0,2.09-1.7,3.79-3.79,3.79Z"/>
        <g>
          <g>
            <path class="cls-2" d="M36.83,110.25c-.31,0-.56-.25-.56-.56v-26.48c0-.31.25-.56.56-.56s.56.25.56.56v26.48c0,.31-.25.56-.56.56Z"/>
            <path class="cls-2" d="M22.84,102.7c-.31,0-.56-.25-.56-.56v-27.09c0-.31.25-.56.56-.56s.56.25.56.56v27.09c0,.31-.25.56-.56.56Z"/>
            <path class="cls-2" d="M120.61,88.46c-.14,0-.28-.03-.41-.09l-41.12-19.22v-22.15l-22.73,6.53,15.83-25.28c.24-.39.73-.56,1.17-.39l66.35,26.06c.26.1.46.31.55.57.09.26.07.55-.07.79l-18.74,32.69c-.18.31-.5.48-.83.48ZM80.2,68.43l40.34,18.86,18.57-32.4-66.04-25.94-14.21,22.68,20.12-5.78c.28-.08.6-.03.84.15.24.18.39.47.39.77v21.66ZM79.29,46.93h0s0,0,0,0ZM73.13,28.83h0s0,0,0,0Z"/>
            <path class="cls-2" d="M127.72,79.09c-.22,0-.43-.13-.52-.35-.12-.29.02-.61.31-.73l22.36-9.05c.28-.12.61.02.73.31.12.29-.02.61-.31.73l-22.36,9.05c-.07.03-.14.04-.21.04Z"/>
            <g>
              <path class="cls-2" d="M121.99,88.62l32.73-17.16c.15-.07.19-.27.07-.39l-14.84-16.14c-.23-.25-.63-.2-.79.09l-17.82,32.91c-.23.42.21.89.64.68Z"/>
              <path class="cls-2" d="M121.77,89.23c-.28,0-.56-.11-.76-.33-.32-.33-.38-.83-.15-1.23l17.82-32.91c.17-.3.46-.5.8-.54.34-.04.67.09.9.33l14.84,16.14c.17.19.25.45.2.7s-.21.46-.44.57l-32.73,17.16c-.15.07-.3.1-.46.1ZM121.99,88.62h0,0ZM139.61,55.39l-17.66,32.62,32.15-16.86-14.49-15.76ZM154.46,70.96h-.01s.01,0,.01,0Z"/>
            </g>
            <path class="cls-2" d="M36.83,96.45c-.22,0-.43-.13-.52-.34-.12-.29.01-.61.3-.73l18.12-7.65c.28-.12.61.01.73.3.12.29-.01.61-.3.73l-18.12,7.65c-.07.03-.14.04-.22.04Z"/>
            <path class="cls-2" d="M66.36,83.99c-.22,0-.43-.13-.52-.35-.12-.29.02-.61.31-.73l11.28-4.51c.29-.12.61.02.73.31.12.29-.02.61-.31.73l-11.28,4.51c-.07.03-.14.04-.21.04Z"/>
            <path class="cls-2" d="M36.57,96.49c-.1,0-.19-.02-.28-.08l-13.78-8.04c-.27-.16-.36-.5-.2-.77.16-.27.5-.36.77-.2l13.78,8.04c.27.16.36.5.2.77-.1.18-.29.28-.49.28Z"/>
            <path class="cls-2" d="M23.1,87.93c-.23,0-.45-.14-.53-.38-.1-.29.05-.61.34-.72l13.31-4.68c.29-.1.61.05.71.34.1.29-.05.61-.34.72l-13.31,4.68c-.06.02-.12.03-.19.03Z"/>
            <path class="cls-2" d="M66.37,96.25c-.31,0-.56-.25-.56-.56l-.02-21.68c0-.31.25-.56.56-.56h0c.31,0,.56.25.56.56l.02,21.68c0,.31-.25.56-.56.56h0Z"/>
            <path class="cls-2" d="M42.65,106.26c-.31,0-.56-.25-.56-.56v-12.09c0-.31.25-.56.56-.56s.56.25.56.56v12.09c0,.31-.25.56-.56.56Z"/>
            <path class="cls-2" d="M30.46,105.01c-.31,0-.56-.25-.56-.56v-12.09c0-.31.25-.56.56-.56s.56.25.56.56v12.09c0,.31-.25.56-.56.56Z"/>
            <path class="cls-2" d="M34.65,107.72c-.31,0-.56-.25-.56-.56v-11.78c0-.31.25-.56.56-.56s.56.25.56.56v11.78c0,.31-.25.56-.56.56Z"/>
            <path class="cls-2" d="M25.95,102.7c-.31,0-.56-.25-.56-.56v-12.09c0-.31.25-.56.56-.56s.56.25.56.56v12.09c0,.31-.25.56-.56.56Z"/>
            <path class="cls-2" d="M48.96,103.32c-.31,0-.56-.25-.56-.56v-11.6c0-.31.25-.56.56-.56s.56.25.56.56v11.6c0,.31-.25.56-.56.56Z"/>
            <path class="cls-2" d="M55,100.98c-.31,0-.56-.25-.56-.56v-12.12c0-.31.25-.56.56-.56s.56.25.56.56v12.12c0,.31-.25.56-.56.56Z"/>
            <path class="cls-2" d="M36.57,108.84c-.1,0-.19-.02-.28-.08l-13.78-8.04c-.27-.16-.36-.5-.2-.77.16-.27.5-.36.77-.2l13.78,8.04c.27.16.36.5.2.77-.1.18-.29.28-.49.28Z"/>
            <path class="cls-2" d="M28.3,91.73c-.31,0-.56-.25-.56-.56v-5.62c0-.31.25-.56.56-.56s.56.25.56.56v5.62c0,.31-.25.56-.56.56Z"/>
            <path class="cls-2" d="M33.39,94.64c-.31,0-.56-.25-.56-.56v-10.08c0-.31.25-.56.56-.56s.56.25.56.56v10.08c0,.31-.25.56-.56.56Z"/>
            <path class="cls-2" d="M36.97,108.86c-.22,0-.43-.13-.52-.34-.12-.29.01-.61.3-.73l40.33-16.98v-20.8c0-.31.25-.56.56-.56s.56.25.56.56v20.91c0,.38-.23.73-.58.88l-40.43,17.03c-.07.03-.14.04-.22.04Z"/>
            <path class="cls-2" d="M72.66,93.5c-.31,0-.56-.25-.56-.56v-11.6c0-.31.25-.56.56-.56s.56.25.56.56v11.6c0,.31-.25.56-.56.56Z"/>
            <path class="cls-2" d="M120.47,114.43c-.16,0-.31-.04-.45-.12l-42.64-22.92c-.27-.15-.38-.49-.23-.76.15-.27.48-.38.76-.23l42.56,22.87,30.54-17.02.15-23.46c0-.31.25-.56.56-.56h0c.31,0,.56.25.56.56l-.15,23.57c-.01.35-.19.64-.48.81l-30.71,17.12c-.14.08-.31.13-.47.13ZM120.39,113.33s0,0,0,0h0Z"/>
            <path class="cls-2" d="M120.96,114.38c-.31,0-.56-.25-.56-.56v-25.96c0-.31.25-.56.56-.56s.56.25.56.56v25.96c0,.31-.25.56-.56.56Z"/>
            <g>
              <path class="cls-2" d="M95.95,76.39v10.45c0,.22.16.47.36.57l4.69,2.25c.2.09.36,0,.36-.22v-10.47"/>
              <path class="cls-2" d="M101.14,90.25c-.13,0-.26-.03-.38-.09l-4.69-2.25c-.39-.19-.68-.64-.68-1.07v-10.45c0-.31.25-.56.56-.56s.56.25.56.56v10.45l4.29,2.09v-9.97c0-.31.25-.56.56-.56s.56.25.56.56v10.47c0,.3-.13.56-.37.7-.12.08-.26.12-.41.12ZM101.24,89.15h0,0Z"/>
            </g>
            <g>
              <path class="cls-2" d="M109.8,83.31v10.45c0,.22.16.47.36.57l4.69,2.25c.2.09.36,0,.36-.22v-10.47"/>
              <path class="cls-2" d="M114.99,97.17c-.13,0-.26-.03-.38-.09l-4.69-2.25c-.39-.19-.68-.64-.68-1.07v-10.45c0-.31.25-.56.56-.56s.56.25.56.56v10.45l4.29,2.09v-9.97c0-.31.25-.56.56-.56s.56.25.56.56v10.47c0,.3-.13.56-.37.7-.12.08-.26.12-.41.12ZM115.09,96.06h0,0Z"/>
            </g>
            <path class="cls-2" d="M85.54,87.7c-.31,0-.56-.25-.56-.56v-12.09c0-.31.25-.56.56-.56s.56.25.56.56v12.09c0,.31-.25.56-.56.56Z"/>
            <path class="cls-2" d="M91.08,92.92c-.31,0-.56-.25-.56-.56v-14.11c0-.31.25-.56.56-.56s.56.25.56.56v14.11c0,.31-.25.56-.56.56Z"/>
            <path class="cls-2" d="M96.63,96.95c-.31,0-.56-.25-.56-.56v-5.96c0-.31.25-.56.56-.56s.56.25.56.56v5.96c0,.31-.25.56-.56.56Z"/>
            <path class="cls-2" d="M100.86,100.46c-.31,0-.56-.25-.56-.56v-7.54c0-.31.25-.56.56-.56s.56.25.56.56v7.54c0,.31-.25.56-.56.56Z"/>
            <path class="cls-2" d="M106.47,96.95c-.31,0-.56-.25-.56-.56v-10.4c0-.31.25-.56.56-.56s.56.25.56.56v10.4c0,.31-.25.56-.56.56Z"/>
            <path class="cls-2" d="M118.05,109.7c-.31,0-.56-.25-.56-.56v-10.26c0-.31.25-.56.56-.56s.56.25.56.56v10.26c0,.31-.25.56-.56.56Z"/>
            <path class="cls-2" d="M112.58,105.96c-.31,0-.56-.25-.56-.56v-6.1c0-.31.25-.56.56-.56s.56.25.56.56v6.1c0,.31-.25.56-.56.56Z"/>
            <path class="cls-2" d="M126.16,102.35c-.31,0-.56-.25-.56-.56v-13.2c0-.31.25-.56.56-.56s.56.25.56.56v13.2c0,.31-.25.56-.56.56Z"/>
            <path class="cls-2" d="M129.63,103.81c-.31,0-.56-.25-.56-.56v-15.65c0-.31.25-.56.56-.56s.56.25.56.56v15.65c0,.31-.25.56-.56.56Z"/>
            <path class="cls-2" d="M134.69,102.91c-.31,0-.56-.25-.56-.56v-9.98c0-.31.25-.56.56-.56s.56.25.56.56v9.98c0,.31-.25.56-.56.56Z"/>
            <path class="cls-2" d="M139.41,93.5c-.31,0-.56-.25-.56-.56v-9.03c0-.31.25-.56.56-.56s.56.25.56.56v9.03c0,.31-.25.56-.56.56Z"/>
            <path class="cls-2" d="M145.02,88.16c-.31,0-.56-.25-.56-.56v-7.23c0-.31.25-.56.56-.56s.56.25.56.56v7.23c0,.31-.25.56-.56.56Z"/>
            <path class="cls-2" d="M149.39,94.17c-.31,0-.56-.25-.56-.56v-15.81c0-.31.25-.56.56-.56s.56.25.56.56v15.81c0,.31-.25.56-.56.56Z"/>
            <g>
              <path class="cls-2" d="M111.67,68.05c-.08,0-.15-.02-.23-.05l-30.52-13.54c-.28-.13-.41-.46-.29-.74.13-.28.46-.41.74-.29l30.52,13.54c.28.13.41.46.29.74-.09.21-.3.33-.51.33Z"/>
              <path class="cls-2" d="M126.16,59.3c-.07,0-.14-.01-.21-.04l-38.01-15.46c-.29-.12-.43-.44-.31-.73.12-.29.45-.42.73-.31l38.01,15.46c.29.12.43.44.31.73-.09.22-.3.35-.52.35Z"/>
              <path class="cls-2" d="M113.75,60.82c-.07,0-.15-.01-.22-.05l-18.74-8.11c-.28-.12-.42-.45-.29-.74.12-.28.45-.42.74-.29l18.74,8.11c.28.12.42.45.29.74-.09.21-.3.34-.51.34Z"/>
              <path class="cls-2" d="M120.27,78.81c-.08,0-.16-.02-.24-.05l-33.5-15.63c-.28-.13-.4-.46-.27-.75.13-.28.47-.4.75-.27l33.5,15.63c.28.13.4.46.27.75-.1.2-.3.32-.51.32Z"/>
            </g>
            <g>
              <path class="cls-2" d="M43.23,73.59c-.23,0-.45-.15-.53-.38-.1-.29.06-.61.35-.71l30.86-10.43c.29-.1.61.06.71.35s-.06.61-.35.71l-30.86,10.43c-.06.02-.12.03-.18.03Z"/>
              <g>
                <path class="cls-2" d="M38.29,84.89c-.35,0-.69-.19-.85-.53l-9.83-21.83c-.09-.18-.1-.41-.01-.62.09-.21.26-.36.48-.43l50.89-15.63c.29-.09.61-.03.85.15.24.18.39.47.39.77v22.4l-41.57,15.65c-.11.04-.23.06-.34.06ZM28.8,62.44l9.58,21.29,40.7-15.33v-21.4l-50.28,15.44ZM28.62,62.05v.03s0-.02,0-.03Z"/>
                <g>
                  <path class="cls-2" d="M28.92,62.27c-.16-.32-.6-.37-.82-.08l-7.99,10.06c-.15.19-.1.46.11.59l17.96,11.44c.42.24.9-.21.68-.64l-9.94-21.36Z"/>
                  <path class="cls-2" d="M38.42,84.91c-.18,0-.36-.05-.53-.14l-17.97-11.45c-.22-.13-.39-.37-.44-.64-.05-.27.02-.55.19-.77l7.99-10.06c.22-.28.56-.43.93-.39.36.04.67.25.83.57h0s9.94,21.38,9.94,21.38c.2.4.11.9-.23,1.22-.2.19-.46.29-.72.29ZM20.66,72.46l17.67,11.26-9.88-21.12-7.79,9.86ZM20.5,72.35h0s0,0,0,0Z"/>
                </g>
                <path class="cls-2" d="M35.82,68.01c-.24,0-.46-.15-.53-.39-.1-.29.07-.61.36-.71l21.77-7.07c.29-.09.61.07.71.36.1.29-.07.61-.36.71l-21.77,7.07c-.06.02-.12.03-.17.03Z"/>
              </g>
              <path class="cls-2" d="M61.2,72.24c-.23,0-.45-.14-.53-.37-.1-.29.05-.61.34-.72l10.82-3.81c.29-.11.61.05.72.34.1.29-.05.61-.34.72l-10.82,3.81c-.06.02-.12.03-.19.03Z"/>
            </g>
          </g>
          <g>
            <path class="cls-2" d="M68.06,74.15l.04,11.17c0,.17.06.33.16.43l4.73,2.48c.23.21.52-.03.52-.41v-15.9c-.93.53-5.13,2.05-5.45,2.24Z"/>
            <path class="cls-2" d="M73.17,88.77c-.16,0-.31-.05-.44-.15l-4.78-2.53c-.2-.18-.32-.47-.31-.78l-.04-11.43.23-.14c.15-.09.58-.26,1.79-.73,1.32-.51,3.13-1.21,3.67-1.52l.7-.4v16.71c0,.4-.21.76-.52.9-.09.04-.19.06-.29.06ZM68.53,74.45l.04,10.87,4.46,2.4v-15.06c-.8.36-2.03.83-3.08,1.24-.53.2-1.1.43-1.42.56Z"/>
          </g>
        </g>
      </g>
      <g>
        <g>
          <g>
            <path class="cls-2" d="M1.98,14.63l.49-.04c.37-.03.51-.12.51-.19v-6.44h-.36c-1.06.08-1.78,1.09-2.13,1.79l-.08.14h-.08l.32-2.03h6.13l.21,2.02h-.07l-.07-.14c-.37-.81-1.09-1.76-2.1-1.78h-.37v6.47c0,.08.07.11.62.16l.37.03.03.07H1.94l.03-.07Z"/>
            <path class="cls-2" d="M7.33,14.63h.15c.34-.03.46-.05.46-.19v-5.83c0-.48-.07-.57-.44-.67l-.25-.07v-.04s1.93-.48,1.93-.48v3.5c.48-.4,1.14-.97,1.88-.97.36,0,.63.12.86.35.25.25.35.71.35,1.2v3.03c0,.07.02.11.56.16h.12s.03.08.03.08h-2.58l.03-.07h.2c.38-.03.4-.1.4-.19v-2.87c0-.67-.33-.92-.9-.92-.43,0-.73.15-.97.34v3.47c0,.09.05.12.49.15h.15s.03.08.03.08h-2.56l.03-.07Z"/>
            <path class="cls-2" d="M13.06,12.45c0-1.46,1.08-2.6,2.52-2.6,1.26,0,1.87.76,1.87,1.54,0,.07-.01.12-.02.19,0,0-2.72-.02-3.03-.03-.02.14-.02.38-.02.52,0,1.21.68,2.02,1.66,2.02.62,0,1.07-.23,1.41-.85l.08.03c-.47,1.01-1.16,1.58-2.2,1.58-1.31,0-2.27-1.05-2.27-2.4ZM16.24,11.43c0-.68-.17-1.44-.78-1.44-.49,0-.93.61-1.04,1.45h1.81Z"/>
          </g>
          <path class="cls-2" d="M22.74,8.53l-.82,2.31c-1.07,3.16-1.21,3.43.98,3.66l.46.05.07.14h-5.03l.07-.14.39-.05c1.49-.18,1.67-.5,3.16-4.57l2.56-7.18-.25-.73c1.01-.3,1.51-.98,1.94-2.01h.41l3.93,11.55c.85,2.47,1.24,2.88,2.24,2.95l.64.05.05.14h-7.16l.07-.14.62-.05c1.14-.07,1.19-.64.71-2.08l-1.28-3.89h-3.75ZM26.42,8.3l-1.72-5.21h-.02l-1.85,5.21h3.59Z"/>
          <path class="cls-2" d="M33.65,14.55l1.01-.09c.8-.09,1.07-.25,1.07-.39V.94c0-.16-.14-.23-1.3-.34l-.75-.07-.07-.14h6.61c4.07,0,6.04,1.12,6.04,3.45s-2.42,3.93-6.22,3.93c-.53,0-.98-.05-1.35-.11v6.47c0,.16.11.25,1.28.34l.98.07.07.14h-7.43l.07-.14ZM43.12,4.14c0-2.31-1.01-3.5-3.32-3.52l-1.12.05v6.68c.34.07.64.18,1.28.18,1.85,0,3.16-1.33,3.16-3.39Z"/>
          <path class="cls-2" d="M46.98,14.55l.8-.09c.8-.09,1.12-.25,1.12-.39V.94c0-.16-.14-.23-1.3-.34l-.59-.07-.07-.14h11.67l.23,4.67h-.14l-.09-.25c-.87-3.04-2.22-4.23-4.99-4.16l-1.76.02v6.56h.98c2.01-.11,2.9-.64,3.39-2.13l.14-.41.16.02-.59,5.47-.16-.02-.02-.41c-.14-1.67-.78-2.1-3.11-2.24l-.78-.05v6.91l2.24.09c2.93-.05,4.46-1.78,5.38-4.3l.11-.25h.14l-.64,4.78h-12.17l.07-.14Z"/>
          <path class="cls-2" d="M80.45,14.16l-.25-3.66h.14l.91,1.76c.87,1.67,2.08,2.47,3.84,2.47,1.9,0,3.06-1.17,3.06-2.95,0-1.94-1.58-2.7-3.55-3.41-2.15-.78-3.96-1.72-3.96-4.07S82.57.09,85.36.09c1.26,0,2.45.32,3.2.57l.92-.32.07,3.98h-.11l-1.92-3.36c-.5-.37-1.17-.64-2.2-.64-1.49,0-2.58,1.01-2.58,2.36,0,1.69,1.56,2.36,3.39,3.02,2.36.82,4.16,1.88,4.16,4.53,0,2.42-2.17,4.73-5.28,4.73-1.69,0-3.34-.32-4.55-.8Z"/>
          <path class="cls-2" d="M91.95,7.55c0-3.93,3.61-7.46,7.96-7.46s7.71,3.04,7.71,7.48c0,3.93-3.59,7.39-7.96,7.39s-7.71-2.97-7.71-7.41ZM104.39,7.53c0-4.53-1.78-7.16-4.67-7.16s-4.57,2.38-4.57,7.18,1.76,7.16,4.71,7.16,4.53-2.36,4.53-7.18Z"/>
          <path class="cls-2" d="M108.58,7.64c0-4.21,3.13-7.57,8.51-7.57,1.42,0,2.93.46,3.68.87l1.46-.48.14,4.6h-.14l-2.31-4.05c-.48-.34-1.62-.66-2.88-.66-3.39,0-5.26,3.13-5.26,7.16,0,4.41,2.31,7.21,5.17,7.21,2.54,0,3.93-1.26,5.08-3.43l.71-1.35h.14l-.78,4.05-.75.11c-.82.37-2.93.87-4.51.87-4.99,0-8.26-3.13-8.26-7.32Z"/>
          <path class="cls-2" d="M124.04,14.55l.89-.09c.78-.07,1.07-.25,1.07-.39V.94c0-.16-.14-.23-1.3-.34l-.66-.07-.07-.14h7.02l-.07.14-.89.09c-.78.07-1.08.25-1.08.39v13.13c0,.16.14.23,1.3.34l.64.07.07.14h-7l.07-.14Z"/>
          <path class="cls-2" d="M131.8,14.55l.8-.09c.8-.09,1.12-.25,1.12-.39V.94c0-.16-.14-.23-1.3-.34l-.59-.07-.07-.14h11.67l.23,4.67h-.14l-.09-.25c-.87-3.04-2.22-4.23-4.99-4.16l-1.76.02v6.56h.98c2.01-.11,2.9-.64,3.39-2.13l.14-.41.16.02-.59,5.47-.16-.02-.02-.41c-.14-1.67-.78-2.1-3.11-2.24l-.78-.05v6.91l2.24.09c2.93-.05,4.46-1.78,5.38-4.3l.11-.25h.14l-.64,4.78h-12.17l.07-.14Z"/>
          <path class="cls-2" d="M149.13,14.55l1.03-.09c.78-.07,1.07-.25,1.07-.39V.6h-.75c-2.22.16-3.73,2.29-4.46,3.75l-.16.3h-.16l.66-4.25h12.83l.43,4.23h-.14l-.14-.3c-.78-1.69-2.29-3.68-4.39-3.73h-.78v13.54c0,.16.14.23,1.3.34l.78.07.07.14h-7.27l.07-.14Z"/>
          <path class="cls-2" d="M163.5,14.55l1.01-.09c.78-.07,1.08-.25,1.08-.39v-5.92l-3.07-5.42c-.91-1.6-1.21-2.04-2.26-2.15l-.48-.05-.07-.14h7.09l-.07.14-.39.02c-1.49.14-1.53.53-1.01,1.46l3.02,5.4h.05l1.72-3.2c1.58-3,1.62-3.41-.41-3.61l-.5-.07-.07-.14h5.22l-.07.14-.64.07c-1.17.14-1.62.55-3.29,3.71l-1.81,3.34v6.5c0,.16.14.23,1.3.34l.75.07.07.14h-7.23l.07-.14Z"/>
        </g>
        <g>
          <g>
            <path class="cls-2" d="M76.18,10.2l-12.53.66s-.06.03-.06.07l.09,1.75s.03.06.07.06l12.53-.66s.06-.03.06-.07l-.09-1.75s-.03-.06-.07-.06ZM67.13,12.1h0c-.26.01-.49-.19-.5-.45,0-.13.04-.25.12-.35.09-.1.2-.15.33-.16h0c.26-.01.49.19.5.45.02.26-.19.49-.45.51ZM69.99,11.76c-.17.01-.31-.12-.32-.29,0-.08.02-.16.08-.22.05-.06.12-.09.21-.1.08,0,.16.02.22.08.06.05.1.13.1.21,0,.17-.12.31-.29.32ZM72.87,11.8h0c-.26.01-.49-.19-.5-.45,0-.13.04-.25.12-.35.09-.1.2-.15.33-.16h0c.26-.01.49.19.5.45.02.26-.19.49-.45.51Z"/>
            <path class="cls-2" d="M76.2,6.95c-.07-.03-.16,0-.2.06-.34.47-.61.81-.77,1.02,0,0-.02,0-.02,0l-.3-1.98c0-.07-.06-.13-.13-.15-.07-.02-.15.01-.19.07l-1.38,2.03s-.07.06-.12.06c-.44,0-.57,0-.74,0-.05,0-.09-.02-.12-.05-1.02-1.19-1.94-2.62-2.38-3.25-.11-.15-.34-.14-.43.02-.37.67-1.13,2.18-2.03,3.48-.03.04-.07.06-.11.06-.17.01-.3.02-.73.07-.05,0-.1-.01-.13-.05l-1.59-1.88c-.05-.06-.12-.08-.19-.05-.07.03-.12.09-.12.16l-.09,2s-.01.02-.02,0c-.18-.19-.49-.5-.88-.93-.05-.06-.14-.07-.21-.04-.07.03-.11.11-.1.18l.35,2.35c0,.05.05.09.11.09l12.45-.65c.05,0,.1-.05.1-.1l.1-2.37c0-.08-.04-.15-.12-.17ZM70.36,7.85l-.43.95c-.03.07-.13.08-.17,0l-.54-.9s-.02-.06,0-.09l.43-.95c.03-.07.13-.08.17,0l.54.9s.02.06,0,.09Z"/>
          </g>
          <path class="cls-2" d="M77.91,14.69h-15.91c-.26,0-.49-.13-.62-.36s-.13-.49,0-.72l.81-1.36c.1-.16.31-.21.47-.12.16.1.21.31.12.47l-.81,1.36s0,.01,0,.03c0,.01.02.01.02.01h15.91s.02,0,.02-.01c0-.01,0-.02,0-.03l-.92-1.53c-.1-.16-.05-.37.12-.47.16-.1.37-.05.47.12l.92,1.53c.13.22.14.49.01.72-.13.23-.36.36-.62.36Z"/>
          <path class="cls-2" d="M66.38,6.25c-.06,0-.12-.02-.17-.05-.16-.1-.21-.31-.12-.47l3.21-5.39c.13-.22.36-.35.61-.35h0c.25,0,.48.13.61.34l3.08,5.1c.1.16.05.37-.12.47-.16.1-.37.05-.47-.12l-3.08-5.1s0-.01-.02-.01h0s-.02,0-.02.01l-3.21,5.39c-.06.11-.18.17-.29.17Z"/>
        </g>
      </g>
    </g>
  </g>
</svg>