<?xml version="1.0" encoding="UTF-8"?>
<svg id="Layer_2" data-name="Layer 2" xmlns="http://www.w3.org/2000/svg" viewBox="0 0 225.92 149.86">
  <defs>
    <style>
      .cls-1 {
        fill: #25272e;
        stroke-width: 0px;
      }
    </style>
  </defs>
  <g id="Layer_13" data-name="Layer 13">
    <g>
      <g>
        <path class="cls-1" d="M1.73,79.97c0-21.89,16.04-41.29,47.25-41.29,7.34,0,14.55,1.99,18.65,4.23l8.58-1.87,1.12,25.74h-.74l-13.55-23.5c-2.11-1.37-7.96-2.98-14.05-2.98-16.17,0-25.49,16.17-25.49,39.17s10.69,38.42,24.37,38.42,21.51-6.71,26.86-18.4l4.6-9.45h.75l-3.98,24.12-4.1.62c-4.48,1.87-16.29,4.48-24.5,4.48-28.72,0-45.76-18.16-45.76-39.3Z"/>
        <path class="cls-1" d="M84.25,117.28l1.49-.13c3.86-.25,5.22-.5,5.22-1.99v-34.32c0-7.71-.87-8.7-5.1-9.82l-2.86-.62.13-.5,25.49-7.09v52.6c0,.99.74,1.12,6.47,1.74l1,.13.37.74h-32.58l.37-.74Z"/>
        <path class="cls-1" d="M124.1,101.36l.62-29.35-10.32-.12,4.48-6.72,11.57-7.96,10.57-7.46h.62l-.13,14.67h18.53l-1.99,7.21h-16.79l-.37,27.11c-.25,9.58,2.61,12.93,9.58,12.93,5.1,0,7.83-1.87,9.95-3.86l.5.5c-6.22,6.47-12.06,10.94-20.39,10.94-11.57,0-16.54-5.6-16.42-17.91Z"/>
        <path class="cls-1" d="M165.75,141.16c0-4.11,3.23-8.08,8.21-8.08,5.72,0,8.71,4.35,8.95,8.33,3.48-.62,4.97-2.98,7.34-9.2l4.97-13.06h-2.98l-21.64-47.25c-2.36-5.1-3.36-6.1-7.46-6.59l-1.62-.13-.37-.74h35.19l-.37.74-2.11.13c-5.22.5-6.22,1.62-4.48,5.35l12.68,29.22,6.47-17.66c4.85-13.43,3.73-15.42-4.85-16.66l-1.74-.37-.37-.74h22.63l-.37.74-2.11.37c-5.72.62-6.34,2.11-12.06,17.41l-12.93,34.94-5.35,15.3c-3.86,11.56-8.95,16.66-16.17,16.66-4.23,0-9.45-2.49-9.45-8.7Z"/>
      </g>
      <g>
        <path class="cls-1" d="M10.14,30.96l2.09-.19c1.58-.14,2.19-.51,2.19-.79V2.6h-1.53c-4.51.33-7.58,4.65-9.07,7.62l-.33.6h-.33l1.35-8.65h26.08l.88,8.6h-.28l-.28-.6c-1.58-3.44-4.65-7.49-8.93-7.58h-1.58v27.52c0,.33.28.46,2.65.7l1.58.14.14.28h-14.78l.14-.28Z"/>
        <path class="cls-1" d="M32.55,30.96l.65-.05c1.44-.09,1.95-.19,1.95-.74V5.35c0-2.05-.28-2.42-1.86-2.84l-1.07-.28.05-.19,8.18-2.05v14.79l.05.09c2-1.72,4.79-4.14,7.95-4.14,1.53,0,2.7.51,3.67,1.49,1.07,1.07,1.49,3.02,1.49,5.11v12.88c0,.28.09.46,2.37.7l.51.05.14.28h-10.97l.14-.28.84-.05c1.63-.09,1.72-.37,1.72-.74v-12.23c0-2.84-1.4-3.91-3.81-3.91-1.81,0-3.12.65-4.14,1.44v14.79c0,.37.23.51,2.09.65l.65.05.14.28h-10.88l.14-.28Z"/>
        <path class="cls-1" d="M56.55,21.71c0-6.23,4.6-11.07,10.74-11.07,5.35,0,7.95,3.25,7.95,6.56,0,.28-.05.51-.09.79,0,0-11.58-.09-12.88-.14-.09.6-.09,1.63-.09,2.23,0,5.16,2.88,8.6,7.07,8.6,2.65,0,4.56-.98,6-3.63l.33.14c-2,4.28-4.93,6.74-9.35,6.74-5.58,0-9.67-4.46-9.67-10.23ZM70.08,17.34c0-2.88-.74-6.14-3.3-6.14-2.09,0-3.95,2.6-4.42,6.18l7.72-.05Z"/>
      </g>
      <g>
        <path class="cls-1" d="M109.55,54.21l-29.55,8.07c-.08.02-.13.11-.11.19l1.13,4.13c.02.08.11.13.19.11l29.55-8.07c.08-.02.13-.11.11-.19l-1.13-4.13c-.02-.08-.11-.13-.19-.11Z"/>
        <path class="cls-1" d="M107.93,46.44c-.19-.02-.37.08-.45.25-.58,1.29-1.04,2.26-1.32,2.83-.01.02-.04.02-.05,0l-1.75-4.56c-.06-.16-.21-.28-.39-.28-.18,0-.34.1-.41.27l-2.24,5.57c-.04.11-.14.19-.26.22-1.05.22-1.36.29-1.75.4-.11.03-.22,0-.31-.06-3.06-2.32-5.99-5.25-7.36-6.51-.34-.31-.88-.16-1.01.28-.55,1.78-1.57,5.79-3.03,9.35-.04.1-.13.18-.24.21-.39.11-.7.21-1.71.55-.11.04-.24.02-.34-.06l-4.76-3.66c-.14-.11-.34-.12-.49-.02-.15.1-.23.27-.19.44l.81,4.82s-.02.04-.04.03c-.53-.35-1.42-.95-2.57-1.76-.16-.11-.36-.11-.52.01-.15.12-.21.31-.14.49l2.06,5.43c.05.12.18.19.3.15l29.35-8.02c.13-.03.2-.16.18-.29l-.99-5.72c-.03-.19-.18-.33-.37-.35Z"/>
      </g>
      <path class="cls-1" d="M224.19,22.03H80.07c-.95,0-1.73-.77-1.73-1.72s.77-1.72,1.73-1.72h144.13c.95,0,1.72.77,1.72,1.72s-.77,1.72-1.72,1.72Z"/>
      <path class="cls-1" d="M161.36,129.52H1.73c-.95,0-1.73-.77-1.73-1.72s.77-1.72,1.73-1.72h159.63c.95,0,1.72.77,1.72,1.72s-.77,1.72-1.72,1.72Z"/>
      <path class="cls-1" d="M224.19,129.52h-22.6c-.95,0-1.72-.77-1.72-1.72s.77-1.72,1.72-1.72h22.6c.95,0,1.72.77,1.72,1.72s-.77,1.72-1.72,1.72Z"/>
    </g>
  </g>
</svg>