<?xml version="1.0" encoding="UTF-8"?>
<svg id="Layer_2" data-name="Layer 2" xmlns="http://www.w3.org/2000/svg" viewBox="0 0 314.87 87.53">
  <defs>
    <style>
      .cls-1 {
        fill: #25272e;
        stroke-width: 0px;
      }
    </style>
  </defs>
  <g id="Layer_17" data-name="Layer 17">
    <g id="text3806-8-6-9-0-8-7-0">
      <g>
        <path class="cls-1" d="M44.91,49.58l.3.66c-1.03,1.84-1.03,1.92-1.33,2.43l-1.84,2.73-1.18.81c-3.76,1.48-7.89,2.14-12.84,2.14C10.23,58.36.2,48.84.2,32.02.2,23.39,2.86,16.16,7.87,11.21c4.79-4.72,11.88-7.16,21.1-7.16,4.94,0,10.77.74,14.9,1.92l.81.81v11.8l-.66.52-2.8.15-.81-.44-.15-.74c-.22-1.99-.59-2.95-1.92-4.57-2.95-3.69-7.53-5.68-12.91-5.68-4.72,0-7.6,1.62-9.89,5.53-2.14,3.62-3.17,8.56-3.17,14.83,0,16.3,6.57,25.6,18.15,25.6,5.16,0,9.07-1.77,11.8-5.39h.89l1.7,1.18Z"/>
        <path class="cls-1" d="M50.52,54.52l.59-.52c3.02-.07,3.32-.81,3.39-9.29v-6.27c0-9.52-.07-9.81-1.84-9.81-.37,0-.59.07-1.48.3l-.59-.22-.37-1.92.22-.74c1.84-.96,6.86-3.02,11.66-4.72,2.29.66,3.25,2.43,3.25,6.2v.44c2.8-4.5,5.61-6.27,9.89-6.27,1.99,0,3.25.44,4.13,1.7l.15,1.11c-.66,2.95-1.03,4.43-2.36,9.37l-3.17-.52c-.66-3.02-1.7-4.21-3.76-4.21-3.25,0-4.8,3.47-4.8,10.7v4.87c.07,7.89.74,8.85,5.61,9.29l.44.37v2.21l-.52.59c-1.11.07-1.92.15-2.43.15-.81,0-1.25,0-3.62-.29-1.84-.15-3.17-.22-4.28-.22-1.18,0-1.77.07-4.35.29-1.4.15-2.43.22-3.39.22-.59,0-.96,0-1.92-.07l-.44-.59v-2.14Z"/>
        <path class="cls-1" d="M97.52,37.33c-3.03,0-3.47.22-3.47,2.14,0,8.04,4.21,13.8,10.11,13.8,3.02,0,4.94-1.33,7.16-5.09l.59-.15,2.14,1.03.15.52c-.22.96-1.62,4.65-2.51,6.57l-.52.52c-2.88,1.11-5.75,1.55-9.52,1.55-12.47,0-19.11-6.42-19.11-18.52,0-11.29,6.79-17.93,18.44-17.93,9.37,0,14.53,4.06,14.53,11.36,0,.96-.07,1.7-.29,3.17l-.59,1.03h-17.12ZM96.93,34.23c4.72,0,5.39,0,6.34-.29.74-.22,1.18-.89,1.18-1.99,0-3.62-1.92-6.42-4.5-6.42-3.25,0-5.75,3.69-5.75,8.48,1.11.22,1.33.22,2.73.22Z"/>
        <path class="cls-1" d="M121.42,56.22c-.07-1.62-.07-2.58-.07-2.8,0-1.03,0-2.07-.07-3.1l-.07-3.91.52-.66,2.73-.07.59.29c.52,2.73.81,3.32,1.92,4.72,1.99,2.36,5.09,3.76,8.41,3.76,3.54,0,5.46-1.7,5.46-4.72,0-1.18-.44-2.21-1.33-2.8q-.89-.59-7.01-2.95c-7.53-2.88-10.48-6.05-10.48-11.14,0-6.86,5.09-11.07,13.43-11.07,3.32,0,6.71.37,10.7,1.18l.59.81v2.29c0,.74,0,1.33.07,1.84.07,2.29.15,3.69.15,3.84,0,.07,0,.37-.07.89l-.52.66-2.66.15-.66-.37c-.37-2.14-.59-2.66-1.33-3.76-1.7-2.29-4.57-3.76-7.6-3.76-2.66,0-4.13,1.33-4.13,3.62,0,1.33.52,2.21,1.7,2.88q.88.52,6.64,2.88c5.31,2.14,6.2,2.66,7.89,4.21,1.92,1.84,2.88,4.28,2.88,7.38,0,7.38-5.75,11.73-15.64,11.73-3.32,0-7.01-.37-11.36-1.18l-.66-.81Z"/>
        <path class="cls-1" d="M155.58,26.78l-2.8.07-.29-.29c.44-1.4.52-1.7.81-3.54l.59-.52,1.4.07q1.99.15,3.76.15c-.07-1.4-.07-2.36-.07-2.8l-.07-3.03c0-.29,0-.96-.07-1.84,4.65-1.84,5.38-2.14,10.62-4.43l.66.59c-.22,5.9-.29,8.34-.44,11.58h10.25l.15.52c-.59,1.18-.66,1.55-1.25,3.32l-.66.37c-3.17-.22-4.72-.29-8.48-.22l-.07,5.39q-.22,8.48-.22,9.81c0,5.24.22,7.6.74,9.08.66,1.77,2.29,2.8,4.43,2.8,1.33,0,2.29-.29,4.5-1.25l.74.15.81,1.77-.29.96c-2.95,1.77-7.16,2.8-11.07,2.8-4.65,0-7.97-1.33-9.44-3.76-.96-1.7-1.25-4.06-1.25-11.21q0-1.77.22-11.36l.07-5.16h-3.25Z"/>
        <path class="cls-1" d="M185.1,56.22c-.07-1.62-.07-2.58-.07-2.8,0-1.03,0-2.07-.07-3.1l-.07-3.91.52-.66,2.73-.07.59.29c.52,2.73.81,3.32,1.92,4.72,1.99,2.36,5.09,3.76,8.41,3.76,3.54,0,5.46-1.7,5.46-4.72,0-1.18-.44-2.21-1.33-2.8q-.89-.59-7.01-2.95c-7.53-2.88-10.48-6.05-10.48-11.14,0-6.86,5.09-11.07,13.43-11.07,3.32,0,6.71.37,10.7,1.18l.59.81v2.29c0,.74,0,1.33.07,1.84.07,2.29.15,3.69.15,3.84,0,.07,0,.37-.07.89l-.52.66-2.66.15-.66-.37c-.37-2.14-.59-2.66-1.33-3.76-1.7-2.29-4.57-3.76-7.6-3.76-2.66,0-4.13,1.33-4.13,3.62,0,1.33.52,2.21,1.7,2.88q.88.52,6.64,2.88c5.31,2.14,6.2,2.66,7.89,4.21,1.92,1.84,2.88,4.28,2.88,7.38,0,7.38-5.75,11.73-15.64,11.73-3.32,0-7.01-.37-11.36-1.18l-.66-.81Z"/>
        <path class="cls-1" d="M249.43,24.64c4.5-2.43,6.34-2.95,9.96-2.95,8.48,0,13.58,5.68,13.58,15.2,0,13.21-8.19,21.32-21.62,21.32-4.13,0-9.96-.89-12.84-2.07l-.29-.44c.37-7.75.37-9.22.37-22.06v-14.46q0-12.03-1.99-12.03c-.44,0-.81.07-1.48.22l-.59-.22-.44-1.92.22-.74c.66-.3,1.25-.52,1.4-.59,6.79-2.51,9.22-3.32,11.14-3.91,1.92.59,2.88,2.66,2.88,6.2q0,.59-.15,5.75c-.07,2.36-.15,5.31-.15,7.6v5.09ZM249.43,47.29c0,4.79,1.18,6.42,4.72,6.42,2.58,0,4.65-1.11,5.83-3.25.89-1.55,1.4-4.94,1.4-9,0-4.8-.96-9.44-2.51-11.95-1.18-1.92-2.88-2.88-5.16-2.88-1.33,0-1.84.15-4.28,1.18v19.48Z"/>
        <path class="cls-1" d="M291.56,57.69l-1.33-.74c-1.4-3.54-3.62-10.11-5.39-15.57-3.62-12.17-5.61-15.57-8.93-15.64l-.52-.52v-1.84l.59-.52c.52-.07,1.03-.07,1.18-.07.96,0,1.92.07,4.13.29,1.77.15,3.17.22,4.21.22,1.4,0,1.7,0,5.39-.37,1.18-.07,2.51-.15,3.17-.15.44,0,1.03,0,1.92.07l.44.52v1.77l-.37.59c-3.17.15-4.43.74-4.43,2.14,0,2.14,2.36,9.59,7.16,22.21.44-1.4,1.18-3.84,1.84-5.83,2.8-8.78,4.13-14.09,4.13-16.08,0-1.7-.96-2.21-4.21-2.43l-.52-.52v-1.84l.44-.52c.59-.07.96-.07,1.25-.07.74,0,1.18.07,3.98.44.74.07,1.48.15,1.84.15q.81,0,3.25-.44c.74-.07,1.48-.15,2.21-.15.29,0,.66,0,1.25.07l.59.44v1.92l-.52.52c-3.1.07-3.98,1.7-8.56,15.94-.29.96-1.4,4.13-2.58,7.38-.96,2.8-1.84,5.31-2.14,6.2-3.54,10.77-4.94,13.87-7.38,16.82-2.88,3.39-6.34,4.87-11.44,4.87-3.98,0-6.05-.89-7.23-3.1l.15-1.11c1.7-2.8,2.51-4.28,4.13-7.3l2.8,1.33c.07,3.39,1.48,5.24,3.84,5.24,3.69,0,6.42-3.69,9.81-13.35l.44-1.33-4.65.37Z"/>
      </g>
      <g>
        <g>
          <g>
            <path class="cls-1" d="M2.6,87l.78-.07c.59-.05.82-.19.82-.29v-10.23h-.57c-1.68.12-2.83,1.74-3.39,2.85l-.12.23h-.12l.5-3.23h9.74l.33,3.21h-.1l-.1-.23c-.59-1.28-1.74-2.8-3.33-2.83h-.59v10.28c0,.12.1.17.99.26l.59.05.05.1H2.55l.05-.1Z"/>
            <path class="cls-1" d="M11.11,87l.24-.02c.54-.03.73-.07.73-.28v-9.27c0-.76-.1-.9-.69-1.06l-.4-.1.02-.07,3.06-.76v5.52l.02.03c.75-.64,1.79-1.54,2.97-1.54.57,0,1.01.19,1.37.56.4.4.56,1.13.56,1.91v4.81c0,.1.03.17.89.26l.19.02.05.1h-4.1l.05-.1.31-.02c.61-.03.64-.14.64-.28v-4.57c0-1.06-.52-1.46-1.42-1.46-.68,0-1.16.24-1.54.54v5.52c0,.14.09.19.78.24l.24.02.05.1h-4.06l.05-.1Z"/>
            <path class="cls-1" d="M20.21,83.55c0-2.33,1.72-4.13,4.01-4.13,2,0,2.97,1.22,2.97,2.45,0,.1-.02.19-.03.3,0,0-4.32-.03-4.81-.05-.03.23-.03.61-.03.83,0,1.93,1.08,3.21,2.64,3.21.99,0,1.7-.36,2.24-1.35l.12.05c-.75,1.6-1.84,2.52-3.49,2.52-2.08,0-3.61-1.67-3.61-3.82ZM25.26,81.91c0-1.08-.28-2.29-1.23-2.29-.78,0-1.48.97-1.65,2.31l2.88-.02Z"/>
          </g>
          <path class="cls-1" d="M35.59,77.32l-1.31,3.67c-1.71,5.02-1.93,5.45,1.56,5.81l.73.07.11.22h-8l.11-.22.62-.07c2.36-.29,2.65-.8,5.02-7.27l4.07-11.41-.4-1.16c1.6-.47,2.4-1.56,3.09-3.2h.65l6.25,18.35c1.34,3.93,1.96,4.58,3.56,4.69l1.02.07.07.22h-11.38l.11-.22.98-.07c1.82-.11,1.89-1.02,1.13-3.31l-2.03-6.18h-5.96ZM41.44,76.95l-2.73-8.29h-.04l-2.94,8.29h5.71Z"/>
          <path class="cls-1" d="M52.92,86.88l1.6-.15c1.27-.15,1.71-.4,1.71-.62v-20.86c0-.25-.22-.36-2.07-.54l-1.2-.11-.11-.22h10.5c6.47,0,9.59,1.78,9.59,5.49s-3.85,6.25-9.88,6.25c-.84,0-1.56-.07-2.14-.18v10.28c0,.25.18.4,2.04.55l1.56.11.11.22h-11.81l.11-.22ZM67.97,70.34c0-3.67-1.6-5.56-5.27-5.6l-1.78.07v10.61c.55.11,1.02.29,2.04.29,2.94,0,5.02-2.11,5.02-5.38Z"/>
          <path class="cls-1" d="M74.11,86.88l1.27-.15c1.27-.15,1.78-.4,1.78-.62v-20.86c0-.25-.22-.36-2.07-.54l-.95-.11-.11-.22h18.53l.36,7.41h-.22l-.15-.4c-1.38-4.83-3.52-6.72-7.92-6.61l-2.8.04v10.43h1.56c3.2-.18,4.62-1.02,5.38-3.38l.22-.65.25.04-.95,8.69-.25-.04-.04-.65c-.22-2.65-1.24-3.34-4.94-3.56l-1.24-.07v10.98l3.56.15c4.65-.07,7.09-2.83,8.54-6.83l.18-.4h.22l-1.02,7.6h-19.33l.11-.22Z"/>
          <path class="cls-1" d="M127.28,86.26l-.4-5.81h.22l1.45,2.8c1.38,2.65,3.31,3.93,6.11,3.93,3.02,0,4.87-1.85,4.87-4.69,0-3.09-2.51-4.29-5.63-5.42-3.42-1.24-6.29-2.73-6.29-6.47s3.05-6.69,7.49-6.69c2,0,3.89.51,5.09.91l1.45-.51.11,6.32h-.18l-3.05-5.34c-.8-.58-1.85-1.02-3.49-1.02-2.36,0-4.11,1.6-4.11,3.74,0,2.69,2.47,3.74,5.38,4.8,3.74,1.31,6.61,2.98,6.61,7.2,0,3.85-3.45,7.52-8.39,7.52-2.69,0-5.31-.51-7.23-1.27Z"/>
          <path class="cls-1" d="M145.56,75.76c0-6.25,5.74-11.85,12.65-11.85s12.25,4.83,12.25,11.88c0,6.25-5.71,11.74-12.65,11.74s-12.25-4.72-12.25-11.78ZM165.33,75.72c0-7.2-2.83-11.37-7.41-11.37s-7.27,3.78-7.27,11.41,2.8,11.38,7.49,11.38,7.2-3.74,7.2-11.41Z"/>
          <path class="cls-1" d="M171.98,75.9c0-6.69,4.98-12.03,13.52-12.03,2.25,0,4.65.73,5.85,1.38l2.33-.76.22,7.3h-.22l-3.67-6.43c-.76-.55-2.58-1.05-4.58-1.05-5.38,0-8.36,4.98-8.36,11.37,0,7.01,3.67,11.45,8.21,11.45,4.03,0,6.25-2,8.07-5.45l1.13-2.14h.22l-1.24,6.43-1.2.18c-1.31.58-4.65,1.38-7.16,1.38-7.92,0-13.12-4.98-13.12-11.63Z"/>
          <path class="cls-1" d="M196.55,86.88l1.42-.15c1.24-.11,1.71-.4,1.71-.62v-20.86c0-.25-.22-.36-2.07-.54l-1.05-.11-.11-.22h11.16l-.11.22-1.42.15c-1.24.11-1.71.4-1.71.62v20.86c0,.25.22.36,2.07.55l1.02.11.11.22h-11.12l.11-.22Z"/>
          <path class="cls-1" d="M208.87,86.88l1.27-.15c1.27-.15,1.78-.4,1.78-.62v-20.86c0-.25-.22-.36-2.07-.54l-.95-.11-.11-.22h18.53l.36,7.41h-.22l-.15-.4c-1.38-4.83-3.52-6.72-7.92-6.61l-2.8.04v10.43h1.56c3.2-.18,4.62-1.02,5.38-3.38l.22-.65.25.04-.95,8.69-.25-.04-.04-.65c-.22-2.65-1.24-3.34-4.94-3.56l-1.24-.07v10.98l3.56.15c4.65-.07,7.09-2.83,8.54-6.83l.18-.4h.22l-1.02,7.6h-19.33l.11-.22Z"/>
          <path class="cls-1" d="M236.42,86.88l1.64-.15c1.24-.11,1.71-.4,1.71-.62v-21.41h-1.2c-3.52.25-5.92,3.63-7.09,5.96l-.25.47h-.25l1.05-6.76h20.39l.69,6.72h-.22l-.22-.47c-1.24-2.69-3.63-5.85-6.98-5.92h-1.24v21.51c0,.25.22.36,2.07.55l1.24.11.11.22h-11.56l.11-.22Z"/>
          <path class="cls-1" d="M259.24,86.88l1.6-.15c1.24-.11,1.71-.4,1.71-.62v-9.41l-4.87-8.61c-1.45-2.54-1.93-3.23-3.6-3.42l-.76-.07-.11-.22h11.27l-.11.22-.62.04c-2.36.22-2.44.84-1.6,2.33l4.8,8.58h.07l2.73-5.09c2.51-4.76,2.58-5.42-.65-5.74l-.8-.11-.11-.22h8.29l-.11.22-1.02.11c-1.85.22-2.58.87-5.23,5.89l-2.87,5.31v10.32c0,.25.22.36,2.07.55l1.2.11.11.22h-11.48l.11-.22Z"/>
        </g>
        <g>
          <g>
            <path class="cls-1" d="M120.5,79.97l-19.9,1.04c-.05,0-.1.05-.09.1l.15,2.79c0,.05.05.1.1.09l19.9-1.04c.05,0,.1-.05.09-.1l-.15-2.79c0-.05-.05-.1-.1-.09ZM106.13,82.98h0c-.42.02-.78-.3-.8-.72-.01-.2.06-.4.19-.55.14-.15.32-.24.53-.25h0c.42-.02.78.3.8.72.02.42-.3.78-.72.81ZM110.67,82.44c-.28.02-.49-.19-.51-.45,0-.13.04-.25.12-.35.09-.1.19-.15.34-.16.13,0,.25.04.35.12.1.09.15.2.16.33.01.27-.19.5-.45.51ZM115.25,82.5h0c-.42.02-.78-.3-.8-.72-.01-.2.06-.4.19-.55.14-.15.32-.24.53-.25h0c.42-.02.78.3.8.72.02.42-.3.78-.72.81Z"/>
            <path class="cls-1" d="M120.54,74.8c-.12-.04-.25,0-.32.1-.55.74-.97,1.29-1.23,1.61,0,.01-.03,0-.03-.01l-.48-3.14c-.01-.11-.1-.21-.21-.23-.12-.03-.23.02-.3.11l-2.2,3.23c-.04.06-.12.1-.2.1-.7,0-.91,0-1.17.01-.07,0-.14-.03-.19-.08-1.63-1.9-3.08-4.17-3.78-5.16-.17-.24-.53-.22-.68.04-.59,1.06-1.8,3.47-3.22,5.52-.04.06-.11.1-.18.1-.27.02-.47.04-1.17.11-.08,0-.16-.02-.21-.08l-2.52-2.98c-.08-.09-.2-.12-.31-.08-.11.04-.18.14-.19.26l-.15,3.18s-.02.03-.03.01c-.29-.29-.77-.8-1.39-1.48-.08-.09-.22-.12-.33-.06-.11.05-.17.17-.16.29l.56,3.73c.01.08.09.14.17.14l19.77-1.04c.08,0,.15-.07.16-.16l.16-3.77c0-.12-.07-.23-.19-.28ZM111.25,76.23l-.69,1.51c-.05.11-.21.12-.27.02l-.86-1.42s-.03-.1,0-.14l.69-1.51c.05-.11.21-.12.27-.02l.86,1.42s.03.1,0,.14Z"/>
          </g>
          <path class="cls-1" d="M123.26,87.09h-25.28c-.41,0-.78-.21-.98-.57-.2-.36-.2-.78.01-1.14l1.29-2.17c.15-.26.49-.34.74-.19.26.15.34.49.19.74l-1.29,2.17s-.01.02,0,.05c.01.02.03.02.04.02h25.28s.03,0,.04-.02c.01-.02,0-.04,0-.05l-1.47-2.43c-.15-.26-.07-.59.18-.74.26-.15.59-.07.74.18l1.47,2.43c.21.35.22.78.02,1.14-.2.36-.57.57-.98.57Z"/>
          <path class="cls-1" d="M104.94,73.69c-.09,0-.19-.02-.28-.08-.26-.15-.34-.49-.19-.74l5.1-8.56c.21-.34.57-.55.97-.55h0c.4,0,.76.2.97.55l4.89,8.1c.15.26.07.59-.18.74-.26.15-.59.07-.74-.18l-4.89-8.1s-.01-.02-.04-.02h0s-.03.01-.04.02l-5.1,8.56c-.1.17-.28.26-.47.26Z"/>
        </g>
      </g>
    </g>
  </g>
</svg>