<?xml version="1.0" encoding="UTF-8"?>
<svg id="Layer_2" data-name="Layer 2" xmlns="http://www.w3.org/2000/svg" viewBox="0 0 278.85 153.17">
  <defs>
    <style>
      .cls-1 {
        opacity: .5;
      }

      .cls-2 {
        fill: #4f473e;
      }

      .cls-2, .cls-3 {
        stroke-width: 0px;
      }

      .cls-3 {
        fill: #6a6a6c;
      }
    </style>
  </defs>
  <g id="Layer_10" data-name="Layer 10">
    <g>
      <g class="cls-1">
        <polygon class="cls-3" points="31.1 37.03 32.2 35.43 16.28 32.9 15.84 33.5 16.98 35.11 31.1 37.35 31.1 37.03"/>
      </g>
      <g class="cls-1">
        <polygon class="cls-3" points="31.1 19.9 18.35 17.88 18.35 19.97 31.1 21.99 31.1 19.9"/>
      </g>
      <g class="cls-1">
        <polygon class="cls-3" points="43.66 3.46 40.08 2.9 27.1 2.9 27.07 2.93 43.66 5.56 43.66 3.46"/>
      </g>
      <g class="cls-1">
        <polygon class="cls-3" points="14.73 72.66 15.23 72.66 14.73 72.58 14.73 72.66"/>
      </g>
      <g class="cls-1">
        <polygon class="cls-3" points="14.73 71.6 21.39 72.66 22.73 72.66 24.25 71.02 14.73 69.51 14.73 71.6"/>
      </g>
      <g class="cls-1">
        <polygon class="cls-3" points="31.1 22.97 18.35 20.95 18.35 23.04 31.1 25.06 31.1 22.97"/>
      </g>
      <g class="cls-1">
        <polygon class="cls-3" points="31.1 41.4 18.35 39.37 18.35 41.47 31.1 43.49 31.1 41.4"/>
      </g>
      <g class="cls-1">
        <polygon class="cls-3" points="31.1 30.06 31.1 29.11 18.35 27.09 18.35 29.18 32 31.35 31.1 30.06"/>
      </g>
      <g class="cls-1">
        <polygon class="cls-3" points="31.1 26.04 18.35 24.02 18.35 26.11 31.1 28.13 31.1 26.04"/>
      </g>
      <g class="cls-1">
        <polygon class="cls-3" points="33.52 33.5 32.78 32.45 18.29 30.15 16.92 32.03 32.8 34.55 33.52 33.5"/>
      </g>
      <g class="cls-1">
        <polygon class="cls-3" points="31.1 38.32 17.77 36.21 18.35 37.03 18.35 38.4 31.1 40.42 31.1 38.32"/>
      </g>
      <g class="cls-1">
        <polygon class="cls-3" points="31.1 59.82 18.35 57.8 18.35 59.89 31.1 61.92 31.1 59.82"/>
      </g>
      <g class="cls-1">
        <polygon class="cls-3" points="34.63 64.1 31.1 64.1 31.1 62.89 18.35 60.87 18.35 62.97 34.63 65.55 34.63 64.1"/>
      </g>
      <g class="cls-1">
        <polygon class="cls-3" points="18.35 14.8 18.35 16.9 31.1 18.92 31.1 16.83 18.35 14.8"/>
      </g>
      <g class="cls-1">
        <polygon class="cls-3" points="31.1 44.47 18.35 42.45 18.35 44.54 31.1 46.56 31.1 44.47"/>
      </g>
      <g class="cls-1">
        <polygon class="cls-3" points="34.63 66.53 18.35 63.94 18.35 64.1 14.73 64.1 14.73 65.46 34.63 68.62 34.63 66.53"/>
      </g>
      <g class="cls-1">
        <polygon class="cls-3" points="43.66 14.77 43.66 12.68 36.1 11.48 38.76 13.99 43.66 14.77"/>
      </g>
      <g class="cls-1">
        <polygon class="cls-3" points="31.1 53.68 18.35 51.66 18.35 53.75 31.1 55.77 31.1 53.68"/>
      </g>
      <g class="cls-1">
        <polygon class="cls-3" points="31.1 47.54 18.35 45.52 18.35 47.61 31.1 49.63 31.1 47.54"/>
      </g>
      <g class="cls-1">
        <polygon class="cls-3" points="27.75 72.66 34.59 72.66 26.46 71.37 27.75 72.66"/>
      </g>
      <g class="cls-1">
        <polygon class="cls-3" points="31.1 50.61 18.35 48.59 18.35 50.68 31.1 52.7 31.1 50.61"/>
      </g>
      <g class="cls-1">
        <polygon class="cls-3" points="31.1 56.75 18.35 54.73 18.35 56.82 31.1 58.84 31.1 56.75"/>
      </g>
      <g class="cls-1">
        <polygon class="cls-3" points="43.66 6.53 26.31 3.78 24.77 5.5 22.54 3.18 20.72 2.9 7.53 2.9 43.66 8.63 43.66 6.53"/>
      </g>
      <g class="cls-1">
        <polygon class="cls-3" points="42.97 15.64 40 15.17 40.49 15.64 42.97 15.64"/>
      </g>
      <g class="cls-1">
        <polygon class="cls-3" points="43.66 9.61 5.8 3.6 5.8 5.69 43.66 11.7 43.66 9.61"/>
      </g>
      <g class="cls-1">
        <polygon class="cls-3" points="13.9 11.03 5.8 9.74 5.8 11.83 11.95 12.81 13.9 11.03"/>
      </g>
      <g class="cls-1">
        <polygon class="cls-3" points="11.04 13.64 5.8 12.81 5.8 14.91 9.1 15.43 11.04 13.64"/>
      </g>
      <g class="cls-1">
        <polygon class="cls-3" points="14.73 68.53 25.04 70.17 25.14 70.06 25.3 70.21 34.63 71.69 34.63 69.6 14.73 66.44 14.73 68.53"/>
      </g>
      <g class="cls-1">
        <polygon class="cls-3" points="31.1 13.76 18.35 11.73 18.35 13.83 31.1 15.85 31.1 13.76"/>
      </g>
      <g class="cls-1">
        <polygon class="cls-3" points="18.35 10.52 18.35 10.76 31.1 12.78 31.1 10.68 5.8 6.67 5.8 8.76 16.89 10.52 18.35 10.52"/>
      </g>
      <g class="cls-1">
        <polygon class="cls-3" points="84.96 37.66 72.21 35.63 72.21 37.73 84.96 39.75 84.96 37.66"/>
      </g>
      <g class="cls-1">
        <polygon class="cls-3" points="68.58 65.77 68.58 67.86 88.58 71.04 88.58 68.94 68.58 65.77"/>
      </g>
      <g class="cls-1">
        <polygon class="cls-3" points="85.05 22.31 72.21 20.28 72.21 22.37 85.05 24.41 85.05 22.31"/>
      </g>
      <g class="cls-1">
        <polygon class="cls-3" points="62.26 12.56 45.98 9.97 45.98 11.55 49.52 11.55 49.52 12.63 62.26 14.65 62.26 12.56"/>
      </g>
      <g class="cls-1">
        <polygon class="cls-3" points="45.98 65.26 45.98 67.35 65.79 70.49 65.79 68.4 45.98 65.26"/>
      </g>
      <g class="cls-1">
        <polygon class="cls-3" points="72.21 23.35 72.21 25.44 85.05 27.48 85.05 25.39 72.21 23.35"/>
      </g>
      <g class="cls-1">
        <polygon class="cls-3" points="62.26 15.63 49.52 13.61 49.52 15.7 62.26 17.72 62.26 15.63"/>
      </g>
      <g class="cls-1">
        <polygon class="cls-3" points="45.98 70.42 54.12 71.71 55.66 70.06 57.91 72.31 60.12 72.66 65.79 72.66 65.79 71.47 45.98 68.33 45.98 70.42"/>
      </g>
      <g class="cls-1">
        <polygon class="cls-3" points="72.21 53.08 84.96 55.1 84.96 53.01 72.21 50.99 72.21 53.08"/>
      </g>
      <g class="cls-1">
        <polygon class="cls-3" points="49.52 64.1 45.98 64.1 45.98 64.28 65.79 67.42 65.79 65.33 49.52 62.74 49.52 64.1"/>
      </g>
      <g class="cls-1">
        <polygon class="cls-3" points="64.25 64.1 65.79 64.35 65.79 64.1 64.25 64.1"/>
      </g>
      <g class="cls-1">
        <polygon class="cls-3" points="65.79 2.9 63.98 2.9 65.79 3.18 65.79 2.9"/>
      </g>
      <g class="cls-1">
        <polygon class="cls-3" points="84.96 40.73 72.21 38.71 72.21 40.8 84.96 42.82 84.96 40.73"/>
      </g>
      <g class="cls-1">
        <polygon class="cls-3" points="65.79 4.16 57.88 2.91 56.39 4.51 65.79 6 65.79 4.16"/>
      </g>
      <g class="cls-1">
        <polygon class="cls-3" points="85.05 11.55 88.58 11.55 88.58 10.59 68.58 7.42 68.58 9.51 85.05 12.12 85.05 11.55"/>
      </g>
      <g class="cls-1">
        <polygon class="cls-3" points="45.98 72.66 53.24 72.66 53.33 72.56 45.98 71.4 45.98 72.66"/>
      </g>
      <g class="cls-1">
        <polygon class="cls-3" points="75.56 2.9 68.58 2.9 68.58 3.63 77.75 5.08 75.56 2.9"/>
      </g>
      <g class="cls-1">
        <polygon class="cls-3" points="85.05 19.24 72.21 17.21 72.21 19.3 85.05 21.34 85.05 19.24"/>
      </g>
      <g class="cls-1">
        <polygon class="cls-3" points="62.26 11.55 65.79 11.55 65.79 10.05 45.98 6.9 45.98 9 62.26 11.58 62.26 11.55"/>
      </g>
      <g class="cls-1">
        <polygon class="cls-3" points="49.52 16.68 49.52 18.77 62.26 20.79 62.26 18.7 49.52 16.68"/>
      </g>
      <g class="cls-1">
        <polygon class="cls-3" points="88.58 9.61 88.58 7.78 68.58 4.61 68.58 6.44 88.58 9.61"/>
      </g>
      <g class="cls-1">
        <polygon class="cls-3" points="88.58 4.71 80.15 3.37 78.45 5.19 88.58 6.8 88.58 4.71"/>
      </g>
      <g class="cls-1">
        <polygon class="cls-3" points="84.96 43.8 72.21 41.78 72.21 43.87 84.96 45.89 84.96 43.8"/>
      </g>
      <g class="cls-1">
        <polygon class="cls-3" points="85.05 16.17 72.21 14.14 72.21 16.23 85.05 18.26 85.05 16.17"/>
      </g>
      <g class="cls-1">
        <polygon class="cls-3" points="52.86 2.9 46.25 2.9 54.11 4.14 52.86 2.9"/>
      </g>
      <g class="cls-1">
        <polygon class="cls-3" points="72.21 50.01 84.96 52.03 84.96 49.94 72.21 47.92 72.21 50.01"/>
      </g>
      <g class="cls-1">
        <polygon class="cls-3" points="62.26 49.41 49.52 47.39 49.52 49.48 62.26 51.5 62.26 49.41"/>
      </g>
      <g class="cls-1">
        <polygon class="cls-3" points="62.26 46.34 49.52 44.32 49.52 46.41 62.26 48.43 62.26 46.34"/>
      </g>
      <g class="cls-1">
        <polygon class="cls-3" points="62.26 52.48 49.52 50.46 49.52 52.55 62.26 54.57 62.26 52.48"/>
      </g>
      <g class="cls-1">
        <polygon class="cls-3" points="72.21 33.87 72.21 34.66 85.18 36.71 86.47 34.82 49.52 28.96 49.52 30.06 48.89 30.95 67.27 33.87 72.21 33.87"/>
      </g>
      <g class="cls-1">
        <polygon class="cls-3" points="87.37 33.5 86.16 31.7 49.52 25.89 49.52 27.98 87.07 33.94 87.37 33.5"/>
      </g>
      <g class="cls-1">
        <polygon class="cls-3" points="62.26 58.62 49.52 56.6 49.52 58.69 62.26 60.72 62.26 58.62"/>
      </g>
      <g class="cls-1">
        <polygon class="cls-3" points="62.26 55.55 49.52 53.53 49.52 55.62 62.26 57.65 62.26 55.55"/>
      </g>
      <g class="cls-1">
        <polygon class="cls-3" points="72.21 54.06 72.21 56.15 84.96 58.18 84.96 56.08 72.21 54.06"/>
      </g>
      <g class="cls-1">
        <polygon class="cls-3" points="62.26 40.2 49.52 38.18 49.52 40.27 62.26 42.29 62.26 40.2"/>
      </g>
      <g class="cls-1">
        <polygon class="cls-3" points="62.26 61.69 49.52 59.67 49.52 61.77 62.26 63.79 62.26 61.69"/>
      </g>
      <g class="cls-1">
        <polygon class="cls-3" points="62.26 37.13 48.03 34.87 49.52 37.03 49.52 37.2 62.26 39.22 62.26 37.13"/>
      </g>
      <g class="cls-1">
        <polygon class="cls-3" points="68.58 70.93 76.32 72.16 78.07 70.35 68.58 68.84 68.58 70.93"/>
      </g>
      <g class="cls-1">
        <polygon class="cls-3" points="62.26 34.05 48.27 31.84 47.1 33.5 47.28 33.77 62.26 36.15 62.26 34.05"/>
      </g>
      <g class="cls-1">
        <polygon class="cls-3" points="62.26 43.27 49.52 41.25 49.52 43.34 62.26 45.36 62.26 43.27"/>
      </g>
      <g class="cls-1">
        <polygon class="cls-3" points="84.96 46.87 72.21 44.85 72.21 46.94 84.96 48.96 84.96 46.87"/>
      </g>
      <g class="cls-1">
        <polygon class="cls-3" points="65.79 9.07 65.79 6.98 55.6 5.36 55.47 5.5 55.27 5.31 45.98 3.83 45.98 5.93 65.79 9.07"/>
      </g>
      <g class="cls-1">
        <polygon class="cls-3" points="62.26 21.77 49.52 19.75 49.52 21.84 62.26 23.86 62.26 21.77"/>
      </g>
      <g class="cls-1">
        <polygon class="cls-3" points="72.21 11.55 72.21 13.16 85.05 15.19 85.05 13.1 68.58 10.49 68.58 11.55 72.21 11.55"/>
      </g>
      <g class="cls-1">
        <polygon class="cls-3" points="68.58 72.66 73.3 72.66 68.58 71.91 68.58 72.66"/>
      </g>
      <g class="cls-1">
        <polygon class="cls-3" points="80.86 72.66 88.58 72.66 88.58 72.01 78.73 70.45 80.86 72.66"/>
      </g>
      <g class="cls-1">
        <polygon class="cls-3" points="88.58 2.9 83.33 2.9 88.58 3.73 88.58 2.9"/>
      </g>
      <g class="cls-1">
        <polygon class="cls-3" points="72.21 64.1 68.58 64.1 68.58 64.79 88.58 67.96 88.58 65.87 72.21 63.27 72.21 64.1"/>
      </g>
      <g class="cls-1">
        <polygon class="cls-3" points="72.21 62.3 88.58 64.89 88.58 64.1 84.96 64.1 84.96 62.22 72.21 60.2 72.21 62.3"/>
      </g>
      <g class="cls-1">
        <polygon class="cls-3" points="85.05 30.06 85.05 28.46 70.51 26.15 62.26 26.15 62.26 24.84 49.52 22.82 49.52 24.91 85.42 30.61 85.05 30.06"/>
      </g>
      <g class="cls-1">
        <polygon class="cls-3" points="72.21 59.22 84.96 61.25 84.96 59.15 72.21 57.13 72.21 59.22"/>
      </g>
      <g class="cls-1">
        <polygon class="cls-3" points="126.72 4.62 115.88 2.9 104.67 2.9 104.42 3.17 126.72 6.71 126.72 4.62"/>
      </g>
      <g class="cls-1">
        <polygon class="cls-3" points="96.3 64.1 92.77 64.1 92.77 65.56 126.72 70.94 126.72 68.85 96.3 64.02 96.3 64.1"/>
      </g>
      <g class="cls-1">
        <polygon class="cls-3" points="92.77 71.7 98.83 72.66 99.37 72.66 100.94 70.9 92.77 69.61 92.77 71.7"/>
      </g>
      <g class="cls-1">
        <polygon class="cls-3" points="126.72 7.69 103.63 4.02 102.26 5.5 100.24 3.49 96.53 2.9 92.77 2.9 92.77 4.39 126.72 9.78 126.72 7.69"/>
      </g>
      <g class="cls-1">
        <polygon class="cls-3" points="109.14 11.04 92.77 8.44 92.77 10.28 109.14 12.87 109.14 11.04"/>
      </g>
      <g class="cls-1">
        <polygon class="cls-3" points="92.77 68.63 118.19 72.66 126.72 72.66 126.72 71.92 92.77 66.53 92.77 68.63"/>
      </g>
      <g class="cls-1">
        <polygon class="cls-3" points="96.3 56.9 109.14 58.94 109.14 56.85 96.3 54.81 96.3 56.9"/>
      </g>
      <g class="cls-1">
        <polygon class="cls-3" points="119.46 63.65 126.72 64.8 126.72 62.71 121.38 61.86 119.46 63.65"/>
      </g>
      <g class="cls-1">
        <polygon class="cls-3" points="109.14 62.01 109.14 59.92 96.3 57.88 96.3 59.98 109.14 62.01"/>
      </g>
      <g class="cls-1">
        <polygon class="cls-3" points="96.3 51.74 96.3 53.83 109.14 55.87 109.14 53.78 96.3 51.74"/>
      </g>
      <g class="cls-1">
        <polygon class="cls-3" points="115.4 26.15 118.99 26.72 118.72 26.15 115.4 26.15"/>
      </g>
      <g class="cls-1">
        <polygon class="cls-3" points="109.14 22.09 109.14 19.99 96.3 17.96 96.3 20.05 109.14 22.09"/>
      </g>
      <g class="cls-1">
        <polygon class="cls-3" points="94.02 11.45 92.77 11.25 92.77 11.45 94.02 11.45"/>
      </g>
      <g class="cls-1">
        <polygon class="cls-3" points="96.3 44.62 109.14 46.66 109.14 44.56 96.3 42.53 96.3 44.62"/>
      </g>
      <g class="cls-1">
        <polygon class="cls-3" points="109.14 15.94 109.14 13.85 96.3 11.82 96.3 13.91 109.14 15.94"/>
      </g>
      <g class="cls-1">
        <polygon class="cls-3" points="126.72 59.92 123.46 59.92 122.28 61.02 126.72 61.73 126.72 59.92"/>
      </g>
      <g class="cls-1">
        <polygon class="cls-3" points="96.3 45.6 96.3 47.69 109.14 49.73 109.14 47.63 96.3 45.6"/>
      </g>
      <g class="cls-1">
        <polygon class="cls-3" points="104.3 72.66 112.02 72.66 102.85 71.21 104.3 72.66"/>
      </g>
      <g class="cls-1">
        <polygon class="cls-3" points="126.58 15.64 126.72 15.64 126.72 13.83 120.52 12.84 122.84 15.05 126.58 15.64"/>
      </g>
      <g class="cls-1">
        <polygon class="cls-3" points="112.06 10.52 118.07 10.52 119.28 11.67 126.72 12.85 126.72 10.76 92.77 5.37 92.77 7.46 112.06 10.52"/>
      </g>
      <g class="cls-1">
        <polygon class="cls-3" points="118.56 64.48 118.07 64.94 109.14 64.94 109.14 62.99 96.3 60.95 96.3 63.05 126.72 67.87 126.72 65.78 118.56 64.48"/>
      </g>
      <g class="cls-1">
        <polygon class="cls-3" points="109.14 33.87 119.18 33.87 96.19 30.22 94.86 32.11 109.14 34.37 109.14 33.87"/>
      </g>
      <g class="cls-1">
        <polygon class="cls-3" points="126.72 2.9 122.05 2.9 126.72 3.64 126.72 2.9"/>
      </g>
      <g class="cls-1">
        <polygon class="cls-3" points="109.14 23.07 96.3 21.03 96.3 23.12 109.14 25.16 109.14 23.07"/>
      </g>
      <g class="cls-1">
        <polygon class="cls-3" points="121.04 31.1 96.3 27.17 96.3 29.26 122.11 33.36 121.04 31.1"/>
      </g>
      <g class="cls-1">
        <polygon class="cls-3" points="109.14 16.92 96.3 14.89 96.3 16.98 109.14 19.02 109.14 16.92"/>
      </g>
      <g class="cls-1">
        <polygon class="cls-3" points="96.3 50.76 109.14 52.8 109.14 50.71 96.3 48.67 96.3 50.76"/>
      </g>
      <g class="cls-1">
        <polygon class="cls-3" points="109.23 26.15 109.14 26.15 109.14 26.14 96.3 24.1 96.3 26.19 120.55 30.04 119.48 27.78 109.23 26.15"/>
      </g>
      <g class="cls-1">
        <polygon class="cls-3" points="109.14 35.35 94.24 32.99 93.88 33.5 95.05 35.21 109.14 37.44 109.14 35.35"/>
      </g>
      <g class="cls-1">
        <polygon class="cls-3" points="109.14 38.42 95.8 36.31 96.3 37.03 96.3 38.48 109.14 40.51 109.14 38.42"/>
      </g>
      <g class="cls-1">
        <polygon class="cls-3" points="109.14 43.58 109.14 41.49 96.3 39.46 96.3 41.55 109.14 43.58"/>
      </g>
      <g class="cls-1">
        <polygon class="cls-3" points="22.4 103.86 9.66 101.84 9.66 103.93 22.4 105.95 22.4 103.86"/>
      </g>
      <g class="cls-1">
        <polygon class="cls-3" points="9.66 138.69 9.66 140.79 22.4 142.81 22.4 140.72 9.66 138.69"/>
      </g>
      <g class="cls-1">
        <polygon class="cls-3" points="22.4 94.91 9.66 92.89 9.66 94.98 22.4 97 22.4 94.91"/>
      </g>
      <g class="cls-1">
        <polygon class="cls-3" points="9.66 128.5 22.4 130.52 22.4 128.43 9.66 126.41 9.66 128.5"/>
      </g>
      <g class="cls-1">
        <polygon class="cls-3" points="39.98 96.28 39.98 94.63 34.09 93.69 36.74 96.2 37.22 96.28 39.98 96.28"/>
      </g>
      <g class="cls-1">
        <polygon class="cls-3" points="6.03 149.42 16.14 151.03 16.45 150.7 16.9 151.15 25.93 152.58 25.93 150.49 6.03 147.33 6.03 149.42"/>
      </g>
      <g class="cls-1">
        <polygon class="cls-3" points="31.63 148.77 36.45 148.77 30.72 147.86 31.63 148.77"/>
      </g>
      <g class="cls-1">
        <polygon class="cls-3" points="22.4 115.17 22.4 114.51 31.45 114.51 9.42 111.02 8.05 112.89 22.4 115.17"/>
      </g>
      <g class="cls-1">
        <polygon class="cls-3" points="22.4 97.98 9.66 95.96 9.66 98.05 22.4 100.07 22.4 97.98"/>
      </g>
      <g class="cls-1">
        <polygon class="cls-3" points="9.66 143.86 25.93 146.44 25.93 144.74 22.4 144.74 22.4 143.79 9.66 141.77 9.66 143.86"/>
      </g>
      <g class="cls-1">
        <polygon class="cls-3" points="22.4 116.15 7.41 113.77 7.14 114.14 8.49 116.03 22.4 118.24 22.4 116.15"/>
      </g>
      <g class="cls-1">
        <polygon class="cls-3" points="22.4 122.29 9.66 120.27 9.66 122.36 22.4 124.38 22.4 122.29"/>
      </g>
      <g class="cls-1">
        <polygon class="cls-3" points="39.98 83.54 34.32 83.54 39.98 84.43 39.98 83.54"/>
      </g>
      <g class="cls-1">
        <polygon class="cls-3" points="31.42 91.16 32.85 92.52 39.98 93.65 39.98 91.55 6.03 86.17 6.03 88.26 24.33 91.16 31.42 91.16"/>
      </g>
      <g class="cls-1">
        <polygon class="cls-3" points="9.66 137.72 22.4 139.74 22.4 137.64 9.66 135.62 9.66 137.72"/>
      </g>
      <g class="cls-1">
        <polygon class="cls-3" points="39.98 88.48 17.33 84.89 16.17 86.14 14.46 84.43 8.8 83.54 6.03 83.54 6.03 85.19 39.98 90.58 39.98 88.48"/>
      </g>
      <g class="cls-1">
        <polygon class="cls-3" points="9.66 134.64 22.4 136.67 22.4 134.57 9.66 132.55 9.66 134.64"/>
      </g>
      <g class="cls-1">
        <polygon class="cls-3" points="22.4 119.22 9.27 117.14 9.66 117.68 9.66 119.29 22.4 121.31 22.4 119.22"/>
      </g>
      <g class="cls-1">
        <polygon class="cls-3" points="9.07 144.74 6.03 144.74 6.03 146.35 25.93 149.51 25.93 147.42 9.07 144.74"/>
      </g>
      <g class="cls-1">
        <polygon class="cls-3" points="34.48 111.92 9.66 107.98 9.66 110.08 35.55 114.18 34.48 111.92"/>
      </g>
      <g class="cls-1">
        <polygon class="cls-3" points="22.4 93.93 22.4 91.84 6.03 89.24 6.03 91.33 22.4 93.93"/>
      </g>
      <g class="cls-1">
        <polygon class="cls-3" points="33.99 110.86 32.92 108.6 9.66 104.91 9.66 107 33.99 110.86"/>
      </g>
      <g class="cls-1">
        <polygon class="cls-3" points="39.98 85.41 28.15 83.54 18.58 83.54 18.12 84.04 39.98 87.5 39.98 85.41"/>
      </g>
      <g class="cls-1">
        <polygon class="cls-3" points="19.65 148.03 24.32 148.77 27.01 148.77 28.22 147.46 19.65 146.1 19.65 148.03"/>
      </g>
      <g class="cls-1">
        <polygon class="cls-3" points="22.4 102.88 22.4 101.05 9.66 99.03 9.66 100.86 22.4 102.88"/>
      </g>
      <g class="cls-1">
        <polygon class="cls-3" points="9.66 129.48 9.66 131.57 22.4 133.6 22.4 131.5 9.66 129.48"/>
      </g>
      <g class="cls-1">
        <polygon class="cls-3" points="27.67 106.79 32.43 107.55 32.07 106.79 27.67 106.79"/>
      </g>
      <g class="cls-1">
        <polygon class="cls-3" points="9.66 125.43 22.4 127.45 22.4 125.36 9.66 123.34 9.66 125.43"/>
      </g>
      <g class="cls-1">
        <polygon class="cls-3" points="44.48 115.6 53.2 116.98 53.59 114.95 44.41 113.5 43.61 114.14 44.48 115.6"/>
      </g>
      <g class="cls-1">
        <polygon class="cls-3" points="84.16 148.77 89.87 148.77 83.09 147.69 84.16 148.77"/>
      </g>
      <g class="cls-1">
        <polygon class="cls-3" points="42.6 133.73 49.73 134.86 50.13 132.83 43.01 131.7 42.6 133.73"/>
      </g>
      <g class="cls-1">
        <polygon class="cls-3" points="44.42 124.8 76.49 129.89 76.05 127.73 44.83 122.78 44.42 124.8"/>
      </g>
      <g class="cls-1">
        <polygon class="cls-3" points="55.83 103.28 49.08 102.21 48.66 104.24 55.44 105.31 55.83 103.28"/>
      </g>
      <g class="cls-1">
        <polygon class="cls-3" points="63.14 149.27 73.38 150.9 73.56 150.7 73.83 150.97 83.14 152.44 83.14 150.35 63.14 147.18 63.14 149.27"/>
      </g>
      <g class="cls-1">
        <polygon class="cls-3" points="65.93 140.5 79.07 142.59 78.63 140.42 65.51 138.34 65.93 140.5"/>
      </g>
      <g class="cls-1">
        <polygon class="cls-3" points="35.79 145.91 35.79 148 55.7 151.16 55.7 149.07 35.79 145.91"/>
      </g>
      <g class="cls-1">
        <polygon class="cls-3" points="43.62 128.73 43.21 130.75 50.32 131.88 50.72 129.85 43.62 128.73"/>
      </g>
      <g class="cls-1">
        <polygon class="cls-3" points="54.16 111.97 47.31 110.89 47.23 111.26 45.44 112.68 53.77 114 54.16 111.97"/>
      </g>
      <g class="cls-1">
        <polygon class="cls-3" points="41.8 137.65 41.38 139.68 48.56 140.82 48.96 138.79 41.8 137.65"/>
      </g>
      <g class="cls-1">
        <polygon class="cls-3" points="74.11 118.21 61.08 116.14 61.5 118.3 74.55 120.37 74.11 118.21"/>
      </g>
      <g class="cls-1">
        <polygon class="cls-3" points="74.33 117.26 75.51 115.36 60.46 112.97 60.88 115.13 74.33 117.26"/>
      </g>
      <g class="cls-1">
        <polygon class="cls-3" points="54.35 111.02 54.73 108.99 47.92 107.91 47.5 109.94 54.35 111.02"/>
      </g>
      <g class="cls-1">
        <polygon class="cls-3" points="56.81 83.54 53.68 83.54 57.43 84.13 56.81 83.54"/>
      </g>
      <g class="cls-1">
        <polygon class="cls-3" points="66.76 144.68 66.77 144.74 63.14 144.74 63.14 146.2 83.14 149.37 83.14 147.28 66.76 144.68"/>
      </g>
      <g class="cls-1">
        <polygon class="cls-3" points="47.03 148.77 54.26 148.77 47.03 147.62 47.03 148.77"/>
      </g>
      <g class="cls-1">
        <polygon class="cls-3" points="66.56 143.67 83.14 146.3 83.14 144.74 79.51 144.74 79.28 143.6 66.13 141.51 66.56 143.67"/>
      </g>
      <g class="cls-1">
        <polygon class="cls-3" points="70.24 99.43 57.42 97.39 57.84 99.55 70.69 101.59 70.24 99.43"/>
      </g>
      <g class="cls-1">
        <polygon class="cls-3" points="45.84 117.86 45.64 118.85 52.63 119.96 53.02 117.93 45.13 116.68 45.84 117.86"/>
      </g>
      <g class="cls-1">
        <polygon class="cls-3" points="56.58 99.35 56.97 97.32 50.29 96.26 49.88 98.29 56.58 99.35"/>
      </g>
      <g class="cls-1">
        <polygon class="cls-3" points="68.93 93.08 47.51 89.68 47.51 91.77 49.55 92.09 51.14 92.09 51.09 92.34 69.37 95.24 68.93 93.08"/>
      </g>
      <g class="cls-1">
        <polygon class="cls-3" points="72.35 87.48 60.1 85.53 59.51 86.14 58.64 85.3 47.51 83.54 47.51 83.54 47.51 85.63 72.35 89.57 72.35 87.48"/>
      </g>
      <g class="cls-1">
        <polygon class="cls-3" points="71.35 104.77 70.9 102.6 58.04 100.56 58.46 102.72 71.35 104.77"/>
      </g>
      <g class="cls-1">
        <polygon class="cls-3" points="41.99 136.7 49.15 137.84 49.55 135.81 42.41 134.68 41.99 136.7"/>
      </g>
      <g class="cls-1">
        <polygon class="cls-3" points="72.35 84.41 66.87 83.54 62.02 83.54 60.92 84.68 72.35 86.5 72.35 84.41"/>
      </g>
      <g class="cls-1">
        <polygon class="cls-3" points="64.27 132 64.69 134.16 77.78 136.24 77.34 134.08 64.27 132"/>
      </g>
      <g class="cls-1">
        <polygon class="cls-3" points="56.01 102.33 56.4 100.3 49.68 99.24 49.27 101.26 56.01 102.33"/>
      </g>
      <g class="cls-1">
        <polygon class="cls-3" points="55.26 106.26 48.47 105.19 48.11 106.96 54.92 108.04 55.26 106.26"/>
      </g>
      <g class="cls-1">
        <polygon class="cls-3" points="61.7 119.31 62.12 121.47 75.2 123.54 74.76 121.38 61.7 119.31"/>
      </g>
      <g class="cls-1">
        <polygon class="cls-3" points="57.19 96.19 57.22 96.38 70.03 98.42 69.59 96.25 50.9 93.29 50.48 95.31 57.15 96.37 57.19 96.19"/>
      </g>
      <g class="cls-1">
        <polygon class="cls-3" points="52.16 122.42 52.45 120.91 45.44 119.8 45.03 121.83 75.84 126.72 75.4 124.56 61.93 122.42 52.16 122.42"/>
      </g>
      <g class="cls-1">
        <polygon class="cls-3" points="40.35 144.74 35.79 144.74 35.79 144.93 55.7 148.09 55.7 146 40.58 143.6 40.35 144.74"/>
      </g>
      <g class="cls-1">
        <polygon class="cls-3" points="55.7 144.74 53.95 144.74 55.7 145.02 55.7 144.74"/>
      </g>
      <g class="cls-1">
        <polygon class="cls-3" points="47.03 146.72 55.02 147.99 56.53 146.37 58.73 148.58 59.93 148.77 65.34 148.77 65.34 147.7 47.03 144.8 47.03 146.72"/>
      </g>
      <g class="cls-1">
        <polygon class="cls-3" points="64.89 135.17 65.31 137.33 78.43 139.41 77.99 137.25 64.89 135.17"/>
      </g>
      <g class="cls-1">
        <polygon class="cls-3" points="68.91 92.09 72.35 92.09 72.35 90.55 47.51 86.61 47.51 88.7 68.91 92.09"/>
      </g>
      <g class="cls-1">
        <polygon class="cls-3" points="72.01 107.94 71.56 105.78 58.66 103.73 59.08 105.89 72.01 107.94"/>
      </g>
      <g class="cls-1">
        <polygon class="cls-3" points="43.81 127.78 52.24 129.12 63.7 129.12 64.07 130.99 77.14 133.07 76.7 130.9 44.23 125.75 43.81 127.78"/>
      </g>
      <g class="cls-1">
        <polygon class="cls-3" points="76.26 114.14 73.51 111.97 59.84 109.8 60.26 111.96 76.05 114.47 76.26 114.14"/>
      </g>
      <g class="cls-1">
        <polygon class="cls-3" points="72.18 147.89 77.74 148.77 79.63 148.77 80.9 147.34 72.18 145.96 72.18 147.89"/>
      </g>
      <g class="cls-1">
        <polygon class="cls-3" points="40.78 142.65 47.98 143.8 48.38 141.77 41.19 140.63 40.78 142.65"/>
      </g>
      <g class="cls-1">
        <polygon class="cls-3" points="72.22 108.95 59.28 106.9 59.64 108.79 72.62 110.85 72.22 108.95"/>
      </g>
      <g class="cls-1">
        <path class="cls-3" d="M87.57,147.01l25.73,4.08c.67-.52,1.3-1.12,1.88-1.79l-28.4-4.51c.22.8.48,1.54.79,2.22Z"/>
      </g>
      <g class="cls-1">
        <path class="cls-3" d="M109.82,145.37c-1.04.83-2.46,1.14-4.36,1.14-2.84,0-4.53-1-5.5-2.7l-13.76-2.18c.08.76.2,1.47.34,2.15l29.32,4.65c.43-.59.82-1.22,1.16-1.91l-7.2-1.14Z"/>
      </g>
      <g class="cls-1">
        <path class="cls-3" d="M98.77,99.9v-2.09l-12.61-2c-.06.66-.1,1.35-.12,2.07l12.73,2.02Z"/>
      </g>
      <g class="cls-1">
        <polygon class="cls-3" points="118.67 83.54 115.97 83.54 115.43 84.12 118.67 84.63 118.67 83.54"/>
      </g>
      <g class="cls-1">
        <path class="cls-3" d="M118.67,134.51h-6.33c0,.37,0,.72-.01,1.07l6.34,1.01v-2.07Z"/>
      </g>
      <g class="cls-1">
        <path class="cls-3" d="M111.8,141.64l6.49,1.03c.13-.65.22-1.33.28-2.05l-6.46-1.02c-.08.75-.18,1.44-.32,2.04Z"/>
      </g>
      <g class="cls-1">
        <path class="cls-3" d="M110.63,144.52l6.79,1.08c.25-.62.47-1.28.65-1.99l-6.51-1.03c-.24.79-.56,1.42-.93,1.94Z"/>
      </g>
      <g class="cls-1">
        <path class="cls-3" d="M100.4,90.95c.61-.47,1.4-.62,2.37-.62,1.61,0,2.76.32,3.4,1.54l12.51,1.98v-2.09l-29.25-4.64c-.48.56-.92,1.19-1.31,1.89l12.29,1.95Z"/>
      </g>
      <g class="cls-1">
        <polygon class="cls-3" points="118.67 100.97 106.77 99.08 106.77 101.17 118.67 103.06 118.67 100.97"/>
      </g>
      <g class="cls-1">
        <polygon class="cls-3" points="118.67 97.9 106.77 96.01 106.77 98.1 118.67 99.99 118.67 97.9"/>
      </g>
      <g class="cls-1">
        <polygon class="cls-3" points="98.77 119.05 85.52 116.95 86.02 117.68 86.02 119.12 98.77 121.14 98.77 119.05"/>
      </g>
      <g class="cls-1">
        <polygon class="cls-3" points="86.02 131.4 98.77 133.43 98.77 131.33 86.02 129.31 86.02 131.4"/>
      </g>
      <g class="cls-1">
        <polygon class="cls-3" points="86.02 126.24 86.02 128.33 98.77 130.35 98.77 128.26 86.02 126.24"/>
      </g>
      <g class="cls-1">
        <path class="cls-3" d="M118.67,137.56l-6.36-1.01c-.02.74-.06,1.43-.11,2.08l6.42,1.02c.01-.32.05-.62.05-.95v-1.13Z"/>
      </g>
      <g class="cls-1">
        <polygon class="cls-3" points="86.02 123.17 86.02 125.26 98.77 127.28 98.77 125.19 86.02 123.17"/>
      </g>
      <g class="cls-1">
        <polygon class="cls-3" points="86.02 122.19 98.77 124.21 98.77 122.12 86.02 120.1 86.02 122.19"/>
      </g>
      <g class="cls-1">
        <path class="cls-3" d="M118.67,88.68l-26.12-4.14c-.83.47-1.62,1.04-2.33,1.72l28.45,4.51v-2.09Z"/>
      </g>
      <g class="cls-1">
        <polygon class="cls-3" points="111.42 104.98 112.63 103.63 114.46 105.46 118.67 106.13 118.67 104.04 106.77 102.15 106.77 104.24 111.42 104.98"/>
      </g>
      <g class="cls-1">
        <polygon class="cls-3" points="99.94 112.37 98.77 110.7 98.77 110.09 86.02 108.07 86.02 110.16 99.94 112.37"/>
      </g>
      <g class="cls-1">
        <polygon class="cls-3" points="106.77 106.23 110.3 106.23 110.65 105.84 106.77 105.22 106.77 106.23"/>
      </g>
      <g class="cls-1">
        <path class="cls-3" d="M86.02,137.55l12.82,2.03c-.05-.67-.08-1.36-.08-2.09h0s-12.74-2.03-12.74-2.03v2.09Z"/>
      </g>
      <g class="cls-1">
        <path class="cls-3" d="M99.67,91.81l-12.02-1.91c-.28.61-.53,1.27-.75,1.97l12.13,1.92c.15-.85.37-1.49.64-1.99Z"/>
      </g>
      <g class="cls-1">
        <polygon class="cls-3" points="98.77 117.58 99.78 116.14 83.96 113.63 83.6 114.14 84.77 115.85 98.77 118.07 98.77 117.58"/>
      </g>
      <g class="cls-1">
        <polygon class="cls-3" points="98.77 100.88 86.02 98.86 86.02 100.95 98.77 102.97 98.77 100.88"/>
      </g>
      <g class="cls-1">
        <path class="cls-3" d="M98.9,94.76l-12.25-1.94c-.16.64-.28,1.32-.38,2.03l12.51,1.99c.02-.77.06-1.47.12-2.07Z"/>
      </g>
      <g class="cls-1">
        <polygon class="cls-3" points="98.77 106.04 98.77 103.95 86.02 101.93 86.02 104.02 98.77 106.04"/>
      </g>
      <g class="cls-1">
        <polygon class="cls-3" points="86.02 134.47 98.77 136.5 98.77 134.4 86.02 132.38 86.02 134.47"/>
      </g>
      <g class="cls-1">
        <polygon class="cls-3" points="98.77 107.02 86.02 105 86.02 107.09 98.77 109.12 98.77 107.02"/>
      </g>
      <g class="cls-1">
        <path class="cls-3" d="M118.67,85.61l-4.03-.64-1.09,1.17s-.76-.86-2.54-1.74l-11.4-1.81c-1.92.14-3.8.51-5.53,1.22l24.59,3.9v-2.09Z"/>
      </g>
      <g class="cls-1">
        <path class="cls-3" d="M108.98,149.71c.93,0,1.93-.09,2.95-.27l-13.76-2.18c2.86,1.96,6.69,2.45,10.82,2.45Z"/>
      </g>
      <g class="cls-1">
        <path class="cls-3" d="M96.81,146.14l17.33,2.75c1.07-.35,2.13-.81,3.13-1.43l-22.12-3.51c.48.84,1.04,1.57,1.66,2.19Z"/>
      </g>
      <g class="cls-1">
        <polygon class="cls-3" points="100.4 115.26 101.18 114.14 100.72 113.47 85.74 111.1 84.58 112.75 100.4 115.26"/>
      </g>
      <g class="cls-1">
        <path class="cls-3" d="M118.67,96.92v-2.09l-12.13-1.93c.14.58.21,1.28.22,2.13l11.91,1.89Z"/>
      </g>
      <g class="cls-1">
        <path class="cls-3" d="M86.03,138.53c0,.73.03,1.44.08,2.1l13.36,2.12c-.24-.66-.4-1.39-.51-2.17l-12.93-2.05Z"/>
      </g>
      <g class="cls-1">
        <polygon class="cls-3" points="158.86 85.84 144.31 83.54 142.3 83.54 140.91 85.09 158.86 87.94 158.86 85.84"/>
      </g>
      <g class="cls-1">
        <polygon class="cls-3" points="158.86 83.54 150.48 83.54 158.86 84.87 158.86 83.54"/>
      </g>
      <g class="cls-1">
        <polygon class="cls-3" points="137.46 83.54 131.12 83.54 138.61 84.72 137.46 83.54"/>
      </g>
      <g class="cls-1">
        <polygon class="cls-3" points="129.65 91.16 133.55 91.16 133.55 93.14 146.3 95.16 146.3 93.07 121 89.05 121 91.14 128.39 92.32 129.65 91.16"/>
      </g>
      <g class="cls-1">
        <polygon class="cls-3" points="146.3 105.35 133.55 103.33 133.55 105.42 146.3 107.44 146.3 105.35"/>
      </g>
      <g class="cls-1">
        <polygon class="cls-3" points="146.3 108.42 133.55 106.4 133.55 108.49 146.3 110.51 146.3 108.42"/>
      </g>
      <g class="cls-1">
        <polygon class="cls-3" points="133.55 133.78 133.55 135.87 146.3 137.89 146.3 135.8 133.55 133.78"/>
      </g>
      <g class="cls-1">
        <polygon class="cls-3" points="133.55 127.64 133.55 129.73 146.3 131.75 146.3 129.66 133.55 127.64"/>
      </g>
      <g class="cls-1">
        <polygon class="cls-3" points="158.86 88.92 140.15 85.95 139.97 86.14 139.72 85.88 124.95 83.54 121 83.54 121 85 158.86 91.01 158.86 88.92"/>
      </g>
      <g class="cls-1">
        <polygon class="cls-3" points="133.55 142.99 133.55 144.74 131.39 144.74 149.83 147.67 149.83 145.58 133.55 142.99"/>
      </g>
      <g class="cls-1">
        <polygon class="cls-3" points="146.93 111.59 133.55 109.47 133.55 110.7 132.99 111.47 148.58 113.95 146.93 111.59"/>
      </g>
      <g class="cls-1">
        <polygon class="cls-3" points="131.12 114.25 146.93 116.76 148.22 114.87 132.35 112.35 131.04 114.14 131.12 114.25"/>
      </g>
      <g class="cls-1">
        <polygon class="cls-3" points="127.48 93.15 121 92.12 121 94.22 125.53 94.94 127.48 93.15"/>
      </g>
      <g class="cls-1">
        <polygon class="cls-3" points="133.55 120.52 146.3 122.54 146.3 120.71 133.55 118.68 133.55 120.52"/>
      </g>
      <g class="cls-1">
        <polygon class="cls-3" points="124.07 96.28 124.62 95.77 121 95.19 121 96.28 124.07 96.28"/>
      </g>
      <g class="cls-1">
        <polygon class="cls-3" points="133.55 123.59 146.3 125.61 146.3 123.52 133.55 121.5 133.55 123.59"/>
      </g>
      <g class="cls-1">
        <polygon class="cls-3" points="146.3 104.37 146.3 102.28 133.55 100.26 133.55 102.35 146.3 104.37"/>
      </g>
      <g class="cls-1">
        <polygon class="cls-3" points="133.55 117.68 133.55 117.71 146.3 119.73 146.3 117.68 146.32 117.64 131.9 115.35 133.55 117.68"/>
      </g>
      <g class="cls-1">
        <polygon class="cls-3" points="133.55 126.66 146.3 128.68 146.3 126.59 133.55 124.57 133.55 126.66"/>
      </g>
      <g class="cls-1">
        <polygon class="cls-3" points="133.55 132.8 146.3 134.82 146.3 132.73 133.55 130.71 133.55 132.8"/>
      </g>
      <g class="cls-1">
        <polygon class="cls-3" points="133.55 136.85 133.55 138.94 146.3 140.97 146.3 138.87 133.55 136.85"/>
      </g>
      <g class="cls-1">
        <polygon class="cls-3" points="158.86 96.28 158.86 95.06 153.51 94.21 155.69 96.28 158.86 96.28"/>
      </g>
      <g class="cls-1">
        <polygon class="cls-3" points="146.3 96.14 133.55 94.12 133.55 96.21 146.3 98.23 146.3 96.14"/>
      </g>
      <g class="cls-1">
        <polygon class="cls-3" points="146.3 99.21 133.55 97.19 133.55 99.28 146.3 101.3 146.3 99.21"/>
      </g>
      <g class="cls-1">
        <polygon class="cls-3" points="146.3 92.09 146.3 91.16 150.3 91.16 152.27 93.03 158.86 94.08 158.86 91.99 121 85.98 121 88.07 146.3 92.09"/>
      </g>
      <g class="cls-1">
        <polygon class="cls-3" points="133.62 148.77 140.98 148.77 141.28 148.45 133.62 147.23 133.62 148.77"/>
      </g>
      <g class="cls-1">
        <polygon class="cls-3" points="133.55 142.02 146.3 144.04 146.3 141.94 133.55 139.92 133.55 142.02"/>
      </g>
      <g class="cls-1">
        <polygon class="cls-3" points="129.93 147.58 149.83 150.74 149.83 148.65 129.93 145.49 129.93 147.58"/>
      </g>
      <g class="cls-1">
        <polygon class="cls-3" points="133.62 146.33 142.01 147.66 143.21 146.37 144.97 148.13 148.97 148.77 151.93 148.77 151.93 147.31 133.62 144.41 133.62 146.33"/>
      </g>
      <g class="cls-1">
        <path class="cls-3" d="M194.3,100.68l-12.74-2.02v2.09l12.74,2.02v-2.09Z"/>
      </g>
      <g class="cls-1">
        <path class="cls-3" d="M181.55,139.63c0,.27,0,.53,0,.79l12.41,1.97c.13-.65.22-1.33.28-2.05l-12.67-2.01v1.3Z"/>
      </g>
      <g class="cls-1">
        <path class="cls-3" d="M174.79,91.44l-11.79-1.87c-.37.6-.7,1.24-.98,1.94l11.88,1.88c.19-.8.48-1.46.89-1.95Z"/>
      </g>
      <g class="cls-1">
        <path class="cls-3" d="M160.81,122.03l12.74,2.02v-2.09l-12.74-2.02v2.09Z"/>
      </g>
      <g class="cls-1">
        <path class="cls-3" d="M163.59,88.69l12.28,1.95c.47-.2,1.02-.31,1.68-.31,1.2,0,2.12.22,2.78,1.02l13.53,2.15c-.15-.78-.33-1.51-.55-2.18l-28.09-4.46c-.59.55-1.13,1.16-1.63,1.83Z"/>
      </g>
      <g class="cls-1">
        <path class="cls-3" d="M173.55,102.55v-2.09l-12.74-2.02v2.09l12.74,2.02Z"/>
      </g>
      <g class="cls-1">
        <path class="cls-3" d="M160.81,138.33c0,.66.02,1.28.06,1.88l12.84,2.04c-.07-.62-.12-1.32-.14-2.12l-12.76-2.02v.22Z"/>
      </g>
      <g class="cls-1">
        <path class="cls-3" d="M160.81,134.06l12.74,2.02v-2.09l-12.74-2.02v2.09Z"/>
      </g>
      <g class="cls-1">
        <path class="cls-3" d="M194.3,98.51c0-.31,0-.61-.02-.91l-12.79-2.03c.04.63.06,1.32.06,2.1h0s12.74,2.03,12.74,2.03v-1.19Z"/>
      </g>
      <g class="cls-1">
        <path class="cls-3" d="M181.55,113.04l14.36,2.28.8-1.17-.63-.89-14.54-2.31v2.09Z"/>
      </g>
      <g class="cls-1">
        <path class="cls-3" d="M181.55,137.35l12.73,2.02c0-.22.02-.44.02-.67v-1.42l-12.74-2.02v2.09Z"/>
      </g>
      <g class="cls-1">
        <path class="cls-3" d="M181.5,141.39c-.05.76-.14,1.45-.28,2.05l11.86,1.88c.26-.62.48-1.29.66-1.99l-12.24-1.94Z"/>
      </g>
      <g class="cls-1">
        <path class="cls-3" d="M164.23,149.95l20.29,3.22c1.11-.4,2.21-.92,3.24-1.58l-25.11-3.98c.46.89.99,1.67,1.58,2.34Z"/>
      </g>
      <g class="cls-1">
        <path class="cls-3" d="M181.55,128.13l12.74,2.02v-1.83l-12.74-2.02v1.83Z"/>
      </g>
      <g class="cls-1">
        <path class="cls-3" d="M173.55,126.86v-1.83l-12.74-2.02v1.83l12.74,2.02Z"/>
      </g>
      <g class="cls-1">
        <path class="cls-3" d="M160.81,135.03v2.09l12.74,2.02v-2.09l-12.74-2.02Z"/>
      </g>
      <g class="cls-1">
        <path class="cls-3" d="M179.25,146.19l12.24,1.94c.43-.59.83-1.22,1.17-1.91l-11.74-1.86c-.35.87-.89,1.49-1.67,1.83Z"/>
      </g>
      <g class="cls-1">
        <path class="cls-3" d="M181.55,122.25l12.74,2.02v-2.09l-12.74-2.02v2.09Z"/>
      </g>
      <g class="cls-1">
        <path class="cls-3" d="M194.3,127.34v-2.09l-12.74-2.02v2.09l12.74,2.02Z"/>
      </g>
      <g class="cls-1">
        <path class="cls-3" d="M158.39,114.14l1.05,1.53,14.12,2.24v-2.09l-14.7-2.33-.46.66Z"/>
      </g>
      <g class="cls-1">
        <path class="cls-3" d="M181.55,109.96l13.76,2.18-1.02-1.45v-.8l-12.74-2.02v2.09Z"/>
      </g>
      <g class="cls-1">
        <path class="cls-3" d="M190.8,149l-29.34-4.65c.19.79.43,1.53.7,2.2l26.73,4.24c.68-.53,1.32-1.12,1.91-1.79Z"/>
      </g>
      <g class="cls-1">
        <path class="cls-3" d="M160.81,125.82v2.09l12.74,2.02v-2.09l-12.74-2.02Z"/>
      </g>
      <g class="cls-1">
        <path class="cls-3" d="M187.17,84.19l-10.54-1.67c-1.87.05-3.99.39-6.06,1.13l20.26,3.21c-1.04-1.16-2.28-2.03-3.67-2.67Z"/>
      </g>
      <g class="cls-1">
        <path class="cls-3" d="M191.71,87.98l-22.82-3.62c-.94.45-1.85,1.01-2.7,1.66l26.74,4.24c-.35-.85-.76-1.61-1.22-2.29Z"/>
      </g>
      <g class="cls-1">
        <path class="cls-3" d="M160.94,141.2c.07.75.17,1.47.3,2.14l13.55,2.15c-.41-.5-.72-1.22-.92-2.24l-12.93-2.05Z"/>
      </g>
      <g class="cls-1">
        <path class="cls-3" d="M160.81,130.98l12.74,2.02v-2.09l-12.74-2.02v2.09Z"/>
      </g>
      <g class="cls-1">
        <path class="cls-3" d="M181.55,131.2l12.74,2.02v-2.09l-12.74-2.02v2.09Z"/>
      </g>
      <g class="cls-1">
        <path class="cls-3" d="M159.47,112.6l14.08,2.23v-2.09l-12.76-2.02-1.32,1.88Z"/>
      </g>
      <g class="cls-1">
        <path class="cls-3" d="M181.55,116.11l12.74,2.02v-.45l1.01-1.48-13.75-2.18v2.09Z"/>
      </g>
      <g class="cls-1">
        <path class="cls-3" d="M194.24,96.62c-.04-.75-.11-1.45-.21-2.13l-13.1-2.08c.21.57.38,1.28.48,2.17l12.83,2.04Z"/>
      </g>
      <g class="cls-1">
        <path class="cls-3" d="M173.55,99.48v-2.09l-12.56-1.99c-.09.66-.15,1.35-.17,2.07l12.73,2.02Z"/>
      </g>
      <g class="cls-1">
        <path class="cls-3" d="M160.81,103.6l12.74,2.02v-2.09l-12.74-2.02v2.09Z"/>
      </g>
      <g class="cls-1">
        <path class="cls-3" d="M160.81,117.68v1.28l12.74,2.02v-2.09l-13.36-2.12.62.91Z"/>
      </g>
      <g class="cls-1">
        <path class="cls-3" d="M160.81,109.74l12.74,2.02v-2.09l-12.74-2.02v2.09Z"/>
      </g>
      <g class="cls-1">
        <path class="cls-3" d="M181.55,119.18l12.74,2.02v-2.09l-12.74-2.02v2.09Z"/>
      </g>
      <g class="cls-1">
        <path class="cls-3" d="M194.3,105.84v-2.09l-12.74-2.02v2.09l12.74,2.02Z"/>
      </g>
      <g class="cls-1">
        <path class="cls-3" d="M177.78,149.71c1.25,0,2.65-.14,4.08-.48l-15.55-2.47c2.91,2.37,7.03,2.94,11.47,2.94Z"/>
      </g>
      <g class="cls-1">
        <path class="cls-3" d="M173.71,94.34l-12.04-1.91c-.21.63-.39,1.3-.52,2.01l12.41,1.97c.02-.75.07-1.44.15-2.07Z"/>
      </g>
      <g class="cls-1">
        <path class="cls-3" d="M181.55,132.18v2.09l12.74,2.02v-2.09l-12.74-2.02Z"/>
      </g>
      <g class="cls-1">
        <path class="cls-3" d="M181.55,104.8v2.09l12.74,2.02v-2.09l-12.74-2.02Z"/>
      </g>
      <g class="cls-1">
        <path class="cls-3" d="M160.81,106.67l12.74,2.02v-2.09l-12.74-2.02v2.09Z"/>
      </g>
      <g class="cls-1">
        <path class="cls-3" d="M226.47,84.29l-3.93-.62c-1.11-.09-2.26-.13-3.41-.13-1.73,0-3.66.24-5.59.79l18.68,2.96c-1.58-1.51-3.55-2.45-5.74-3Z"/>
      </g>
      <g class="cls-1">
        <polygon class="cls-3" points="209.18 148.77 214.53 148.77 208.17 147.76 209.18 148.77"/>
      </g>
      <g class="cls-1">
        <path class="cls-3" d="M217.92,91.16h1.59c.94,0,1.7.15,2.29.61l13.92,2.21c-.17-.79-.39-1.52-.63-2.19l-35.94-5.7v2.09l18.78,2.98Z"/>
      </g>
      <g class="cls-1">
        <polygon class="cls-3" points="202.67 110.24 215.5 112.28 215.5 110.19 202.67 108.15 202.67 110.24"/>
      </g>
      <g class="cls-1">
        <polygon class="cls-3" points="202.67 107.17 215.5 109.21 215.5 107.12 202.67 105.08 202.67 107.17"/>
      </g>
      <g class="cls-1">
        <polygon class="cls-3" points="202.34 111.17 201.01 113.05 215.5 115.35 215.5 113.26 202.34 111.17"/>
      </g>
      <g class="cls-1">
        <polygon class="cls-3" points="202.67 138.6 202.67 140.7 215.5 142.73 215.5 140.64 202.67 138.6"/>
      </g>
      <g class="cls-1">
        <polygon class="cls-3" points="222.01 144.74 220.62 144.74 220.62 146.61 240.53 149.77 240.53 147.68 222.01 144.74"/>
      </g>
      <g class="cls-1">
        <polygon class="cls-3" points="202.67 104.1 215.5 106.14 215.5 104.04 202.67 102.01 202.67 104.1"/>
      </g>
      <g class="cls-1">
        <polygon class="cls-3" points="202.67 101.03 215.5 103.07 215.5 100.97 202.67 98.94 202.67 101.03"/>
      </g>
      <g class="cls-1">
        <polygon class="cls-3" points="220.62 149.69 230.52 151.26 231.04 150.7 231.8 151.46 240.53 152.84 240.53 150.75 220.62 147.59 220.62 149.69"/>
      </g>
      <g class="cls-1">
        <path class="cls-3" d="M236.16,97.13c-.06-.75-.14-1.46-.26-2.13l-13.27-2.1c.26.55.45,1.27.57,2.18l12.95,2.05Z"/>
      </g>
      <g class="cls-1">
        <polygon class="cls-3" points="197.28 147.96 202.4 148.77 204.64 148.77 205.87 147.39 197.28 146.03 197.28 147.96"/>
      </g>
      <g class="cls-1">
        <path class="cls-3" d="M223.4,98.18l12.84,2.04v-.68c0-.49-.01-.96-.03-1.42l-12.9-2.05c.05.62.08,1.32.09,2.11Z"/>
      </g>
      <g class="cls-1">
        <polygon class="cls-3" points="223.91 144.07 240.53 146.7 240.53 144.74 237.64 144.74 237.49 144.13 223.42 141.9 223.91 144.07"/>
      </g>
      <g class="cls-1">
        <polygon class="cls-3" points="223.19 140.88 237.23 143.11 236.68 140.93 222.7 138.71 223.19 140.88"/>
      </g>
      <g class="cls-1">
        <polygon class="cls-3" points="222.48 137.7 236.42 139.91 235.87 137.73 221.99 135.53 222.48 137.7"/>
      </g>
      <g class="cls-1">
        <polygon class="cls-3" points="221.76 134.51 235.61 136.71 235.13 134.8 221.33 132.61 221.76 134.51"/>
      </g>
      <g class="cls-1">
        <polygon class="cls-3" points="202.67 131.48 215.5 133.52 215.5 131.68 202.67 129.65 202.67 131.48"/>
      </g>
      <g class="cls-1">
        <polygon class="cls-3" points="223.41 101.25 236.25 103.29 236.25 101.19 223.41 99.16 223.41 101.25"/>
      </g>
      <g class="cls-1">
        <path class="cls-3" d="M233.25,88.43l-21.64-3.43c-.93.38-1.84.85-2.71,1.42l-2.11-2.19-4.4-.7h-3.25v1.58l35.51,5.63c-.4-.87-.86-1.64-1.39-2.31Z"/>
      </g>
      <g class="cls-1">
        <polygon class="cls-3" points="215.5 127.64 215.5 125.54 202.67 123.51 202.67 125.6 215.5 127.64"/>
      </g>
      <g class="cls-1">
        <polygon class="cls-3" points="199.13 144.74 199.13 146.28 219.04 149.43 219.04 147.34 202.66 144.74 199.13 144.74"/>
      </g>
      <g class="cls-1">
        <polygon class="cls-3" points="202.67 128.67 215.5 130.71 215.5 128.61 202.67 126.58 202.67 128.67"/>
      </g>
      <g class="cls-1">
        <polygon class="cls-3" points="217.05 148.27 220.21 148.77 224.41 148.77 225.43 147.67 217.05 146.34 217.05 148.27"/>
      </g>
      <g class="cls-1">
        <polygon class="cls-3" points="229.03 148.77 232.34 148.77 228.41 148.14 229.03 148.77"/>
      </g>
      <g class="cls-1">
        <polygon class="cls-3" points="202.67 143.77 219.04 146.36 219.04 144.74 215.5 144.74 215.5 143.71 202.67 141.67 202.67 143.77"/>
      </g>
      <g class="cls-1">
        <polygon class="cls-3" points="202.67 137.62 215.5 139.66 215.5 137.57 202.67 135.53 202.67 137.62"/>
      </g>
      <g class="cls-1">
        <path class="cls-3" d="M219.5,115.54h-2.83l15.9,2.52c.52-.56,1-1.18,1.43-1.87l-11.76-1.87c-.6.78-1.47,1.21-2.74,1.21Z"/>
      </g>
      <g class="cls-1">
        <path class="cls-3" d="M223.41,108.56c0,.68-.02,1.31-.06,1.89l12.28,1.95c.17-.64.31-1.32.41-2.03l-12.63-2v.19Z"/>
      </g>
      <g class="cls-1">
        <path class="cls-3" d="M222.75,113.43l11.75,1.86c.32-.61.61-1.26.85-1.96l-12.1-1.92c-.1.77-.27,1.44-.5,2.01Z"/>
      </g>
      <g class="cls-1">
        <polygon class="cls-3" points="215.5 94.83 202.67 92.79 202.67 94.89 215.5 96.92 215.5 94.83"/>
      </g>
      <g class="cls-1">
        <polygon class="cls-3" points="223.41 102.23 223.41 104.32 236.25 106.36 236.25 104.26 223.41 102.23"/>
      </g>
      <g class="cls-1">
        <path class="cls-3" d="M223.41,107.39l12.75,2.02c.05-.58.09-1.17.09-1.79v-.29l-12.84-2.04v2.09Z"/>
      </g>
      <g class="cls-1">
        <polygon class="cls-3" points="215.5 99.99 215.5 97.9 202.67 95.87 202.67 97.96 215.5 99.99"/>
      </g>
      <g class="cls-1">
        <polygon class="cls-3" points="202.67 117.68 202.67 119.46 232.45 124.18 231.9 122 202.43 117.33 202.67 117.68"/>
      </g>
      <g class="cls-1">
        <polygon class="cls-3" points="215.5 91.76 199.13 89.16 199.13 91.26 215.5 93.85 215.5 91.76"/>
      </g>
      <g class="cls-1">
        <polygon class="cls-3" points="202.67 134.55 215.5 136.59 215.5 134.5 202.67 132.46 202.67 134.55"/>
      </g>
      <g class="cls-1">
        <polygon class="cls-3" points="220.39 128.41 234.06 130.58 233.51 128.4 219.9 126.24 220.39 128.41"/>
      </g>
      <g class="cls-1">
        <path class="cls-3" d="M202.67,122.53l12.84,2.04v-1.59c1.21.19,2.42.19,3.72.28l.44,1.97,13.59,2.16-.55-2.18-30.04-4.76v2.09Z"/>
      </g>
      <g class="cls-1">
        <path class="cls-3" d="M200.25,114.14l1.43,2.09,29.96,4.75-.41-1.63c.17-.14.33-.3.5-.45l-31.33-4.97-.15.21Z"/>
      </g>
      <g class="cls-1">
        <polygon class="cls-3" points="199.13 147.26 199.13 149.35 209.23 150.95 209.46 150.7 209.8 151.04 219.04 152.51 219.04 150.41 199.13 147.26"/>
      </g>
      <g class="cls-1">
        <polygon class="cls-3" points="221.1 131.59 234.87 133.78 234.32 131.6 220.61 129.42 221.1 131.59"/>
      </g>
      <g class="cls-1">
        <polygon class="cls-3" points="263.61 110.7 268.21 111.43 268.93 109.45 264.31 108.72 263.61 110.7"/>
      </g>
      <g class="cls-1">
        <polygon class="cls-3" points="267.7 99.06 272.44 99.81 273.17 97.84 268.39 97.08 267.7 99.06"/>
      </g>
      <g class="cls-1">
        <polygon class="cls-3" points="272.16 85.39 271.41 86.14 270.51 85.13 263.78 84.06 263.78 86.16 278.85 88.55 278.85 86.45 272.16 85.39"/>
      </g>
      <g class="cls-1">
        <polygon class="cls-3" points="263.78 89.23 278.85 91.62 278.85 89.53 263.78 87.13 263.78 89.23"/>
      </g>
      <g class="cls-1">
        <polygon class="cls-3" points="266.67 101.97 271.39 102.72 272.11 100.74 267.37 99.99 266.67 101.97"/>
      </g>
      <g class="cls-1">
        <polygon class="cls-3" points="263.78 92.19 270.11 92.19 269.74 93.24 274.56 94.01 275.22 92.19 276.28 92.19 263.78 90.21 263.78 92.19"/>
      </g>
      <g class="cls-1">
        <polygon class="cls-3" points="264.63 107.79 269.27 108.52 269.99 106.55 265.33 105.81 264.63 107.79"/>
      </g>
      <g class="cls-1">
        <polygon class="cls-3" points="243.41 148.77 250.15 148.77 243.41 147.7 243.41 148.77"/>
      </g>
      <g class="cls-1">
        <polygon class="cls-3" points="265.65 104.88 270.33 105.62 271.05 103.64 266.35 102.9 265.65 104.88"/>
      </g>
      <g class="cls-1">
        <polygon class="cls-3" points="269.27 144.74 266.9 144.74 269.27 145.12 269.27 144.74"/>
      </g>
      <g class="cls-1">
        <polygon class="cls-3" points="269.08 83.54 266.63 83.54 269.49 83.99 269.08 83.54"/>
      </g>
      <g class="cls-1">
        <polygon class="cls-3" points="249.27 148.09 269.27 151.26 269.27 149.17 249.27 146 249.27 148.09"/>
      </g>
      <g class="cls-1">
        <polygon class="cls-3" points="259.13 86.4 250.46 85.02 249.46 86.14 247.94 84.62 241.1 83.54 239.22 83.54 239.22 85.33 259.13 88.49 259.13 86.4"/>
      </g>
      <g class="cls-1">
        <polygon class="cls-3" points="248.54 108.31 261.79 110.41 261.14 108.21 247.76 106.09 248.54 108.31"/>
      </g>
      <g class="cls-1">
        <polygon class="cls-3" points="247.39 105.05 260.84 107.19 260.2 104.99 246.61 102.84 247.39 105.05"/>
      </g>
      <g class="cls-1">
        <polygon class="cls-3" points="246.25 101.8 259.89 103.97 259.25 101.77 245.46 99.58 246.25 101.8"/>
      </g>
      <g class="cls-1">
        <polygon class="cls-3" points="251.47 148.08 252.97 146.39 243.41 144.87 243.41 146.8 251.47 148.08"/>
      </g>
      <g class="cls-1">
        <polygon class="cls-3" points="255.3 148.68 255.82 148.77 261.8 148.77 261.8 147.79 253.01 146.4 255.3 148.68"/>
      </g>
      <g class="cls-1">
        <polygon class="cls-3" points="252.9 144.74 249.27 144.74 249.27 145.02 269.27 148.19 269.27 146.1 252.9 143.5 252.9 144.74"/>
      </g>
      <g class="cls-1">
        <polygon class="cls-3" points="259.13 83.54 251.78 83.54 251.22 84.16 259.13 85.42 259.13 83.54"/>
      </g>
      <g class="cls-1">
        <polygon class="cls-3" points="259.13 91.56 259.13 89.47 239.22 86.31 239.22 88.4 259.13 91.56"/>
      </g>
      <g class="cls-1">
        <polygon class="cls-3" points="245.1 98.55 258.95 100.74 258.3 98.55 244.31 96.33 245.1 98.55"/>
      </g>
      <g class="cls-1">
        <polygon class="cls-3" points="243.95 95.29 258 97.52 257.36 95.33 243.17 93.08 243.95 95.29"/>
      </g>
      <g class="cls-1">
        <polygon class="cls-3" points="239.22 91.47 257.05 94.3 256.43 92.19 256.92 92.19 239.22 89.38 239.22 91.47"/>
      </g>
      <g class="cls-1">
        <polygon class="cls-3" points="252.9 120.65 252.9 121.28 265.74 123.32 265.74 121.23 252.35 119.1 252.9 120.65"/>
      </g>
      <g class="cls-1">
        <polygon class="cls-3" points="252.9 130.5 265.74 132.53 265.74 130.44 252.9 128.4 252.9 130.5"/>
      </g>
      <g class="cls-1">
        <polygon class="cls-3" points="252.9 133.57 265.74 135.6 265.74 133.51 252.9 131.47 252.9 133.57"/>
      </g>
      <g class="cls-1">
        <polygon class="cls-3" points="252.9 127.42 265.74 129.46 265.74 127.37 252.9 125.33 252.9 127.42"/>
      </g>
      <g class="cls-1">
        <polygon class="cls-3" points="252.9 136.64 265.74 138.67 265.74 136.58 252.9 134.55 252.9 136.64"/>
      </g>
      <g class="cls-1">
        <polygon class="cls-3" points="252.9 142.52 265.74 144.56 265.74 142.47 252.9 140.43 252.9 142.52"/>
      </g>
      <g class="cls-1">
        <polygon class="cls-3" points="251.99 118.07 265.74 120.25 265.74 118.23 265.76 118.16 251.2 115.85 251.99 118.07"/>
      </g>
      <g class="cls-1">
        <polygon class="cls-3" points="262.67 113.4 262.09 111.43 248.91 109.34 249.69 111.56 267.16 114.33 267.88 112.35 263.29 111.62 262.67 113.4"/>
      </g>
      <g class="cls-1">
        <polygon class="cls-3" points="252.9 124.35 265.74 126.39 265.74 124.3 252.9 122.26 252.9 124.35"/>
      </g>
      <g class="cls-1">
        <polygon class="cls-3" points="250.84 114.81 266.1 117.23 266.82 115.26 250.06 112.6 250.84 114.81"/>
      </g>
      <g class="cls-1">
        <polygon class="cls-3" points="252.9 139.45 265.74 141.49 265.74 139.65 252.9 137.62 252.9 139.45"/>
      </g>
      <g>
        <path class="cls-2" d="M21.3,0h16.56v12.74h-3.16l-5.39-5.12h-4v19.53l2.42,3.44-2.42,3.53v27.07h3.53v8.56h-6.88l-2.6-2.6-2.42,2.6h-8v-8.56h3.63v-27.07l-2.51-3.53,2.51-3.44V7.63h-3.91l-5.58,5.12H0V0h16.46l2.51,2.6,2.33-2.6Z"/>
        <path class="cls-2" d="M74.79,0h8v8.65h-3.53v18.51l2.33,3.44-2.42,3.53v27.07h3.63v8.56h-7.72l-2.51-2.6-2.51,2.6h-7.26v-8.56h3.63v-30.23h-9.95v30.23h3.53v8.56h-7.53l-2.6-2.6-2.42,2.6h-7.26v-8.56h3.53v-27.07l-2.42-3.53,2.42-3.44V8.65h-3.53V0h6.88l2.6,2.6,2.42-2.6h7.91v8.65h-3.53v14.6h9.95v-14.6h-3.63V0h6.98l2.6,2.6,2.42-2.6Z"/>
        <path class="cls-2" d="M120.92,0v12.74h-3.26l-5.39-5.12h-8.93v15.63h9.58l3.63,7.72h-13.21v31.07h8.93l5.39-5.02h3.26v12.74h-22.42l-2.6-2.6-2.33,2.6h-6.6v-8.56h3.53v-27.07l-2.42-3.53,2.42-3.44V8.56h-3.53V0h6.88l2.6,2.6,2.42-2.6h22.04Z"/>
        <path class="cls-2" d="M34.18,80.64v12.74h-3.16l-5.4-5.12h-9.02v15.63h9.67l3.63,7.72h-13.3v30.23h3.53v8.56h-6.88l-2.6-2.6-2.42,2.6H.23v-8.56h3.63v-27.07l-2.51-3.53,2.51-3.44v-18.6H.23v-8.56h7.53l2.6,2.6,2.42-2.6h21.39Z"/>
        <path class="cls-2" d="M77.34,141.84v8.56h-6.98l-2.6-2.6-2.33,2.6h-8.09v-8.56h3.63l-3.07-15.63h-12.84l-3.07,15.63h7.91v8.56h-6.98l-2.6-2.6-2.42,2.6h-7.91v-8.56h4.56l5.49-26.88-2.23-3.72,3.63-2.88,3.91-19.16h-3.63v-8.56h9.3l2.7,2.6,2.51-2.6h10.33v8.56h-3.63l4,19.25,3.53,2.79-2.23,3.63,5.49,26.97h3.63ZM56.51,119.52l-5.12-26.23-5.02,26.23h10.14Z"/>
        <path class="cls-2" d="M106.55,131.61h6.32c0,4.84,0,1.02,0,4.19,0,12.19-9.12,15.63-15.53,15.63-9.21,0-17.11-2.23-17.11-16v-20.65l-2.42-3.53,2.42-3.44v-12.19c0-13.02,7.91-16,15.63-16,8.74,0,11.91,3.63,11.91,3.63l2.42-2.6h2.7v22.7h-3.44l-2.6-2.6-2.33,2.6h-3.53v-10.98c0-4.09-1.39-4.93-4-4.93s-4,1.12-4,7.35v13.02l2.42,3.44-2.42,3.44v19.91c0,5.3,1.21,9.02,6.7,9.02s6.88-2.33,6.88-12Z"/>
        <path class="cls-2" d="M136.5,80.64h16.56v12.74h-3.16l-5.39-5.12h-4v19.53l2.42,3.44-2.42,3.53v27.07h3.53v8.56h-6.88l-2.6-2.6-2.42,2.6h-8v-8.56h3.63v-27.07l-2.51-3.53,2.51-3.44v-19.53h-3.91l-5.58,5.12h-3.07v-12.74h16.46l2.51,2.6,2.33-2.6Z"/>
        <path class="cls-2" d="M190.92,111.24l-2.42,3.53v21.02c0,12.19-9.95,15.63-16.37,15.63-9.21,0-17.11-2.23-17.11-16v-20.65l-2.42-3.53,2.42-3.44v-12.56c0-12.28,9.95-15.63,16.37-15.63,9.12,0,17.12,2.23,17.12,16v12.19l2.42,3.44ZM175.76,94.78c0-6.23-1.3-7.35-4-7.35-3.26,0-4,2.51-4,6.88v41.95c0,6.14,1.3,7.35,4,7.35,3.26,0,4-2.51,4-6.88v-41.95Z"/>
        <path class="cls-2" d="M231.84,141.84h2.88v8.56h-6.88l-2.6-2.6-2.42,2.6h-8v-8.56h3.44l-4.84-21.49c-1.3-.09-2.51-.09-3.72-.28v21.77h3.53v8.56h-6.98l-2.6-2.6-2.33,2.6h-8v-8.56h3.53v-27.07l-2.42-3.53,2.42-3.44v-18.6h-3.53v-8.56h6.98l2.79,2.88c3.26-2.14,7.07-2.88,10.23-2.88,9.02,0,17.12,2.14,17.12,16v8.09c0,5.58-2.14,9.39-5.02,11.72l6.42,25.39ZM209.71,112.64h4c3.16,0,3.91-2.6,3.91-6.98v-9.86c0-6.33-1.21-7.53-3.91-7.53h-4v24.37Z"/>
        <path class="cls-2" d="M268.22,80.64h4.84v8.65h-3.63l-9.49,26.04v26.51h3.53v8.56h-6.98l-2.6-2.6-2.33,2.6h-8.09v-8.56h3.63v-24.09l-10.05-28.46h-3.63v-8.65h7.63l2.6,2.6,2.33-2.6h7.35v8.65h-2.7l6.23,21.21,7.44-21.21h-6.32v-8.65h5.3l2.33,2.6,2.6-2.6Z"/>
      </g>
    </g>
  </g>
</svg>