<?xml version="1.0" encoding="UTF-8"?>
<svg id="Layer_2" data-name="Layer 2" xmlns="http://www.w3.org/2000/svg" viewBox="0 0 320.8 88.78">
  <defs>
    <style>
      .cls-1 {
        isolation: isolate;
      }

      .cls-2 {
        fill: #25272e;
        stroke-width: 0px;
      }
    </style>
  </defs>
  <g id="Layer_14" data-name="Layer 14">
    <g id="text3806-8-6-9-0-8-7-0">
      <g class="cls-1">
        <path class="cls-2" d="M.66,54.59l.44-.52c3.76-.59,4.21-2.07,4.28-15.57l.07-14.83c-.15-13.94-.59-15.27-5.09-15.49l-.37-.52v-2.07l.37-.52c.89-.22,1.25-.22,2.29-.22,1.11,0,1.7.07,3.54.29,2.07.22,3.17.3,5.39.3s2.51,0,13.94-.52c2.8-.07,4.94-.15,6.71-.15,1.25,0,2.29,0,3.98.07l.74.81c.15,2.07.22,2.66.37,4.57l.07,2.21c.07.66.15,1.92.29,3.84l-.89.59-2.73.07-.66-.37c-.22-2.88-.74-3.98-2.51-5.16-2.14-1.4-6.34-2.51-9.89-2.51s-3.98.66-3.98,9.59v8.78c2.36.22,3.25.29,4.21.29,4.65,0,5.75-.81,6.27-4.65l.59-.44h3.47l.52.66c-.07.29-.07.59-.07.66l-.22,1.62c-.22,1.4-.37,3.47-.37,5.31s.07,2.29.37,4.72c.15.89.15,1.18.15,1.77l-.44.52h-3.47l-.52-.52c-.74-5.16-1.62-5.98-6.12-5.98-3.54,0-4.35.81-4.35,4.65v2.58c.15,13.43.81,14.98,6.42,15.57l.44.52v2.07l-.37.52c-1.48.15-2.14.22-3.17.22-1.25,0-2.29-.07-4.13-.3-2.29-.22-3.02-.29-4.94-.29-2.14,0-3.02.07-5.09.29-1.62.22-2.36.3-3.47.3-.89,0-1.03,0-1.7-.22l-.37-.52v-2.07Z"/>
        <path class="cls-2" d="M37.92,54.52l.59-.52c3.02-.07,3.32-.81,3.39-9.29v-6.27c0-9.52-.07-9.81-1.84-9.81-.37,0-.59.07-1.48.3l-.59-.22-.37-1.92.22-.74c1.84-.96,6.86-3.02,11.66-4.72,2.29.66,3.25,2.43,3.25,6.2v.44c2.8-4.5,5.61-6.27,9.89-6.27,1.99,0,3.25.44,4.13,1.7l.15,1.11c-.66,2.95-1.03,4.43-2.36,9.37l-3.17-.52c-.66-3.02-1.7-4.21-3.76-4.21-3.25,0-4.8,3.47-4.8,10.7v4.87c.07,7.89.74,8.85,5.61,9.29l.44.37v2.21l-.52.59c-1.11.07-1.92.15-2.43.15-.81,0-1.25,0-3.62-.29-1.84-.15-3.17-.22-4.28-.22-1.18,0-1.77.07-4.35.29-1.4.15-2.43.22-3.39.22-.59,0-.96,0-1.92-.07l-.44-.59v-2.14Z"/>
        <path class="cls-2" d="M86.76,56.96c-.52-.74-.74-1.18-.89-2.14-3.32,2.21-6.42,3.17-10.48,3.17-6.94,0-9.96-2.66-9.96-8.78,0-3.98,1.84-6.93,5.46-8.56,1.92-.89,4.21-1.62,9.59-3.25q5.24-1.55,5.24-4.5c0-5.46-1.18-7.38-4.57-7.38-2.36,0-4.8,1.4-6.57,3.76-.74.96-1.11,1.77-1.62,3.39q-.3.89-.37,1.18l-.29.29-3.25-.37-.29-.37c.22-1.92.29-2.8.44-4.28.29-3.54.37-3.84.52-4.87l.29-.44c3.17-1.33,8.19-2.14,13.28-2.14,10.33,0,13.57,2.43,13.57,10.11l-.07,6.42v7.67c0,4.8.22,6.94.59,7.23.29.44.52.59,1.25.74l.66.07.59.07.52.59v1.99l-.37.59c-.66.07-.96.07-1.62.07-1.03,0-2.58-.07-4.21-.15-1.4-.07-2.29-.07-2.8-.07l-2.73.07c-.37.07-.81.07-1.48.07l-.44-.22ZM85.81,39.03c-7.01,2.8-8.78,4.65-8.78,9.15,0,3.62,1.18,5.53,3.32,5.53,1.62,0,3.47-.88,5.46-2.58v-12.1Z"/>
        <path class="cls-2" d="M101.52,26.04c1.84-.96,6.94-2.95,11.88-4.72,2.29.59,3.1,2.07,3.25,5.83.37-.22.74-.52,1.62-1.11,3.98-2.8,7.67-4.28,10.48-4.28,4.13,0,6.64,1.99,7.67,6.12,6.86-4.87,9.59-6.12,13.13-6.12,3.76,0,6.42,1.92,7.38,5.38.59,1.92,1.03,7.45,1.03,13.35v7.82c0,.15,0,.59.07,1.03,0,.66,0,1.25.07,1.7.15,2.58.29,2.73,3.17,2.95l.52.59v1.99l-.3.59c-.81.07-1.33.07-1.7.07-.89,0-1.25,0-4.94-.37-.89-.07-1.7-.15-2.58-.15-1.03,0-1.84.07-3.54.29-1.99.22-2.66.29-3.25.29-.29,0-.81-.07-1.4-.15l-.52-.52v-2.21l.52-.44c2.51-.07,2.88-1.33,2.95-9.29v-2.95c0-6.12-.22-8.78-.81-10.4-.52-1.55-1.62-2.36-3.25-2.36-1.77,0-3.39.66-6.12,2.29.15,1.77.37,8.26.37,9.22v8.63c.15,3.54.15,3.62.74,4.35.22.22.59.29,1.25.44h.52l.52.07.52.59v1.99l-.37.59c-.59.07-1.11.07-1.4.07-.66,0-1.48-.07-5.16-.44-.74-.07-1.48-.07-2.29-.07-1.03,0-1.62.07-3.39.29-1.84.22-2.8.29-3.47.29-.22,0-.74-.07-1.4-.15l-.44-.52v-2.21l.44-.44c2.58-.07,2.95-1.33,3.02-9.29v-2.95c0-6.12-.22-8.78-.81-10.4-.52-1.55-1.62-2.36-3.32-2.36s-3.17.59-5.53,1.92v13.8c-.07,7.67.3,8.93,3.1,9.29l.44.37v2.21l-.59.59c-.66.07-1.18.15-1.48.15q-.52,0-2.88-.29c-1.7-.15-2.66-.22-3.69-.22q-1.18,0-3.69.29c-1.33.15-2.58.22-3.61.22l-2.14-.07-.52-.59v-2.14l.59-.52c3.02-.15,3.25-.81,3.39-9.29v-4.06q0-12.03-1.84-12.03c-.37,0-.59.07-1.4.3l-.59-.22-.44-1.92.22-.74Z"/>
        <path class="cls-2" d="M178.4,37.33c-3.02,0-3.47.22-3.47,2.14,0,8.04,4.21,13.8,10.11,13.8,3.02,0,4.94-1.33,7.16-5.09l.59-.15,2.14,1.03.15.52c-.22.96-1.62,4.65-2.51,6.57l-.52.52c-2.88,1.11-5.75,1.55-9.52,1.55-12.47,0-19.11-6.42-19.11-18.52,0-11.29,6.79-17.93,18.44-17.93,9.37,0,14.53,4.06,14.53,11.36,0,.96-.07,1.7-.29,3.17l-.59,1.03h-17.12ZM177.81,34.23c4.72,0,5.39,0,6.34-.29.74-.22,1.18-.89,1.18-1.99,0-3.62-1.92-6.42-4.5-6.42-3.25,0-5.75,3.69-5.75,8.48,1.11.22,1.33.22,2.73.22Z"/>
        <path class="cls-2" d="M199.21,56.22c-.07-1.62-.07-2.58-.07-2.8,0-1.03,0-2.07-.07-3.1l-.07-3.91.52-.66,2.73-.07.59.29c.52,2.73.81,3.32,1.92,4.72,1.99,2.36,5.09,3.76,8.41,3.76,3.54,0,5.46-1.7,5.46-4.72,0-1.18-.44-2.21-1.33-2.8s-.89-.59-7.01-2.95c-7.53-2.88-10.48-6.05-10.48-11.14,0-6.86,5.09-11.07,13.43-11.07,3.32,0,6.71.37,10.7,1.18l.59.81v2.29c0,.74,0,1.33.07,1.84.07,2.29.15,3.69.15,3.84,0,.07,0,.37-.07.89l-.52.66-2.66.15-.66-.37c-.37-2.14-.59-2.66-1.33-3.76-1.7-2.29-4.57-3.76-7.6-3.76-2.66,0-4.13,1.33-4.13,3.62,0,1.33.52,2.21,1.7,2.88q.89.52,6.64,2.88c5.31,2.14,6.2,2.66,7.89,4.21,1.92,1.84,2.88,4.28,2.88,7.38,0,7.38-5.75,11.73-15.64,11.73-3.32,0-7.01-.37-11.36-1.18l-.66-.81Z"/>
        <path class="cls-2" d="M257.35,24.64c4.5-2.43,6.34-2.95,9.96-2.95,8.48,0,13.57,5.68,13.57,15.2,0,13.21-8.19,21.32-21.62,21.32-4.13,0-9.96-.89-12.84-2.07l-.29-.44c.37-7.75.37-9.22.37-22.06v-14.46q0-12.03-1.99-12.03c-.44,0-.81.07-1.48.22l-.59-.22-.44-1.92.22-.74c.66-.3,1.25-.52,1.4-.59,6.79-2.51,9.22-3.32,11.14-3.91,1.92.59,2.88,2.66,2.88,6.2q0,.59-.15,5.75c-.07,2.36-.15,5.31-.15,7.6v5.09ZM257.35,47.29c0,4.79,1.18,6.42,4.72,6.42,2.58,0,4.65-1.11,5.83-3.25.89-1.55,1.4-4.94,1.4-9,0-4.8-.96-9.44-2.51-11.95-1.18-1.92-2.88-2.88-5.16-2.88-1.33,0-1.84.15-4.28,1.18v19.48Z"/>
        <path class="cls-2" d="M297.48,57.69l-1.33-.74c-1.4-3.54-3.62-10.11-5.39-15.57-3.62-12.17-5.61-15.57-8.93-15.64l-.52-.52v-1.84l.59-.52c.52-.07,1.03-.07,1.18-.07.96,0,1.92.07,4.13.29,1.77.15,3.17.22,4.21.22,1.4,0,1.7,0,5.39-.37,1.18-.07,2.51-.15,3.17-.15.44,0,1.03,0,1.92.07l.44.52v1.77l-.37.59c-3.17.15-4.43.74-4.43,2.14,0,2.14,2.36,9.59,7.16,22.21.44-1.4,1.18-3.84,1.84-5.83,2.8-8.78,4.13-14.09,4.13-16.08,0-1.7-.96-2.21-4.21-2.43l-.52-.52v-1.84l.44-.52c.59-.07.96-.07,1.25-.07.74,0,1.18.07,3.98.44.74.07,1.48.15,1.84.15q.81,0,3.25-.44c.74-.07,1.48-.15,2.21-.15.29,0,.66,0,1.25.07l.59.44v1.92l-.52.52c-3.1.07-3.98,1.7-8.56,15.94-.29.96-1.4,4.13-2.58,7.38-.96,2.8-1.84,5.31-2.14,6.2-3.54,10.77-4.94,13.87-7.38,16.82-2.88,3.39-6.34,4.87-11.44,4.87-3.98,0-6.05-.89-7.23-3.1l.15-1.11c1.7-2.8,2.51-4.28,4.13-7.3l2.8,1.33c.07,3.39,1.48,5.24,3.84,5.24,3.69,0,6.42-3.69,9.81-13.35l.44-1.33-4.65.37Z"/>
      </g>
      <g>
        <g>
          <g>
            <path class="cls-2" d="M3.14,88.24l.79-.07c.59-.05.82-.19.82-.3v-10.3h-.58c-1.7.12-2.85,1.75-3.41,2.87l-.12.23h-.12l.51-3.25h9.81l.33,3.24h-.11l-.1-.23c-.59-1.29-1.75-2.82-3.36-2.85h-.59v10.35c0,.12.11.18,1,.26l.59.05.05.11H3.08l.05-.11Z"/>
            <path class="cls-2" d="M11.71,88.24l.24-.02c.54-.04.73-.07.73-.28v-9.34c0-.77-.11-.91-.7-1.07l-.4-.11.02-.07,3.08-.77v5.56l.02.03c.75-.65,1.8-1.56,2.99-1.56.58,0,1.01.19,1.38.56.4.4.56,1.14.56,1.92v4.84c0,.11.04.18.89.26l.19.02.05.11h-4.13l.05-.11.31-.02c.61-.04.65-.14.65-.28v-4.6c0-1.07-.52-1.47-1.43-1.47-.68,0-1.17.25-1.56.54v5.56c0,.14.09.19.79.25l.24.02.05.11h-4.09l.05-.11Z"/>
            <path class="cls-2" d="M20.87,84.76c0-2.34,1.73-4.16,4.04-4.16,2.01,0,2.99,1.22,2.99,2.47,0,.11-.02.19-.04.3,0,0-4.35-.04-4.84-.05-.04.23-.04.61-.04.84,0,1.94,1.08,3.24,2.66,3.24,1,0,1.71-.37,2.26-1.36l.12.05c-.75,1.61-1.85,2.54-3.51,2.54-2.1,0-3.64-1.68-3.64-3.85ZM25.96,83.12c0-1.08-.28-2.31-1.24-2.31-.79,0-1.49.98-1.66,2.33l2.9-.02Z"/>
          </g>
          <path class="cls-2" d="M36.36,78.49l-1.32,3.7c-1.72,5.05-1.94,5.49,1.57,5.86l.73.07.11.22h-8.05l.11-.22.62-.07c2.38-.29,2.67-.81,5.05-7.32l4.1-11.49-.4-1.17c1.61-.48,2.42-1.57,3.11-3.22h.66l6.3,18.49c1.35,3.95,1.98,4.61,3.59,4.72l1.02.07.07.22h-11.46l.11-.22.99-.07c1.83-.11,1.9-1.03,1.13-3.33l-2.05-6.22h-6ZM42.26,78.12l-2.75-8.35h-.04l-2.96,8.35h5.75Z"/>
          <path class="cls-2" d="M53.82,88.12l1.61-.15c1.28-.15,1.72-.4,1.72-.62v-21.01c0-.26-.22-.37-2.09-.55l-1.21-.11-.11-.22h10.58c6.52,0,9.66,1.79,9.66,5.53s-3.88,6.3-9.96,6.3c-.84,0-1.57-.07-2.16-.18v10.36c0,.26.18.4,2.05.55l1.57.11.11.22h-11.9l.11-.22ZM68.98,71.46c0-3.7-1.61-5.6-5.31-5.64l-1.79.07v10.69c.55.11,1.03.29,2.05.29,2.96,0,5.05-2.12,5.05-5.42Z"/>
          <path class="cls-2" d="M75.17,88.12l1.28-.15c1.28-.15,1.79-.4,1.79-.62v-21.01c0-.26-.22-.37-2.09-.55l-.95-.11-.11-.22h18.67l.37,7.47h-.22l-.15-.4c-1.39-4.87-3.55-6.77-7.98-6.66l-2.82.04v10.51h1.57c3.22-.18,4.65-1.03,5.42-3.4l.22-.66.26.04-.95,8.75-.26-.04-.04-.66c-.22-2.67-1.24-3.37-4.98-3.59l-1.24-.07v11.05l3.59.15c4.69-.07,7.14-2.86,8.6-6.88l.18-.4h.22l-1.02,7.65h-19.48l.11-.22Z"/>
          <path class="cls-2" d="M128.72,87.49l-.4-5.86h.22l1.46,2.82c1.39,2.67,3.33,3.95,6.15,3.95,3.04,0,4.91-1.87,4.91-4.72,0-3.11-2.53-4.32-5.67-5.45-3.44-1.24-6.33-2.75-6.33-6.52s3.07-6.74,7.54-6.74c2.01,0,3.92.51,5.12.91l1.46-.51.11,6.37h-.18l-3.07-5.38c-.81-.59-1.87-1.02-3.51-1.02-2.38,0-4.14,1.61-4.14,3.77,0,2.71,2.49,3.77,5.42,4.83,3.77,1.32,6.66,3,6.66,7.25,0,3.88-3.48,7.58-8.46,7.58-2.71,0-5.34-.51-7.28-1.28Z"/>
          <path class="cls-2" d="M147.13,76.92c0-6.3,5.78-11.93,12.74-11.93s12.34,4.87,12.34,11.97c0,6.3-5.75,11.82-12.74,11.82s-12.34-4.76-12.34-11.86ZM167.05,76.88c0-7.25-2.85-11.46-7.47-11.46s-7.32,3.81-7.32,11.49,2.82,11.46,7.54,11.46,7.25-3.77,7.25-11.49Z"/>
          <path class="cls-2" d="M173.75,77.06c0-6.74,5.02-12.12,13.62-12.12,2.27,0,4.69.73,5.89,1.39l2.34-.77.22,7.36h-.22l-3.7-6.48c-.77-.55-2.6-1.06-4.61-1.06-5.42,0-8.42,5.02-8.42,11.46,0,7.07,3.7,11.53,8.27,11.53,4.06,0,6.3-2.01,8.13-5.49l1.13-2.16h.22l-1.24,6.48-1.21.18c-1.32.59-4.69,1.39-7.21,1.39-7.98,0-13.22-5.02-13.22-11.71Z"/>
          <path class="cls-2" d="M198.49,88.12l1.43-.15c1.24-.11,1.72-.4,1.72-.62v-21.01c0-.26-.22-.37-2.09-.55l-1.06-.11-.11-.22h11.24l-.11.22-1.43.15c-1.24.11-1.72.4-1.72.62v21.01c0,.26.22.37,2.09.55l1.02.11.11.22h-11.2l.11-.22Z"/>
          <path class="cls-2" d="M210.9,88.12l1.28-.15c1.28-.15,1.79-.4,1.79-.62v-21.01c0-.26-.22-.37-2.09-.55l-.95-.11-.11-.22h18.67l.37,7.47h-.22l-.15-.4c-1.39-4.87-3.55-6.77-7.98-6.66l-2.82.04v10.51h1.57c3.22-.18,4.65-1.03,5.42-3.4l.22-.66.26.04-.95,8.75-.26-.04-.04-.66c-.22-2.67-1.24-3.37-4.98-3.59l-1.24-.07v11.05l3.59.15c4.69-.07,7.14-2.86,8.6-6.88l.18-.4h.22l-1.02,7.65h-19.48l.11-.22Z"/>
          <path class="cls-2" d="M238.65,88.12l1.65-.15c1.24-.11,1.72-.4,1.72-.62v-21.56h-1.21c-3.55.26-5.97,3.66-7.14,6l-.26.48h-.26l1.06-6.81h20.54l.7,6.77h-.22l-.22-.48c-1.24-2.71-3.66-5.89-7.03-5.97h-1.24v21.67c0,.26.22.37,2.09.55l1.24.11.11.22h-11.64l.11-.22Z"/>
          <path class="cls-2" d="M261.64,88.12l1.61-.15c1.24-.11,1.72-.4,1.72-.62v-9.48l-4.91-8.68c-1.46-2.56-1.94-3.26-3.62-3.44l-.77-.07-.11-.22h11.35l-.11.22-.62.04c-2.38.22-2.45.84-1.61,2.34l4.83,8.64h.07l2.75-5.13c2.53-4.8,2.6-5.45-.66-5.78l-.81-.11-.11-.22h8.35l-.11.22-1.02.11c-1.87.22-2.6.88-5.27,5.93l-2.89,5.34v10.4c0,.26.22.37,2.09.55l1.21.11.11.22h-11.57l.11-.22Z"/>
        </g>
        <g>
          <g>
            <path class="cls-2" d="M121.89,81.16l-20.05,1.05c-.06,0-.1.05-.09.11l.15,2.81c0,.06.05.1.11.09l20.05-1.05c.06,0,.1-.05.09-.11l-.15-2.81c0-.06-.05-.1-.11-.09ZM107.41,84.19h0c-.42.02-.78-.3-.81-.72-.01-.2.06-.4.19-.56.14-.15.32-.24.53-.26h0c.42-.02.78.3.81.72.02.42-.3.79-.72.81ZM111.99,83.65c-.28.02-.5-.19-.51-.46,0-.13.04-.26.12-.35.09-.1.2-.15.34-.16.13,0,.25.04.35.12.1.09.15.21.16.34.02.27-.19.5-.46.51ZM116.6,83.71h0c-.42.02-.78-.3-.81-.72-.01-.2.06-.4.19-.56.14-.15.32-.24.53-.26h0c.42-.02.78.3.81.72.02.42-.3.79-.72.81Z"/>
            <path class="cls-2" d="M121.93,75.96c-.12-.04-.25,0-.32.1-.55.74-.98,1.3-1.24,1.63,0,.01-.03,0-.03-.01l-.48-3.17c-.01-.11-.1-.21-.21-.24-.12-.03-.23.02-.3.12l-2.21,3.25c-.04.07-.12.1-.2.1-.7,0-.91,0-1.18.01-.07,0-.14-.03-.19-.08-1.64-1.91-3.1-4.2-3.81-5.19-.17-.24-.54-.22-.68.04-.6,1.07-1.82,3.49-3.25,5.56-.04.06-.11.1-.18.1-.27.02-.48.04-1.17.11-.08,0-.16-.02-.21-.08l-2.54-3.01c-.08-.09-.2-.12-.31-.08-.11.04-.19.14-.19.26l-.15,3.2s-.02.03-.03.01c-.29-.3-.78-.8-1.4-1.49-.08-.09-.22-.12-.33-.06-.11.05-.18.17-.16.3l.56,3.76c.01.08.09.14.17.14l19.92-1.04c.08,0,.15-.07.16-.16l.17-3.8c0-.12-.07-.24-.19-.28ZM112.58,77.39l-.69,1.52c-.05.11-.21.12-.27.02l-.86-1.43s-.03-.1,0-.14l.69-1.52c.05-.11.21-.12.27-.02l.86,1.43s.03.1,0,.14Z"/>
          </g>
          <path class="cls-2" d="M124.67,88.34h-25.46c-.41,0-.78-.22-.99-.58s-.2-.79.01-1.14l1.3-2.18c.15-.26.49-.34.75-.19.26.15.34.49.19.75l-1.3,2.18s-.01.02,0,.05c.01.02.03.02.04.02h25.46s.03,0,.04-.02c.01-.02,0-.04,0-.05l-1.48-2.45c-.16-.26-.07-.59.19-.75.26-.16.59-.07.75.19l1.48,2.45c.21.36.22.78.02,1.15-.2.36-.57.58-.99.58Z"/>
          <path class="cls-2" d="M106.21,74.84c-.1,0-.19-.02-.28-.08-.26-.15-.34-.49-.19-.75l5.14-8.62c.21-.35.57-.55.97-.55h0c.4,0,.77.21.97.55l4.92,8.16c.16.26.07.59-.19.75-.26.16-.59.07-.75-.19l-4.92-8.16s-.01-.02-.04-.02h0s-.03.02-.04.02l-5.14,8.62c-.1.17-.28.27-.47.27Z"/>
        </g>
      </g>
    </g>
  </g>
</svg>