<?xml version="1.0" encoding="UTF-8"?>
<svg id="Layer_2" data-name="Layer 2" xmlns="http://www.w3.org/2000/svg" viewBox="0 0 334.5 84.87">
  <defs>
    <style>
      .cls-1 {
        fill: #25272e;
        stroke-width: 0px;
      }
    </style>
  </defs>
  <g id="Layer_18" data-name="Layer 18">
    <g id="text3806-8-6-9-0-8-7-0">
      <g>
        <path class="cls-1" d="M.63,49.99l.41-.47c3.44-.54,3.85-1.89,3.92-14.25l.07-13.58c-.14-12.77-.54-13.98-4.66-14.19l-.34-.47v-1.89l.34-.47c.81-.2,1.15-.2,2.09-.2,1.01,0,1.55.07,3.24.27,1.89.2,2.9.27,4.93.27s2.3,0,12.77-.47c2.57-.07,4.53-.13,6.15-.13,1.15,0,2.09,0,3.65.07l.68.74c.13,1.89.2,2.43.34,4.19l.07,2.03c.07.61.13,1.76.27,3.51l-.81.54-2.5.07-.61-.34c-.2-2.63-.68-3.65-2.3-4.73-1.96-1.28-5.81-2.3-9.05-2.3s-3.65.61-3.65,8.78v8.04c2.16.2,2.97.27,3.85.27,4.26,0,5.27-.74,5.74-4.26l.54-.41h3.18l.47.61c-.07.27-.07.54-.07.61l-.2,1.49c-.2,1.28-.34,3.17-.34,4.86s.07,2.09.34,4.32c.13.81.13,1.08.13,1.62l-.41.47h-3.17l-.47-.47c-.68-4.73-1.49-5.47-5.61-5.47-3.24,0-3.99.74-3.99,4.25v2.37c.14,12.29.74,13.71,5.88,14.25l.41.47v1.89l-.34.47c-1.35.13-1.96.2-2.9.2-1.15,0-2.09-.07-3.78-.27-2.09-.2-2.77-.27-4.53-.27-1.96,0-2.77.07-4.66.27-1.49.2-2.16.27-3.17.27-.81,0-.95,0-1.55-.2l-.34-.47v-1.89Z"/>
        <path class="cls-1" d="M55.21,48.3c-5.13,3.65-8.11,5-11.15,5-3.45,0-5.94-1.82-6.82-5-.47-1.89-.88-6.89-.88-11.96v-2.7c0-6.55-.14-7.02-1.55-7.02-.34,0-.74.07-1.42.27l-.54-.2-.34-1.76.2-.68c1.62-.88,6.42-2.7,10.88-4.32,2.57.74,3.04,2.03,3.04,8.31l-.07,4.19v2.57c0,9.73.61,11.69,3.51,11.69,1.49,0,3.31-.68,5.13-1.89v-11.62c0-4.8-.14-7.77-.34-8.04-.14-.54-.54-.95-1.15-1.01-.07-.07-.34-.07-.74-.13l-.54-.07-.47-.54v-1.82l.34-.54c.54-.13.88-.13,1.82-.13.74,0,2.3,0,3.58.07,1.15.07,1.89.07,2.36.07.07,0,1.35-.07,2.7-.13h1.35l.41.2c.68,1.08.88,1.82.88,3.31v15.67c0,4.46.07,7.16.34,7.97.14.61.54,1.01,1.15,1.08l.81.13.54.07.47.54v1.82l-.34.54c-.54.07-1.01.13-1.22.13l-3.85-.07c-.88-.07-1.62-.07-2.09-.07l-3.38.07c-.27.07-.74.07-1.28.07l-.47-.2c-.68-1.22-.88-1.89-.88-3.38v-.47Z"/>
        <path class="cls-1" d="M67.98,49.92l.54-.47c2.77-.07,3.04-.74,3.11-8.51v-5.74c0-8.71-.07-8.98-1.69-8.98-.34,0-.54.07-1.35.27l-.54-.2-.34-1.76.2-.68c1.69-.88,6.28-2.77,10.67-4.32,2.09.61,2.97,2.23,2.97,5.67v.41c2.57-4.12,5.13-5.74,9.05-5.74,1.82,0,2.97.41,3.78,1.55l.14,1.01c-.61,2.7-.95,4.05-2.16,8.58l-2.9-.47c-.61-2.77-1.55-3.85-3.44-3.85-2.97,0-4.39,3.17-4.39,9.79v4.46c.07,7.23.68,8.11,5.13,8.51l.41.34v2.03l-.47.54c-1.01.07-1.76.13-2.23.13-.74,0-1.15,0-3.31-.27-1.69-.14-2.9-.2-3.92-.2-1.08,0-1.62.07-3.99.27-1.28.13-2.23.2-3.11.2-.54,0-.88,0-1.76-.07l-.41-.54v-1.96Z"/>
        <path class="cls-1" d="M93.58,23.84c1.69-.88,6.35-2.7,10.88-4.32,2.23.61,2.9,1.96,2.97,6.01,6.15-4.32,8.85-5.61,12.02-5.61,3.51,0,5.94,1.76,6.82,4.93.54,1.76.95,6.89.95,12.23v3.11c0,5.2,0,5.27.2,7.7.34,1.28.47,1.35,2.84,1.55l.47.54v1.82l-.27.54c-.88.07-1.49.07-1.96.07-.68,0-2.43-.13-3.65-.27-1.35-.13-2.23-.2-2.63-.2q-.68,0-4.05.41c-.74.07-1.42.13-2.03.13-.41,0-1.08-.07-1.89-.13l-.47-.47v-2.03l.47-.41c2.57-.07,2.9-1.15,2.97-8.51v-2.7c0-9.73-.61-11.69-3.78-11.69-1.69,0-3.11.61-6.01,2.43v11.96c-.07,7.03.34,8.17,3.04,8.51l.41.34v2.03l-.47.54c-.68.07-1.28.13-1.62.13q-.54,0-2.23-.2l-1.69-.07-2.7-.2c-.27,0-.88.07-1.69.2-1.62.2-2.63.27-3.99.27l-2.36-.07-.47-.54v-1.96l.54-.47c2.77-.14,2.97-.74,3.11-8.51v-3.71q0-11.01-1.62-11.01c-.34,0-.68.07-1.35.27l-.54-.2-.41-1.76.2-.68Z"/>
        <path class="cls-1" d="M130.33,49.92l.54-.47c2.77-.14,2.97-.74,3.11-8.51v-3.71q0-11.01-1.62-11.01c-.34,0-.68.07-1.35.27l-.54-.2-.41-1.76.2-.68c1.69-.88,6.35-2.7,10.88-4.32,2.63.81,3.04,1.89,3.04,9.12l-.07,8.44v3.85c-.07,7.03.34,8.17,3.11,8.51l.41.34v2.03l-.54.54c-.68.07-1.28.13-1.62.13q-.54,0-2.23-.2l-1.69-.07-2.7-.2c-.27,0-.88.07-1.69.2-1.62.2-2.63.27-3.99.27l-2.36-.07-.47-.54v-1.96ZM144.31,10.27c0,3.31-2.5,5.88-5.61,5.88s-5.54-2.5-5.54-6.01c0-3.24,2.5-5.88,5.61-5.88s5.54,2.63,5.54,6.01Z"/>
        <path class="cls-1" d="M148.7,24.52l-2.57.07-.27-.27c.41-1.28.47-1.55.74-3.24l.54-.47,1.28.07q1.82.14,3.45.14c-.07-1.28-.07-2.16-.07-2.57l-.07-2.77c0-.27,0-.88-.07-1.69,4.26-1.69,4.93-1.96,9.73-4.05l.61.54c-.2,5.4-.27,7.63-.41,10.61h9.39l.14.47c-.54,1.08-.61,1.42-1.15,3.04l-.61.34c-2.9-.2-4.32-.27-7.77-.2l-.07,4.93q-.2,7.77-.2,8.98c0,4.8.2,6.96.68,8.31.61,1.62,2.09,2.57,4.05,2.57,1.22,0,2.09-.27,4.12-1.15l.68.14.74,1.62-.27.88c-2.7,1.62-6.55,2.57-10.13,2.57-4.26,0-7.3-1.22-8.65-3.45-.88-1.55-1.15-3.72-1.15-10.27q0-1.62.2-10.4l.07-4.73h-2.97Z"/>
        <path class="cls-1" d="M192.47,48.3c-5.13,3.65-8.11,5-11.15,5-3.45,0-5.94-1.82-6.82-5-.47-1.89-.88-6.89-.88-11.96v-2.7c0-6.55-.14-7.02-1.55-7.02-.34,0-.74.07-1.42.27l-.54-.2-.34-1.76.2-.68c1.62-.88,6.42-2.7,10.88-4.32,2.57.74,3.04,2.03,3.04,8.31l-.07,4.19v2.57c0,9.73.61,11.69,3.51,11.69,1.49,0,3.31-.68,5.13-1.89v-11.62c0-4.8-.13-7.77-.34-8.04-.13-.54-.54-.95-1.15-1.01-.07-.07-.34-.07-.74-.13l-.54-.07-.47-.54v-1.82l.34-.54c.54-.13.88-.13,1.82-.13.74,0,2.3,0,3.58.07,1.15.07,1.89.07,2.36.07.07,0,1.35-.07,2.7-.13h1.35l.41.2c.68,1.08.88,1.82.88,3.31v15.67c0,4.46.07,7.16.34,7.97.13.61.54,1.01,1.15,1.08l.81.13.54.07.47.54v1.82l-.34.54c-.54.07-1.01.13-1.22.13l-3.85-.07c-.88-.07-1.62-.07-2.09-.07l-3.38.07c-.27.07-.74.07-1.28.07l-.47-.2c-.68-1.22-.88-1.89-.88-3.38v-.47Z"/>
        <path class="cls-1" d="M205.24,49.92l.54-.47c2.77-.07,3.04-.74,3.11-8.51v-5.74c0-8.71-.07-8.98-1.69-8.98-.34,0-.54.07-1.35.27l-.54-.2-.34-1.76.2-.68c1.69-.88,6.28-2.77,10.67-4.32,2.09.61,2.97,2.23,2.97,5.67v.41c2.57-4.12,5.13-5.74,9.05-5.74,1.82,0,2.97.41,3.78,1.55l.13,1.01c-.61,2.7-.95,4.05-2.16,8.58l-2.9-.47c-.61-2.77-1.55-3.85-3.45-3.85-2.97,0-4.39,3.17-4.39,9.79v4.46c.07,7.23.67,8.11,5.13,8.51l.41.34v2.03l-.47.54c-1.01.07-1.76.13-2.23.13-.74,0-1.15,0-3.31-.27-1.69-.14-2.9-.2-3.92-.2-1.08,0-1.62.07-3.99.27-1.28.13-2.23.2-3.11.2-.54,0-.88,0-1.76-.07l-.41-.54v-1.96Z"/>
        <path class="cls-1" d="M243.75,34.18c-2.77,0-3.17.2-3.17,1.96,0,7.36,3.85,12.63,9.25,12.63,2.77,0,4.53-1.22,6.55-4.66l.54-.13,1.96.95.13.47c-.2.88-1.49,4.26-2.3,6.01l-.47.47c-2.63,1.01-5.27,1.42-8.71,1.42-11.42,0-17.5-5.88-17.5-16.96,0-10.33,6.21-16.41,16.89-16.41,8.58,0,13.31,3.71,13.31,10.4,0,.88-.07,1.55-.27,2.9l-.54.95h-15.67ZM243.21,31.34c4.32,0,4.93,0,5.81-.27.68-.2,1.08-.81,1.08-1.82,0-3.31-1.76-5.88-4.12-5.88-2.97,0-5.27,3.38-5.27,7.77,1.01.2,1.22.2,2.5.2Z"/>
        <path class="cls-1" d="M279.1,22.56c4.12-2.23,5.81-2.7,9.12-2.7,7.77,0,12.43,5.2,12.43,13.92,0,12.09-7.5,19.52-19.79,19.52-3.78,0-9.12-.81-11.75-1.89l-.27-.41c.34-7.09.34-8.44.34-20.2v-13.24q0-11.01-1.82-11.01c-.41,0-.74.07-1.35.2l-.54-.2-.41-1.76.2-.68c.61-.27,1.15-.47,1.28-.54,6.21-2.3,8.44-3.04,10.2-3.58,1.76.54,2.63,2.43,2.63,5.67q0,.54-.14,5.27c-.07,2.16-.13,4.86-.13,6.96v4.66ZM279.1,43.3c0,4.39,1.08,5.88,4.32,5.88,2.36,0,4.26-1.01,5.34-2.97.81-1.42,1.28-4.53,1.28-8.24,0-4.39-.88-8.65-2.3-10.94-1.08-1.76-2.63-2.63-4.73-2.63-1.22,0-1.69.13-3.92,1.08v17.83Z"/>
        <path class="cls-1" d="M313.15,52.82l-1.22-.68c-1.28-3.24-3.31-9.25-4.93-14.25-3.31-11.15-5.13-14.25-8.17-14.32l-.47-.47v-1.69l.54-.47c.47-.07.95-.07,1.08-.07.88,0,1.76.07,3.78.27,1.62.13,2.91.2,3.85.2,1.28,0,1.55,0,4.93-.34,1.08-.07,2.3-.13,2.9-.13.41,0,.95,0,1.76.07l.41.47v1.62l-.34.54c-2.91.13-4.05.67-4.05,1.96,0,1.96,2.16,8.78,6.55,20.33.41-1.28,1.08-3.51,1.69-5.34,2.57-8.04,3.78-12.9,3.78-14.73,0-1.55-.88-2.03-3.85-2.23l-.47-.47v-1.69l.41-.47c.54-.07.88-.07,1.15-.07.68,0,1.08.07,3.65.41.68.07,1.35.13,1.69.13q.74,0,2.97-.41c.68-.07,1.35-.13,2.03-.13.27,0,.61,0,1.15.07l.54.41v1.76l-.47.47c-2.84.07-3.65,1.55-7.84,14.59-.27.88-1.28,3.78-2.36,6.75-.88,2.57-1.69,4.86-1.96,5.67-3.24,9.86-4.53,12.7-6.75,15.4-2.63,3.11-5.81,4.46-10.47,4.46-3.65,0-5.54-.81-6.62-2.84l.13-1.01c1.55-2.57,2.3-3.92,3.78-6.69l2.57,1.22c.07,3.11,1.35,4.8,3.51,4.8,3.38,0,5.88-3.38,8.98-12.23l.41-1.22-4.26.34Z"/>
      </g>
      <g>
        <g>
          <g>
            <path class="cls-1" d="M2.79,84.3l.84-.07c.63-.06.88-.2.88-.32v-10.97h-.61c-1.81.13-3.04,1.86-3.63,3.05l-.13.24h-.13l.54-3.46h10.45l.35,3.45h-.11l-.11-.24c-.63-1.38-1.86-3-3.58-3.04h-.63v11.03c0,.13.11.19,1.06.28l.63.06.06.11H2.74l.06-.11Z"/>
            <path class="cls-1" d="M11.92,84.3l.26-.02c.58-.04.78-.07.78-.3v-9.95c0-.82-.11-.97-.74-1.14l-.43-.11.02-.07,3.28-.82v5.92l.02.04c.8-.69,1.92-1.66,3.19-1.66.61,0,1.08.2,1.47.6.43.43.6,1.21.6,2.05v5.16c0,.11.04.19.95.28l.2.02.06.11h-4.4l.06-.11.34-.02c.65-.04.69-.15.69-.3v-4.9c0-1.14-.56-1.56-1.53-1.56-.73,0-1.25.26-1.66.58v5.92c0,.15.09.2.84.26l.26.02.06.11h-4.36l.06-.11Z"/>
            <path class="cls-1" d="M21.68,80.6c0-2.5,1.84-4.43,4.3-4.43,2.14,0,3.19,1.3,3.19,2.63,0,.11-.02.2-.04.32,0,0-4.64-.04-5.16-.06-.04.24-.04.65-.04.89,0,2.07,1.16,3.45,2.83,3.45,1.06,0,1.83-.39,2.4-1.45l.13.06c-.8,1.71-1.97,2.7-3.74,2.7-2.24,0-3.87-1.79-3.87-4.1ZM27.1,78.85c0-1.16-.3-2.46-1.32-2.46-.84,0-1.58,1.04-1.77,2.48l3.09-.02Z"/>
          </g>
          <path class="cls-1" d="M38.18,73.92l-1.4,3.94c-1.83,5.38-2.07,5.85,1.68,6.24l.78.08.12.23h-8.58l.12-.23.66-.08c2.53-.31,2.85-.86,5.38-7.8l4.37-12.24-.43-1.25c1.72-.51,2.57-1.68,3.31-3.43h.7l6.71,19.69c1.44,4.21,2.11,4.91,3.82,5.03l1.09.08.08.23h-12.2l.12-.23,1.05-.08c1.95-.12,2.03-1.09,1.21-3.55l-2.18-6.63h-6.39ZM44.46,73.53l-2.92-8.89h-.04l-3.16,8.89h6.12Z"/>
          <path class="cls-1" d="M56.78,84.17l1.72-.16c1.36-.16,1.83-.43,1.83-.66v-22.38c0-.27-.23-.39-2.22-.58l-1.29-.12-.12-.23h11.27c6.94,0,10.29,1.91,10.29,5.89s-4.13,6.71-10.6,6.71c-.9,0-1.68-.08-2.3-.19v11.03c0,.27.2.43,2.18.59l1.68.12.12.23h-12.67l.12-.23ZM72.92,66.43c0-3.94-1.72-5.96-5.65-6l-1.91.08v11.38c.59.12,1.09.31,2.18.31,3.16,0,5.38-2.26,5.38-5.77Z"/>
          <path class="cls-1" d="M79.51,84.17l1.36-.16c1.36-.16,1.91-.43,1.91-.66v-22.38c0-.27-.23-.39-2.22-.58l-1.01-.12-.12-.23h19.88l.39,7.95h-.23l-.16-.43c-1.48-5.19-3.78-7.21-8.5-7.1l-3,.04v11.19h1.68c3.43-.2,4.95-1.09,5.77-3.63l.23-.7.27.04-1.01,9.32-.27-.04-.04-.7c-.23-2.85-1.33-3.59-5.3-3.82l-1.33-.08v11.77l3.82.16c4.99-.08,7.6-3.04,9.16-7.33l.19-.43h.23l-1.09,8.15h-20.74l.12-.23Z"/>
          <path class="cls-1" d="M136.55,83.51l-.43-6.24h.23l1.56,3c1.48,2.85,3.55,4.21,6.55,4.21,3.24,0,5.22-1.99,5.22-5.03,0-3.31-2.69-4.6-6.04-5.81-3.67-1.33-6.75-2.92-6.75-6.94s3.27-7.17,8.03-7.17c2.14,0,4.17.55,5.46.97l1.56-.55.12,6.78h-.19l-3.27-5.73c-.86-.62-1.99-1.09-3.74-1.09-2.53,0-4.41,1.72-4.41,4.02,0,2.89,2.65,4.02,5.77,5.15,4.02,1.4,7.1,3.2,7.1,7.72,0,4.13-3.7,8.07-9.01,8.07-2.89,0-5.69-.55-7.76-1.36Z"/>
          <path class="cls-1" d="M156.16,72.24c0-6.71,6.16-12.71,13.57-12.71s13.14,5.19,13.14,12.75c0,6.71-6.12,12.59-13.57,12.59s-13.14-5.07-13.14-12.63ZM177.37,72.2c0-7.72-3.04-12.2-7.95-12.2s-7.8,4.05-7.8,12.24,3,12.2,8.03,12.2,7.72-4.02,7.72-12.24Z"/>
          <path class="cls-1" d="M184.5,72.39c0-7.17,5.34-12.91,14.5-12.91,2.42,0,4.99.78,6.28,1.48l2.5-.82.23,7.84h-.23l-3.94-6.9c-.82-.59-2.77-1.13-4.91-1.13-5.77,0-8.97,5.34-8.97,12.2,0,7.52,3.94,12.28,8.81,12.28,4.33,0,6.71-2.14,8.66-5.85l1.21-2.3h.23l-1.33,6.9-1.29.19c-1.4.62-4.99,1.48-7.68,1.48-8.5,0-14.08-5.34-14.08-12.48Z"/>
          <path class="cls-1" d="M210.86,84.17l1.52-.16c1.33-.12,1.83-.43,1.83-.66v-22.38c0-.27-.23-.39-2.22-.58l-1.13-.12-.12-.23h11.97l-.12.23-1.52.16c-1.33.12-1.83.43-1.83.66v22.38c0,.27.23.39,2.22.59l1.09.12.12.23h-11.93l.12-.23Z"/>
          <path class="cls-1" d="M224.08,84.17l1.36-.16c1.36-.16,1.91-.43,1.91-.66v-22.38c0-.27-.23-.39-2.22-.58l-1.01-.12-.12-.23h19.88l.39,7.95h-.23l-.16-.43c-1.48-5.19-3.78-7.21-8.5-7.1l-3,.04v11.19h1.68c3.43-.2,4.95-1.09,5.77-3.63l.23-.7.27.04-1.01,9.32-.27-.04-.04-.7c-.23-2.85-1.33-3.59-5.3-3.82l-1.33-.08v11.77l3.82.16c4.99-.08,7.6-3.04,9.16-7.33l.19-.43h.23l-1.09,8.15h-20.74l.12-.23Z"/>
          <path class="cls-1" d="M253.63,84.17l1.75-.16c1.33-.12,1.83-.43,1.83-.66v-22.96h-1.29c-3.78.27-6.35,3.9-7.6,6.39l-.27.51h-.27l1.13-7.25h21.87l.74,7.21h-.23l-.23-.51c-1.33-2.89-3.9-6.28-7.49-6.35h-1.33v23.08c0,.27.23.39,2.22.59l1.33.12.12.23h-12.4l.12-.23Z"/>
          <path class="cls-1" d="M278.11,84.17l1.72-.16c1.33-.12,1.83-.43,1.83-.66v-10.1l-5.22-9.24c-1.56-2.73-2.07-3.47-3.86-3.66l-.82-.08-.12-.23h12.09l-.12.23-.66.04c-2.53.23-2.61.9-1.72,2.5l5.15,9.2h.08l2.92-5.46c2.69-5.11,2.77-5.81-.7-6.16l-.86-.12-.12-.23h8.89l-.12.23-1.09.12c-1.99.23-2.77.94-5.61,6.32l-3.08,5.69v11.07c0,.27.23.39,2.22.59l1.29.12.12.23h-12.32l.12-.23Z"/>
        </g>
        <g>
          <g>
            <path class="cls-1" d="M129.27,76.76l-21.35,1.12c-.06,0-.1.05-.1.11l.16,2.99c0,.06.05.1.11.1l21.35-1.12c.06,0,.1-.05.1-.11l-.16-2.99c0-.06-.05-.1-.11-.1ZM113.85,79.99h0c-.45.02-.83-.32-.86-.77-.01-.22.06-.43.21-.59.15-.16.35-.26.56-.27h0c.45-.02.83.32.86.77.03.45-.32.84-.77.86ZM118.73,79.41c-.3.02-.53-.2-.55-.49,0-.14.04-.27.13-.38.09-.1.21-.16.36-.17.14,0,.27.04.37.13.1.09.16.22.17.36.02.29-.2.53-.49.55ZM123.64,79.48h0c-.45.02-.83-.32-.86-.77-.01-.22.06-.43.21-.59.15-.16.35-.26.56-.27h0c.45-.02.83.32.86.77.03.45-.32.84-.77.86Z"/>
            <path class="cls-1" d="M129.31,71.22c-.13-.04-.26,0-.34.11-.59.79-1.05,1.39-1.32,1.73-.01.01-.03,0-.03-.01l-.51-3.37c-.01-.12-.1-.22-.23-.25-.12-.03-.25.02-.32.12l-2.36,3.47c-.05.07-.13.11-.21.11-.75,0-.97,0-1.26.01-.08,0-.15-.03-.2-.09-1.75-2.04-3.3-4.47-4.06-5.53-.18-.26-.57-.24-.73.04-.64,1.14-1.93,3.72-3.46,5.93-.04.06-.11.1-.19.11-.28.02-.51.04-1.25.12-.08,0-.17-.02-.22-.09l-2.71-3.2c-.08-.1-.21-.13-.33-.09-.12.04-.2.15-.2.27l-.16,3.41s-.02.03-.03.01c-.31-.32-.83-.86-1.49-1.58-.09-.1-.23-.13-.35-.07-.12.06-.19.18-.17.32l.6,4.01c.01.09.09.15.18.15l21.21-1.11c.09,0,.16-.08.17-.17l.18-4.05c0-.13-.07-.25-.2-.3ZM119.35,72.75l-.74,1.62c-.05.12-.22.13-.29.02l-.92-1.53s-.03-.1,0-.15l.74-1.62c.05-.12.22-.13.29-.02l.92,1.53s.03.1,0,.15Z"/>
          </g>
          <path class="cls-1" d="M132.23,84.4h-27.12c-.44,0-.84-.23-1.05-.61-.22-.38-.21-.84.01-1.22l1.39-2.32c.16-.28.52-.37.8-.2.28.16.37.52.2.8l-1.39,2.32s-.01.02,0,.05c.01.02.03.02.04.02h27.12s.03,0,.04-.02c.01-.02,0-.04,0-.05l-1.57-2.61c-.17-.27-.08-.63.2-.8.27-.17.63-.08.8.2l1.57,2.61c.23.38.24.84.02,1.22-.22.39-.61.62-1.05.62Z"/>
          <path class="cls-1" d="M112.58,70.02c-.1,0-.2-.03-.3-.08-.28-.16-.37-.52-.2-.8l5.47-9.18c.22-.37.61-.59,1.04-.59h0c.43,0,.82.22,1.04.59l5.24,8.69c.17.27.08.63-.2.8-.28.17-.63.08-.8-.2l-5.24-8.69s-.01-.02-.04-.02h0s-.04.02-.04.02l-5.47,9.18c-.11.18-.3.28-.5.28Z"/>
        </g>
      </g>
    </g>
  </g>
</svg>