<?xml version="1.0" encoding="UTF-8"?>
<svg id="Layer_2" data-name="Layer 2" xmlns="http://www.w3.org/2000/svg" xmlns:xlink="http://www.w3.org/1999/xlink" viewBox="0 0 294.98 89.82">
  <defs>
    <style>
      .cls-1 {
        stroke: #3f211d;
        stroke-width: 2.51px;
      }

      .cls-1, .cls-2, .cls-3, .cls-4, .cls-5 {
        fill: none;
      }

      .cls-6 {
        fill: #68382f;
      }

      .cls-6, .cls-7, .cls-3, .cls-8, .cls-9, .cls-10, .cls-11, .cls-12, .cls-13 {
        stroke-width: 0px;
      }

      .cls-2 {
        stroke-width: 4.29px;
      }

      .cls-2, .cls-4 {
        stroke: #fff;
      }

      .cls-2, .cls-4, .cls-5 {
        stroke-miterlimit: 10;
      }

      .cls-7 {
        fill: #e9dbd1;
      }

      .cls-8 {
        fill: #44b26f;
      }

      .cls-14 {
        clip-path: url(#clippath-1);
      }

      .cls-15 {
        opacity: .3;
      }

      .cls-16 {
        clip-path: url(#clippath);
      }

      .cls-4 {
        stroke-width: 2.15px;
      }

      .cls-5 {
        stroke: #68382f;
        stroke-linecap: round;
        stroke-width: 1.23px;
      }

      .cls-9 {
        fill: #3f211d;
      }

      .cls-10 {
        fill: #6a2d27;
      }

      .cls-11 {
        fill: #28100f;
      }

      .cls-12 {
        fill: #d1a576;
      }

      .cls-13 {
        fill: #f2f2f2;
      }
    </style>
    <clipPath id="clippath">
      <path class="cls-3" d="M47.91,39.99c-.02-.47-.02-.94.1-1.39.22-.8.82-1.44,1.49-1.91,1.04-.73,2.28-1.11,3.51-1.42,2.39-.6,4.84-.94,7.3-1.03,2.5-.09,5.07.11,7.35,1.13.66.29,1.32.69,1.64,1.33.18.36.23.77.28,1.18.35,3.48-.25,7.06-1.72,10.24-.52,1.13-1.18,2.25-2.2,2.96-.88.61-1.94.87-3,1.04-2.1.34-4.25.38-6.36.1-1.44-.18-2.9-.55-4.14-1.33-.65-.41-1.36-1.01-1.78-1.67-.37-.57-.65-1.23-.9-1.89-.14-.36-.26-.73-.38-1.07-.7-2.02-1.11-4.14-1.2-6.28Z"/>
    </clipPath>
    <clipPath id="clippath-1">
      <path class="cls-3" d="M30.1,51.12c-.26.74-.81,1.49-1.36,2.04-1.03,1.05-2.38,1.75-3.73,2.27-1.99.76-4.09,1.23-6.21,1.4-1.06.08-2.16.08-3.15-.31-1.15-.45-2.04-1.39-2.8-2.36-2.14-2.75-3.53-6.09-3.97-9.57-.05-.4-.09-.82,0-1.21.17-.71.72-1.25,1.3-1.69,2-1.53,4.45-2.32,6.9-2.83,2.41-.5,4.87-.74,7.33-.72,1.27.01,2.56.09,3.74.56.76.3,1.49.78,1.88,1.51.22.41.32.87.41,1.33.39,2.1.47,4.26.24,6.39-.04.37-.08.75-.13,1.13-.09.7-.22,1.41-.45,2.05"/>
    </clipPath>
  </defs>
  <g id="Layer_12" data-name="Layer 12">
    <g>
      <g>
        <path class="cls-1" d="M81.53,46.71c-.28-2.69-.73-5.38-1.3-8.04-1.06-4.96-4.86-12.02-8.36-15.69-2.77-2.92-5.71-5.45-9.1-7.56-4.52-2.8-9.89-4.43-15.35-5.05-.2-.02-.29-.28-.15-.43,2.46-2.66,5.03-3.15,3.95-3.7-2.28-1.16-5.72,1.83-5.86,1.38-.04-.12,1.78-3.28,4.65-4.46.44-.18-1.79-.62-3.29-.26-1.94.46-4.69,3.81-4.88,3.59-.25-.3,3.64-4.62,3.3-5.13-.28-.42-2.33.34-4.06,1.55-2.06,1.45-4,4.29-4.48,4.04-.54-.28,1.27-3.71.91-3.8-1.34-.34-3.57,2.09-6.52,5.26-2.22,2.39-3.97,3.87-5.29,4.85-1.06.41-2.12.83-3.14,1.31-5.26,2.45-10.5,5.61-14.13,10.26-3.3,4.22-5.49,9.48-6.39,14.75-1.23,7.23-.88,15.02-.1,22.06.35,3.13,1.1,5.84,2.25,8.79.87,2.24,2.96,5.52,4.68,7.2,2.87,2.8,6.13,4.92,9.64,6.54,1.15,1.04.82,2.43,1.39,3.23.62-.43,1.2-1.38,1.37-1.69.03-.06.1-.07.12,0,.12.38.95,1.48.77,2.4.86-.19,1.41-1.1,1.46-1.97,0,0,0-.02,0-.03.08.02.16.06.24.08,6.08,1.74,12.64,2.24,19,1.73,6.37-.51,12.66-2.1,18.6-4.68,5.37-2.33,10.58-6.01,14.08-10.77,1.76-2.39,3.22-4.68,4.22-7.36,2.03-5.44,2.36-12.5,1.74-18.43Z"/>
        <g>
          <path class="cls-12" d="M76.69,50.31c-1.07,4.96-2.64,11.34-5.78,15.31-3.77,4.76-8.88,8.9-14.59,11.08-4.93,1.88-10,3.7-15.36,3.51-2.72-.1-5.5-.22-8.21-.56-5.52-.69-11.48-2.07-16.07-5.39-2.83-2.05-5.72-4.24-7.46-7.34-5.13-9.14-5.76-24.16-.79-33.39,4.67-8.67,14.57-13.75,23.83-15.69,2.97-.62,6.04-.8,9.08-.97,10.24-1.24,21.97.97,29.18,8.84,5.32,5.81,7.21,13.56,6.7,21.04-.08,1.18-.3,2.4-.55,3.58Z"/>
          <path class="cls-6" d="M81.53,46.71c-.33-3.11-.88-6.24-1.58-9.3-1.21-5.26-4.22-10.35-7.94-14.28-2.82-2.98-5.79-5.57-9.24-7.71-4.66-2.89-10.21-4.52-15.84-5.1,2.56-3,5.41-3.5,4.29-4.07-2.28-1.16-5.72,1.83-5.86,1.38-.04-.12,1.78-3.28,4.65-4.46.44-.18-1.79-.62-3.29-.26-1.94.46-4.69,3.81-4.88,3.59-.25-.3,3.64-4.62,3.3-5.13-.28-.42-2.33.34-4.06,1.55-2.06,1.44-4,4.29-4.48,4.04-.54-.28,1.27-3.7.91-3.8-1.34-.34-3.57,2.09-6.52,5.26-2.22,2.39-3.97,3.87-5.29,4.85-1.06.41-2.12.83-3.14,1.31-5.26,2.45-10.5,5.61-14.13,10.26-3.3,4.22-5.49,9.48-6.39,14.75-1.23,7.23-.88,15.02-.1,22.06.36,3.27,1.18,6.09,2.42,9.21.97,2.43,2.75,5.08,4.62,6.88,4.27,4.12,9.29,6.87,14.9,8.48,6.08,1.74,12.64,2.24,19,1.73,6.37-.51,12.66-2.1,18.6-4.68,5.37-2.33,10.58-6.01,14.08-10.77,1.76-2.39,3.22-4.68,4.22-7.36,2.03-5.44,2.36-12.5,1.74-18.43ZM73.66,55.79c-1.61,6.19-6.11,12.49-11.61,15.52-5.23,2.88-10.9,4.43-16.9,5.15-2.32.28-4.81.36-7.15.25-6.02-.28-11.71-1.33-17.09-3.9-4.76-2.27-11.3-5.18-11.17-11.38.1-4.64,6.62-2.41,11.7-3.99,4.81-1.49,9-5.68,9.29-11.45.03-.58-.07-1.28-.27-1.88-1.11-3.31-4.87-6.17-8.25-6.53-3.5-.38-9.46,1.38-10.92,4.39-3.54,7.28-5.45,2.46-5.36,1.42.53-6.38,4.14-12.26,9-16.3,4.95-4.11,11.12-6.75,17.42-7.8,2.09-.35,4.7-.68,8.86-.9,20.23-1.85,30.78,11.81,30.2,18.57-.49,5.76-5.65-2.19-12.4-2.7-2.1-.16-9.62,1.81-9.36,8.38.11,2.88,1.74,6.63,4.12,8.55,5.56,4.46,14.59-3.49,18.3-.57,1.91,1.5,1.91,3.89,1.58,5.17Z"/>
          <g>
            <ellipse class="cls-13" cx="19.47" cy="47.46" rx="5.45" ry="5.09" transform="translate(-2.61 1.16) rotate(-3.19)"/>
            <ellipse class="cls-10" cx="19.47" cy="47.46" rx="4.13" ry="3.86" transform="translate(-2.61 1.16) rotate(-3.19)"/>
            <path class="cls-11" d="M21.42,47.14c.19,1.14-.55,2.2-1.63,2.38s-2.12-.6-2.31-1.74c-.19-1.14.55-2.2,1.63-2.38,1.09-.18,2.12.6,2.31,1.73Z"/>
            <path class="cls-7" d="M21.84,45.76c-.2-.49-.75-.93-1.3-.79-.34.08-.68.38-.72.72-.09.76,1.3,1.62,1.84,1.3.32-.19.36-.81.18-1.23Z"/>
            <circle class="cls-7" cx="18.89" cy="45.24" r=".43"/>
          </g>
          <g>
            <ellipse class="cls-13" cx="60.03" cy="43.75" rx="5.45" ry="5.09" transform="translate(-2.34 3.41) rotate(-3.19)"/>
            <ellipse class="cls-10" cx="60.03" cy="43.75" rx="4.13" ry="3.86" transform="translate(-2.34 3.41) rotate(-3.19)"/>
            <path class="cls-11" d="M61.98,43.43c.19,1.14-.55,2.2-1.63,2.38s-2.12-.6-2.31-1.74c-.19-1.14.55-2.2,1.63-2.38,1.09-.18,2.12.6,2.31,1.73Z"/>
            <path class="cls-7" d="M62.4,42.05c-.2-.49-.75-.93-1.3-.79-.34.08-.68.38-.72.72-.09.76,1.3,1.62,1.84,1.3.32-.19.36-.81.18-1.23Z"/>
            <circle class="cls-7" cx="59.45" cy="41.53" r=".43"/>
          </g>
          <g>
            <path class="cls-11" d="M46.38,52.05c.2,1.8-2.03,3.54-4.99,3.87-2.96.33-5.52-.86-5.72-2.67-.3-2.7,2.03-3.54,4.99-3.87,2.96-.33,5.39-.32,5.72,2.67Z"/>
            <path class="cls-6" d="M43.92,53.26c.84-.18,1.57.1,2.03.36.34-.49.5-1.03.44-1.58-.33-2.98-2.76-3-5.72-2.67-2.96.33-5.29,1.17-4.99,3.87.05.46.26.88.58,1.24.38-.32,1.04-.74,1.89-.7,1.15.05,2.19.92,2.57,2.17.23,0,.46-.02.69-.05.09-.01.18-.02.27-.03.17-1.32,1.09-2.36,2.26-2.62Z"/>
          </g>
          <path class="cls-5" d="M36.58,61.93c1.14.39,4.79,1.49,9.02.01,5.31-1.85,7.53-6.37,7.94-7.24"/>
          <path class="cls-6" d="M24.3,81.65c.1-.04.21-.08.31-.12-.31-.29-.63-.59-.96-.86-.15-.12-.31-.24-.47-.35.1.09-.05.04-.12,0-.05,0-.09.02-.14.03.03,0-.23.09-.39.15-.76.28-1.52.54-2.27.83-.28.11-.56.23-.84.34.07.91-.88,1.38-1.14,2.3,1.49,1.05,1.04,2.6,1.65,3.46.74-.52,1.42-.89,1.42-1.78.85.73,1.05,1.4.85,2.5.86-.19,1.41-1.1,1.46-1.97.05-.87-.03-1.77-.35-2.58,1.15.1,1.95,1,2.28,2.1.97-1.38.36-3.67-1.3-4.04Z"/>
          <g>
            <path class="cls-8" d="M31.68,40.97c-.17-.76-.41-1.54-.92-2.13-.08-.09-.16-.17-.24-.25-.33-.3-.72-.52-1.13-.71-1.32-.59-2.79-.76-4.23-.81-7.08-.29-14.24,1.85-20.04,5.98-.19.13-.38.28-.45.5-.02.07-.03.15-.03.23l-.02-.19-3.04,2.31c.17.44.27.91.29,1.4.01.29-.01.57-.07.84l3.08-2.24-.05-.44c.02.13.03.26.05.39,1.08.1,2.24.23,3.05.96.71.65.99,1.63,1.27,2.55.48,1.57,1.06,3.12,1.89,4.55.74,1.27,1.69,2.46,2.98,3.17,2.07,1.14,4.59.86,6.93.5,1.95-.3,3.92-.64,5.71-1.45,1.62-.74,3.12-1.91,3.95-3.52.92-1.77,1.31-3.81,1.46-5.8.15-1.95.01-3.93-.43-5.84ZM30.72,47.93c-.04.37-.08.75-.13,1.13-.09.7-.22,1.41-.45,2.05-.26.74-.81,1.49-1.36,2.04-1.03,1.05-2.38,1.75-3.73,2.27-1.99.76-4.09,1.23-6.21,1.4-1.06.08-2.16.08-3.15-.31-1.15-.45-2.04-1.39-2.8-2.36-2.14-2.75-3.53-6.09-3.97-9.57-.05-.4-.09-.82,0-1.21.17-.71.72-1.25,1.3-1.69,2-1.53,4.45-2.32,6.9-2.83,2.41-.5,4.87-.74,7.33-.72,1.27.01,2.56.09,3.74.56.76.3,1.49.78,1.88,1.51.22.41.32.87.41,1.33.39,2.1.47,4.26.24,6.39Z"/>
            <path class="cls-8" d="M47.51,45.51c.59,1.9,1.44,3.79,2.73,5.3,1.17,1.37,2.9,2.16,4.64,2.5,1.93.37,3.92.24,5.89.07,2.35-.2,4.88-.52,6.63-2.12,1.09-.99,1.75-2.37,2.18-3.78.48-1.58.7-3.22.81-4.87.07-.96.12-1.98.66-2.78.62-.9,1.72-1.3,2.75-1.65-.01-.13-.03-.26-.04-.39l.05.44,3.74,1.55c.56.23,1.17-.23,1.1-.84l-.04-.37c-.03-.28-.21-.53-.47-.64l-4.59-2.02.02.19c-.02-.08-.04-.15-.08-.22-.12-.2-.34-.29-.55-.38-6.57-2.66-14.02-3.05-20.84-1.1-1.39.4-2.79.9-3.94,1.79-.35.27-.69.59-.94.95-.07.1-.13.19-.18.3-.37.69-.42,1.51-.42,2.29,0,1.96.31,3.92.9,5.78ZM47.91,39.99c-.02-.47-.02-.94.1-1.39.22-.8.82-1.44,1.49-1.91,1.04-.73,2.28-1.11,3.51-1.42,2.39-.6,4.84-.94,7.3-1.03,2.5-.09,5.07.11,7.35,1.13.66.29,1.32.69,1.64,1.33.18.36.23.77.28,1.18.35,3.48-.25,7.06-1.72,10.24-.52,1.13-1.18,2.25-2.2,2.96-.88.61-1.94.87-3,1.04-2.1.34-4.25.38-6.36.1-1.44-.18-2.9-.55-4.14-1.33-.65-.41-1.36-1.01-1.78-1.67-.37-.57-.65-1.23-.9-1.89-.14-.36-.26-.73-.38-1.07-.7-2.02-1.11-4.14-1.2-6.28Z"/>
            <path class="cls-8" d="M47.28,40.25c-2.5-.62-5.35-.8-8.34-.45s-5.61,1.17-7.88,2.32l.23,2c2.26-1.15,4.95-1.97,7.88-2.32,2.86-.34,5.59-.19,8.01.37,0-.64.05-1.28.11-1.92Z"/>
          </g>
          <path class="cls-6" d="M79.1,38c.06.04.12.08.17.12.04-.27.08-.53.1-.8,0-.12.01-.24.01-.37,0,.08-.04-.01-.04-.07-.02-.02-.04-.04-.06-.06.01.02-.13-.09-.21-.15-.42-.29-.82-.59-1.25-.87-.16-.11-.32-.21-.48-.31-.44.36-1.03.04-1.6.24,0,1.14-.97,1.47-1.19,2.1.53.2.97.42,1.43.09-.07.7-.34,1.05-.99,1.34.41.38,1.07.33,1.54.05.47-.29.9-.65,1.2-1.11.36.63.18,1.37-.26,1.93,1.06,0,2.02-1.14,1.62-2.12Z"/>
          <path class="cls-6" d="M4.66,46.12c.46.32.9.1,1.43-.09-.22-.63-1.19-.95-1.19-2.1-.57-.2-1.16.12-1.6-.24-.15.09-.29.18-.43.28.04,1.17-.53,2.24-1.39,2.98.15.74.89,1.38,1.69,1.37-.45-.56-.62-1.3-.26-1.93.3.46.74.82,1.2,1.11.47.29,1.13.33,1.54-.05-.64-.29-.92-.63-.99-1.34Z"/>
          <g class="cls-15">
            <g class="cls-16">
              <line class="cls-2" x1="62.25" y1="29.4" x2="47.53" y2="53.08"/>
              <line class="cls-4" x1="71.38" y1="32.29" x2="56.65" y2="55.97"/>
            </g>
          </g>
          <g class="cls-15">
            <g class="cls-14">
              <line class="cls-2" x1="23.55" y1="33.83" x2="8.83" y2="57.51"/>
              <line class="cls-4" x1="32.68" y1="36.72" x2="17.96" y2="60.4"/>
            </g>
          </g>
        </g>
      </g>
      <g>
        <path class="cls-9" d="M149.86,71.29c-11.58,5.37-18.21,5.78-24.95,3.78-6.37-1.89-8-5.92-9.16-8.34-1.01-2.11-3.13-10.29-3.23-10.67-.13-.2-.28-.39-.46-.54-1.41-1.15-3.61-3.21-3.52-6.83.13-5.09,3.54-6.22,4.58-9.31.47-1.38.69-3.37.75-4.63.24-5.22.34-7.15.38-10.34.04-3.26-.06-5.7-.32-7.46-.29-2.03-.86-3.42-1.72-4.25-.84-.8-3.43-1.3-4.81-1.47h-.03c-1.38-.15-2.49-.12-3.39.07-1.11.25-2.02.89-2.73,1.92-.61.89-1.04,2.09-1.33,3.67-.25,1.38-.5,3.23-.74,5.48-.17,1.38-.29,2.91-.37,4.54-.08,1.56-.16,2.81-.24,3.71-.81,9.78-1.13,18.14-.97,24.84.16,6.81,1,12.46,2.5,16.79,1.67,4.84,4.16,8.55,6.39,10.42.06.05.36.3.76.6,1.84,1.38,3.89,2.5,6.1,3.1,11.99,3.23,23.74.65,30.6-1.45,1.65-.5,4.29-1.44,5.8-2.28,5.14-2.88,5.95-5.06,6.21-8.24.27-3.34-3.66-4.25-6.1-3.12Z"/>
        <path class="cls-9" d="M197.59,25.57c.49-1.65,1.55-3.25,3.11-4.06.03-.02.06-.03.09-.05.62-.3.79-1.09.36-1.63-.38-.48-.85-.89-1.4-1.23-1.29-.79-2.73-1.19-4.29-1.19-1.17,0-2.31.24-3.38.7-1.17.51-2.13,1.35-2.85,2.51-.19.3-.53.91-1.32,2.82-.59,1.4-1.28,3.07-2.06,4.97-.82,1.99-1.7,4.18-2.61,6.53-.93,2.37-1.84,4.78-2.73,7.15-.89,2.38-1.74,4.66-2.54,6.85-.83,2.24-1.5,4.11-2.06,5.71,0,0,0,.02,0,.02-.2.56-1,.5-1.13-.08-.06-.3-.13-.65-.19-1.03v-.04c-.49-2.57-.99-5.22-1.52-7.96-.53-2.77-1.11-5.44-1.71-7.92-.57-2.38-1.14-4.72-1.69-6.95-.54-2.18-1.04-3.92-1.54-5.31-.37-1.22-1.23-2.18-2.48-2.77-1.09-.51-2.24-.77-3.42-.77-2.23,0-4,.77-5.26,2.27l-.09.12c-.62.91-.99,1.85-1.1,2.8-.11.92.06,2.13.52,3.81.16.69.39,1.9.71,3.57.32,1.71.64,3.43.95,5.14v.05c1.22,6.81,2.25,12.62,3.09,17.44.85,4.84,1.62,8.97,2.3,12.28.69,3.35,1.3,6.07,1.83,8.08.55,2.1,1.1,3.72,1.66,4.93.63,1.35,1.3,2.3,2.06,2.9.72.57,1.55.99,2.47,1.24.83.24,1.64.36,2.43.36,1.26,0,2.48-.3,3.63-.91,1.85-.97,3.22-2.54,4.07-4.66.11-.27.36-.94,1.25-3.63.64-1.94,1.37-4.13,2.18-6.51,1.35-4.13,2.65-7.98,3.86-11.44,1.21-3.46,2.4-6.83,3.56-10.01,1.16-3.19,2.37-6.4,3.61-9.55.81-2.05,1.68-4.22,2.61-6.49.26-.64.2-1.36-.17-1.94-1.13-1.77-1.4-4.16-.81-6.15Z"/>
        <path class="cls-9" d="M243.2,25.17c.5-1.97,1.48-3.46,2.91-4.42.63-.42,1.27-.75,1.93-.98.1-.23.03-.48-.23-.7-.31-.26-.65-.48-1.03-.67-1.35-.67-2.65-.98-4.21-.98-1.17,0-2.31.24-3.38.7-1.17.51-2.13,1.35-2.85,2.51-.19.3-.53.91-1.32,2.82-.59,1.4-1.28,3.07-2.06,4.97-.82,1.99-1.7,4.18-2.61,6.53-.92,2.36-1.84,4.77-2.73,7.15-.89,2.38-1.74,4.66-2.54,6.85-.81,2.21-1.51,4.13-2.06,5.71,0,0,0,.02,0,.02-.2.56-1,.5-1.13-.08-.06-.3-.13-.65-.19-1.03v-.04c-.49-2.57-.99-5.22-1.52-7.96-.53-2.77-1.11-5.43-1.71-7.92-.57-2.38-1.14-4.72-1.69-6.95-.54-2.18-1.04-3.92-1.54-5.31-.37-1.22-1.23-2.18-2.48-2.77-1.09-.51-2.24-.77-3.42-.77-2.23,0-4,.77-5.26,2.27l-.09.12c-.62.91-.99,1.85-1.1,2.8-.11.92.06,2.13.52,3.81.16.7.39,1.9.71,3.57.32,1.71.64,3.43.95,5.14v.05c1.22,6.81,2.25,12.62,3.09,17.44.85,4.84,1.63,8.98,2.3,12.28.69,3.36,1.3,6.08,1.83,8.08.55,2.1,1.1,3.72,1.66,4.93.63,1.35,1.3,2.3,2.06,2.9.72.57,1.55.99,2.47,1.24.83.24,1.64.36,2.43.36,1.26,0,2.48-.3,3.63-.91,1.85-.97,3.22-2.54,4.07-4.66.11-.27.36-.94,1.25-3.63.64-1.95,1.37-4.14,2.18-6.51,1.35-4.13,2.65-7.98,3.86-11.44,1.21-3.46,2.4-6.83,3.56-10.01.67-1.85,1.28-3.59,1.92-5.37-.17-1.48-.26-3.04-.28-4.67-.04-4.44.66-9.32,2.1-14.5Z"/>
        <path class="cls-9" d="M294.32,43.31c-.09-1.09-.28-2.58-.57-4.41-.28-1.76-.55-3.63-.8-5.56-.25-1.92-.5-3.74-.75-5.4-.25-1.67-.46-2.91-.64-3.7-.81-4.17-3.53-6.37-7.88-6.37-1.16,0-2.12.11-2.94.34-.94.27-1.77.78-2.46,1.52-.62.66-1.16,1.52-1.64,2.62-.43.98-.9,2.23-1.42,3.8v.03c-.82,2.64-1.81,5.32-2.95,7.96-1.14,2.65-2.36,5.12-3.61,7.35-1.26,2.23-2.5,4.2-3.7,5.83-.38.52-.76.99-1.12,1.41-.57.66-1.65.38-1.84-.47-.27-1.22-.58-2.82-.7-4.1-.24-2.45-.32-5.19-.24-8.16.08-2.94.36-5.7.84-8.19.51-2.41.11-4.33-1.18-5.69-1.26-1.32-2.84-1.99-4.7-1.99-1.49,0-2.94.47-4.32,1.4-1.43.96-2.41,2.45-2.91,4.42-1.44,5.18-2.15,10.06-2.1,14.5.04,4.47.66,8.38,1.83,11.62,1.2,3.33,2.94,6,5.16,7.91,2.32,2,5,3.02,7.96,3.02,2.44,0,5.06-.8,7.79-2.38,2.65-1.54,5.32-4.01,7.92-7.35.38-.49.72-.9,1.02-1.25.62-.72,1.8-.32,1.86.62.02.33.04.7.05,1.11.08,2.61-.04,8.32-.36,10.68-.32,2.34-.84,4.47-1.54,6.33-.7,1.84-1.53,3.42-2.48,4.68-.88,1.17-5.05,4.37-11.31,1.19-1.55-.79-2.86-2.06-3.96-3.66l-.02-.02c-2.59-3.64-5.66-4.08-7.78-3.81-1.46.19-2.86.83-4.16,1.93l-.02.02c-1.91,1.68-2.43,3.82-1.52,6.19.77,2.02,2.2,3.97,4.26,5.77,2.01,1.77,4.63,3.01,7.44,4.46,8.48,4.37,20.06,1.42,22.88-.21,3.43-1.98,6.26-4.98,8.42-8.91,2.11-3.84,3.57-11.74,4.34-17.19.76-5.39.72-11.41-.12-17.91Z"/>
        <path class="cls-9" d="M149.97,55.41c-1.81,1.42-4.42,2.49-7.59,2.83-2.03.22-6.94.38-10.29-2.79-1.14-1.08-1.11-2.8-.77-3.53.41-.88,1.47-1.18,2.27-.68,1.5.94,4.62,2.46,8.64,2.03,3.69-.39,6.35-2.27,7.89-3.72.42-.39,1.37-1.7,1.62-2.21,1.86-3.86,2.37-8.51.68-13.77-1.23-3.78-3.15-6.58-5.72-8.34-2.54-1.74-5.37-2.63-8.41-2.63-2.11,0-4.24.41-6.34,1.21-2.08.79-4.06,1.96-5.91,3.47-1.84,1.5-3.52,3.38-5.01,5.58-1.49,2.21-2.68,4.76-3.51,7.57-.29.94-.51,1.53-.83,2.12-.3.56-.83,1.33-1.39,1.95l-.02.02c-1.4,1.6-2.03,3.4-1.88,5.35.15,1.97,1.14,3.61,2.84,4.76.18.15.27.27.3.34.02.03.16.31.46,1.43,1.84,6.83,6.63,13.67,13.81,15.48,3.7.94,7.68.39,11.21-1.07,5.03-2.08,9.97-5.82,12.34-10.81.91-1.92-.13-7.93-4.41-4.58ZM128.62,42.15c-.2-.26,1.32-1.01,3.49-5.38,1.16-2.33,2.03-4.11,2.86-4.14.22,0-.23,2.27.12,2.34.32.06.95-1.9,1.89-3.09.79-.99,1.84-1.78,2.08-1.58.28.23-1.23,3.39-1.03,3.52.14.09,1.16-2.3,2.2-2.9.81-.46,2.17-.59,1.94-.41-1.46,1.17-1.96,3.3-1.92,3.36.16.23,1.63-2.07,3.14-1.79.77.14-.94.95-1.88,3.29-4.79,11.89-12.08,7.86-12.89,6.78Z"/>
        <path class="cls-12" d="M195.06,23.04c.49-1.65,1.55-3.25,3.11-4.06.03-.02.06-.03.09-.05.62-.3.79-1.09.36-1.63-.38-.48-.85-.89-1.4-1.23-1.29-.79-2.73-1.19-4.29-1.19-1.17,0-2.31.24-3.38.7-1.17.51-2.13,1.35-2.85,2.51-.19.3-.53.91-1.32,2.82-.59,1.4-1.28,3.07-2.06,4.97-.82,1.99-1.7,4.18-2.61,6.53-.93,2.37-1.84,4.78-2.73,7.15-.89,2.38-1.74,4.66-2.54,6.85-.83,2.24-1.5,4.11-2.06,5.71,0,0,0,.02,0,.02-.2.56-1,.5-1.13-.08-.06-.3-.13-.65-.19-1.03v-.04c-.49-2.57-.99-5.22-1.52-7.96-.53-2.77-1.11-5.44-1.71-7.92-.57-2.38-1.14-4.72-1.69-6.95-.54-2.18-1.04-3.92-1.54-5.31-.37-1.22-1.23-2.18-2.48-2.77-1.09-.51-2.24-.77-3.42-.77-2.23,0-4,.77-5.26,2.27l-.09.12c-.62.91-.99,1.85-1.1,2.8-.11.92.06,2.13.52,3.81.16.69.39,1.9.71,3.57.32,1.71.64,3.43.95,5.14v.05c1.22,6.81,2.25,12.62,3.09,17.44.85,4.84,1.62,8.97,2.3,12.28.69,3.35,1.3,6.07,1.83,8.08.55,2.1,1.1,3.72,1.66,4.93.63,1.35,1.3,2.3,2.06,2.9.72.57,1.55.99,2.47,1.24.83.24,1.64.36,2.43.36,1.26,0,2.48-.3,3.63-.91,1.85-.97,3.22-2.54,4.07-4.66.11-.27.36-.94,1.25-3.63.64-1.94,1.37-4.13,2.18-6.51,1.35-4.13,2.65-7.98,3.86-11.44,1.21-3.46,2.4-6.83,3.56-10.01,1.16-3.19,2.37-6.4,3.61-9.55.81-2.05,1.68-4.22,2.61-6.49.26-.64.2-1.36-.17-1.94-1.13-1.77-1.4-4.16-.81-6.15Z"/>
        <path class="cls-12" d="M146.93,70.06c-11.58,5.37-18.21,5.78-24.95,3.78-6.37-1.89-8-5.92-9.16-8.34-1.01-2.11-3.13-10.29-3.23-10.67-.13-.2-.28-.39-.46-.54-1.41-1.15-3.61-3.21-3.52-6.83.13-5.09,3.54-6.22,4.58-9.31.47-1.38.69-3.37.75-4.63.24-5.22.34-7.15.38-10.34.04-3.26-.06-5.7-.32-7.46-.29-2.03-.86-3.42-1.72-4.25-.84-.8-3.43-1.3-4.81-1.47h-.03c-1.38-.15-2.49-.12-3.39.07-1.11.25-2.02.89-2.73,1.92-.61.89-1.04,2.09-1.33,3.67-.25,1.38-.5,3.23-.74,5.48-.17,1.38-.29,2.91-.37,4.54-.08,1.56-.16,2.81-.24,3.71-.81,9.78-1.13,18.14-.97,24.84.16,6.81,1,12.46,2.5,16.79,1.67,4.84,4.16,8.55,6.39,10.42.06.05.36.3.76.6,1.84,1.38,3.89,2.5,6.1,3.1,11.99,3.23,23.74.65,30.6-1.45,1.65-.5,4.29-1.44,5.8-2.28,5.14-2.88,5.95-5.06,6.21-8.24.27-3.34-3.66-4.25-6.1-3.12Z"/>
        <path class="cls-12" d="M240.67,22.63c.5-1.97,1.48-3.46,2.91-4.42.63-.42,1.27-.75,1.93-.98.1-.23.03-.48-.23-.7-.31-.26-.65-.48-1.03-.67-1.35-.67-2.65-.98-4.21-.98-1.17,0-2.31.24-3.38.7-1.17.51-2.13,1.35-2.85,2.51-.19.3-.53.91-1.32,2.82-.59,1.4-1.28,3.07-2.06,4.97-.82,1.99-1.7,4.18-2.61,6.53-.92,2.36-1.84,4.77-2.73,7.15-.89,2.38-1.74,4.66-2.54,6.85-.81,2.21-1.51,4.13-2.06,5.71,0,0,0,.02,0,.02-.2.56-1,.5-1.13-.08-.06-.3-.13-.65-.19-1.03v-.04c-.49-2.57-.99-5.22-1.52-7.96-.53-2.77-1.11-5.43-1.71-7.92-.57-2.38-1.14-4.72-1.69-6.95-.54-2.18-1.04-3.92-1.54-5.31-.37-1.22-1.23-2.18-2.48-2.77-1.09-.51-2.24-.77-3.42-.77-2.23,0-4,.77-5.26,2.27l-.09.12c-.62.91-.99,1.85-1.1,2.8-.11.92.06,2.13.52,3.81.16.7.39,1.9.71,3.57.32,1.71.64,3.43.95,5.14v.05c1.22,6.81,2.25,12.62,3.09,17.44.85,4.84,1.63,8.98,2.3,12.28.69,3.36,1.3,6.08,1.83,8.08.55,2.1,1.1,3.72,1.66,4.93.63,1.35,1.3,2.3,2.06,2.9.72.57,1.55.99,2.47,1.24.83.24,1.64.36,2.43.36,1.26,0,2.48-.3,3.63-.91,1.85-.97,3.22-2.54,4.07-4.66.11-.27.36-.94,1.25-3.63.64-1.95,1.37-4.14,2.18-6.51,1.35-4.13,2.65-7.98,3.86-11.44,1.21-3.46,2.4-6.83,3.56-10.01.67-1.85,1.28-3.59,1.92-5.37-.17-1.48-.26-3.04-.28-4.67-.04-4.44.66-9.32,2.1-14.5Z"/>
        <path class="cls-12" d="M291.79,40.78c-.09-1.09-.28-2.58-.57-4.41-.28-1.76-.55-3.63-.8-5.56-.25-1.92-.5-3.74-.75-5.4-.25-1.67-.46-2.91-.64-3.7-.81-4.17-3.53-6.37-7.88-6.37-1.16,0-2.12.11-2.94.34-.94.27-1.77.78-2.46,1.52-.62.66-1.16,1.52-1.64,2.62-.43.98-.9,2.23-1.42,3.8v.03c-.82,2.64-1.81,5.32-2.95,7.96-1.14,2.65-2.36,5.12-3.61,7.35-1.26,2.23-2.5,4.2-3.7,5.83-.38.52-.76.99-1.12,1.41-.57.66-1.65.38-1.84-.47-.27-1.22-.58-2.82-.7-4.1-.24-2.45-.32-5.19-.24-8.16.08-2.94.36-5.7.84-8.19.51-2.41.11-4.33-1.18-5.69-1.26-1.32-2.84-1.99-4.7-1.99-1.49,0-2.94.47-4.32,1.4-1.43.96-2.41,2.45-2.91,4.42-1.44,5.18-2.15,10.06-2.1,14.5.04,4.47.66,8.38,1.83,11.62,1.2,3.33,2.94,6,5.16,7.91,2.32,2,5,3.02,7.96,3.02,2.44,0,5.06-.8,7.79-2.38,2.65-1.54,5.32-4.01,7.92-7.35.38-.49.72-.9,1.02-1.25.62-.72,1.8-.32,1.86.62.02.33.04.7.05,1.11.08,2.61-.04,8.32-.36,10.68-.32,2.34-.84,4.47-1.54,6.33-.7,1.84-1.53,3.42-2.48,4.68-.88,1.17-5.05,4.37-11.31,1.19-1.55-.79-2.86-2.06-3.96-3.66l-.02-.02c-2.59-3.64-5.66-4.08-7.78-3.81-1.46.19-2.86.83-4.16,1.93l-.02.02c-1.91,1.68-2.43,3.82-1.52,6.19.77,2.02,2.2,3.97,4.26,5.77,2.01,1.77,4.63,3.01,7.44,4.46,8.48,4.37,20.06,1.42,22.88-.21,3.43-1.98,6.26-4.98,8.42-8.91,2.11-3.84,3.57-11.74,4.34-17.19.76-5.39.72-11.41-.12-17.91Z"/>
        <path class="cls-12" d="M147.44,52.88c-1.81,1.42-4.42,2.49-7.59,2.83-2.03.22-6.94.38-10.29-2.79-1.14-1.08-1.11-2.8-.77-3.53.41-.88,1.47-1.18,2.27-.68,1.5.94,4.62,2.46,8.64,2.03,3.69-.39,6.35-2.27,7.89-3.72.42-.39,1.37-1.7,1.62-2.21,1.86-3.86,2.37-8.51.68-13.77-1.23-3.78-3.15-6.58-5.72-8.34-2.54-1.74-5.37-2.63-8.41-2.63-2.11,0-4.24.41-6.34,1.21-2.08.79-4.06,1.96-5.91,3.47-1.84,1.5-3.52,3.38-5.01,5.58-1.49,2.21-2.68,4.76-3.51,7.57-.29.94-.51,1.53-.83,2.12-.3.56-.83,1.33-1.39,1.95l-.02.02c-1.4,1.6-2.03,3.4-1.88,5.35.15,1.97,1.14,3.61,2.84,4.76.18.15.27.27.3.34.02.03.16.31.46,1.43,1.84,6.83,6.63,13.67,13.81,15.48,3.7.94,7.68.39,11.21-1.07,5.03-2.08,9.97-5.82,12.34-10.81.91-1.92-.13-7.93-4.41-4.58ZM126.09,39.61c-.2-.26,1.32-1.01,3.49-5.38,1.16-2.33,2.03-4.11,2.86-4.14.22,0-.23,2.27.12,2.34.32.06.95-1.9,1.89-3.09.79-.99,1.84-1.78,2.08-1.58.28.23-1.23,3.39-1.03,3.52.14.09,1.16-2.3,2.2-2.9.81-.46,2.17-.59,1.94-.41-1.46,1.17-1.96,3.3-1.92,3.36.16.23,1.63-2.07,3.14-1.79.77.14-.94.95-1.88,3.29-4.79,11.89-12.08,7.86-12.89,6.78Z"/>
      </g>
    </g>
  </g>
</svg>