<?xml version="1.0" encoding="UTF-8"?>
<svg id="Layer_2" data-name="Layer 2" xmlns="http://www.w3.org/2000/svg" viewBox="0 0 297.02 94.72">
  <defs>
    <style>
      .cls-1 {
        fill: #192730;
      }

      .cls-1, .cls-2, .cls-3, .cls-4, .cls-5, .cls-6, .cls-7 {
        stroke-width: 0px;
      }

      .cls-2 {
        fill: #68382f;
      }

      .cls-8 {
        opacity: .6;
      }

      .cls-9 {
        stroke: #68382f;
        stroke-linecap: round;
        stroke-miterlimit: 10;
        stroke-width: 1.19px;
      }

      .cls-9, .cls-10 {
        fill: none;
      }

      .cls-3 {
        fill: #fff;
      }

      .cls-10 {
        stroke: #3f211d;
        stroke-width: 2.43px;
      }

      .cls-4, .cls-5 {
        fill: #3f211d;
      }

      .cls-5 {
        opacity: .35;
      }

      .cls-6 {
        fill: #28100f;
      }

      .cls-7 {
        fill: #d1a576;
      }
    </style>
  </defs>
  <g id="Layer_5" data-name="Layer 5">
    <g>
      <g>
        <path class="cls-5" d="M9.02,94.72c.2-.51.32-.86.37-1.02l-.09.29s-.09.26-.28.73Z"/>
        <path class="cls-5" d="M9.42,93.63l-.02.07s.02-.06.02-.07Z"/>
        <g>
          <path class="cls-10" d="M78.92,46.79c-.15-2.61-.45-5.23-.88-7.82-.79-4.84-4.12-11.82-7.33-15.53-2.54-2.94-5.25-5.53-8.42-7.72-4.23-2.92-9.33-4.73-14.57-5.59-.2-.03-.27-.28-.13-.42,2.5-2.45,5-2.8,3.99-3.38-2.14-1.22-5.6,1.5-5.72,1.06-.03-.12,1.87-3.08,4.7-4.08.44-.15-1.7-.68-3.17-.41-1.89.35-4.7,3.46-4.87,3.24-.23-.3,3.73-4.29,3.43-4.79-.25-.42-2.26.22-3.99,1.31-2.06,1.3-4.06,3.95-4.51,3.69-.5-.29,1.4-3.52,1.05-3.62-1.28-.4-3.54,1.85-6.54,4.77-2.25,2.2-4.01,3.55-5.33,4.43-1.04.35-2.08.71-3.09,1.12-5.19,2.12-10.4,4.92-14.11,9.24-3.38,3.92-5.74,8.89-6.85,13.94-1.53,6.92-1.55,14.45-1.13,21.28.19,3.03.79,5.69,1.76,8.58.74,2.2,2.6,5.47,4.18,7.17,2.64,2.84,5.68,5.04,9,6.76,1.06,1.05.67,2.39,1.19,3.18.62-.39,1.22-1.28,1.4-1.56.04-.06.1-.06.12.01.1.37.85,1.47.63,2.35.84-.14,1.41-.99,1.5-1.83,0,0,0-.02,0-.03.08.03.15.06.23.09,5.78,1.96,12.09,2.75,18.25,2.56,6.17-.19,12.32-1.43,18.17-3.64,5.29-2,10.49-5.31,14.09-9.73,1.81-2.22,3.32-4.36,4.42-6.91,2.21-5.15,2.86-11.95,2.54-17.7Z"/>
          <g>
            <path class="cls-7" d="M74.08,50.04c-1.26,4.74-3.07,10.82-6.29,14.5-3.86,4.41-8.99,8.17-14.59,10.01-4.84,1.58-9.83,3.1-14.98,2.66-2.62-.22-5.3-.47-7.89-.93-5.29-.93-10.98-2.53-15.25-5.95-2.63-2.11-5.32-4.36-6.85-7.44-4.52-9.06-4.42-23.58.8-32.26,4.91-8.14,14.7-12.58,23.73-14.02,2.89-.46,5.87-.49,8.81-.51,9.94-.71,21.16,1.97,27.74,9.9,4.86,5.85,6.32,13.42,5.48,20.61-.13,1.13-.4,2.3-.7,3.43Z"/>
            <path class="cls-2" d="M78.92,46.79c-.17-3.02-.55-6.06-1.09-9.05-.92-5.13-3.59-10.18-6.99-14.15-2.58-3.01-5.33-5.64-8.55-7.87-4.36-3-9.64-4.84-15.04-5.66,2.61-2.77,5.39-3.13,4.33-3.73-2.14-1.22-5.6,1.5-5.72,1.06-.03-.12,1.87-3.08,4.7-4.08.44-.15-1.7-.68-3.17-.41-1.89.35-4.71,3.46-4.87,3.24-.23-.3,3.73-4.29,3.43-4.79-.25-.41-2.26.22-3.99,1.31-2.06,1.3-4.06,3.95-4.51,3.69-.5-.29,1.4-3.51,1.05-3.62-1.28-.4-3.54,1.85-6.54,4.77-2.25,2.2-4.01,3.55-5.33,4.43-1.04.35-2.08.71-3.09,1.12-5.19,2.12-10.4,4.92-14.11,9.24-3.38,3.92-5.74,8.89-6.85,13.94-1.53,6.92-1.55,14.45-1.13,21.28.2,3.17.85,5.93,1.9,8.99.82,2.39,2.42,5.03,4.14,6.86,3.92,4.18,8.64,7.06,13.97,8.88,5.78,1.96,12.09,2.75,18.25,2.56,6.17-.19,12.32-1.43,18.17-3.64,5.29-2,10.49-5.31,14.09-9.73,1.81-2.22,3.32-4.36,4.42-6.91,2.21-5.15,2.86-11.95,2.54-17.7ZM70.9,55.19c-1.85,5.9-6.48,11.76-11.93,14.43-5.18,2.53-10.73,3.76-16.54,4.17-2.25.16-4.66.12-6.91-.1-5.8-.55-11.24-1.83-16.31-4.56-4.49-2.41-10.66-5.53-10.25-11.5.31-4.47,6.5-2.02,11.48-3.31,4.71-1.21,8.95-5.05,9.5-10.61.06-.56,0-1.24-.17-1.82-.91-3.25-4.41-6.18-7.65-6.69-3.36-.53-9.19.89-10.74,3.72-3.75,6.86-5.37,2.12-5.24,1.12.81-6.13,4.57-11.63,9.45-15.3,4.97-3.74,11.04-6,17.17-6.71,2.04-.24,4.56-.44,8.59-.46,19.6-.84,29.14,12.83,28.27,19.33-.74,5.53-5.35-2.37-11.83-3.18-2.02-.25-9.37,1.3-9.43,7.65-.03,2.79,1.37,6.48,3.58,8.44,5.15,4.57,14.24-2.68,17.69.31,1.77,1.54,1.66,3.84,1.28,5.07Z"/>
            <path class="cls-6" d="M64.49,41.67c.13,1.1-4.77,1.09-5.82,1.21-1.06.12-5.73,2.9-5.85,1.8-.13-1.1,2.15-3.06,5.24-3.75,2.56-.57,6.3-.36,6.43.74Z"/>
            <path class="cls-6" d="M25.4,44.69c0,1.11-4.86.5-5.93.49s-6.04,2.18-6.03,1.07c.01-1.11,2.51-2.77,5.66-3.08,2.61-.25,6.3.41,6.29,1.52Z"/>
            <g>
              <path class="cls-6" d="M44.75,50.29c.11,1.75-2.13,3.32-5,3.5-2.87.18-5.29-1.09-5.4-2.84-.16-2.62,2.13-3.32,5-3.5,2.87-.18,5.22-.05,5.4,2.84Z"/>
              <path class="cls-2" d="M42.32,51.35c.82-.14,1.51.17,1.94.44.35-.46.53-.97.5-1.5-.18-2.89-2.53-3.02-5.4-2.84-2.87.18-5.16.88-5,3.5.03.45.21.86.5,1.23.39-.29,1.04-.66,1.85-.58,1.1.11,2.07.99,2.37,2.21.22,0,.44,0,.67-.02.09,0,.18-.01.26-.02.23-1.26,1.16-2.23,2.3-2.42Z"/>
            </g>
            <path class="cls-9" d="M35.89,59.76c1.12.31,4.7,1.16,8.7-.51"/>
            <path class="cls-2" d="M22.06,77.82c.1-.04.2-.07.3-.1-.29-.3-.58-.6-.89-.87-.14-.13-.28-.25-.43-.36.09.09-.05.03-.12-.01-.05,0-.09.01-.14.02.03,0-.23.07-.38.12-.74.24-1.49.45-2.23.69-.28.09-.55.19-.83.29.02.88-.92,1.29-1.21,2.17,1.38,1.08.88,2.56,1.43,3.42.74-.46,1.42-.79,1.46-1.65.79.74.95,1.4.7,2.45.84-.14,1.41-.99,1.5-1.83.09-.84.05-1.71-.22-2.51,1.11.15,1.84,1.06,2.1,2.13,1.01-1.29.52-3.53-1.06-3.96Z"/>
            <g>
              <path class="cls-1" d="M6.02,40.48c.46.08.93.18,1.37.32-.25-1.09-.38-2.18-.38-3.28-.17.09-.33.18-.5.28-.19.11-.39.24-.48.44-.03.07-.04.14-.05.22v-.19s-3.14,1.95-3.14,1.95c.12.44.18.9.16,1.37-.01.28-.06.55-.14.8l3.17-1.87v-.43c0,.13,0,.25,0,.38Z"/>
              <path class="cls-1" d="M77.58,38.45c-.02-.27-.19-.52-.43-.63l-4.36-2.1v.18c0-.07-.02-.15-.06-.21-.11-.19-.32-.3-.52-.39-.65-.29-1.07-.76-1.74-1,.15,1.02-.07,2.27-.14,3.3.2.39.36.81.51,1.24.61-.45,1.38-.7,2.12-.92,0-.13-.02-.25-.03-.38l.03.43,3.55,1.62c.53.24,1.13-.18,1.09-.77l-.03-.35Z"/>
              <path class="cls-2" d="M76.93,37.97c.05.04.1.07.16.11.04-.24.09-.48.11-.73.01-.11.02-.22.03-.34,0,.08-.03-.01-.03-.06-.02-.02-.04-.04-.06-.06.01.02-.12-.08-.19-.14-.37-.28-.73-.57-1.11-.84-.14-.1-.28-.2-.43-.3-.42.32-.94,0-1.47.17-.04,1.04-.93,1.31-1.16,1.88.48.2.87.41,1.3.13-.09.64-.35.95-.94,1.19.36.36.97.34,1.41.09.44-.25.85-.57,1.14-.98.31.59.13,1.26-.3,1.76.97.04,1.88-.97,1.55-1.89Z"/>
              <path class="cls-2" d="M4.76,39.58c.2.51.67.56,1.2.69.16-.62-.45-1.4.16-2.33-.35-.46-1-.52-1.16-1.05-.17,0-.33,0-.5,0-.59.96-1.21,1.46-2.21,1.91-.07.72.43,1.52,1.17,1.74-.25-.65-.21-1.38.3-1.86.15.51-.37,1.24-.15,1.72.22.48.74.87,1.27.78-.36-.57-.4-1-.08-1.6Z"/>
              <g>
                <path class="cls-1" d="M69.39,39.09c.05-.08.13-.13.22-.14.05,0,1.18-2.35,1.02-3.46-3.64.16-17.79.63-31.23,1.07.19,1.28.39,2.57.58,3.85.12,0,.23,0,.36.02,2.03.23,2.78,1.89,3.82,4.19.69,1.53,1.56,3.44,3.05,5.46,3.71,5.03,11.35,4.37,15.28,3.18,9.65-3.77,6.9-13.83,6.87-13.93-.03-.09-.01-.18.04-.26Z"/>
                <path class="cls-1" d="M43.77,42.64l-.51-6.54c-.04-.48-.45-.85-.93-.83l-3.1.1c.09.6.18,1.2.27,1.79l2.03-.07.44,5.68c.04.5.47.87.97.83.5-.04.87-.47.83-.97Z"/>
                <path class="cls-1" d="M69.66,40.17c-.5,0-.91-.39-.91-.89l-.06-4.02c0-.5.39-.91.89-.91s.91.39.91.89l.06,4.02c0,.5-.39.91-.89.91Z"/>
                <g class="cls-8">
                  <path class="cls-3" d="M54.07,54.59l5.16-18.23,4.91-.54-4.96,18.85c-1.86-.38-4.3.93-5.12-.08Z"/>
                </g>
                <g class="cls-8">
                  <path class="cls-3" d="M49.55,53.18l5.11-17.6,2.87.14-4.96,18.85c-1.86-.38-2.2-.38-3.02-1.39Z"/>
                </g>
                <g class="cls-8">
                  <polygon class="cls-3" points="61.12 54.45 66.47 35.52 68.17 35.33 62.67 54.24 61.12 54.45"/>
                </g>
                <path class="cls-1" d="M70.5,34.58s0,0,0,.01c0-.05-.02-.1-.02-.15,0-.05,0-.09,0-.14-3.6.15-17.07.61-31.24,1.07.09.6.18,1.2.27,1.79,12.92-.42,26.43-.88,30.71-1.05-.25,1.07-.58,2.26-.65,2.26-.26.03-.5.17-.65.39-.15.22-.19.5-.12.75,0,.02.68,2.43.21,5.29-.62,3.75-2.88,6.42-6.72,7.92-3.79,1.14-11.09,1.78-14.6-2.97-1.45-1.97-2.3-3.85-2.98-5.36-1.08-2.38-1.93-4.27-4.29-4.53-.18-.02-.35-.03-.51-.03.04.28.08.55.12.83.02.33.03.65.03.98.05,0,.1,0,.16.01,1.29.15,1.8,1.17,2.85,3.48.72,1.59,1.61,3.56,3.17,5.68,4.11,5.58,12.37,4.9,16.6,3.62.02,0,.04-.01.07-.02,8.71-3.4,9.55-8.23,7.6-19.84Z"/>
              </g>
              <g>
                <path class="cls-1" d="M8.55,42.09c-.06-.07-.15-.11-.24-.11-.05,0-1.41-2.23-1.35-3.34,3.64-.2,17.77-1.1,31.19-1.97,6.08-.67,6.44,4.17-.2,3.89-.12.01-.23.03-.35.06-2,.42-2.58,2.15-3.39,4.54-.54,1.59-1.21,3.58-2.5,5.73-3.21,5.37-10.87,5.45-14.9,4.65-9.97-2.81-8.21-13.09-8.19-13.19.02-.09,0-.18-.07-.25Z"/>
                <path class="cls-1" d="M34.4,43.13l-.13-6.56c0-.48.36-.89.84-.92l3.1-.2c-.03.6-.06,1.21-.09,1.81l-2.03.13.11,5.7c0,.5-.39.91-.88.92-.5,0-.91-.39-.92-.88Z"/>
                <path class="cls-1" d="M8.38,43.19c.5-.04.86-.48.82-.97l-.33-4.01c-.04-.5-.48-.86-.97-.82s-.86.48-.82.97l.33,4.01c.04.5.48.86.97.82Z"/>
                <g class="cls-8">
                  <path class="cls-3" d="M11.66,54.32l2.93-16.1,4.87-.87-3.68,18.8c-1.88-.26-3.23-.88-4.12-1.83Z"/>
                </g>
                <g class="cls-8">
                  <polygon class="cls-3" points="17.69 56.16 21.77 36.9 23.45 36.6 19.22 55.84 17.69 56.16"/>
                </g>
                <g class="cls-8">
                  <polygon class="cls-3" points="21.19 56.26 25.27 37 28.92 36.64 24.7 55.88 21.19 56.26"/>
                </g>
                <path class="cls-1" d="M7.01,37.71s-.03-.1,0-.18c.03-.06.11-.09.11-.09,0,0,32.5-2.19,32.49-2.07-.03.49,3.63,2.03-1.5,1.91-12.9.83-26.39,1.7-30.66,1.94.35,1.04.8,2.19.86,2.19.27,0,.52.12.69.33.17.2.24.47.19.74,0,.02-.44,2.49.31,5.28.99,3.67,3.49,6.11,7.45,7.23,3.88.76,11.21.69,14.24-4.38,1.25-2.1,1.92-4.05,2.45-5.62.84-2.48,1.5-4.43,3.83-4.93.17-.04,4.09-.33,4.26-.34-.01.28-.56.26-.57.54.01.33-.58,1.18-.55,1.5-.05,0-2.71.06-2.76.07-1.27.27-1.68,1.34-2.5,3.74-.56,1.65-1.25,3.7-2.61,5.97-3.55,5.95-11.84,6.08-16.17,5.22-.02,0-.05-.01-.07-.02-9-2.54-10.3-7.26-9.5-19.01Z"/>
              </g>
            </g>
          </g>
        </g>
      </g>
      <g>
        <path class="cls-4" d="M146.92,71.53c-11.98,5.55-18.83,5.98-25.8,3.91-6.59-1.95-8.28-6.12-9.48-8.62-1.05-2.18-3.24-10.64-3.34-11.03-.13-.21-.29-.4-.48-.56-1.46-1.18-3.74-3.32-3.64-7.06.13-5.26,3.66-6.43,4.74-9.63.48-1.43.72-3.48.77-4.78.25-5.4.35-7.39.39-10.69.04-3.37-.07-5.9-.33-7.72-.3-2.1-.89-3.54-1.78-4.39-.87-.83-3.55-1.34-4.97-1.52h-.03c-1.43-.15-2.57-.13-3.5.08-1.14.25-2.09.92-2.82,1.99-.63.92-1.08,2.17-1.37,3.79-.26,1.42-.51,3.34-.76,5.67-.17,1.43-.3,3-.38,4.69-.08,1.61-.16,2.9-.25,3.84-.84,10.12-1.17,18.76-1.01,25.69.17,7.04,1.04,12.88,2.58,17.37,1.73,5.01,4.3,8.85,6.61,10.77.07.06.37.31.79.62,1.9,1.42,4.02,2.59,6.31,3.21,12.4,3.34,24.55.67,31.65-1.5,1.71-.52,4.44-1.49,6-2.36,5.32-2.98,6.16-5.24,6.42-8.53.28-3.45-3.79-4.4-6.31-3.23Z"/>
        <path class="cls-4" d="M196.29,24.25c.51-1.7,1.6-3.37,3.21-4.2.03-.02.07-.03.1-.05.64-.32.82-1.13.37-1.68-.39-.49-.87-.92-1.44-1.27-1.33-.81-2.82-1.23-4.44-1.23-1.21,0-2.39.24-3.5.73-1.21.52-2.2,1.4-2.95,2.59-.19.31-.54.94-1.37,2.92-.61,1.45-1.32,3.18-2.13,5.14-.85,2.06-1.75,4.33-2.7,6.76-.96,2.45-1.91,4.94-2.82,7.4-.92,2.46-1.79,4.82-2.63,7.08-.86,2.32-1.55,4.25-2.13,5.9,0,0,0,.02,0,.02-.2.58-1.04.52-1.16-.08-.07-.31-.13-.67-.2-1.07v-.04c-.51-2.66-1.03-5.4-1.57-8.23-.55-2.86-1.14-5.62-1.77-8.2-.59-2.46-1.18-4.88-1.75-7.19-.56-2.26-1.08-4.05-1.59-5.49-.38-1.26-1.27-2.25-2.57-2.87-1.12-.53-2.31-.8-3.54-.8-2.31,0-4.14.79-5.45,2.35l-.09.12c-.64.94-1.03,1.92-1.14,2.89-.11.95.06,2.2.54,3.94.16.72.41,1.96.73,3.7.33,1.77.66,3.54.99,5.32v.06c1.26,7.04,2.32,13.06,3.2,18.04.88,5,1.68,9.28,2.38,12.7.71,3.47,1.35,6.28,1.89,8.36.57,2.18,1.13,3.84,1.72,5.1.65,1.4,1.35,2.38,2.13,3,.74.59,1.6,1.03,2.56,1.28.85.25,1.69.37,2.51.37,1.31,0,2.56-.31,3.75-.94,1.91-1,3.33-2.63,4.21-4.82.12-.28.38-.97,1.29-3.75.66-2.01,1.42-4.27,2.25-6.73,1.4-4.27,2.74-8.26,3.99-11.84,1.25-3.58,2.49-7.06,3.68-10.35,1.2-3.3,2.45-6.62,3.74-9.88.83-2.12,1.73-4.37,2.7-6.71.27-.66.2-1.41-.18-2.01-1.16-1.83-1.45-4.3-.83-6.37Z"/>
        <path class="cls-4" d="M243.46,23.83c.52-2.04,1.54-3.58,3.01-4.57.65-.44,1.32-.77,1.99-1.01.1-.24.03-.5-.24-.73-.32-.26-.68-.5-1.07-.69-1.39-.7-2.74-1.01-4.35-1.01-1.21,0-2.39.24-3.5.73-1.21.52-2.2,1.4-2.95,2.59-.19.31-.54.94-1.37,2.92-.61,1.45-1.32,3.18-2.13,5.14-.85,2.06-1.75,4.33-2.7,6.76-.95,2.44-1.9,4.93-2.82,7.4-.92,2.46-1.79,4.82-2.63,7.08-.84,2.28-1.56,4.27-2.13,5.9,0,0,0,.02,0,.02-.2.58-1.04.52-1.16-.08-.07-.31-.13-.67-.2-1.07v-.04c-.51-2.66-1.03-5.4-1.57-8.23-.55-2.86-1.14-5.62-1.77-8.2-.59-2.46-1.18-4.88-1.75-7.19-.56-2.26-1.08-4.05-1.59-5.49-.38-1.26-1.27-2.25-2.57-2.87-1.12-.53-2.31-.8-3.54-.8-2.31,0-4.14.79-5.45,2.35l-.09.12c-.64.94-1.03,1.92-1.14,2.89-.11.95.06,2.2.54,3.94.16.72.41,1.96.73,3.7.33,1.77.66,3.54.99,5.32v.06c1.26,7.04,2.32,13.06,3.2,18.04.88,5.01,1.68,9.28,2.38,12.7.71,3.47,1.35,6.28,1.89,8.36.57,2.18,1.13,3.84,1.72,5.1.65,1.4,1.35,2.38,2.13,3,.74.59,1.6,1.03,2.56,1.28.85.25,1.69.37,2.51.37,1.31,0,2.56-.31,3.75-.94,1.91-1,3.33-2.63,4.21-4.82.12-.28.38-.97,1.29-3.75.66-2.02,1.42-4.28,2.25-6.73,1.4-4.27,2.74-8.25,3.99-11.84,1.25-3.58,2.49-7.06,3.68-10.35.7-1.91,1.32-3.72,1.99-5.56-.17-1.53-.27-3.14-.29-4.83-.05-4.59.69-9.64,2.18-15Z"/>
        <path class="cls-4" d="M296.34,42.6c-.09-1.13-.29-2.66-.59-4.56-.29-1.82-.57-3.75-.83-5.75-.26-1.99-.52-3.87-.78-5.58-.26-1.73-.48-3.01-.66-3.83-.84-4.31-3.66-6.59-8.15-6.59-1.2,0-2.19.12-3.04.36-.97.28-1.83.8-2.55,1.57-.64.69-1.2,1.57-1.7,2.71-.45,1.02-.93,2.3-1.47,3.93v.03c-.85,2.73-1.87,5.5-3.05,8.23-1.18,2.74-2.44,5.3-3.73,7.61-1.3,2.31-2.59,4.34-3.83,6.03-.4.54-.78,1.03-1.15,1.46-.59.69-1.71.4-1.9-.49-.28-1.27-.6-2.92-.73-4.24-.25-2.53-.34-5.37-.25-8.44.08-3.04.38-5.89.87-8.47.53-2.49.12-4.47-1.22-5.89-1.3-1.37-2.94-2.06-4.87-2.06-1.54,0-3.04.49-4.47,1.45-1.48.99-2.49,2.53-3.01,4.57-1.49,5.36-2.22,10.41-2.18,15,.04,4.62.68,8.67,1.89,12.02,1.24,3.45,3.04,6.2,5.34,8.18,2.4,2.07,5.17,3.13,8.24,3.13,2.53,0,5.24-.83,8.06-2.46,2.74-1.59,5.5-4.15,8.19-7.6.4-.51.75-.93,1.06-1.29.64-.74,1.86-.33,1.92.65.02.34.04.72.05,1.15.08,2.7-.04,8.6-.37,11.05-.33,2.42-.87,4.62-1.59,6.55-.72,1.9-1.58,3.53-2.57,4.84-.91,1.21-5.22,4.52-11.7,1.23-1.61-.82-2.96-2.13-4.1-3.79l-.02-.02c-2.68-3.76-5.86-4.22-8.05-3.94-1.52.19-2.96.86-4.3,1.99l-.02.02c-1.97,1.73-2.52,3.95-1.58,6.41.8,2.09,2.28,4.1,4.41,5.97,2.07,1.83,4.78,3.11,7.69,4.61,8.77,4.52,20.75,1.47,23.67-.22,3.54-2.05,6.47-5.15,8.71-9.22,2.18-3.97,3.69-12.14,4.49-17.78.79-5.57.74-11.81-.12-18.52Z"/>
        <path class="cls-4" d="M147.03,55.12c-1.87,1.47-4.58,2.57-7.85,2.92-2.1.22-7.18.4-10.64-2.89-1.18-1.12-1.15-2.9-.8-3.65.42-.91,1.52-1.22,2.34-.7,1.55.98,4.78,2.55,8.94,2.1,3.82-.41,6.57-2.35,8.16-3.84.43-.4,1.42-1.76,1.68-2.29,1.92-3.99,2.45-8.8.7-14.25-1.27-3.91-3.26-6.81-5.91-8.63-2.63-1.8-5.55-2.72-8.69-2.72-2.18,0-4.38.42-6.56,1.25-2.15.82-4.2,2.03-6.12,3.59-1.9,1.55-3.65,3.49-5.18,5.77-1.54,2.28-2.77,4.93-3.63,7.83-.3.97-.53,1.58-.85,2.19-.31.58-.86,1.38-1.44,2.01l-.02.02c-1.45,1.65-2.1,3.51-1.94,5.54.16,2.04,1.18,3.74,2.94,4.92.18.16.27.28.31.35.02.03.17.32.48,1.48,1.9,7.06,6.86,14.13,14.29,16.01,3.83.97,7.95.4,11.6-1.11,5.2-2.15,10.31-6.02,12.76-11.18.94-1.99-.14-8.2-4.56-4.74ZM124.95,41.39c-.2-.27,1.37-1.04,3.61-5.56,1.2-2.41,2.1-4.25,2.96-4.28.23,0-.24,2.35.13,2.42.33.06.98-1.97,1.96-3.19.82-1.03,1.91-1.84,2.15-1.64.29.24-1.27,3.5-1.07,3.64.15.1,1.2-2.38,2.27-3,.83-.48,2.24-.61,2.01-.42-1.51,1.21-2.03,3.41-1.99,3.47.16.24,1.69-2.14,3.25-1.85.8.15-.97.98-1.94,3.4-4.95,12.3-12.49,8.13-13.33,7.02Z"/>
        <path class="cls-7" d="M193.67,21.63c.51-1.7,1.6-3.37,3.21-4.2.03-.02.07-.03.1-.05.64-.32.82-1.13.37-1.68-.39-.49-.87-.92-1.44-1.27-1.33-.81-2.82-1.23-4.44-1.23-1.21,0-2.39.24-3.5.73-1.21.52-2.2,1.4-2.95,2.59-.19.31-.54.94-1.37,2.92-.61,1.45-1.32,3.18-2.13,5.14-.85,2.06-1.75,4.33-2.7,6.76-.96,2.45-1.91,4.94-2.82,7.4-.92,2.46-1.79,4.82-2.63,7.08-.86,2.32-1.55,4.25-2.13,5.9,0,0,0,.02,0,.02-.2.58-1.04.52-1.16-.08-.07-.31-.13-.67-.2-1.07v-.04c-.51-2.66-1.03-5.4-1.57-8.23-.55-2.86-1.14-5.62-1.77-8.2-.59-2.46-1.18-4.88-1.75-7.19-.56-2.26-1.08-4.05-1.59-5.49-.38-1.26-1.27-2.25-2.57-2.87-1.12-.53-2.31-.8-3.54-.8-2.31,0-4.14.79-5.45,2.35l-.09.12c-.64.94-1.03,1.92-1.14,2.89-.11.95.06,2.2.54,3.94.16.72.41,1.96.73,3.7.33,1.77.66,3.54.99,5.32v.06c1.26,7.04,2.32,13.06,3.2,18.04.88,5,1.68,9.28,2.38,12.7.71,3.47,1.35,6.28,1.89,8.36.57,2.18,1.13,3.84,1.72,5.1.65,1.4,1.35,2.38,2.13,3,.74.59,1.6,1.03,2.56,1.28.85.25,1.69.37,2.51.37,1.31,0,2.56-.31,3.75-.94,1.91-1,3.33-2.63,4.21-4.82.12-.28.38-.97,1.29-3.75.66-2.01,1.42-4.27,2.25-6.73,1.4-4.27,2.74-8.26,3.99-11.84,1.25-3.58,2.49-7.06,3.68-10.35,1.2-3.3,2.45-6.62,3.74-9.88.83-2.12,1.73-4.37,2.7-6.71.27-.66.2-1.41-.18-2.01-1.16-1.83-1.45-4.3-.83-6.37Z"/>
        <path class="cls-7" d="M143.89,70.27c-11.98,5.55-18.83,5.98-25.8,3.91-6.59-1.95-8.28-6.12-9.48-8.62-1.05-2.18-3.24-10.64-3.34-11.03-.13-.21-.29-.4-.48-.56-1.46-1.18-3.74-3.32-3.64-7.06.13-5.26,3.66-6.43,4.74-9.63.48-1.43.72-3.48.77-4.78.25-5.4.35-7.39.39-10.69.04-3.37-.07-5.9-.33-7.72-.3-2.1-.89-3.54-1.78-4.39-.87-.83-3.55-1.34-4.97-1.52h-.03c-1.43-.15-2.57-.13-3.5.08-1.14.25-2.09.92-2.82,1.99-.63.92-1.08,2.17-1.37,3.79-.26,1.42-.51,3.34-.76,5.67-.17,1.43-.3,3-.38,4.69-.08,1.61-.16,2.9-.25,3.84-.84,10.12-1.17,18.76-1.01,25.69.17,7.04,1.04,12.88,2.58,17.37,1.73,5.01,4.3,8.85,6.61,10.77.07.06.37.31.79.62,1.9,1.42,4.02,2.59,6.31,3.21,12.4,3.34,24.55.67,31.65-1.5,1.71-.52,4.44-1.49,6-2.36,5.32-2.98,6.16-5.24,6.42-8.53.28-3.45-3.79-4.4-6.31-3.23Z"/>
        <path class="cls-7" d="M240.84,21.21c.52-2.04,1.54-3.58,3.01-4.57.65-.44,1.32-.77,1.99-1.01.1-.24.03-.5-.24-.73-.32-.26-.68-.5-1.07-.69-1.39-.7-2.74-1.01-4.35-1.01-1.21,0-2.39.24-3.5.73-1.21.52-2.2,1.4-2.95,2.59-.19.31-.54.94-1.37,2.92-.61,1.45-1.32,3.18-2.13,5.14-.85,2.06-1.75,4.33-2.7,6.76-.95,2.44-1.9,4.93-2.82,7.4-.92,2.46-1.79,4.82-2.63,7.08-.84,2.28-1.56,4.27-2.13,5.9,0,0,0,.02,0,.02-.2.58-1.04.52-1.16-.08-.07-.31-.13-.67-.2-1.07v-.04c-.51-2.66-1.03-5.4-1.57-8.23-.55-2.86-1.14-5.62-1.77-8.2-.59-2.46-1.18-4.88-1.75-7.19-.56-2.26-1.08-4.05-1.59-5.49-.38-1.26-1.27-2.25-2.57-2.87-1.12-.53-2.31-.8-3.54-.8-2.31,0-4.14.79-5.45,2.35l-.09.12c-.64.94-1.03,1.92-1.14,2.89-.11.95.06,2.2.54,3.94.16.72.41,1.96.73,3.7.33,1.77.66,3.54.99,5.32v.06c1.26,7.04,2.32,13.06,3.2,18.04.88,5.01,1.68,9.28,2.38,12.7.71,3.47,1.35,6.28,1.89,8.36.57,2.18,1.13,3.84,1.72,5.1.65,1.4,1.35,2.38,2.13,3,.74.59,1.6,1.03,2.56,1.28.85.25,1.69.37,2.51.37,1.31,0,2.56-.31,3.75-.94,1.91-1,3.33-2.63,4.21-4.82.12-.28.38-.97,1.29-3.75.66-2.02,1.42-4.28,2.25-6.73,1.4-4.27,2.74-8.25,3.99-11.84,1.25-3.58,2.49-7.06,3.68-10.35.7-1.91,1.32-3.72,1.99-5.56-.17-1.53-.27-3.14-.29-4.83-.05-4.59.69-9.64,2.18-15Z"/>
        <path class="cls-7" d="M293.72,39.98c-.09-1.13-.29-2.66-.59-4.56-.29-1.82-.57-3.75-.83-5.75-.26-1.99-.52-3.87-.78-5.58-.26-1.73-.48-3.01-.66-3.83-.84-4.31-3.66-6.59-8.15-6.59-1.2,0-2.19.12-3.04.36-.97.28-1.83.8-2.55,1.57-.64.69-1.2,1.57-1.7,2.71-.45,1.02-.93,2.3-1.47,3.93v.03c-.85,2.73-1.87,5.5-3.05,8.23-1.18,2.74-2.44,5.3-3.73,7.61-1.3,2.31-2.59,4.34-3.83,6.03-.4.54-.78,1.03-1.15,1.46-.59.69-1.71.4-1.9-.49-.28-1.27-.6-2.92-.73-4.24-.25-2.53-.34-5.37-.25-8.44.08-3.04.38-5.89.87-8.47.53-2.49.12-4.47-1.22-5.89-1.3-1.37-2.94-2.06-4.87-2.06-1.54,0-3.04.49-4.47,1.45-1.48.99-2.49,2.53-3.01,4.57-1.49,5.36-2.22,10.41-2.18,15,.04,4.62.68,8.67,1.89,12.02,1.24,3.45,3.04,6.2,5.34,8.18,2.4,2.07,5.17,3.13,8.24,3.13,2.53,0,5.24-.83,8.06-2.46,2.74-1.59,5.5-4.15,8.19-7.6.4-.51.75-.93,1.06-1.29.64-.74,1.86-.33,1.92.65.02.34.04.72.05,1.15.08,2.7-.04,8.6-.37,11.05-.33,2.42-.87,4.62-1.59,6.55-.72,1.9-1.58,3.53-2.57,4.84-.91,1.21-5.22,4.52-11.7,1.23-1.61-.82-2.96-2.13-4.1-3.79l-.02-.02c-2.68-3.76-5.86-4.22-8.05-3.94-1.52.19-2.96.86-4.3,1.99l-.02.02c-1.97,1.73-2.52,3.95-1.58,6.41.8,2.09,2.28,4.1,4.41,5.97,2.07,1.83,4.78,3.11,7.69,4.61,8.77,4.52,20.75,1.47,23.67-.22,3.54-2.05,6.47-5.15,8.71-9.22,2.18-3.97,3.69-12.14,4.49-17.78.79-5.57.74-11.81-.12-18.52Z"/>
        <path class="cls-7" d="M144.41,52.5c-1.87,1.47-4.58,2.57-7.85,2.92-2.1.22-7.18.4-10.64-2.89-1.18-1.12-1.15-2.9-.8-3.65.42-.91,1.52-1.22,2.34-.7,1.55.98,4.78,2.55,8.94,2.1,3.82-.41,6.57-2.35,8.16-3.84.43-.4,1.42-1.76,1.68-2.29,1.92-3.99,2.45-8.8.7-14.25-1.27-3.91-3.26-6.81-5.91-8.63-2.63-1.8-5.55-2.72-8.69-2.72-2.18,0-4.38.42-6.56,1.25-2.15.82-4.2,2.03-6.12,3.59-1.9,1.55-3.65,3.49-5.18,5.77-1.54,2.28-2.77,4.93-3.63,7.83-.3.97-.53,1.58-.85,2.19-.31.58-.86,1.38-1.44,2.01l-.02.02c-1.45,1.65-2.1,3.51-1.94,5.54.16,2.04,1.18,3.74,2.94,4.92.18.16.27.28.31.35.02.03.17.32.48,1.48,1.9,7.06,6.86,14.13,14.29,16.01,3.83.97,7.95.4,11.6-1.11,5.2-2.15,10.31-6.02,12.76-11.18.94-1.99-.14-8.2-4.56-4.74ZM122.33,38.78c-.2-.27,1.37-1.04,3.61-5.56,1.2-2.41,2.1-4.25,2.96-4.28.23,0-.24,2.35.13,2.42.33.06.98-1.97,1.96-3.19.82-1.03,1.91-1.84,2.15-1.64.29.24-1.27,3.5-1.07,3.64.15.1,1.2-2.38,2.27-3,.83-.48,2.24-.61,2.01-.42-1.51,1.21-2.03,3.41-1.99,3.47.16.24,1.69-2.14,3.25-1.85.8.15-.97.98-1.94,3.4-4.95,12.3-12.49,8.13-13.33,7.02Z"/>
      </g>
    </g>
  </g>
</svg>