<?xml version="1.0" encoding="UTF-8"?>
<svg id="Layer_2" data-name="Layer 2" xmlns="http://www.w3.org/2000/svg" xmlns:xlink="http://www.w3.org/1999/xlink" viewBox="0 0 218.69 217.54">
  <defs>
    <style>
      .cls-1 {
        fill: #68382f;
      }

      .cls-1, .cls-2, .cls-3, .cls-4, .cls-5, .cls-6, .cls-7, .cls-8, .cls-9 {
        stroke-width: 0px;
      }

      .cls-2 {
        fill: #d3a17f;
      }

      .cls-10 {
        opacity: .35;
      }

      .cls-3 {
        fill: none;
      }

      .cls-4 {
        fill: #f4d4d3;
      }

      .cls-5 {
        fill: #44b26f;
      }

      .cls-11 {
        clip-path: url(#clippath-1);
      }

      .cls-12 {
        opacity: .15;
      }

      .cls-6 {
        fill: #fff;
      }

      .cls-13 {
        opacity: .3;
      }

      .cls-14 {
        clip-path: url(#clippath);
      }

      .cls-7 {
        fill: #3f211d;
      }

      .cls-8 {
        fill: #28100f;
      }

      .cls-9 {
        fill: #d1a576;
      }
    </style>
    <clipPath id="clippath">
      <path class="cls-3" d="M116.69,49.05c0-.57.03-1.15.2-1.69.31-.96,1.08-1.71,1.94-2.25,1.32-.83,2.85-1.23,4.37-1.53,2.96-.59,5.97-.87,8.98-.83,3.06.04,6.19.43,8.92,1.81.79.4,1.57.92,1.93,1.73.2.45.24.96.27,1.45.22,4.28-.73,8.61-2.7,12.42-.7,1.35-1.58,2.68-2.86,3.49-1.11.7-2.43.95-3.72,1.1-2.59.29-5.22.21-7.78-.25-1.74-.31-3.52-.84-4.98-1.87-.78-.54-1.6-1.32-2.07-2.14-.41-.72-.73-1.54-.99-2.37-.15-.45-.28-.9-.4-1.33-.74-2.51-1.11-5.13-1.09-7.74Z"/>
    </clipPath>
    <clipPath id="clippath-1">
      <path class="cls-3" d="M94.27,61.59c-.37.88-1.08,1.77-1.78,2.42-1.32,1.22-3.01,1.99-4.7,2.55-2.48.81-5.07,1.26-7.67,1.34-1.3.04-2.64-.03-3.83-.56-1.38-.62-2.41-1.81-3.29-3.05-2.45-3.49-3.95-7.66-4.29-11.93-.04-.49-.06-1,.08-1.48.25-.85.96-1.48,1.69-1.98,2.53-1.75,5.58-2.58,8.6-3.05,2.98-.46,6-.61,9.01-.44,1.55.09,3.12.27,4.53.9.91.41,1.77,1.05,2.21,1.95.25.51.34,1.08.42,1.65.36,2.59.33,5.24-.08,7.83-.07.45-.14.91-.23,1.38-.16.85-.36,1.72-.68,2.48"/>
    </clipPath>
  </defs>
  <g id="Layer_4" data-name="Layer 4">
    <g>
      <g class="cls-12">
        <ellipse class="cls-4" cx="108.38" cy="210.81" rx="76.33" ry="6.73"/>
      </g>
      <g>
        <path class="cls-1" d="M157.85,147.17c-.05,1.05-.13,2.1-.26,3.13-.33,2.9-.94,5.73-1.8,8.43-2.97,9.38-8.93,17.27-16.91,21.45l-.45.23c-9.05,4.74-18.65,7.15-28.24,7.26-1.27.01-2.53-.01-3.8-.08-9.58-.51-19.09-3.34-27.93-8.47-7.83-4.54-13.48-12.73-16.04-22.29-.25-.93-.47-1.88-.66-2.83-.37-1.81-.62-3.66-.76-5.53-.08-1.11-.13-2.23-.13-3.36,0-.31,0-.61,0-.92.05-2.82.36-5.67.95-8.51,2.09-10.04,4.72-19.06,7.08-26.15,1.36-4.08,4.09-1.57,5.1-4.2.08-.21,1.9-1.21,1.98-1.4.82-2.1.42-4.68.78-5.51.2-.47.31-.72.31-.72l62.17-2.89s4.71,2.56,4.92,3.1c.35.92,2.91.45,3.71,2.78.07.2.14.4.21.61,1.04,3.06,2.34,7.11,3.69,11.9,1.91,6.77,3.92,15.02,5.46,24.07.57,3.31.75,6.64.6,9.9Z"/>
        <g class="cls-12">
          <path class="cls-7" d="M156.93,147s0-.07,0-.11c.01-.31.02-.61.03-.92.05-2.82-.15-5.68-.64-8.54-1.71-10.11-4.01-19.22-6.1-26.39-1.2-4.12-2.34-7.61-3.25-10.27-.07-.21-.14-.41-.21-.61-.74-2.13-1.32-3.67-1.64-4.51-.18-.48-.28-.73-.28-.73l-2.76-.05v.33s-.65,17.06-.65,17.06c0,0-.78,19.27,6.42,33.47.08.15.15.3.23.45-9.39,1.4-6.01,4.33-33.23,14.14-3.21,1.16-5.38,3.27-6.73,5.89-1.25-2.66-3.34-4.86-6.5-6.13-26.1-10.51-23.52-13.45-31.94-15.22.11-.19.22-.38.32-.57,7.72-13.92,7.65-33.2,7.65-33.2v-14.48c-1.47.96-3.12,1.46-4.78,1.96-.03.07-.06.14-.09.22-.08.2-.15.4-.24.61-1.01,2.62-2.28,6.07-3.63,10.14-2.36,7.09-4.99,16.11-7.08,26.15-.59,2.84-.9,5.69-.95,8.51,0,.23,0,.47,0,.7-.19.07-.38.14-.57.21,0,4.03.54,7.98,1.54,11.73,2.56,9.56,8.21,17.75,16.04,22.29,8.84,5.14,18.35,7.96,27.93,8.47.73-1.1,1.4-2.42,1.97-3.88.52,1.48,1.14,2.83,1.83,3.96,9.59-.1,19.19-2.51,28.24-7.26l.45-.23c7.98-4.18,13.94-12.07,16.91-21.45,1.16-3.67,1.86-7.57,2.05-11.56-.12-.06-.23-.11-.35-.16Z"/>
        </g>
        <path class="cls-7" d="M109.58,189c-10.89,0-21.75-2.92-31.78-8.73-13.75-7.97-21.01-26.84-17.26-44.87,1.8-8.64,4.19-17.49,7.12-26.3,3.37-10.14,8.57-13.43,8.79-13.57l.3-.19,67.41-1.8.41.57c.22.3,5.32,7.47,8.49,18.72,2.29,8.14,4.14,16.28,5.49,24.21,3.11,18.26-4.91,36.89-19.06,44.31l-.45.24c-9.43,4.94-19.46,7.41-29.47,7.41ZM77.58,97.98c-1.01.78-4.78,4.08-7.41,11.96-2.9,8.71-5.27,17.46-7.04,26-3.52,16.94,3.21,34.62,16,42.04,18.44,10.69,39.83,11.16,58.69,1.27l.45-.24c13.16-6.9,20.6-24.36,17.67-41.52-1.33-7.83-3.16-15.89-5.43-23.93-2.55-9.03-6.47-15.44-7.71-17.33l-65.22,1.74Z"/>
        <g>
          <g>
            <path class="cls-6" d="M108.29,176.97c-4.18,2.23-8.47,4-8.71,4.9-.67,2.53,11.82,6.55,17.91,2.17"/>
            <path class="cls-7" d="M110.29,186.74c-4.04,0-8.07-1.22-10.03-2.57-1.44-1-1.56-1.9-1.41-2.49.24-.91,1.71-1.67,5.3-3.45,1.19-.59,2.49-1.23,3.78-1.92.66-.35,1.23-.74,1.73-1.08,1.25-.85,2.43-1.65,3.9-.85h0c1.44.78,6.15,3.56,6.35,6.76.08,1.33-.58,2.51-1.98,3.52-2.1,1.51-4.87,2.08-7.64,2.08ZM100.29,182.13s.14.32.83.79c2.91,2.01,11.39,3.77,15.94.5.96-.69,1.41-1.41,1.36-2.2-.12-1.93-3.07-4.18-5.56-5.53h0c-.62-.33-1.08-.08-2.34.77-.53.36-1.13.77-1.87,1.16-1.3.7-2.62,1.35-3.82,1.94-1.89.94-4.25,2.1-4.54,2.56,0,0,0,0,0,0Z"/>
          </g>
          <g>
            <path class="cls-6" d="M106.18,169.95c-4.53,1.4-9.07,2.33-9.47,3.17-1.13,2.36,10.39,8.66,17.19,5.52"/>
            <path class="cls-7" d="M109.57,180.24c-5.03,0-10.5-2.59-12.62-4.74-1.23-1.25-1.18-2.16-.92-2.71.41-.85,1.99-1.32,5.85-2.39,1.28-.35,2.68-.74,4.07-1.17.72-.22,1.34-.49,1.9-.73,1.38-.6,2.69-1.16,3.99-.1h0c1.27,1.04,5.38,4.66,4.97,7.84-.17,1.32-1.04,2.35-2.6,3.07-1.41.65-3.01.93-4.65.93ZM97.35,173.51s.08.33.67.94c2.49,2.52,10.49,5.85,15.57,3.51,1.07-.5,1.64-1.12,1.74-1.9.24-1.92-2.24-4.69-4.43-6.49-.54-.44-1.04-.29-2.45.32-.59.25-1.26.54-2.05.79-1.41.44-2.83.83-4.12,1.19-2.03.56-4.56,1.26-4.94,1.65,0,0,0,0,0,0Z"/>
          </g>
          <g>
            <path class="cls-6" d="M112.66,162.97c-.92-1.49-2.58-.7-5.21-.8-4.72-.17-9.31-.79-9.95-.13-1.83,1.86,7.02,11.63,14.45,10.9,5.86-.58,2.07-7.78.71-9.97Z"/>
            <path class="cls-7" d="M111.81,173.96c-6.05,0-12.54-5.89-14.2-9.36-.76-1.59-.41-2.43,0-2.86.66-.67,2.3-.59,6.29-.33,1.32.09,2.76.18,4.22.23.75.03,1.43-.02,2.03-.07,1.5-.11,2.91-.21,3.8,1.22.87,1.4,3.59,6.21,2.16,9.08-.59,1.18-1.74,1.87-3.44,2.04-.29.03-.58.04-.88.04ZM98.63,162.84s-.04.33.34,1.11c1.54,3.21,8.03,9.01,13.57,8.47,1.16-.11,1.9-.51,2.24-1.21.86-1.73-.59-5.19-2.1-7.62h0c-.37-.6-.89-.62-2.41-.51-.64.05-1.36.1-2.19.07-1.47-.05-2.93-.15-4.27-.24-2.09-.14-4.7-.31-5.19-.07,0,0,0,0,0,0Z"/>
          </g>
          <g>
            <path class="cls-2" d="M111.5,182.66c9.82,5.83,34.88,5.39,45.26-3.34,17.32-14.57,5.3-28.47-7.34-27.61-12.27.84-6.2,2.69-35.01,9.94-12.79,3.22-8.59,17.62-2.9,21Z"/>
            <path class="cls-2" d="M111.5,182.66c9.82,5.83,34.88,5.39,45.26-3.34,17.32-14.57,5.3-28.47-7.34-27.61-12.27.84-6.2,2.69-35.01,9.94-12.79,3.22-8.59,17.62-2.9,21Z"/>
            <path class="cls-1" d="M111.5,182.66c9.82,5.83,34.88,5.39,45.26-3.34,17.32-14.57,5.3-28.47-7.34-27.61-12.27.84-6.2,2.69-35.01,9.94-12.79,3.22-8.59,17.62-2.9,21Z"/>
            <g class="cls-10">
              <path class="cls-7" d="M156.76,179.32c-10.38,8.73-35.44,9.17-45.25,3.34-3.77-2.24-6.88-9.3-4.85-14.76.88,3.24,2.83,6.1,4.98,7.39,9.82,5.83,34.88,5.39,45.25-3.34,4.41-3.71,6.91-7.37,7.99-10.76,1.55,5.02-.26,11.51-8.13,18.13Z"/>
            </g>
            <path class="cls-7" d="M130.33,187.22c-7.62,0-14.82-1.34-19.19-3.94h0c-3.41-2.03-6.52-7.9-5.71-13.41.65-4.48,3.78-7.64,8.8-8.9,14.63-3.68,20.16-5.94,23.82-7.43,3.45-1.41,5.19-2.12,11.32-2.53,6.89-.48,13.56,3.32,15.86,9.02,2.51,6.22-.41,13.45-8.01,19.85-5.91,4.97-16.77,7.35-26.89,7.35ZM111.87,182.05c9.81,5.83,34.45,5.13,44.43-3.27,9.72-8.18,8.93-14.92,7.6-18.22-2.08-5.14-8.14-8.54-14.44-8.12-5.9.4-7.46,1.04-10.87,2.43-3.7,1.51-9.28,3.78-24.02,7.49-5.67,1.43-7.34,4.98-7.73,7.72-.71,4.87,2.08,10.22,5.03,11.97h0Z"/>
          </g>
          <g>
            <g>
              <path class="cls-6" d="M115.32,178.57c4.1,2.38,8.32,4.32,8.52,5.22.58,2.55-12.05,6.1-17.98,1.51"/>
              <path class="cls-7" d="M113.72,188.27c-3.02,0-6.09-.65-8.32-2.38-1.36-1.06-1.98-2.26-1.85-3.59.32-3.19,5.13-5.79,6.59-6.52h0c1.5-.74,2.65.1,3.87,1,.49.36,1.04.76,1.69,1.14,1.27.74,2.54,1.43,3.71,2.06,3.52,1.91,4.96,2.72,5.17,3.64.13.59-.02,1.49-1.5,2.44-1.88,1.2-5.58,2.21-9.35,2.21ZM111.29,177.01c-.16,0-.31.04-.48.12h0c-2.54,1.25-5.57,3.4-5.76,5.32-.08.79.34,1.52,1.27,2.25,4.43,3.43,12.96,1.99,15.95.09.74-.47.85-.79.84-.84-.25-.39-2.56-1.64-4.42-2.65-1.18-.64-2.47-1.34-3.75-2.08-.72-.42-1.3-.85-1.82-1.23-.9-.66-1.39-.98-1.83-.98ZM110.47,176.46h0,0Z"/>
            </g>
            <g>
              <path class="cls-6" d="M117.69,171.63c4.47,1.57,8.97,2.67,9.34,3.51,1.04,2.4-10.71,8.27-17.39,4.87"/>
              <path class="cls-7" d="M114.48,181.8c-1.84,0-3.62-.32-5.17-1.11-1.53-.78-2.37-1.84-2.49-3.17-.28-3.19,3.96-6.66,5.26-7.65h0c1.34-1.01,2.62-.4,3.99.25.55.26,1.16.55,1.87.8,1.38.48,2.76.92,4.02,1.32,3.82,1.21,5.39,1.74,5.76,2.6.24.56.26,1.47-1.02,2.67-2.12,2-7.36,4.28-12.23,4.28ZM113.63,170.84c-.23,0-.43.07-.64.23h0c-2.26,1.71-4.84,4.39-4.67,6.32.07.78.62,1.43,1.67,1.96,4.99,2.53,13.11-.5,15.69-2.93.64-.6.69-.94.67-.98-.32-.34-2.83-1.13-4.84-1.77-1.27-.4-2.67-.85-4.06-1.34-.78-.27-1.44-.59-2.02-.86-.87-.42-1.39-.64-1.79-.64ZM112.54,170.47h0,0Z"/>
            </g>
            <g>
              <path class="cls-6" d="M111.47,164.42c.97-1.45,2.61-.61,5.24-.61,4.72,0,9.33-.44,9.95.24,1.75,1.93-7.45,11.37-14.85,10.36-5.83-.79-1.78-7.85-.34-9.99Z"/>
              <path class="cls-7" d="M112.27,175.44c-.41,0-.82-.03-1.23-.08-1.69-.23-2.82-.96-3.36-2.16-1.31-2.92,1.58-7.62,2.5-8.99h0c.94-1.4,2.35-1.24,3.84-1.08.62.07,1.34.14,2.12.14,1.42,0,2.84-.04,4.13-.08,4-.11,5.64-.13,6.28.56.41.45.72,1.31-.1,2.86-1.75,3.34-8.23,8.83-14.18,8.83ZM112.6,164.52c-.6,0-.91.13-1.17.52h0c-1.59,2.38-3.17,5.78-2.38,7.54.32.71,1.04,1.13,2.2,1.29,5.52.75,12.22-4.8,13.87-7.96.41-.79.35-1.12.32-1.15-.41-.21-3.02-.13-5.12-.07-1.33.04-2.81.07-4.27.08-.83,0-1.55-.08-2.18-.15-.53-.06-.93-.1-1.26-.1ZM110.8,164.62h0,0Z"/>
            </g>
            <g>
              <path class="cls-2" d="M111.9,184.14c-10.03,5.47-35.05,4.09-45.1-5.02-16.76-15.2-4.24-28.65,8.36-27.31,12.23,1.29,6.1,2.92,34.62,11.24,12.66,3.69,7.93,17.93,2.12,21.1Z"/>
              <path class="cls-2" d="M111.9,184.14c-10.03,5.47-35.05,4.09-45.1-5.02-16.76-15.2-4.24-28.65,8.36-27.31,12.23,1.29,6.1,2.92,34.62,11.24,12.66,3.69,7.93,17.93,2.12,21.1Z"/>
              <path class="cls-1" d="M111.9,184.14c-10.03,5.47-35.05,4.09-45.1-5.02-16.76-15.2-4.24-28.65,8.36-27.31,12.23,1.29,6.1,2.92,34.62,11.24,12.66,3.69,7.93,17.93,2.12,21.1Z"/>
              <g class="cls-10">
                <path class="cls-7" d="M66.8,179.12c10.05,9.11,35.07,10.48,45.1,5.02,3.85-2.1,7.22-9.04,5.39-14.57-1,3.2-3.05,5.99-5.25,7.2-10.03,5.47-35.05,4.09-45.1-5.02-4.27-3.87-6.64-7.63-7.59-11.05-1.74,4.96-.17,11.51,7.45,18.42Z"/>
              </g>
              <path class="cls-7" d="M95.28,188.04c-10.76,0-22.79-2.79-28.96-8.39-7.36-6.68-10.01-14.01-7.27-20.14,2.51-5.61,9.31-9.15,16.19-8.42,6.11.65,7.82,1.42,11.21,2.95,3.6,1.63,9.04,4.08,23.53,8.31,4.97,1.45,7.98,4.73,8.47,9.22.6,5.54-2.73,11.29-6.21,13.19-4,2.18-10.23,3.27-16.96,3.27ZM73.43,152.43c-5.68,0-11.01,3.06-13.08,7.67-1.45,3.24-2.48,9.96,6.92,18.49,9.66,8.76,34.25,10.38,44.27,4.92h0c3.01-1.64,6-6.88,5.47-11.78-.3-2.75-1.83-6.36-7.44-8-14.59-4.25-20.08-6.74-23.72-8.38-3.36-1.52-4.9-2.21-10.78-2.83-.55-.06-1.1-.09-1.65-.09Z"/>
            </g>
          </g>
        </g>
        <g class="cls-10">
          <path class="cls-7" d="M68.85,121.24c.25-.65.4-1.09.47-1.29l-.12.37s-.11.33-.35.93Z"/>
        </g>
        <g class="cls-10">
          <path class="cls-7" d="M69.35,119.85l-.03.09s.02-.08.03-.09Z"/>
        </g>
        <g>
          <path class="cls-1" d="M83.32,88.33l-1.75,5.22-3.33,9.95-5.49,20.15s-5.97,14.36-19.37,24.48c-4.34,3.28-9.45,5.7-15.38,6.36-40.2,4.47-26.45-25.37-26.45-25.37,0,0,19.72-2.21,26.37-4.35,9.03-2.9,13.29-16.69,26.69-27.14,1.61-1.25,3.35-2.46,5.24-3.59.4-.24.8-.47,1.21-.7,3.52-1.98,7.57-3.7,12.26-5.03Z"/>
          <g class="cls-12">
            <path class="cls-7" d="M72.29,121.15c-1.69,4.4-7.49,17.89-18.09,26.35-.08.06-.16.13-.23.19-.19.15-.39.3-.58.45-4.34,3.28-9.45,5.7-15.38,6.36-40.2,4.47-26.45-25.37-26.45-25.37,0,0,15.89-2.38,22.8-3.44,2.88,5.92-6.25,8.07-6.34,13.05-.09,4.9,2.14,6.7,6.33,7.68,7.28,1.69,14.98.02,20.96-4.47.04-.03.08-.06.12-.09,11.09-8.38,15.65-17.74,16.89-20.71Z"/>
          </g>
          <path class="cls-7" d="M30.92,155.8c-.14,0-.27,0-.41,0l-2.39-.04c-.19,0-.38-.02-.57-.03l-1.05-.08c-.82-.06-1.67-.12-2.53-.26l-.53-.07c-.36-.05-.72-.1-1.08-.16l-1.64-.35c-1.69-.42-4.17-1.12-6.43-2.48-2.16-1.28-3.92-2.98-5.1-4.9-1.16-1.89-1.87-4.07-2.11-6.49-.2-1.97-.07-4.08.4-6.46.23-1.13.5-2.14.81-3.08.16-.5.33-1,.53-1.5.2-.51.39-.98.65-1.53l.53-1.12,1.3-.14c2.11-.23,4.26-.44,6.42-.64,5.07-.48,10.32-.99,15.19-1.86,1.63-.32,3.55-.88,5.22-1.4,3.15-1.27,5.42-3.86,6.63-5.26l.32-.36c.39-.45,1.51-1.88,2.8-3.54,2.36-3.02,5.29-6.79,6.83-8.45,2.86-3.02,5.4-5.34,8-7.32,3-2.31,6.2-4.21,9.52-5.66,3.66-1.62,7.31-2.58,10.85-2.86.72-.06,1.37.47,1.44,1.18.04.46-.3.87-.76.91-.33.03-.64-.14-.8-.41-3.28.29-6.66,1.2-10.06,2.7-3.19,1.39-6.28,3.23-9.18,5.46-2.53,1.92-5.01,4.19-7.8,7.13-1.49,1.6-4.52,5.49-6.73,8.33-1.36,1.75-2.44,3.13-2.87,3.62l-.31.35c-1.31,1.5-3.75,4.29-7.34,5.74-1.77.55-3.75,1.13-5.47,1.47-4.95.89-10.23,1.39-15.34,1.88-2.16.21-4.3.41-6.4.64l-.37.04-.13.28c-.24.5-.41.94-.6,1.41-.18.47-.34.94-.5,1.41-.29.89-.54,1.84-.76,2.9-.44,2.2-.56,4.15-.37,5.96.21,2.17.84,4.11,1.87,5.79,1.04,1.69,2.61,3.19,4.53,4.34,1.58.95,3.47,1.67,5.95,2.29l1.58.34c.31.05.65.1.99.15l.56.08c.79.13,1.57.19,2.39.25l1.06.08c.16.01.32.02.47.03l2.4.04c.44.02.86,0,1.28-.02l3.41-.16,1.58-.13c.18-.02.37-.03.57-.05.32-.02.64-.05.97-.1l1.62-.23c4.05-.67,8.1-2.21,11.7-4.44,1.81-1.11,3.49-2.34,4.99-3.64,1.61-1.37,3.08-2.81,4.38-4.26,2.92-3.21,5.29-6.7,7.21-9.7,1.07-1.68,1.99-3.44,2.73-5.23.38-.9.7-1.83.94-2.74.3-1.11.45-1.98.49-2.83.02-.46.4-.81.88-.79.46.02.82.42.79.88-.05.96-.22,1.94-.55,3.17-.27.99-.61,1.99-1.01,2.96-.78,1.87-1.74,3.71-2.86,5.48-1.97,3.06-4.38,6.63-7.38,9.92-1.34,1.5-2.87,2.99-4.53,4.41-1.57,1.36-3.32,2.64-5.2,3.8-3.77,2.34-8.04,3.96-12.32,4.67l-1.64.23c-.37.05-.72.08-1.08.11-.18.01-.36.03-.54.04l-3.22.23-1.86.07c-.33.01-.65.02-.98.02ZM82.84,91.1s0,0,0,0c0,0,0,0,0,0Z"/>
          <path class="cls-6" d="M26.76,133.22c-.83.83-2.18.84-3.03.03-2.01-1.91-6.02-4.9-11.5-5.1-4.36-.15,3.29-7.17,10.16-6.47,4.57.46,7.79,2.53,9.71,4.22,1.12.98.93,2.77-.36,3.51-.81.47-1.79,1.1-2.89,1.93-.61.46-1.4,1.2-2.09,1.89Z"/>
          <g class="cls-10">
            <path class="cls-7" d="M31.75,129.4c-.81.47-1.79,1.1-2.89,1.93-.61.46-1.4,1.2-2.09,1.89-.83.83-2.17.84-3.03.03-2.02-1.92-6.02-4.91-11.5-5.1-2.35-.08-1.21-2.17,1.42-3.96,5.21.36,9.01,3.22,10.96,5.07.85.81,2.19.8,3.03-.03.69-.68,1.48-1.43,2.09-1.89.83-.62,1.59-1.13,2.26-1.55.04.03.07.06.11.09,1.12.98.93,2.77-.36,3.51Z"/>
          </g>
          <path class="cls-7" d="M25.23,134.79c-.7,0-1.41-.26-1.94-.78-1.84-1.79-5.73-4.81-11.08-5-1.22-.04-1.73-.56-1.94-.98-.22-.43-.33-1.17.39-2.21,1.67-2.42,6.97-5.49,11.83-5,4.99.51,8.45,2.83,10.48,4.69.66.61.98,1.47.88,2.37-.1.89-.63,1.69-1.42,2.13-1,.56-2.02,1.24-3.06,2.01-.5.38-1.25,1.05-2.14,1.95h0c-.55.55-1.27.83-2,.83ZM26.62,133.36h0,0ZM11.84,127.22c.08.02.21.05.42.06,5.93.21,10.21,3.53,12.22,5.49.42.41,1.1.4,1.52-.02.97-.97,1.75-1.68,2.33-2.12,1.1-.82,2.19-1.54,3.25-2.14.31-.17.51-.48.55-.83.04-.34-.08-.67-.33-.9-1.84-1.68-4.97-3.79-9.49-4.25-3.39-.35-7.3,1.42-9.4,3.34-.74.67-1,1.14-1.07,1.35Z"/>
          <path class="cls-6" d="M17.57,145.66s-6.65,1.75-8.92-6.13c-3.12-10.82,5.1-16.02,6.86-15.41,1.76.61-.81,6.67,4.89,11.92,2.11,1.94.7,6.88-2.83,9.61Z"/>
          <g class="cls-10">
            <path class="cls-7" d="M17.57,145.66s-6.65,1.75-8.92-6.13c-.97-3.36-.84-6.18-.15-8.45.08.37.18.75.29,1.14,2.27,7.88,8.92,6.13,8.92,6.13.96-.74,1.76-1.64,2.37-2.6.1.1.21.2.32.3,2.11,1.94.71,6.88-2.83,9.61Z"/>
          </g>
          <path class="cls-7" d="M16.04,146.68c-2.37,0-6.49-.92-8.22-6.9-2.32-8.07,1.44-12.74,3.17-14.37,1.71-1.62,3.69-2.48,4.8-2.09,1.17.41,1.27,1.73,1.38,3.26.17,2.28.42,5.72,3.81,8.84.89.82,1.33,2.04,1.26,3.53-.11,2.64-1.74,5.54-4.15,7.4l-.14.11-.17.04s-.72.18-1.75.18ZM17.57,145.66h0,0ZM15.14,124.91c-.37,0-1.86.55-3.39,2.17-1.65,1.77-4.15,5.7-2.27,12.21,1.83,6.37,6.73,5.76,7.71,5.57,1.91-1.54,3.24-3.93,3.33-5.99.03-.67-.07-1.6-.71-2.19-3.89-3.58-4.18-7.59-4.36-9.98-.05-.68-.12-1.61-.28-1.79-.01,0-.02,0-.04,0Z"/>
          <path class="cls-6" d="M23.63,151.1c-1.35,1.31-3.27,1.9-7.97.96-9.62-1.94-16.71-8.77-14.33-11.21,1.6-1.64,4.82-.2,8.91.04,7.22.42,9.16-.88,10.84-.85,3.74.07,6.58,7.15,2.56,11.06Z"/>
          <g class="cls-10">
            <path class="cls-7" d="M23.63,151.09c-1.35,1.31-3.27,1.9-7.97.96-9.39-1.89-16.35-8.44-14.48-11.02,2.51,2.62,7.27,5.44,12.9,6.57,4.7.95,6.63.35,7.97-.96,1.45-1.41,2.01-3.23,1.95-4.98,1.9,2.34,2.47,6.67-.37,9.43Z"/>
          </g>
          <path class="cls-7" d="M19.57,153.38c-1.15,0-2.48-.17-4.08-.49-7.83-1.57-14.24-6.36-15.32-9.84-.34-1.11-.15-2.1.54-2.81,1.4-1.44,3.53-1.08,6-.67,1.08.18,2.3.38,3.58.46,4.87.28,7.25-.23,8.83-.57.76-.17,1.35-.3,1.98-.28,1.94.04,3.81,1.6,4.76,3.99.92,2.33,1.05,5.96-1.61,8.55h0c-1.16,1.13-2.59,1.67-4.66,1.67ZM3.6,140.93c-.72,0-1.29.13-1.66.51-.1.1-.35.36-.13,1.1.81,2.6,6.52,7.16,14.01,8.66,4.44.89,6.09.35,7.2-.73,2.05-2,1.94-4.85,1.21-6.68-.69-1.74-1.94-2.88-3.18-2.9-.43-.03-.91.1-1.58.24-1.67.36-4.18.91-9.29.61-1.37-.08-2.64-.29-3.76-.48-1.08-.18-2.04-.34-2.82-.34ZM23.63,151.1h0,0Z"/>
        </g>
        <g>
          <path class="cls-1" d="M137.42,89.33l1.55,5.29,2.96,10.07,4.51,19.18s5.67,15.73,18.68,26.34c4.21,3.44,9.23,6.05,15.13,6.93,40,5.96,27.38-24.37,27.38-24.37,0,0-19.62-2.95-26.19-5.33-8.92-3.23-12.66-17.17-25.66-28.11-1.56-1.31-3.26-2.58-5.11-3.78-.39-.25-.78-.5-1.18-.75-3.45-2.11-7.42-3.98-12.07-5.48Z"/>
          <g class="cls-12">
            <path class="cls-7" d="M147.22,122.54c1.52,4.46,6.82,18.15,17.1,27,.08.07.15.13.23.2.19.16.38.32.57.47,4.21,3.44,9.23,6.05,15.13,6.93,40,5.96,27.38-24.37,27.38-24.37,0,0-15.79-2.97-22.65-4.28-3.1,5.81,5.95,8.29,5.85,13.28-.09,4.9-2.39,6.62-6.61,7.44-7.34,1.42-14.97-.54-20.78-5.25-.04-.03-.08-.06-.12-.1-10.77-8.79-14.98-18.31-16.11-21.33Z"/>
          </g>
          <path class="cls-7" d="M190.15,158.77s-.04,0-.07,0l-2.41-.05c-.45,0-.91-.03-1.37-.07l-3.48-.29-1.58-.19c-.19-.03-.37-.05-.55-.07-.36-.04-.71-.08-1.08-.15l-1.61-.29c-4.28-.87-8.47-2.64-12.16-5.13-1.83-1.22-3.54-2.57-5.06-3.99-1.6-1.48-3.07-3.02-4.36-4.58-2.87-3.39-5.15-7.05-7-10.18-1.06-1.81-1.95-3.69-2.66-5.59-.37-.98-.67-1.99-.9-2.99-.28-1.24-.42-2.22-.43-3.19,0-.46.36-.84.82-.85.46,0,.84.36.85.82.01.85.13,1.72.39,2.84.21.93.49,1.86.84,2.77.68,1.81,1.53,3.61,2.54,5.33,1.81,3.06,4.04,6.65,6.84,9.95,1.25,1.51,2.67,3,4.22,4.43,1.46,1.37,3.09,2.65,4.85,3.83,3.51,2.36,7.5,4.05,11.55,4.87l1.59.28c.33.06.65.1.97.13.19.02.38.04.57.07l3.11.34,1.86.14c.42.03.84.06,1.26.06l2.42.05c.15,0,.31,0,.47-.01l1.07-.04c.82-.03,1.59-.05,2.37-.15l.58-.06c.35-.03.69-.07,1.04-.11l1.58-.28c2.48-.51,4.4-1.17,6.01-2.06,1.97-1.07,3.59-2.52,4.69-4.17,1.09-1.63,1.79-3.55,2.08-5.71.25-1.8.2-3.76-.15-5.98-.18-1.06-.39-2.02-.65-2.91-.14-.48-.28-.96-.44-1.44-.16-.48-.32-.92-.54-1.43l-.12-.28-.37-.06c-2.09-.31-4.22-.59-6.37-.88-5.09-.68-10.35-1.38-15.25-2.45-1.71-.4-3.67-1.06-5.36-1.65-3.6-1.6-5.93-4.48-7.18-6.03l-.29-.36c-.41-.5-1.44-1.93-2.74-3.73-2.1-2.92-4.99-6.92-6.42-8.57-2.67-3.04-5.06-5.4-7.52-7.41-2.82-2.34-5.83-4.28-8.97-5.79-3.35-1.63-6.7-2.67-9.96-3.08-.17.26-.48.42-.81.38-.46-.06-.78-.48-.72-.94.09-.71.76-1.21,1.48-1.13,3.53.41,7.14,1.51,10.74,3.26,3.25,1.57,6.39,3.59,9.3,6.01,2.53,2.07,4.98,4.49,7.72,7.6,1.49,1.72,4.27,5.59,6.52,8.7,1.23,1.71,2.29,3.18,2.67,3.64l.3.37c1.16,1.44,3.33,4.12,6.5,5.53,1.58.55,3.48,1.19,5.11,1.57,4.82,1.05,10.05,1.75,15.1,2.42,2.16.29,4.3.57,6.39.88l1.29.19.49,1.14c.24.55.41,1.03.59,1.55.17.51.33,1.01.47,1.52.27.95.5,1.97.69,3.1.38,2.4.43,4.51.16,6.48-.33,2.41-1.12,4.56-2.35,6.41-1.25,1.88-3.08,3.5-5.28,4.71-2.31,1.27-4.81,1.88-6.49,2.23l-1.64.29c-.4.05-.76.09-1.13.13l-.54.06c-.84.11-1.69.14-2.51.17l-1.06.04c-.17,0-.33.01-.5.01ZM137.79,92.12h0s0,0,0,0Z"/>
          <path class="cls-6" d="M192.27,136.29c.8.86,2.14.92,3.03.14,2.08-1.84,6.2-4.68,11.68-4.67,4.36,0-3.02-7.29-9.92-6.85-4.58.29-7.88,2.24-9.86,3.85-1.15.94-1.03,2.73.23,3.53.79.5,1.75,1.16,2.82,2.03.59.48,1.35,1.25,2.02,1.97Z"/>
          <g class="cls-10">
            <path class="cls-7" d="M187.43,132.29c.79.5,1.74,1.16,2.82,2.03.59.48,1.35,1.26,2.02,1.97.8.86,2.14.92,3.02.14,2.09-1.84,6.2-4.68,11.68-4.67,2.35,0,1.29-2.12-1.27-4.01-5.22.17-9.13,2.89-11.14,4.66-.88.78-2.22.72-3.02-.14-.67-.71-1.43-1.49-2.02-1.96-.81-.65-1.55-1.19-2.2-1.63-.04.02-.07.06-.11.09-1.15.94-1.03,2.73.23,3.53Z"/>
          </g>
          <path class="cls-7" d="M193.85,137.93c-.76,0-1.52-.3-2.07-.9-.86-.93-1.58-1.64-2.07-2.03-1.01-.81-2.01-1.53-2.98-2.13-.77-.47-1.27-1.29-1.34-2.19-.07-.9.28-1.75.97-2.33,2.1-1.78,5.65-3.98,10.65-4.3,4.88-.31,10.06,2.96,11.64,5.44.68,1.07.54,1.8.31,2.23-.23.41-.76.91-1.97.91h-.03c-5.35,0-9.33,2.87-11.24,4.59-.53.48-1.2.71-1.87.71ZM197.66,125.76c-.18,0-.36,0-.54.02-4.53.29-7.75,2.28-9.64,3.89-.26.22-.39.54-.37.88.03.35.22.66.52.85,1.04.63,2.1,1.39,3.17,2.26.56.45,1.32,1.19,2.25,2.2h0c.4.43,1.08.47,1.52.08,2.09-1.88,6.47-5.03,12.39-5.03.01,0,.02,0,.03,0,.21,0,.34-.02.42-.04-.06-.21-.3-.69-1.02-1.39-1.92-1.89-5.47-3.71-8.73-3.71Z"/>
          <path class="cls-6" d="M201,149.07s6.58,2,9.14-5.79c3.51-10.69-4.5-16.2-6.28-15.65-1.78.55.56,6.69-5.33,11.73-2.18,1.86-.96,6.85,2.47,9.71Z"/>
          <g class="cls-10">
            <path class="cls-7" d="M201,149.07s6.58,2,9.14-5.79c1.09-3.32,1.07-6.15.47-8.44-.09.37-.2.74-.33,1.12-2.56,7.79-9.14,5.79-9.14,5.79-.93-.77-1.69-1.7-2.27-2.68-.11.1-.22.19-.33.29-2.18,1.86-.96,6.85,2.47,9.71Z"/>
          </g>
          <path class="cls-7" d="M202.83,150.15c-1.21,0-2.06-.24-2.08-.25l-.17-.05-.13-.11c-2.33-1.95-3.85-4.91-3.87-7.55,0-1.49.47-2.7,1.39-3.48,3.5-2.99,3.88-6.42,4.13-8.69.17-1.53.32-2.84,1.5-3.21,1.12-.35,3.07.58,4.72,2.26,1.67,1.7,5.26,6.5,2.64,14.48-1.85,5.64-5.72,6.6-8.13,6.6ZM201.41,148.29c.97.23,5.84,1.02,7.91-5.28,2.12-6.44-.23-10.46-1.82-12.29-1.52-1.75-3.05-2.33-3.4-2.27-.11.15-.21,1.07-.28,1.75-.27,2.39-.71,6.38-4.73,9.81-.66.56-.79,1.49-.79,2.16.01,2.06,1.25,4.5,3.11,6.11Z"/>
          <path class="cls-6" d="M194.74,154.27c1.3,1.36,3.2,2.02,7.93,1.25,9.68-1.58,17.02-8.15,14.74-10.67-1.54-1.7-4.81-.38-8.9-.29-7.23.16-9.12-1.22-10.8-1.25-3.74-.07-6.84,6.9-2.97,10.96Z"/>
          <g class="cls-10">
            <path class="cls-7" d="M194.74,154.27c1.3,1.36,3.19,2.02,7.93,1.25,9.45-1.54,16.66-7.82,14.88-10.47-2.6,2.53-7.46,5.16-13.13,6.09-4.74.77-6.64.11-7.93-1.25-1.39-1.46-1.89-3.3-1.77-5.05-1.98,2.27-2.72,6.57.02,9.44Z"/>
          </g>
          <path class="cls-7" d="M199.19,156.72c-2.33,0-3.87-.59-5.07-1.85h0c-2.56-2.69-2.3-6.31-1.29-8.6,1.02-2.32,2.91-3.81,4.83-3.81.02,0,.05,0,.07,0,.62.01,1.22.16,1.97.36,1.56.4,3.92,1,8.8.9,1.28-.03,2.51-.18,3.59-.32,2.48-.32,4.62-.59,5.97.9.66.73.82,1.74.43,2.83-1.21,3.44-7.79,7.99-15.67,9.27-1.39.23-2.59.34-3.62.34ZM197.65,144.18c-1.23,0-2.51,1.09-3.25,2.78-.79,1.8-1.02,4.65.96,6.72h0c1.07,1.12,2.7,1.72,7.17,1,7.54-1.23,13.42-5.57,14.32-8.14.25-.73,0-1-.09-1.1-.74-.82-2.38-.61-4.47-.34-1.13.14-2.4.31-3.77.34-5.12.11-7.61-.53-9.26-.95-.67-.17-1.15-.29-1.57-.3-.01,0-.03,0-.04,0Z"/>
        </g>
        <g>
          <path class="cls-7" d="M105.48,108.94c-7.07,0-13.98-1.02-20.19-2.97-.57,1.01-1.52,1.73-2.62,1.92l-2.29.38.44-1.83c-.1.08-.21.15-.32.22l-1.28.8-.82-1.27c-.44-.68-.55-1.41-.65-2.06-.11-.7-.2-1.17-.51-1.57-4.52-2.38-8.3-5.24-11.57-8.76-2.06-2.22-4.59-6.54-5.63-9.64-1.37-4.08-2.08-7.56-2.31-11.27-.67-10.91-.19-19.87,1.46-27.37,1.5-6.82,4.71-13.32,9.02-18.32,4.16-4.83,10.03-8.68,18.46-12.12,1.31-.54,2.65-1,3.81-1.38,2.03-1.38,4.11-3.12,6.36-5.32l.18-.17c4.47-4.37,7.16-7.01,9.63-6.24l.65.2.33.66c.11.24.16.47.16.72.62-.54,1.29-1.06,1.97-1.49,1.36-.86,4.37-2.37,6.01-1.99.51.12.93.42,1.19.84.25.41.31.81.22,1.25,0,0,0,0,.02,0,.05,0,5.26-.62,5.85,1.56.22.81-.23,1.63-1.04,1.92-.35.12-.68.27-1,.45.85-.03,1.74.14,2.55.6.93.53,1.07,1.27,1.07,1.67,0,1.15-.94,1.69-2.02,2.31-.53.31-1.16.67-1.85,1.15,6.21,1.32,11.87,3.66,16.48,6.84,3.82,2.63,7.4,5.91,10.96,10.03,4.28,4.96,8.6,14.12,9.64,20.43.57,3.46.95,6.85,1.13,10.07h0c.49,8.62-.73,17.04-3.34,23.11-1.57,3.67-3.82,6.66-5.81,9.11-4.39,5.41-10.96,9.95-18.49,12.8-7.62,2.88-15.53,4.47-23.51,4.71-.76.02-1.53.04-2.29.04ZM83.03,101.95l1.79.61c.09.03.17.06.25.1,6.85,2.33,14.66,3.43,22.6,3.18,7.64-.24,15.21-1.75,22.52-4.51,7.03-2.66,13.14-6.87,17.19-11.86,1.95-2.4,3.95-5.08,5.37-8.39,2.39-5.57,3.55-13.69,3.09-21.73h0c-.18-3.11-.54-6.39-1.09-9.74-.94-5.73-5.03-14.4-8.93-18.92-3.43-3.98-6.73-7-10.38-9.51-4.88-3.36-11.05-5.72-17.83-6.83-.69-.11-1.25-.59-1.46-1.26-.21-.67-.04-1.4.47-1.89.39-.38.77-.72,1.15-1.03-.13.06-.25.12-.36.17-1.03.5-1.72.83-2.51.46l-.66-.3-.23-.75c-.24-.87.79-2.45,2.28-3.91-.99.64-2.08,1.57-2.78,2.17-1.13.97-1.59,1.37-2.38,1.29l-.66-.07-.43-.54c-.88-1.14-.15-2.03,1.81-4.35-.16.09-.32.19-.49.29-1.16.73-2.38,1.92-3.36,2.88-1.59,1.55-2.65,2.58-3.94,1.82-1.09-.64-1.02-1.72-.56-3.03-1.34,1.13-2.99,2.75-4.36,4.09l-.18.17c-2.45,2.4-4.73,4.29-6.97,5.79l-.17.12-.2.07c-1.15.38-2.51.85-3.81,1.38-7.97,3.25-13.46,6.84-17.29,11.28-3.98,4.62-6.95,10.65-8.35,16.98-1.59,7.22-2.05,15.9-1.4,26.52.21,3.43.88,6.66,2.16,10.48.91,2.7,3.18,6.6,4.96,8.52,3.08,3.31,6.67,6.01,10.98,8.25l.21.11.17.17c.64.64.99,1.32,1.2,1.97.36-.32.85-.47,1.33-.39l1,.16.17.56.07-.58ZM118.11,11.32s0,0,0,0c0,0,0,0,0,0Z"/>
          <g>
            <path class="cls-9" d="M151.25,63.37c-1.6,6-3.89,13.7-7.97,18.36-4.89,5.59-11.38,10.35-18.48,12.67-6.14,2-12.44,3.92-18.97,3.37-3.32-.28-6.71-.6-9.99-1.17-6.7-1.17-13.91-3.21-19.32-7.54-3.33-2.67-6.74-5.53-8.68-9.42-5.72-11.48-5.6-29.87,1.02-40.85,6.22-10.31,18.62-15.94,30.05-17.76,3.67-.58,7.43-.62,11.16-.65,12.58-.9,26.79,2.49,35.14,12.53,6.16,7.41,8.01,16.99,6.94,26.1-.17,1.44-.51,2.92-.89,4.35Z"/>
            <path class="cls-1" d="M157.38,59.26c-.22-3.83-.7-7.68-1.38-11.46-1.16-6.5-4.54-12.9-8.85-17.92-3.26-3.81-6.74-7.15-10.83-9.97-5.52-3.8-12.21-6.13-19.05-7.17,3.31-3.51,6.82-3.96,5.48-4.73-2.72-1.55-7.1,1.9-7.24,1.34-.04-.15,2.37-3.9,5.95-5.17.55-.2-2.15-.86-4.01-.52-2.4.45-5.96,4.38-6.17,4.1-.29-.38,4.73-5.43,4.34-6.07-.32-.53-2.87.27-5.06,1.65-2.61,1.64-5.14,5.01-5.71,4.67-.64-.37,1.77-4.45,1.33-4.59-1.62-.5-4.49,2.34-8.28,6.05-2.85,2.79-5.08,4.5-6.75,5.62-1.32.44-2.64.89-3.91,1.41-6.57,2.68-13.17,6.24-17.88,11.7-4.28,4.96-7.27,11.26-8.68,17.65-1.93,8.76-1.96,18.3-1.43,26.95.25,4.02,1.07,7.52,2.41,11.39,1.04,3.02,3.06,6.37,5.24,8.69,4.97,5.29,10.94,8.95,17.7,11.24,7.33,2.49,15.32,3.48,23.11,3.24,7.82-.24,15.6-1.81,23.01-4.61,6.7-2.53,13.28-6.72,17.84-12.33,2.29-2.82,4.21-5.53,5.59-8.75,2.8-6.52,3.63-15.14,3.22-22.42ZM147.22,69.89c-2.34,7.47-8.2,14.9-15.11,18.27-6.56,3.2-13.59,4.76-20.95,5.29-2.85.2-5.9.15-8.75-.12-7.35-.7-14.23-2.32-20.66-5.78-5.69-3.06-13.5-7-12.98-14.57.39-5.66,8.23-2.56,14.54-4.19,5.96-1.54,11.33-6.4,12.03-13.44.07-.71-.01-1.57-.22-2.31-1.16-4.11-5.59-7.83-9.7-8.47-4.26-.67-11.64,1.12-13.61,4.71-4.75,8.68-6.81,2.68-6.64,1.42,1.03-7.76,5.79-14.73,11.97-19.38,6.3-4.73,13.99-7.59,21.75-8.5,2.58-.3,5.78-.55,10.88-.58,24.83-1.06,36.91,16.26,35.81,24.49-.94,7.01-6.77-3.01-14.99-4.03-2.56-.32-11.87,1.64-11.94,9.69-.03,3.53,1.73,8.21,4.53,10.69,6.53,5.78,18.03-3.4,22.4.39,2.24,1.95,2.11,4.86,1.62,6.42Z"/>
            <path class="cls-8" d="M139.1,52.77c.16,1.4-6.04,1.38-7.38,1.53s-7.25,3.68-7.41,2.28c-.16-1.4,2.72-3.87,6.64-4.75,3.25-.72,7.99-.46,8.15.94Z"/>
            <path class="cls-8" d="M89.6,56.6c-.01,1.41-6.16.63-7.51.62-1.35-.01-7.65,2.76-7.63,1.35.01-1.41,3.17-3.51,7.17-3.9,3.31-.32,7.98.52,7.97,1.93Z"/>
            <g>
              <path class="cls-8" d="M114.11,63.7c.14,2.22-2.69,4.2-6.33,4.43-3.64.23-6.7-1.38-6.84-3.6-.21-3.31,2.69-4.2,6.33-4.43s6.61-.07,6.84,3.6Z"/>
              <path class="cls-1" d="M111.02,65.04c1.04-.17,1.91.21,2.45.56.44-.58.67-1.23.63-1.9-.23-3.67-3.2-3.83-6.84-3.6s-6.54,1.11-6.33,4.43c.04.56.26,1.09.64,1.55.49-.37,1.32-.84,2.35-.74,1.4.13,2.62,1.26,3.01,2.8.28,0,.56,0,.85-.02.11,0,.22-.02.33-.03.29-1.6,1.47-2.82,2.92-3.06Z"/>
            </g>
            <path class="cls-1" d="M107.52,77.07c-2.02,0-3.71-.34-4.83-.66-.4-.11-.63-.53-.52-.93.11-.4.53-.63.93-.52,2.03.57,6.09,1.24,10.52-.61.38-.16.82.02.98.4.16.38-.02.82-.4.98-2.4,1-4.7,1.33-6.67,1.33Z"/>
            <path class="cls-1" d="M85.36,98.56c.13-.04.26-.09.39-.13-.36-.38-.73-.75-1.12-1.11-.18-.16-.36-.31-.55-.46.12.11-.06.04-.15-.02-.06,0-.11.02-.17.03.04,0-.29.09-.48.16-.94.3-1.89.57-2.83.88-.35.12-.7.24-1.05.37.03,1.11-1.16,1.64-1.53,2.75,1.75,1.37,1.11,3.24,1.81,4.33.94-.59,1.79-1,1.85-2.09,1,.94,1.2,1.78.88,3.11,1.07-.18,1.79-1.26,1.9-2.32.12-1.06.07-2.17-.28-3.17,1.4.19,2.33,1.34,2.67,2.7,1.27-1.63.66-4.47-1.35-5.02Z"/>
            <g>
              <path class="cls-5" d="M96.8,49.28c-.17-.94-.41-1.91-1-2.66-.09-.11-.18-.22-.28-.32-.39-.38-.85-.68-1.34-.93-1.58-.8-3.36-1.09-5.12-1.25-8.63-.77-17.51,1.42-24.84,6.12-.24.15-.48.32-.58.58-.03.09-.05.18-.05.28l-.02-.23-3.86,2.65c.18.55.28,1.13.28,1.73,0,.35-.05.69-.13,1.02l3.9-2.55-.04-.54c.01.16.02.32.03.48,1.31.18,2.73.41,3.67,1.35.83.83,1.11,2.05,1.4,3.19.5,1.95,1.12,3.88,2.04,5.67.82,1.6,1.92,3.11,3.45,4.05,2.46,1.52,5.56,1.32,8.44,1.02,2.4-.25,4.82-.55,7.07-1.44,2.02-.8,3.92-2.16,5.04-4.07,1.22-2.11,1.83-4.58,2.13-7,.3-2.38.25-4.8-.17-7.16ZM95.21,57.73c-.07.45-.14.91-.23,1.38-.16.85-.36,1.72-.68,2.48-.37.88-1.08,1.77-1.78,2.42-1.32,1.22-3.01,1.99-4.7,2.55-2.48.81-5.07,1.26-7.67,1.34-1.3.04-2.64-.03-3.83-.56-1.38-.62-2.41-1.81-3.29-3.05-2.45-3.49-3.95-7.66-4.29-11.93-.04-.49-.06-1,.08-1.48.25-.85.96-1.48,1.69-1.98,2.53-1.75,5.58-2.58,8.6-3.05,2.98-.46,6-.61,9.01-.44,1.55.09,3.12.27,4.53.9.91.41,1.77,1.05,2.21,1.95.25.51.34,1.08.42,1.65.36,2.59.33,5.24-.08,7.83Z"/>
              <path class="cls-5" d="M115.87,55.77c.61,2.35,1.53,4.72,3.02,6.64,1.35,1.74,3.41,2.81,5.52,3.33,2.34.57,4.78.52,7.19.44,2.89-.11,5.99-.35,8.23-2.2,1.39-1.15,2.28-2.8,2.89-4.49.68-1.9,1.05-3.9,1.28-5.9.14-1.17.26-2.42.98-3.36.81-1.06,2.18-1.49,3.46-1.86,0-.16-.02-.32-.03-.48l.04.54,4.47,2.11c.67.32,1.44-.21,1.39-.96l-.03-.45c-.02-.35-.23-.66-.54-.81l-5.48-2.74.02.23c-.02-.09-.04-.19-.09-.27-.13-.25-.4-.38-.65-.5-7.87-3.63-16.95-4.56-25.4-2.58-1.73.4-3.46.94-4.92,1.95-.45.31-.87.68-1.21,1.11-.09.11-.17.23-.24.35-.49.83-.6,1.82-.64,2.77-.11,2.4.15,4.81.76,7.12ZM116.69,49.05c0-.57.03-1.15.2-1.69.31-.96,1.08-1.71,1.94-2.25,1.32-.83,2.85-1.23,4.37-1.53,2.96-.59,5.97-.87,8.98-.83,3.06.04,6.19.43,8.92,1.81.79.4,1.57.92,1.93,1.73.2.45.24.96.27,1.45.22,4.28-.73,8.61-2.7,12.42-.7,1.35-1.58,2.68-2.86,3.49-1.11.7-2.43.95-3.72,1.1-2.59.29-5.22.21-7.78-.25-1.74-.31-3.52-.84-4.98-1.87-.78-.54-1.6-1.32-2.07-2.14-.41-.72-.73-1.54-.99-2.37-.15-.45-.28-.9-.4-1.33-.74-2.51-1.11-5.13-1.09-7.74Z"/>
              <path class="cls-5" d="M115.9,49.33c-3.01-.9-6.49-1.3-10.17-1.04-3.6.25-6.93,1.1-9.76,2.37l.16,2.45c2.83-1.27,6.16-2.12,9.76-2.37,3.51-.25,6.84.11,9.76.92.05-.78.14-1.56.24-2.34Z"/>
            </g>
            <path class="cls-1" d="M154.93,48.46c.07.05.14.1.21.15.06-.32.13-.65.17-.98.02-.15.03-.3.04-.45-.01.1-.04-.02-.05-.08-.02-.03-.05-.05-.07-.08.01.02-.15-.12-.25-.19-.49-.38-.97-.77-1.47-1.14-.19-.14-.38-.27-.57-.41-.56.42-1.26,0-1.97.2-.08,1.4-1.27,1.74-1.58,2.49.64.27,1.16.57,1.74.2-.13.85-.48,1.26-1.28,1.57.47.49,1.29.47,1.88.15.59-.32,1.14-.74,1.54-1.28.41.79.14,1.68-.43,2.35,1.3.07,2.54-1.27,2.11-2.5Z"/>
            <path class="cls-1" d="M63.48,53.97c.54.42,1.09.18,1.75-.03-.23-.78-1.39-1.24-1.33-2.63-.68-.28-1.42.08-1.94-.39-.18.1-.37.21-.55.32-.02,1.43-.78,2.71-1.88,3.56.14.91,1,1.74,1.98,1.78-.51-.72-.69-1.63-.2-2.38.34.58.85,1.05,1.41,1.43.55.38,1.37.47,1.89.03-.77-.39-1.08-.83-1.13-1.69Z"/>
            <g class="cls-13">
              <g class="cls-14">
                <rect class="cls-6" x="108.09" y="48.37" width="34.12" height="5.25" transform="translate(12.05 124.96) rotate(-55.36)"/>
                <rect class="cls-6" x="119.07" y="53.75" width="34.12" height="2.63" transform="translate(13.42 135.73) rotate(-55.35)"/>
              </g>
            </g>
            <g class="cls-13">
              <g class="cls-11">
                <rect class="cls-6" x="60.54" y="51.48" width="34.12" height="5.25" transform="translate(-11.03 87.18) rotate(-55.36)"/>
                <rect class="cls-6" x="71.51" y="56.87" width="34.12" height="2.63" transform="translate(-9.65 97.96) rotate(-55.35)"/>
              </g>
            </g>
          </g>
        </g>
      </g>
      <g>
        <path class="cls-7" d="M73.61,144.57c-9.21,4.27-14.48,4.6-19.84,3.01-5.07-1.5-6.36-4.71-7.29-6.63-.81-1.68-2.49-8.18-2.57-8.49-.1-.16-.22-.31-.37-.43-1.13-.91-2.87-2.55-2.8-5.43.1-4.05,2.81-4.95,3.64-7.4.37-1.1.55-2.68.59-3.68.19-4.15.27-5.69.3-8.22.03-2.59-.05-4.54-.25-5.94-.23-1.62-.68-2.72-1.37-3.38-.67-.64-2.73-1.03-3.82-1.17h-.02c-1.1-.12-1.98-.1-2.69.06-.88.2-1.61.71-2.17,1.53-.49.71-.83,1.67-1.06,2.92-.2,1.09-.39,2.57-.59,4.36-.13,1.1-.23,2.31-.3,3.61-.06,1.24-.13,2.23-.19,2.95-.64,7.78-.9,14.43-.77,19.75.13,5.41.8,9.91,1.99,13.36,1.33,3.85,3.31,6.8,5.08,8.28.05.04.29.24.6.48,1.46,1.09,3.09,1.99,4.85,2.47,9.54,2.57,18.88.52,24.34-1.16,1.31-.4,3.41-1.14,4.61-1.82,4.09-2.29,4.74-4.03,4.94-6.56.21-2.65-2.91-3.38-4.86-2.48Z"/>
        <path class="cls-7" d="M111.58,108.21c.39-1.31,1.23-2.59,2.47-3.23.02-.01.05-.03.08-.04.49-.24.63-.87.29-1.29-.3-.38-.67-.71-1.11-.98-1.02-.63-2.17-.94-3.41-.94-.93,0-1.84.19-2.69.56-.93.4-1.69,1.07-2.27,2-.15.24-.42.73-1.05,2.24-.47,1.11-1.02,2.44-1.64,3.96-.65,1.58-1.35,3.33-2.08,5.2-.74,1.89-1.47,3.8-2.17,5.69-.71,1.89-1.38,3.71-2.02,5.45-.66,1.78-1.19,3.27-1.64,4.54,0,0,0,.01,0,.02-.16.44-.8.4-.9-.06-.05-.24-.1-.51-.15-.82v-.03c-.39-2.04-.79-4.15-1.21-6.33-.42-2.2-.88-4.32-1.36-6.3-.46-1.89-.91-3.75-1.35-5.53-.43-1.73-.83-3.12-1.23-4.22-.29-.97-.97-1.73-1.98-2.21-.86-.41-1.78-.61-2.72-.61-1.77,0-3.18.61-4.19,1.81l-.07.09c-.5.73-.79,1.47-.87,2.23-.08.73.05,1.69.41,3.03.12.55.31,1.51.56,2.84.25,1.36.51,2.73.76,4.09v.04c.97,5.42,1.79,10.04,2.46,13.87.68,3.85,1.29,7.14,1.83,9.77.55,2.67,1.04,4.83,1.46,6.43.44,1.67.87,2.96,1.32,3.92.5,1.08,1.04,1.83,1.64,2.31.57.46,1.23.79,1.97.99.66.19,1.3.28,1.93.28,1,0,1.97-.24,2.89-.72,1.47-.77,2.56-2.02,3.24-3.71.09-.21.29-.75.99-2.88.51-1.54,1.09-3.28,1.73-5.18,1.08-3.29,2.11-6.35,3.07-9.1.96-2.75,1.91-5.43,2.83-7.96.92-2.53,1.89-5.09,2.87-7.6.64-1.63,1.33-3.36,2.07-5.16.21-.51.16-1.08-.14-1.54-.9-1.4-1.11-3.31-.64-4.9Z"/>
        <path class="cls-7" d="M147.85,107.88c.4-1.57,1.18-2.75,2.32-3.52.5-.34,1.01-.59,1.53-.78.08-.19.02-.39-.19-.56-.25-.2-.52-.38-.82-.53-1.07-.53-2.11-.78-3.35-.78-.93,0-1.84.19-2.69.56-.93.4-1.69,1.07-2.27,2-.15.24-.42.73-1.05,2.24-.47,1.11-1.02,2.44-1.64,3.96-.65,1.58-1.35,3.33-2.08,5.2-.73,1.88-1.46,3.79-2.17,5.69-.71,1.89-1.38,3.71-2.02,5.45-.65,1.76-1.2,3.28-1.64,4.54,0,0,0,.01,0,.02-.16.44-.8.4-.9-.06-.05-.24-.1-.51-.15-.82v-.03c-.39-2.04-.79-4.15-1.21-6.33-.42-2.2-.88-4.32-1.36-6.3-.46-1.89-.91-3.75-1.35-5.53-.43-1.73-.83-3.12-1.23-4.22-.29-.97-.98-1.73-1.98-2.21-.86-.41-1.78-.61-2.72-.61-1.77,0-3.18.61-4.19,1.81l-.07.09c-.5.73-.79,1.48-.87,2.23-.08.73.05,1.69.41,3.03.12.55.31,1.51.56,2.84.25,1.36.51,2.73.76,4.09v.04c.97,5.42,1.79,10.04,2.46,13.87.68,3.85,1.29,7.14,1.83,9.77.55,2.67,1.04,4.83,1.46,6.43.44,1.67.87,2.96,1.32,3.92.5,1.08,1.04,1.83,1.64,2.31.57.46,1.23.79,1.97.99.66.19,1.3.28,1.93.28,1,0,1.97-.24,2.89-.72,1.47-.77,2.56-2.02,3.24-3.7.09-.21.29-.75.99-2.88.51-1.55,1.09-3.29,1.73-5.18,1.08-3.28,2.11-6.35,3.07-9.1.96-2.75,1.91-5.43,2.83-7.96.53-1.47,1.01-2.86,1.53-4.27-.13-1.18-.21-2.41-.22-3.71-.03-3.53.53-7.41,1.67-11.53Z"/>
        <path class="cls-7" d="M188.51,122.32c-.07-.87-.22-2.05-.45-3.51-.22-1.4-.44-2.88-.64-4.43-.2-1.53-.4-2.97-.6-4.29-.2-1.33-.37-2.32-.51-2.94-.64-3.31-2.81-5.07-6.27-5.07-.92,0-1.69.09-2.34.27-.75.21-1.41.62-1.96,1.21-.49.53-.92,1.21-1.3,2.08-.35.78-.72,1.77-1.13,3.02v.02c-.65,2.1-1.44,4.23-2.34,6.33-.91,2.11-1.87,4.07-2.87,5.85-1,1.78-1.99,3.34-2.95,4.64-.3.41-.6.79-.89,1.12-.45.53-1.32.31-1.46-.38-.21-.97-.46-2.24-.56-3.26-.19-1.94-.26-4.13-.19-6.49.06-2.34.29-4.53.67-6.51.41-1.92.09-3.44-.94-4.53-1-1.05-2.26-1.58-3.74-1.58-1.18,0-2.34.38-3.44,1.11-1.14.76-1.92,1.95-2.32,3.52-1.15,4.12-1.71,8-1.67,11.53.03,3.55.52,6.67,1.45,9.25.96,2.65,2.34,4.77,4.1,6.29,1.84,1.59,3.98,2.4,6.33,2.4,1.94,0,4.03-.64,6.19-1.89,2.11-1.22,4.23-3.19,6.3-5.85.3-.39.57-.72.81-1,.49-.57,1.43-.26,1.48.5.02.26.03.56.04.89.06,2.08-.03,6.62-.29,8.49-.25,1.86-.67,3.55-1.23,5.04-.55,1.46-1.22,2.72-1.97,3.72-.7.93-4.01,3.48-8.99.95-1.24-.63-2.28-1.64-3.15-2.91v-.02c-2.07-2.89-4.52-3.24-6.2-3.03-1.17.15-2.28.66-3.31,1.53l-.02.02c-1.52,1.33-1.93,3.04-1.21,4.93.61,1.61,1.75,3.15,3.39,4.59,1.6,1.4,3.68,2.39,5.92,3.55,6.75,3.47,15.95,1.13,18.2-.17,2.73-1.58,4.98-3.96,6.7-7.09,1.68-3.05,2.84-9.34,3.45-13.67.6-4.29.57-9.08-.09-14.24Z"/>
        <path class="cls-7" d="M73.7,131.94c-1.44,1.13-3.52,1.98-6.04,2.25-1.61.17-5.52.31-8.19-2.22-.91-.86-.88-2.23-.62-2.81.32-.7,1.17-.94,1.8-.54,1.19.75,3.67,1.96,6.87,1.62,2.93-.31,5.05-1.81,6.28-2.96.33-.31,1.09-1.35,1.29-1.76,1.48-3.07,1.89-6.77.54-10.96-.98-3-2.51-5.24-4.55-6.64-2.02-1.39-4.27-2.09-6.69-2.09-1.68,0-3.37.32-5.04.96-1.65.63-3.23,1.56-4.7,2.76-1.46,1.19-2.8,2.69-3.98,4.44-1.19,1.76-2.13,3.79-2.79,6.02-.23.74-.41,1.22-.66,1.68-.24.45-.66,1.06-1.1,1.55l-.02.02c-1.11,1.27-1.62,2.7-1.5,4.26.12,1.57.9,2.87,2.26,3.78.14.12.21.21.24.27.01.02.13.25.37,1.14,1.46,5.43,5.28,10.87,10.99,12.31,2.95.75,6.11.31,8.92-.85,4-1.65,7.93-4.63,9.81-8.6.72-1.53-.11-6.31-3.5-3.64ZM56.72,121.39c-.16-.21,1.05-.8,2.78-4.28.92-1.85,1.61-3.27,2.27-3.29.18,0-.18,1.81.1,1.86.26.05.76-1.51,1.51-2.46.63-.79,1.47-1.41,1.65-1.26.22.19-.98,2.69-.82,2.8.11.07.92-1.83,1.75-2.31.64-.37,1.72-.47,1.54-.32-1.16.93-1.56,2.62-1.53,2.67.13.19,1.3-1.65,2.5-1.42.61.11-.74.75-1.49,2.61-3.81,9.46-9.61,6.25-10.25,5.4Z"/>
        <path class="cls-9" d="M109.56,106.19c.39-1.31,1.23-2.59,2.47-3.23.02-.01.05-.03.08-.04.49-.24.63-.87.29-1.29-.3-.38-.67-.71-1.11-.98-1.02-.63-2.17-.94-3.41-.94-.93,0-1.84.19-2.69.56-.93.4-1.69,1.07-2.27,2-.15.24-.42.73-1.05,2.24-.47,1.11-1.02,2.44-1.64,3.96-.65,1.58-1.35,3.33-2.08,5.2-.74,1.89-1.47,3.8-2.17,5.69-.71,1.89-1.38,3.71-2.02,5.45-.66,1.78-1.19,3.27-1.64,4.54,0,0,0,.01,0,.02-.16.44-.8.4-.9-.06-.05-.24-.1-.51-.15-.82v-.03c-.39-2.04-.79-4.15-1.21-6.33-.42-2.2-.88-4.32-1.36-6.3-.46-1.89-.91-3.75-1.35-5.53-.43-1.73-.83-3.12-1.23-4.22-.29-.97-.97-1.73-1.98-2.21-.86-.41-1.78-.61-2.72-.61-1.77,0-3.18.61-4.19,1.81l-.07.09c-.5.73-.79,1.47-.87,2.23-.08.73.05,1.69.41,3.03.12.55.31,1.51.56,2.84.25,1.36.51,2.73.76,4.09v.04c.97,5.42,1.79,10.04,2.46,13.87.68,3.85,1.29,7.14,1.83,9.77.55,2.67,1.04,4.83,1.46,6.43.44,1.67.87,2.96,1.32,3.92.5,1.08,1.04,1.83,1.64,2.31.57.46,1.23.79,1.97.99.66.19,1.3.28,1.93.28,1,0,1.97-.24,2.89-.72,1.47-.77,2.56-2.02,3.24-3.71.09-.21.29-.75.99-2.88.51-1.54,1.09-3.28,1.73-5.18,1.08-3.29,2.11-6.35,3.07-9.1.96-2.75,1.91-5.43,2.83-7.96.92-2.53,1.89-5.09,2.87-7.6.64-1.63,1.33-3.36,2.07-5.16.21-.51.16-1.08-.14-1.54-.9-1.4-1.11-3.31-.64-4.9Z"/>
        <path class="cls-9" d="M71.28,143.6c-9.21,4.27-14.48,4.6-19.84,3.01-5.07-1.5-6.36-4.71-7.29-6.63-.81-1.68-2.49-8.18-2.57-8.49-.1-.16-.22-.31-.37-.43-1.13-.91-2.87-2.55-2.8-5.43.1-4.05,2.81-4.95,3.64-7.4.37-1.1.55-2.68.59-3.68.19-4.15.27-5.69.3-8.22.03-2.59-.05-4.54-.25-5.94-.23-1.62-.68-2.72-1.37-3.38-.67-.64-2.73-1.03-3.82-1.17h-.02c-1.1-.12-1.98-.1-2.69.06-.88.2-1.61.71-2.17,1.53-.49.71-.83,1.67-1.06,2.92-.2,1.09-.39,2.57-.59,4.36-.13,1.1-.23,2.31-.3,3.61-.06,1.24-.13,2.23-.19,2.95-.64,7.78-.9,14.43-.77,19.75.13,5.41.8,9.91,1.99,13.36,1.33,3.85,3.31,6.8,5.08,8.28.05.04.29.24.6.48,1.46,1.09,3.09,1.99,4.85,2.47,9.54,2.57,18.88.52,24.34-1.16,1.31-.4,3.41-1.14,4.61-1.82,4.09-2.29,4.74-4.03,4.94-6.56.21-2.65-2.91-3.38-4.86-2.48Z"/>
        <path class="cls-9" d="M145.84,105.87c.4-1.57,1.18-2.75,2.32-3.52.5-.34,1.01-.59,1.53-.78.08-.19.02-.39-.19-.56-.25-.2-.52-.38-.82-.53-1.07-.53-2.11-.78-3.35-.78-.93,0-1.84.19-2.69.56-.93.4-1.69,1.07-2.27,2-.15.24-.42.73-1.05,2.24-.47,1.11-1.02,2.44-1.64,3.96-.65,1.58-1.35,3.33-2.08,5.2-.73,1.88-1.46,3.79-2.17,5.69-.71,1.89-1.38,3.71-2.02,5.45-.65,1.76-1.2,3.28-1.64,4.54,0,0,0,.01,0,.02-.16.44-.8.4-.9-.06-.05-.24-.1-.51-.15-.82v-.03c-.39-2.04-.79-4.15-1.21-6.33-.42-2.2-.88-4.32-1.36-6.3-.46-1.89-.91-3.75-1.35-5.53-.43-1.73-.83-3.12-1.23-4.22-.29-.97-.98-1.73-1.98-2.21-.86-.41-1.78-.61-2.72-.61-1.77,0-3.18.61-4.19,1.81l-.07.09c-.5.73-.79,1.48-.87,2.23-.08.73.05,1.69.41,3.03.12.55.31,1.51.56,2.84.25,1.36.51,2.73.76,4.09v.04c.97,5.42,1.79,10.04,2.46,13.87.68,3.85,1.29,7.14,1.83,9.77.55,2.67,1.04,4.83,1.46,6.43.44,1.67.87,2.96,1.32,3.92.5,1.08,1.04,1.83,1.64,2.31.57.46,1.23.79,1.97.99.66.19,1.3.28,1.93.28,1,0,1.97-.24,2.89-.72,1.47-.77,2.56-2.02,3.24-3.7.09-.21.29-.75.99-2.88.51-1.55,1.09-3.29,1.73-5.18,1.08-3.28,2.11-6.35,3.07-9.1.96-2.75,1.91-5.43,2.83-7.96.53-1.47,1.01-2.86,1.53-4.27-.13-1.18-.21-2.41-.22-3.71-.03-3.53.53-7.41,1.67-11.53Z"/>
        <path class="cls-9" d="M186.5,120.31c-.07-.87-.22-2.05-.45-3.51-.22-1.4-.44-2.88-.64-4.43-.2-1.53-.4-2.97-.6-4.29-.2-1.33-.37-2.32-.51-2.94-.64-3.31-2.81-5.07-6.27-5.07-.92,0-1.69.09-2.34.27-.75.21-1.41.62-1.96,1.21-.49.53-.92,1.21-1.3,2.08-.35.78-.72,1.77-1.13,3.02v.02c-.65,2.1-1.44,4.23-2.34,6.33-.91,2.11-1.87,4.07-2.87,5.85-1,1.78-1.99,3.34-2.95,4.64-.3.41-.6.79-.89,1.12-.45.53-1.32.31-1.46-.38-.21-.97-.46-2.24-.56-3.26-.19-1.94-.26-4.13-.19-6.49.06-2.34.29-4.53.67-6.51.41-1.92.09-3.44-.94-4.53-1-1.05-2.26-1.58-3.74-1.58-1.18,0-2.34.38-3.44,1.11-1.14.76-1.92,1.95-2.32,3.52-1.15,4.12-1.71,8-1.67,11.53.03,3.55.52,6.67,1.45,9.25.96,2.65,2.34,4.77,4.1,6.29,1.84,1.59,3.98,2.4,6.33,2.4,1.94,0,4.03-.64,6.19-1.89,2.11-1.22,4.23-3.19,6.3-5.85.3-.39.57-.72.81-1,.49-.57,1.43-.26,1.48.5.02.26.03.56.04.89.06,2.08-.03,6.62-.29,8.49-.25,1.86-.67,3.55-1.23,5.04-.55,1.46-1.22,2.72-1.97,3.72-.7.93-4.01,3.48-8.99.95-1.24-.63-2.28-1.64-3.15-2.91v-.02c-2.07-2.89-4.52-3.24-6.2-3.03-1.17.15-2.28.66-3.31,1.53l-.02.02c-1.52,1.33-1.93,3.04-1.21,4.93.61,1.61,1.75,3.15,3.39,4.59,1.6,1.4,3.68,2.39,5.92,3.55,6.75,3.47,15.95,1.13,18.2-.17,2.73-1.58,4.98-3.96,6.7-7.09,1.68-3.05,2.84-9.34,3.45-13.67.6-4.29.57-9.08-.09-14.24Z"/>
        <path class="cls-9" d="M71.68,129.93c-1.44,1.13-3.52,1.98-6.04,2.25-1.61.17-5.52.31-8.19-2.22-.91-.86-.88-2.23-.62-2.81.32-.7,1.17-.94,1.8-.54,1.19.75,3.67,1.96,6.87,1.62,2.93-.31,5.05-1.81,6.28-2.96.33-.31,1.09-1.35,1.29-1.76,1.48-3.07,1.89-6.77.54-10.96-.98-3-2.51-5.24-4.55-6.64-2.02-1.39-4.27-2.09-6.69-2.09-1.68,0-3.37.32-5.04.96-1.65.63-3.23,1.56-4.7,2.76-1.46,1.19-2.8,2.69-3.98,4.44-1.19,1.76-2.13,3.79-2.79,6.02-.23.74-.41,1.22-.66,1.68-.24.45-.66,1.06-1.1,1.55l-.02.02c-1.11,1.27-1.62,2.7-1.5,4.26.12,1.57.9,2.87,2.26,3.78.14.12.21.21.24.27.01.02.13.25.37,1.14,1.46,5.43,5.28,10.87,10.99,12.31,2.95.75,6.11.31,8.92-.85,4-1.65,7.93-4.63,9.81-8.6.72-1.53-.11-6.31-3.5-3.64ZM54.7,119.38c-.16-.21,1.05-.8,2.78-4.28.92-1.85,1.61-3.27,2.27-3.29.18,0-.18,1.81.1,1.86.26.05.76-1.51,1.51-2.46.63-.79,1.47-1.41,1.65-1.26.22.19-.98,2.69-.82,2.8.11.07.92-1.83,1.75-2.31.64-.37,1.72-.47,1.54-.32-1.16.93-1.56,2.62-1.53,2.67.13.19,1.3-1.65,2.5-1.42.61.11-.74.75-1.49,2.61-3.81,9.46-9.61,6.25-10.25,5.4Z"/>
      </g>
      <g>
        <g>
          <path class="cls-7" d="M62.89,188.96v-25.53c0-2.32,1.31-3.63,3.63-3.63h11.46c7.01,0,10.83,4.74,10.83,10.4s-3.87,10.3-10.83,10.3h-8.22v8.46c0,1.84-1.5,3.43-3.38,3.43s-3.48-1.6-3.48-3.43ZM77.06,165.7h-7.3v8.9h7.3c2.71,0,4.74-1.74,4.74-4.45s-2.03-4.45-4.74-4.45Z"/>
          <path class="cls-7" d="M118.3,186.98c.44.58.68,1.21.68,2.18,0,1.64-1.45,3.24-3.29,3.24-1.21,0-2.27-.63-2.85-1.45l-7.25-10.44h-5.66v8.46c0,1.84-1.5,3.43-3.39,3.43s-3.48-1.6-3.48-3.43v-25.53c0-2.32,1.31-3.63,3.63-3.63h11.46c6.72,0,10.83,4.4,10.83,10.4,0,5.17-2.95,8.17-6.14,9.33l5.46,7.45ZM99.93,174.6h7.2c2.76,0,4.84-1.74,4.84-4.45s-2.08-4.45-4.84-4.45h-7.2v8.9Z"/>
          <path class="cls-7" d="M139.44,159.27c9.77,0,16.88,6.96,16.88,16.68s-7.11,16.68-16.88,16.68-16.83-6.96-16.83-16.68,7.11-16.68,16.83-16.68ZM139.44,165.36c-5.95,0-9.77,4.55-9.77,10.59s3.82,10.59,9.77,10.59,9.82-4.59,9.82-10.59-3.87-10.59-9.82-10.59Z"/>
        </g>
        <g>
          <path class="cls-9" d="M61.7,187.77v-25.53c0-2.32,1.31-3.63,3.63-3.63h11.46c7.01,0,10.83,4.74,10.83,10.4s-3.87,10.3-10.83,10.3h-8.22v8.46c0,1.84-1.5,3.43-3.38,3.43s-3.48-1.6-3.48-3.43ZM75.86,164.51h-7.3v8.9h7.3c2.71,0,4.74-1.74,4.74-4.45s-2.03-4.45-4.74-4.45Z"/>
          <path class="cls-9" d="M117.11,185.79c.44.58.68,1.21.68,2.18,0,1.64-1.45,3.24-3.29,3.24-1.21,0-2.27-.63-2.85-1.45l-7.25-10.44h-5.66v8.46c0,1.84-1.5,3.43-3.39,3.43s-3.48-1.6-3.48-3.43v-25.53c0-2.32,1.31-3.63,3.63-3.63h11.46c6.72,0,10.83,4.4,10.83,10.4,0,5.17-2.95,8.17-6.14,9.33l5.46,7.45ZM98.74,173.41h7.2c2.76,0,4.84-1.74,4.84-4.45s-2.08-4.45-4.84-4.45h-7.2v8.9Z"/>
          <path class="cls-9" d="M138.25,158.08c9.77,0,16.88,6.96,16.88,16.68s-7.11,16.68-16.88,16.68-16.83-6.96-16.83-16.68,7.11-16.68,16.83-16.68ZM138.25,164.17c-5.95,0-9.77,4.55-9.77,10.59s3.82,10.59,9.77,10.59,9.82-4.59,9.82-10.59-3.87-10.59-9.82-10.59Z"/>
        </g>
      </g>
    </g>
  </g>
</svg>