<?xml version="1.0" encoding="UTF-8"?>
<svg id="Layer_2" data-name="Layer 2" xmlns="http://www.w3.org/2000/svg" viewBox="0 0 302.81 115.52">
  <defs>
    <style>
      .cls-1 {
        fill: #58736e;
        stroke-width: 0px;
      }
    </style>
  </defs>
  <g id="Layer_11" data-name="Layer 11">
    <g>
      <g>
        <path class="cls-1" d="M1.38,63.35c.11-.26.21-.51.32-.76-.28.01-.51.03-.68.04-.39.31-1.01,1.17-1.01,2.57,0,2.03,1.25,3.19,3.04,3.19h1.95v6.61c.1,5.68-.23,11.56-.33,17.43.06.28.07.6.05.88,0,.09-.03.18-.06.26-.04,3.65.02,7.3.35,10.89v3.58h-1.95c-1.79,0-3.04,1.17-3.04,3.19,0,1.4.62,2.18,1.01,2.57h1.47c.09-.25.2-.48.34-.68.32-.06.94-.37,1.15-.19.27.23.49.53.67.87h17.48c.3-.37.88-1.11.93-2.4-.14-.02-.28-.03-.42-.05,0-.08.01-.15.02-.23.14.01.27.02.41.04-.03-1.98-1.19-3.12-3.03-3.12h-2.49v-12.77c9.15,1.44,16.7-.19,21.69-3.81-.03-.15-.06-.29-.09-.44.09-.1.18-.21.27-.31.03.18.06.36.09.55,4.02-3.03,6.31-7.4,6.31-12.51,0-6.69-2.99-13.01-12.77-15.45.12.13.29.36.41.49-.22.41-.43.83-.74,1.4-.28-.44-.62-.86-.59-.93.19-.39.42-.76.7-1.01-2.7-.65-5.9-1.02-9.68-1.02-9.27,0-16.7.15-20.27.29-.34.31-.83.59-1.49.81ZM17.91,111.6c.13.17.38.34.37.5-.01.31-.17.6-.31,1.08-.22-.38-.45-.61-.42-.75.05-.3.24-.55.37-.82ZM41.09,70.38c.22.4.48,2.02.62,2.47.04.13-.28.48-.59.98-.2-.76-2.23-1.23-2.3-1.72-.02-.11,2.13-1.56,2.27-1.72ZM39.91,86.66c.44.44.65.66.91.92-.22.25-.39.45-.91,1.06v-1.98ZM37.75,87.73c.05.11.1.22.15.32h-.29c.04-.1.09-.21.13-.32ZM36.51,77.97c.1-.04.22-.05.33-.07,0,.12-.02.24-.03.36-.12-.04-.25-.07-.36-.12-.01,0,.01-.16.06-.18ZM32.48,85.53c.04-.09.11-.18.17-.27.05.09.1.18.13.28,0,.02-.1.06-.16.09-.05-.04-.15-.1-.14-.11ZM35.82,83.76c-.07.08-.14.16-.21.24-.17-.17-.35-.34-.52-.51.07-.08.14-.16.21-.24.17.17.34.34.52.52ZM35.19,80.24c-.13.75-.24,1.37-.41,2.35-.41-.86-.7-1.47-1.08-2.27.66-.03,1.04-.05,1.49-.07ZM34.88,86.36c-.02.16-.03.33-.05.49q-1.28.53-1.8-.67c.71.07,1.28.13,1.85.18ZM20.63,66.69s.04.16.02.18c-.1.08-.22.15-.33.22,0-.12-.02-.24-.03-.36.11-.01.23-.05.34-.03ZM19.8,66.15l-.05.16-.1-.08.15-.07ZM17.53,67.7c10.6-1.3,14.18,2.97,15.21,7.67.18-.09.48-.13.7-.2,0,.36.06.73-.07,1.08-.03.09-.2.17-.43.27.12.86.17,1.72.17,2.56,0,7.63-5.22,12.7-15.58,11.37v-22.74ZM14.74,112.01s-.05-.08-.08-.13c.05-.03.11-.05.17-.08.03.05.05.1.08.14-.06.02-.11.07-.17.07ZM17.31,110.68c.03.15.06.29.08.44-.38.1-.76.2-1.14.29-.02-.13-.05-.25-.07-.38.37-.12.75-.24,1.12-.35ZM15.43,66.04h0c-.02-.17-.05-.35-.07-.52.01,0,.03,0,.04,0,.02.17.03.34.05.51-.28.45-.55.9-.83,1.35-.18-.18-.37-.36-.55-.54.31-.44.27-1.26,1.36-.8ZM8.57,88.91c.64-.7,3.81.56,4.16,1.09.19.28.08.83.1,1.16-.75.71-1.85.77-2.06.17-.09-.27-2.44-2.15-2.2-2.42ZM8.68,75.78c-.06,0-.12-.01-.18-.02.01-.17.02-.34.04-.51.08,0,.15.02.23.02-.03.17-.06.33-.09.5ZM7.82,64.42c.16-.01.49-.13.55-.02.14.23.24.56.17.87-.14.64-.4,3.79-.61,4.44-.13-.03-.95-.64-1.01-.74-.46-.68.27-3.78.9-4.56ZM7.17,105.12c.27.21.59.36.77.67.08.14-.13.62-.3,1.29-.35-.61-.58-.91-.71-1.28-.05-.14.15-.45.24-.68ZM6.42,63.9c.12.09.24.17.35.26-.23.26-.45.53-.68.79-.11-.08-.23-.16-.34-.25.22-.27.44-.54.66-.8Z"/>
        <path class="cls-1" d="M87.91,99.4c-1.48,0-2.1,1.01-3.43,2.8-2.18,3.04-3.74,5.84-7.79,5.84h-7.71v-3.34c0-2.11,0-4.19,0-6.26,0,.01,0,.03,0,.04-.12.34-.5.68-.77.7-.58.05-1.1-.77-1.02-1.69.24-.16.57-.56.91-.56.41-.01.77.44.89.93,0-.65,0-1.3,0-1.94,0-.41,0-.83.01-1.24.29-5.19-.02-8.15-.02-12.72,0-.42,0-.85,0-1.27,0-2.53,0-5.09,0-7.7,0-.4,0-.8,0-1.2,0-.4,0-.8,0-1.2v-2.2h2.1c1.87,0,3.12-1.17,3.12-3.19,0-1.4-.62-2.26-.93-2.57h0c-.05.66-.11,1.31-.16,1.98-.44-1.24-.53-1.5-.17-1.98h-20.46c-.31.31-1.01,1.17-1.01,2.57,0,2.03,1.25,3.19,3.12,3.19h1.87v3.34c0,.42,0,.86-.01,1.35-.25,4.53-.05,7.98,0,11.97,0,.35,0,.7,0,1.05v12.48l.22-.08c.07.18.15.36.22.53-.15.06-.3.11-.44.17v4.49s.01-.01.02-.02c.13.11.26.23.38.34l-.16.17c-.08-.07-.16-.13-.24-.2v4.07h-1.87c-1.87,0-3.12,1.17-3.12,3.19,0,1.32.7,2.18,1.01,2.57h27.73c.86.62,1.87,1.71,3.35,1.71s2.26-.93,3.19-2.96c.09-.22.19-.43.28-.64-.27-.48-.56-1.01-.89-1.62.6.39.97.64,1.21.9,1.8-4.17,3.07-7.4,3.07-9.3,0-1.79-1.09-2.49-2.49-2.49ZM73,66.49c.02.05.04.1.04.16,0,.02-.07.04-.1.05-.01-.05-.04-.1-.03-.15,0-.02.06-.04.1-.06ZM54.82,65.41l-.22-.72c.15-.03.29-.06.44-.09l.03.75c-.08.02-.17.04-.25.06ZM68.32,85.84c.12,0,.24.02.36.02,0,.02,0,.04,0,.06h-.36s0-.06,0-.08ZM68.34,91.11c.14.15.28.31.41.46-.25.23-.51.47-.76.7-.12-.11-.23-.22-.35-.33l.7-.83ZM60.22,65.9l.03.55-.16.02c-.02-.18-.05-.37-.07-.55.07,0,.14-.01.21-.02ZM60.08,69.89l.03.14-.16-.05.14-.09ZM58.7,87.93c.05.02.11.04.15.06,0,.06.02.13,0,.16-.04.04-.1.04-.16.06,0-.09,0-.19,0-.28ZM56.86,67.68c0-.23-.07-.49.02-.69.1-.23.35-.4.53-.59.09.07.18.13.27.2-.18.38-.36.76-.54,1.14-.09-.02-.19-.04-.28-.06ZM57.22,93.24c.09-.49.18-.98.27-1.47.11,0,.22,0,.33,0,.05.3,3.91.6,3.87.89-.03.25-3.99.47-4.12.7-.12-.04-.24-.08-.36-.12ZM57.8,98.18l.03-.16.12.09-.15.08ZM57.93,70.44c-.11-.02-.21-.04-.32-.06.04-.3.09-.61.13-.91.11.02.22.04.33.06-.05.3-.09.61-.14.91ZM58.73,113h-.5c0-.06,0-.12,0-.18l.49.03c0,.05,0,.1,0,.15ZM58.77,112.88c-.28-.14-.51-.7-.39-1.06.25-.75,1.62-3.46,1.87-3.06.33.54.34,3.23.59,4.38-1-.1-1.62-.04-2.06-.26ZM60.61,97.95s-.06-.07-.09-.11c.09-.02.19-.03.33-.06-.1.07-.16.13-.23.17ZM61.54,64.79c-.16-.12-.31-.25-.47-.37.04-.07.09-.14.13-.22.16.06.32.12.49.19-.05.13-.1.27-.15.41ZM66.27,95.09c-.02-.09-.04-.17-.06-.26.2-.03.41-.07.61-.1.02.09.04.18.06.27-.2.03-.41.06-.61.09ZM67.21,65.14s.09.05.14.08c-.02.07-.03.17-.07.19-.04.02-.09-.05-.14-.08.02-.07.03-.17.07-.19ZM67.61,109.63c-.07-.07-.14-.14-.21-.21.14-.17.29-.34.43-.51.07.07.14.14.21.21-.14.17-.29.34-.43.51ZM70.75,113.02c-.07-.67-.11-1.07-.2-1.89.62.73.98,1.15.2,1.89ZM76.66,108.54c.2.08.4.16.59.24-.07.11-.14.22-.22.33l-.46-.39c.03-.06.06-.12.08-.18ZM77.35,110.71c-.13-.11-.26-.23-.38-.34l.16-.17c.13.11.26.22.4.33-.06.06-.12.12-.17.18ZM85.15,107.97c-.22-.26-.38-.44-.53-.62-.18.06-.36.12-.54.18-.04-.12-.09-.24-.14-.36.14-.04.27-.09.41-.13,0,0-.01-.01-.02-.02.32-.26.51-.42.91-.74-.04.64-.06,1.03-.1,1.68ZM85.55,111.31c-.07-.07-.13-.15-.2-.22.13-.2.27-.41.4-.61.11.11.22.21.34.32-.18.17-.36.34-.54.52ZM87.03,104.98c-.1-.06-.2-.12-.29-.18.1-.19.21-.38.31-.58.09.06.19.11.28.17-.1.2-.2.39-.3.59Z"/>
        <path class="cls-1" d="M132.91,110.31c.52-.49.73-.69,1.12-1.05.08.35.14.62.21.9.48-.48.92-1,1.33-1.54-.01-.14-.03-.28-.04-.42.1-.03.19-.06.29-.08.01.03.03.07.04.1,2.27-3.23,3.43-7.55,3.43-12.86v-2.18c-.26-4.45-.26-7.73,0-12.62v-3.66c0-2.01,0-3.56.03-4.76-.26.11-.52.23-.78.34-.06-.18-.12-.36-.19-.53.32-.1.65-.2.97-.31.03-1.85.08-2.76.12-3.23h1.87c1.87,0,3.04-1.17,3.04-3.19,0-1.4-.62-2.26-.93-2.57h-.26c-.04.21-.09.41-.13.62-.28-.09-.5-.11-.51-.18-.03-.15-.05-.3-.05-.45h-13.85c-.31.31-.93,1.17-.93,2.57,0,2.03,1.17,3.19,3.04,3.19h2.26c.08.7.23,2.49.23,5.61v6.56c.35,4.88.35,8.16,0,12.25v1.91c0,.34,0,.68-.02,1,.36,5.02-2.92,10.49-8.39,12.68-5.34.49-7.81-1.18-8.19-1.37-3.08-1.55-4.85-4.65-5.32-9.33-.03-.28-.05-.57-.07-.86-.01-.17-.02-.33-.04-.49-.15.14-.34.3-.58.49-.21-.65-.38-1.19-.7-2.17.55.29.94.5,1.2.69-.48-7.42-.06-13.34.05-20.35,0-.29,0-.58,0-.86v-1.05c-.13-.02-.27-.06-.41-.08-.01-.11-.02-.22-.03-.34.14-.04.28-.07.44-.11v-4.17h1.95c1.95,0,3.12-1.17,3.12-3.19,0-1.4-.62-2.26-.93-2.57h-10.7c-.05.06-.1.13-.14.19-.07-.06-.14-.13-.21-.19h-9.9c-.24.24-.7.79-.91,1.66.03.06.07.13.1.19-.05,0-.09,0-.14.01-.04.22-.07.45-.07.7,0,2.03,1.25,3.19,3.12,3.19h1.87v2.84c.23,5.44.23,9.82,0,14.88,0,.33,0,.65,0,.97v8.65c0,2.61.27,4.96.82,7.06.1-.1.19-.2.29-.31.16.19.32.38.48.57-.08.07-.15.13-.23.2-.17-.13-.34-.25-.51-.38,2.16,8.07,8.59,12.33,20.5,12.33,6.1,0,10.82-1.58,14.11-4.61-.24-.08-.49-.16-.87-.28ZM139.07,66.73c0,.08.02.16.03.24-.05-.01-.12,0-.16-.04-.03-.02-.01-.1-.02-.15.05-.02.1-.03.15-.05ZM137.83,63.13s.06.05.09.07c-.08.11-.17.23-.25.34-.04-.03-.08-.06-.11-.09l.27-.32ZM138.17,77.71c.08.07.16.13.25.2-.3.58-.6,1.16-.89,1.75-.18-.13-.36-.25-.53-.38.39-.52.79-1.05,1.18-1.57ZM136.92,97.39c-.03.05-.09.16-.1.15-.09-.05-.17-.11-.29-.19.16.02.27.03.39.04ZM135.09,85.33c.05,0,.13,0,.15.02.03.04.03.11.04.16-.08,0-.16-.02-.24-.03.02-.05.03-.1.05-.15ZM134.71,77.68c.03.06.07.12.08.19,0,.02-.09.06-.14.09-.03-.06-.08-.11-.09-.18,0-.02.1-.07.15-.1ZM134.46,99.7l.15.05-.15.05v-.1ZM112.33,64.61l.03.13-.18-.04.16-.09ZM94.25,67.4c-.07-.09-.14-.17-.22-.26.18-.18.35-.35.53-.53.08.1.16.21.24.31-.18.16-.37.32-.55.48ZM107.19,90.41q-.02-1.75,1.31-2.38c-.48.87-.89,1.62-1.31,2.38ZM108.36,96.09c-.01.06-.02.12-.03.2-.09-.02-.19-.04-.28-.08-.01,0,0-.11.01-.17l.31.04ZM107.63,77.32c-.41.06-.51.07-.61.09,0-.03,0-.06,0-.09h.61ZM106.89,79.13s.02-.01.04-.02c.17-.17.34-.33.51-.5.03.05.07.1.1.16-.2.11-.41.23-.61.34,0,0-.02.02-.02.02,1.18.22.67.97.21,1.7l-.21-1.69h0s0-.01,0,0ZM106.24,84.37c.2-.07.41-.11.62-.15-.02.14-.04.28-.07.51-.21.02-.42.06-.6.03-.04,0,.03-.38.05-.39ZM106.54,91.45c-.05.02-.1.04-.15.06-.02-.04-.04-.08-.05-.13.05-.02.1-.05.15-.05.02,0,.04.07.06.11ZM99.38,72.7c.63-.24,1.03-.4,1.86-.73-.61.84-.92,1.45-1.86.73ZM102.19,77.76c-.48-.79-.85-3.28-1.34-4.09.73.13,1.26.22,1.89.33-.2.68-.35,3.07-.56,3.76ZM103.12,97.57c0,.13,0,.26,0,.39-.19-.04-.37-.09-.56-.13.01-.09.03-.18.04-.26h.52ZM102.18,99.41c-.13.16-.26.32-.39.48-.08-.06-.16-.11-.24-.16.13-.16.26-.32.39-.48.08.05.15.11.23.16ZM100.58,101.06c.48.03.79.05,1.57.1-.55.7-.79,1-1.21,1.54-.15-.7-.24-1.09-.36-1.64ZM101.52,102.84c-.01-.12-.03-.23-.04-.35l.83-.14c.02.13.03.26.05.39l-.83.1ZM102.49,103.7v-1.35c.92.55.8.9,0,1.35ZM103.22,102.43c-.12.03-.23.05-.35.08.05-.89.09-1.78.14-2.67.07,0,.14,0,.21,0v2.58ZM102.8,63.86c-.05-.11-.11-.22-.16-.33.21-.14.41-.28.62-.42.07.14.14.28.22.42l-.67.33ZM104.77,63.7c-.25-.03-.49-.05-.74-.08.04-.14.09-.28.13-.42l.69.23c-.03.09-.05.18-.08.27ZM105.17,97.78c-.24-.13-1.23-2.87-1.19-3.41.41-.11,2.07,1.67,2.61,1.52.12.71.21,1.26.3,1.8-.59.05-1.31.3-1.72.08ZM106.38,102.88c.16-.15.32-.29.48-.44.07.09.14.18.21.26-.16.15-.32.29-.48.44-.07-.09-.14-.18-.21-.27ZM106.9,104.31c.05-.11.09-.22.14-.34.05.11.1.21.15.32-.1,0-.19.01-.29.02ZM107.86,105.69s0,.02-.01.02c-.06-.03-.16-.08-.16-.08.02-.05.04-.09.06-.14-.1-.16-.19-.32-.33-.58.72.07,1.31.12,2.16.2-1.08.85-1.36,1.07-1.72.57ZM108.89,72.6c-.01-.19-.02-.39-.03-.58.26-.03.52-.06.78-.09.03.27.05.55.08.82-.28-.05-.55-.1-.83-.15ZM111.17,103.24c-.17-.01-.34-.03-.5-.04,0-.08.01-.16.02-.24.17.02.33.04.5.06,0,.08-.01.15-.02.23ZM118.26,110.72s-.08-.08-.13-.13c.12-.12.23-.24.35-.36.05.06.11.11.16.17-.13.11-.26.22-.39.33ZM129.71,107.6c-.5.17-1,.34-1.51.5-.02-.26-.05-.51-.07-.77.51-.14,1.02-.79,1.56.26h0c.09-.15.19-.3.28-.45.01,0,.02.02.03.03-.1.14-.19.28-.29.42Z"/>
        <path class="cls-1" d="M167.96,111.24c0-2.02-1.17-3.19-3.43-3.19h-2.41c-.02-.58-.05-1.42-.08-2.48-.01-.36-.02-.74-.03-1.14-.11-4.74-.19-10.23-.12-14.72,0-.31,0-.63,0-.96v-10.06h.08s.26.36.72,1c.43.03.7.05,1.21.08-.15.35-.28.65-.43,1,.66.91,1.5,2.07,2.48,3.42.16.23.32.46.49.69.64,1.01,1.33,2.03,2.05,3.07.24.34.48.69.73,1.04,1.14,1.41,1.51,2.13,3.08,4.22.26.36.53.71.8,1.07,2.4,3.22,4.86,6.5,7.05,9.78,1.19,1.52,2.4,2.93,3.79,4.93.3.42.59.82.86,1.19,1.63,2.25,2.65,3.65,2.65,3.65h9.81v-2.6c0-.4,0-.85,0-1.32.1-4.77.06-8.97,0-13.03,0-.34,0-.67,0-1v-11.88c0-8.18.16-13.79.31-15.58h1.95c1.71,0,2.88-1.17,2.88-3.19,0-1.4-.62-2.26-.93-2.57h-15.11c-.05.07-.13.17-.21.29.04.26.09.55.16.98-.21-.16-.37-.28-.51-.39-.21.43-.38.99-.38,1.7,0,2.03,1.17,3.19,3.43,3.19h2.26c.08,1.95.23,6.62.23,13.24v14.96h-.08s-1.3-1.8-3.3-4.56c-.17-.23-.34-.47-.51-.71-1.89-3.28-4.11-6.48-6.43-9.6-.15-.2-.29-.39-.44-.58-1.86-1.87-2.93-4.54-4.89-6.34-.15-.19-.3-.38-.44-.57-.74-.95-1.47-1.89-2.19-2.82-.19-.27-.38-.53-.57-.79-.18-.24-.35-.48-.52-.71l-.38.45c-.08-.06-.15-.13-.23-.19l.43-.51c-2.97-4.11-5.07-7.02-5.07-7.02h-12.67s0,0,0,0c0,0,0,0,0,0h-2.04c-.39.31-1.01,1.17-1.01,2.57,0,2.03,1.01,2.96,2.88,3.19h2.1v24.15c0,9.11-.16,13.86-.31,15.5h-1.95c-1.71,0-2.88,1.17-2.88,3.19,0,1.32.62,2.18.93,2.57h6.65c.02-.07.04-.14.07-.22.05.08.09.15.13.22h8.41c.31-.39.93-1.25.93-2.57ZM188.47,67.28c-.36-.22-.57-.35-.93-.56.33-.22.53-.36,1.08-.72-.08.66-.11.9-.15,1.28ZM188.88,67.65c-.02-.22-.03-.36-.04-.51.21-.04.43-.12.61-.1.07,0,.03.26.04.4-.21.07-.41.14-.61.2ZM196.79,110.28c-.05.08-.1.16-.16.23-.06-.1-.13-.19-.19-.29.11.02.23.04.34.06ZM193.3,96.33c.08.04.15.09.23.13-.1.15-.19.3-.31.44,0,.01-.17-.11-.26-.16l.34-.41ZM193.66,111.69c-.45-.53-.72-.84-1.27-1.48,1.59-.05,1.68.38,1.27,1.48ZM191.33,66.19q.69,1.77,0,2.63v-2.63ZM190.85,103.53h.36s0,.05,0,.08c-.12,0-.24-.02-.36-.02,0-.02,0-.04,0-.06ZM187.66,94.34c-.71.04-1.43.08-2.14.12-.03-.17-.06-.35-.09-.52.71-.39,1.43-.51,2.23.4ZM183.21,94.61s.05.07.08.11c-.1.09-.19.17-.29.26-.03-.04-.06-.08-.09-.13.1-.08.2-.16.3-.24ZM177.97,81.92c.24.02.48.04.73.07-.02.16-.05.33-.07.5-.25-.09-.49-.18-.74-.27.03-.1.06-.2.08-.29ZM179.44,87.7l.41.37c-.67.57-1.35,1.14-2.02,1.71-.02-.03-.04-.06-.05-.09l1.67-1.99ZM177.11,91.11c.05.07.11.13.16.2l-.32.39c-.1-.09-.19-.19-.29-.28.15-.1.3-.2.45-.31ZM175.44,81.92c.05.12.09.24.14.36-.31.1-.62.2-.93.29l-.13-.34c.31-.11.62-.21.92-.32ZM173.19,73.29c.07.19.14.37.22.56-.13.05-.25.09-.38.14-.01-.23-.02-.45-.04-.68l.2-.02ZM168.99,77.47s0-.09,0-.14h.46s0,.07,0,.1c-.15.01-.31.02-.46.03ZM171.17,86.02h0s.05.05.05.05c.6-.36.83-.03.82.69l-.82-.69s-.03.01-.04.02c-.11-.06-.21-.13-.25-.15.04.01.14.04.25.08ZM169.49,69.33s.1.09.14.13c-.13.14-.25.27-.38.41-.05-.05-.1-.09-.15-.14.13-.14.25-.27.38-.41ZM169.89,70.85c.22,1.19-.06,1.79-.97,2.05.28-.6.57-1.19.97-2.05ZM167.38,83.21s-.1.06-.15.1c-.01-.12-.02-.23-.04-.39.08.12.14.2.19.29ZM166.67,66.91c.1.1.21.2.31.3-.03.03-.05.06-.08.09l-.33-.28s.07-.08.1-.11ZM166.78,73.03c.04.2.08.39.12.59-.07.02-.14.04-.2.06-.1-.15-.19-.3-.29-.45.12-.07.25-.13.37-.2ZM163.83,66.69c.02.06.06.12.04.16-.03.05-.11.08-.18.12-.02-.06-.06-.12-.04-.16.02-.05.11-.08.17-.12ZM163.59,68.44c.05.11.17.27.13.34-.08.13-.25.21-.38.31-.07-.09-.14-.18-.22-.27l.47-.37ZM162.87,67.35c.03.13.06.25.09.38-.21.05-.42.1-.63.15-.03-.11-.05-.22-.08-.33.21-.07.41-.14.62-.2ZM162.27,69.38c.01.1.03.2.05.34-.07-.1-.13-.17-.16-.24,0-.01.08-.06.12-.09ZM154.97,66.29l-.05-.15h.1s-.05.15-.05.15ZM155.14,108.87c-.16-.02-.3-.09-.45-.14.03-.09.05-.18.08-.27.17.03.34.07.51.1-.05.11-.12.31-.15.31ZM158.17,85.76v1.35c-.92-.55-.8-.9,0-1.35ZM156.4,100.83c.03-.2.06-.41.08-.61.56.04,1.12.08,1.96.14-.95,2.48-1.45,1.28-2.05.47ZM158.71,90.21c-.08-.05-.15-.11-.23-.16.13-.16.26-.32.39-.48.08.06.16.11.24.16-.13.16-.26.32-.39.48ZM159.4,74.11c-.04-.1-.08-.2-.13-.31l.67-.26c.05.12.1.23.14.35-.23.07-.46.15-.68.22ZM159.87,68.27c-.13-.06-.25-.13-.38-.19.15-.29.3-.59.44-.88.14.07.28.14.43.22l-.49.86ZM161.36,68.85s-.04.09-.05.13c-.04-.01-.08-.03-.12-.04-.06.09-.13.18-.19.27-.1-.08-.2-.17-.3-.25.17-.25.34-.5.5-.75l.32.26c-.1.14-.2.28-.29.42.05-.02.09-.03.14-.05ZM165.8,112.1c-.15,0-.29.01-.44.02-.17-.32-.33-.63-.5-.95-.04.11-.08.21-.13.32-.39-.2-.78-.41-1.18-.61.04-.1.08-.2.12-.29.36.13.72.25,1.08.38-.16-.31-.33-.62-.49-.93.08-.06.16-.13.24-.19.45.28.91.56,1.37.84-.03.51-.05.97-.07,1.42Z"/>
        <path class="cls-1" d="M236.47,62.48c-.3.17-.64.5-.88.49-.51-.02-.96-.21-1.46-.33-.02-.25-.12-.48-.03-.66.11-.21.43-.52.58-.52.11,0,.23,0,.34,0-.84-.08-1.71-.13-2.63-.13-2.79,0-5.5.44-8.05,1.29-.42.14-.84.3-1.26.46-4.1,1.31-6.29,3.78-9.62,7.24-.29.37-.56.75-.83,1.14-1.68,2.45-2.97,5.32-3.78,8.61-.1.41-.19.83-.28,1.25-.54,3.05-.54,7.43-.5,10.68.03.31.06.62.1.94.51,4.76,1.8,8.71,3.71,11.9.24.4.49.79.74,1.16,3.07,3.54,6.35,6.83,10.26,7.79.42.15.84.28,1.27.41,2.57.76,5.36,1.12,8.31,1.12,7.94,0,12.54-3.27,14.57-4.52,2.42,1.95,3.66,2.88,5.45,2.88s3.12-1.17,3.12-2.65c0-2.57-1.89-3.31-2.21-9.41-.04.05-.07.11-.11.16-.14-.12-.28-.25-.42-.37.17-.17.33-.34.5-.51-.01-.35-.02-.71-.02-1.09v-6.32c-.27-.03-.59-.06-1.07-.12.76-.51,1.09-.73,1.59-1.06.01.19.02.34.03.49h1.4c1.79,0,3.04-1.25,3.04-3.27,0-1.4-.62-2.18-1.01-2.57h-20.1c-.31.39-1.01,1.17-1.01,2.57,0,1.01.31,1.83.86,2.4.18.19.41.32.62.48,1.28.95,3.6.76,3.6.76.22,3.1.16,6.4-.1,9.7-.02.28,0,.45,0,.45,0,4.36-3.51,6.31-7.48,6.31-2.06,0-3.87-.56-5.42-1.62-.31-.21-.61-.44-.9-.7-1.22-1.35-2.12-2.7-2.85-4.14-.16-.02-.33-.03-.49-.05.02-.16.03-.33.05-.49.06-.02.1-.04.15-.06-.87-1.86-1.49-3.87-2.15-6.2-.1-.54-.2-1.1-.28-1.67-.33-2.28-.5-4.78-.5-7.44,0-5.21.93-10.12,2.82-13.83.21-.41.43-.81.67-1.19q.73-1.01,1.55-2.08c.28-.31.58-.6.88-.88.92-.82,1.95-1.46,3.09-1.89.36-.13.73-.25,1.11-.34,3.93-1.3,8.31.89,11.72,4.79.28.34.55.71.81,1.1.52.77.99,1.6,1.41,2.48.86,1.87,1.87,3.12,3.51,3.12s2.73-.86,2.73-2.49c0-.07,0-.15,0-.23l-.25.16-.7-1.98c.16-.06.32-.12.49-.18.14.48.28.97.43,1.45-.19-2.2-1.04-6.04-1.52-8.73-.55-2.73-1.4-4.05-3.19-4.05-1.01,0-1.87.54-2.8,1.87-1.89-1.24-4.64-2.35-8.13-2.81.07.02.14.04.2.06.22.1.22.57.32.88ZM213.33,79.32c.09.06.19.11.28.17-.1.2-.2.39-.3.59-.1-.06-.2-.12-.29-.18.1-.19.21-.39.31-.58ZM210.78,76.86c-.04-.1-.07-.2-.11-.31.05-.01.11-.02.16-.03-.02.11-.03.22-.05.34ZM213.33,93.16c-.42-.39-1.91,2.04-2.31,1.67.03-.49,1.2-3.73,1.26-4.67.54,1.05.9,1.68,1.19,2.34.06.14-.08.4-.14.66ZM214.86,89.67c-.04-.13-.08-.25-.12-.38.09,0,.18.02.27.03-.05.12-.1.23-.15.35ZM253.34,99.6c0,.12,0,.21-.03.3,0,0-.1,0-.15-.01.05-.08.11-.17.18-.28ZM254.26,89.34c.09.07.18.13.28.2-.02.02-.04.05-.06.07l-.26-.22s.03-.04.04-.05ZM252.59,91.51c.07.07.14.14.21.21-.02.02-.04.05-.06.07l-.23-.19s.05-.06.08-.09ZM251.74,94.76s.12,0,.19,0c.01.06.05.17.03.18-.1.06-.21.09-.32.14.03-.11.05-.22.1-.32ZM251.23,88.38c-.05.11-.09.21-.14.32-.06-.07-.13-.14-.19-.21.11-.04.22-.07.33-.11ZM250.4,98.04c.08.26.16.51.24.77-.12.04-.24.07-.36.11-.04-.28-.09-.55-.13-.83.09-.02.17-.04.26-.05ZM250.09,98.55s.08.03.13.04c-.02.05-.03.11-.07.14-.02.01-.08-.02-.12-.04.02-.05.03-.11.07-.15ZM249.85,87.89q-.13,1.08-1.32,1.13c.5-.43.85-.73,1.32-1.13ZM240.81,111.54c.04.08.08.16.12.25-.17.08-.35.17-.52.25-.05-.1-.1-.2-.14-.3.18-.07.36-.13.55-.2ZM236.71,110.29l.25.21s-.02.03-.03.05c-.09-.06-.18-.12-.27-.18.02-.02.04-.05.06-.07ZM230.52,111.53c.15.05.31.1,0,0h0ZM229.81,110.81l-.07.15-.06-.15h.13ZM224.17,106.87c.41.86.7,1.47,1.08,2.27-.66.03-1.04.05-1.49.07.13-.75.24-1.37.41-2.35ZM223.34,105.46c.17.17.35.34.52.51-.07.08-.14.16-.21.25-.17-.17-.34-.34-.52-.52.07-.08.14-.16.21-.24ZM220.73,75.3c.28.1.55.2.83.3-.02.1-.04.2-.06.3-.28-.01-.56-.03-.84-.04.02-.19.05-.37.07-.56ZM216.07,77.22c-.16-.16-.31-.33-.47-.49.07-.06.13-.13.2-.19.16.16.33.32.49.47-.07.07-.15.14-.22.21ZM219.04,102.8c-.44-.44-.65-.66-.91-.92.22-.25.39-.45.91-1.06v1.98ZM217.99,86.59c.62.17.98.27,1.48.41-.19.71-.35,1.28-.62,2.28-.35-1.1-.55-1.71-.86-2.69ZM219.55,98.74c-.05-.29-.09-.58-.14-.86.08-.09.16-.18.24-.27.06.28.12.55.17.83-.09.1-.18.21-.27.31ZM218.48,77.91c.7-.72,1.15-1.19,1.6-1.66.11.13.22.26.33.39-.3.7-.58,1.42-1.93,1.27ZM220.49,98.42c-.19-.48-.25-.64-.31-.79.1-.02.21-.04.31-.06v.86ZM221.38,107.21l.22.36c-.18.07-.35.13-.95.36.48-.47.61-.6.74-.72ZM221.05,101.41h.29c-.04.1-.09.21-.13.32-.05-.11-.1-.22-.15-.32ZM220.62,80.33c.35-.24.48-.4.58-.39.16.02.31.17.67.39h-1.26ZM250.22,70.62s.02,0,.04-.01c0,.03-.02.06-.02.09,0,.25.03.49.04.73-.07,0-.14-.01-.22-.02.06-.24.12-.48.17-.72,0-.02,0-.03,0-.05,0,0,0,0,0-.01,0,0-.01-.01-.02-.02-.55.25-.94.22-.9-.82.36.33.63.57.9.82ZM248.31,67.37c.07.04.14.09.24.17-.14-.02-.24-.03-.33-.05.03-.04.08-.12.09-.12ZM247.77,66.35c.02.06.04.12.06.17-.04.02-.09.04-.13.05.03-.08.05-.15.08-.23ZM247.65,68.34c.09.07.18.15.27.22-.1.13-.18.31-.31.39-.07.04-.22-.08-.33-.13.12-.16.25-.31.37-.47ZM240.3,66.64l.1.09-.17.11.07-.19Z"/>
        <path class="cls-1" d="M285.72,62.63c-1.88-.07-3.53-.11-5.1-.12-.22,0-.45,0-.67,0-.77.03-1.41.06-1.96.09v2.33c-.6-1.53-.68-1.74-.24-2.32-2.25.1-2.84.11-4.54,0-.18,0-.35,0-.53.01-1.2.02-2.36.02-3.42.02h-6.26c-.31.31-1.01,1.17-1.01,2.57,0,2.03,1.25,3.19,3.12,3.19h1.87v.73c-.07,2.8-.07,5.6-.05,8.4.98-1.1,2.08-1.38,3.23-1.53-.99.57-1.41,2.46-3.23,1.74.1,10.19.57,20.44-.28,30.68,0,0-2.19,0-3.18.01-.23.12-.44.28-.62.46-.55.55-.86,1.34-.86,2.36,0,1.32.7,2.18,1.01,2.57h29.75c1.09.86,1.95,1.71,3.35,1.71s2.18-.86,3.04-2.73c.69-1.51,1.31-2.83,1.84-4-.32.08-.75-.23-1.66-.88.87-.1,1.47-.18,2.16-.26.83-1.93,1.32-3.39,1.32-4.6,0-1.71-1.25-2.49-2.49-2.49-.64,0-1.17.19-1.69.6l.32.37c-.3.69-.65,1.32-1.67,1.08-.11.15-.23.3-.35.46.06.16.12.32.19.49-.2,0-.37.02-.57.03-.09.13-.18.26-.28.39-.49.7-.98,1.36-1.52,1.94,0,0,0,.02,0,.03,0,.01-.03.02-.06.03-1.26,1.32-2.85,2.2-5.59,2.2h-3.9c-.29,0-.59,0-.89,0-1.25.21-3.43.21-4.53.21-1.09-5.47,0-9.85-.26-15.21v-3.7h4.25c-.01-.11-.03-.23-.04-.34h.6c.02.06.04.13.05.19-.15.05-.3.1-.45.15h3.77c2.65,0,3.35,1.25,4.36,2.57,1.01,1.32,1.64,1.79,2.8,1.79,1.32,0,2.26-.86,2.26-2.1,0-1.71-1.48-5.06-2.65-8.02-.86-2.02-1.71-2.57-2.65-2.57-2.03,0-2.34,1.79-2.8,2.96h-9.5v-6.61c0-.15,0-.3,0-.46-.13-2.52-.02-3.4,0-6.05,0-.12,0-.24,0-.35v-1.81q.26-.92,1.59-.69h8.61c2.48,0,3.66,1.09,4.95,3.02.09-.06.19-.12.28-.18.01.11.02.21.03.32-.1-.04-.2-.08-.3-.12.21.31.42.64.63,1,0-.03,0-.06,0-.1,1.27.48,1.44.54,1.45,2.4.74,1.06,1.45,1.68,2.54,1.68,1.48,0,2.49-.86,2.49-2.18,0-1.17-.47-2.41-1.01-3.97l-1.71-4.6c-.19-.52-.37-1.05-.57-1.56-.1-.1-.22-.21-.34-.34.06-.03.11-.05.17-.08-.61-1.42-1.41-2.54-2.92-2.54s-2.49,1.09-3.43,1.71h-6.26ZM266.35,64.68c-.17-.04-.35-.08-.52-.12.02-.09.04-.19.05-.28.17.04.35.08.52.12-.02.09-.04.18-.05.28ZM267,64.33c-.11-.05-.21-.1-.32-.15.12-.35.25-.7.37-1.05.14.06.28.12.42.19-.15.34-.31.68-.46,1.01ZM268.74,79.85c-.06-.02-.17-.06-.17-.07.02-.1.06-.19.1-.29.06.02.17.05.17.06-.02.1-.06.2-.09.31ZM271.56,83.7c-.02.14.91,4.91.87,5.05-.01.04-1.54-1.92-1.55-1.94-.06-.09.32-2.79.28-2.9.13-.07.27-.14.4-.22ZM271.16,107.18c-.29-.18-.6-.89-.58-1.33.02-.4.46-.78.89-1.42.21.81.42,1.3.43,1.79,0,.6-.24,1.28-.74.97ZM271.83,101.89s-.12-.02-.17-.04c.03-.05.05-.12.09-.14.04-.02.11.02.17.03-.03.05-.04.13-.09.15ZM272.72,71.72c0-.05.01-.11.04-.23.03.13.05.2.07.28-.04-.01-.1-.02-.11-.04ZM273.29,70.22c-.08,0-.16,0-.24,0,.01-.2.02-.4.03-.6.07,0,.14,0,.2,0v.58ZM274.46,102.2l-.48-.5c.06-.08.12-.15.18-.23.17.16.34.32.51.47-.07.08-.14.17-.2.25ZM275.58,112.79c-.09-.5-.17-1.01-.26-1.51.11-.03.22-.06.34-.08.12.49.24.99.37,1.48-.15.04-.3.07-.44.11ZM275.9,72.23l.1-.11.07.16-.17-.05ZM277.45,104.49c-.06-.11-.12-.21-.18-.32.11,0,.21-.01.32-.02-.04.11-.09.23-.13.34ZM277.59,86.85s-.09-.03-.14-.04c.04-.15.08-.3.12-.44l.11.03c-.03.15-.06.3-.09.46ZM299.51,109.47s.04.13.05.2c-.15.03-.3.06-.44.09-.01-.08-.02-.15-.03-.23.14-.02.28-.05.42-.06ZM291.33,110.78s.22.09.57.24c-.43.12-.65.18-.88.24.1-.16.18-.35.31-.48ZM290.71,110.65c-.04.12-.08.24-.12.37-.06-.11-.12-.22-.17-.33.1-.01.2-.03.29-.04ZM279.28,98.85h-.47v-.15h.47v.15ZM294.29,88.23c.22.36.37.51.39.67.01.11-.15.24-.39.59v-1.26ZM283.11,67.47c.8-.38,1.42-.68,2.09-1,.15.23.29.46.45.71-.79.72-1.54,1.23-2.55.29ZM286.38,63.84l-.06-.19h.13s-.07.19-.07.19ZM298.38,66.64c.06.11.12.21.18.32-.23.18-.46.37-.69.55-.08-.16-.16-.32-.24-.49.25-.13.5-.25.76-.38ZM296.64,68.75l.42.46c-.12.12-.24.24-.36.36-.07-.09-.21-.18-.21-.27,0-.19.09-.37.14-.55Z"/>
      </g>
      <g>
        <path class="cls-1" d="M107.86,50.32c0-2.02-1.17-3.19-3.12-3.19h-2.26v-12.07c0-.31,0-.62,0-.92-.08-3.35.01-3.49,0-6.8,0-.33,0-.66,0-.99,0-1.65-.08-6.39,0-13.65,0-.25,0-.5,0-.73v-4.24c1.71-.08,3.19-.08,4.13-.08,3.04,0,4.13,1.4,6.31,4.6,1.32,1.79,2.26,3.19,4.05,3.19,1.4,0,2.65-.78,2.73-2.18,0-1.09-.39-2.1-1.17-3.74l-1.79-3.74c-2.26-4.6-3.04-5.61-4.67-5.61-1.4,0-2.41,1.09-3.35,2.03h-24.93c-1.01-.93-1.95-2.03-3.43-2.03-1.56,0-2.41,1.01-4.6,5.61l-1.87,3.74c-.78,1.64-1.17,2.65-1.09,3.74.08,1.4,1.32,2.18,2.73,2.18,1.79,0,2.65-1.4,3.97-3.19,1.32-1.86,2.21-3.11,3.34-3.83-.15-.33-.26-.73-.39-1.08.43-.12.9-.43,1.29-.31.26.08.5.41.7.76.43-.09.91-.13,1.45-.13.86,0,2.34,0,4.05.08v7.88c-.02.19-.03.35-.04.53-.09,5.15.03,9.16.04,14.04v16.97h-2.26c-1.87,0-3.04,1.17-3.04,3.19,0,1.32.62,2.18.93,2.57h21.34c.31-.39.93-1.25.93-2.57ZM117.84,9.29c.21.13.41.35.56.6.03.05-.17.38-.49,1.11-.18-.56-.33-.88-.37-1.22-.02-.14.26-.52.31-.49ZM116.19,12.02c.02.06.05.12.07.19-.04-.01-.08-.03-.12-.04.02-.05.03-.1.05-.14ZM106.72,6.38c.18-.14.48-.22.64-.17.16.06.2.31.35.58-.72.12-.94.15-1.16.19.05-.21.06-.51.17-.6ZM75.55,7.95l-.1-.15.18.02-.08.13ZM78.37,8.48c-.12-.09-.24-.19-.36-.28.2-.17.39-.33.59-.5.07.07.14.14.2.21-.15.19-.29.38-.44.58ZM79.72,2.57c-.35-.59-.62-1.03-.88-1.46.19-.22.36-.6.56-.64.52-.1.94.22.92,1.06,0,.27-.29.53-.6,1.05ZM85.55,52.32l-.35-.41c.31-.72.67-1.38,1.78-1.05l-1.43,1.46ZM95.75,6.22c.16.26.21.62.35,1.1-.42.06-.76.2-.8.11-.12-.29-.13-.67-.18-1.01.22-.08.59-.28.63-.2ZM90.62,22.26c-.12-.18-.25-.36-.34-.55-.01-.02.27-.22.3-.19.17.12.3.28.45.43-.14.1-.28.21-.42.31ZM92.15,49.07c-.01-.18-.02-.36-.03-.53.09-.02,3.82-2.45,3.91-2.47.02.18-1.03,3.57-1.03,3.75,0,.02-2.74-.76-2.84-.74ZM92.55,22.45v-.47h.13c.01.15.02.31.03.46-.06,0-.11,0-.17,0ZM98.35,30.81c-.91-4.65-.6-7.43.52-7.89-.16.52-.36,7.36-.52,7.89ZM96.42,17.38c-.13-.1-.27-.19-.4-.28.08-.09.15-.19.23-.28.1.06.26.11.28.2.03.1-.07.24-.11.37ZM103.85,52.13c0-.07-.01-.13-.02-.2h.43s0,.08.01.11c-.14.03-.28.06-.43.09Z"/>
        <path class="cls-1" d="M149.29,51.35c-.05.12-.1.24-.15.38-.33-.12-.77-.19-.75-.27.17-.55.42-1.1.68-1.64.04-.07.18-.16.3-.21-.25-1.59-1.35-2.49-2.99-2.49h-1.95v-5.29c-.03-.06-.06-.11-.08-.17.03-.01.06-.03.08-.04v-12.65h18.3v18.15h-1.87c-1.87,0-3.04,1.17-3.04,3.19,0,1.32.62,2.18.93,2.57h20.56c.08-.1.18-.23.29-.4-.04,0-.09-.01-.13-.02-.17-.03-.45-.29-.46-.46-.01-.34.06-.89.22-.99.33-.21.67-.4,1.01-.56,0-.05,0-.09,0-.14,0-2.02-1.17-3.19-3.04-3.19h-1.95v-4.02c-.25-5.17.07-10.38,0-15.37,0-.18,0-.36,0-.55v-5.32c0-.18,0-.35,0-.52,0-1.48-.05-2.92-.07-4.37-.14.06-.3.13-.5.22.19-.46.22-.72.33-.76.05-.02.1-.03.15-.03-.02-1.71-.02-3.45.08-5.32.01-.23,0-.45,0-.66v-2.94h1.95c1.87,0,3.04-1.17,3.04-3.19,0-1.4-.62-2.26-.93-2.57h-10.67l.28.71s.02,0,.04.01l-.03.11c0,.26.02.52.04.77-.07,0-.14,0-.22-.01.06-.25.12-.5.18-.76,0-.02,0-.04,0-.07,0,0,0,0,0-.01,0-.01-.01-.03-.02-.04-.54-.12-.8-.37-.85-.71h-9.31c-.31.31-.93,1.17-.93,2.57,0,2.03,1.17,3.19,3.04,3.19h1.87v9.36c.11-.24.25-.46.4-.53.49-.25,1.54.96,1.41,1.63-.08.44-.47.77-.63,1-.56.02-.97-.22-1.18-.62v5.05h-18.3V7.48h1.95c1.87,0,3.04-1.17,3.04-3.19,0-1.4-.62-2.26-.93-2.57h-20.56c-.31.31-1.01,1.17-1.01,2.57,0,2.03,1.25,3.19,3.12,3.19h1.87v3.62c-.68,9.36.71,18.91.12,28.54.05.03.1.07.15.11,0,.2,0,.4.01.61l-.22.02c-.02.32-.04.65-.07.97v5.78h-1.87c-1.87,0-3.12,1.17-3.12,3.19,0,1.32.7,2.18,1.01,2.57h20.56c.22-.28.59-.79.8-1.54ZM158.96,49.63c-.05-.04-.15-.1-.14-.11.05-.09.11-.18.17-.27.05.09.1.18.13.28,0,.02-.1.06-.16.09ZM161.16,50.84q-1.28.53-1.8-.67c.71.07,1.28.13,1.85.18-.02.16-.03.33-.05.49ZM161.94,47.99c-.17-.17-.35-.34-.52-.51.07-.08.14-.16.21-.25.17.17.34.34.52.52-.07.08-.14.16-.21.24ZM179.48,2.94c.01.07.03.13.04.2l-.14.05c-.02-.07-.04-.14-.05-.2.05-.02.1-.03.15-.05ZM175.29,5.46c.18.15.36.3.55.45-.05.08-.11.16-.16.24l-.56-.43c.06-.09.12-.18.18-.27ZM171.97,42.62c-.3-.54-.56-.84-.63-1.22-.04-.18.28-.5.43-.76.23.28.52.52.65.87.06.16-.22.56-.45,1.11ZM172.66,25.25c.47-.87.74-1.37,1.02-1.88.33.82.14,1.38-1.02,1.88ZM172.94,11.05l.16.09-.18.05.02-.14ZM172.1,9.54c.21.05.47.42.52.72.13.75.18,1.56-.62,2.06-.17-.3-.46-.59-.53-.97-.18-.9.2-1.92.63-1.81ZM171.34,24.26c.06.15.13.31.19.46-.09.11-.2.32-.28.31-.1-.02-.19-.22-.28-.34.12-.14.25-.28.37-.43ZM169.85,43.15s.07-.1.1-.15c.08.08.15.16.26.27-.15-.05-.25-.08-.36-.12ZM169.52,2.72c.19.1.37.21.56.31-.04.09-.08.19-.13.28-.19-.1-.38-.19-.56-.29.04-.1.09-.2.13-.31ZM169.66,11.12c.05.16.11.32.16.48-.43.1-.86.19-1.3.28-.03-.1-.07-.2-.1-.3.41-.15.82-.31,1.24-.46ZM168.35,24.42c.2-.03.41-.08.6-.07.03,0-.03.27-.07.5-.21,0-.42.03-.59-.02-.05-.02.03-.27.05-.41ZM163.95,52.05c.04-.11.09-.22.13-.33.05.11.1.22.15.32h-.29ZM166.25,50.66c.44.44.65.66.91.92-.22.25-.39.45-.91,1.06v-1.98ZM164.64,45.52c-.48.47-.61.6-.74.72l-.22-.36c.18-.07.35-.13.95-.36ZM163.84,51.68s.03.23,0,.26c-.09.08-.2.11-.31.15,0-.17-.01-.33-.02-.5.11.03.22.04.33.09ZM145.39,7.44c-.26-.22-.52-.43-.77-.65.09-.13.19-.27.28-.4.26.22.52.43.78.65-.09.13-.19.27-.29.4ZM144.45,3.29c.32.05.64.11.96.16,0,.11-.02.23-.03.34h-.95c0-.17.01-.33.02-.5ZM128.03,6.78c.05-.02.1-.04.16-.07.02.06.04.12.06.18-.07-.04-.15-.07-.22-.11ZM130.42,3.08s-.05-.1-.07-.15c.1,0,.2-.02.33-.02-.1.07-.18.12-.26.17ZM130.66,51.35c-.22-.33-.42-.55-.52-.84-.03-.08.27-.55.35-.52.22.08.4.35.59.54-.11.21-.22.43-.43.81ZM142.19,4.19c-.18.04-.27.08-.29.06-.07-.07-.11-.17-.16-.25.12.05.24.1.45.19ZM140.76,7.1h.49c0,.06,0,.12-.01.18-.16-.01-.32-.03-.48-.04,0-.05,0-.09,0-.14ZM139.68,2.99c.22.45.44.9.66,1.35-.13.09-.27.18-.41.27-.25-.44-.5-.89-.74-1.33l.49-.29ZM138.01,9.36c.04-.15.19-.32.3-.33.34-.04.68-.02,1.02-.02.41,0,.83-.08,1.22.03.21.06.37.46.55.71-.21.31-.46.93-.63.89-.79-.17-1.57-.51-2.35-.82-.07-.03-.15-.34-.11-.46ZM137.23,13.8c.18.03.36.06.54.09l-.09.35c-.17-.05-.33-.09-.5-.14.01-.1.03-.2.04-.3ZM133.25,16.09s-.03-.07-.05-.11c.05-.01.1-.04.15-.04.02,0,.03.07.05.1-.05.02-.1.04-.16.04ZM132.77,9.32c-.3-.48-.45-.72-.82-1.32.71-.04,1.01-.06,1.53-.09-.27.54-.43.86-.71,1.41ZM134.39,12.11c.23-.2.45-.39.68-.59.08.1.17.19.25.29-.21.21-.43.42-.64.63-.09-.11-.19-.22-.29-.32ZM135.44,23.34c-.19-.04-.39-.07-.58-.11.03-.1.05-.19.08-.29.19.05.38.11.57.16-.02.08-.05.16-.07.24ZM137.41,42.39c-.05-.16-.09-.31-.14-.47.22-.06.43-.11.65-.17.03.08.07.17.1.25-.2.13-.41.26-.61.39ZM139.47,37.14c-.18-.18.18-6.28,0-6.46.31-.44,1.21-1.1,2.3-.64h0c-.02-.17-.05-.35-.07-.52.01,0,.03,0,.04,0,.02.17.03.34.05.51-.28.45-2.04,6.67-2.32,7.12ZM142.1,8.34c-.08-.04-.15-.11-.26-.19.15.02.25.04.36.06-.03.04-.09.13-.1.13ZM144.62,52.21c-.09-.09-.17-.19-.25-.29.05-.04.09-.08.14-.12.09.12.18.24.26.36-.05.02-.13.07-.15.05ZM146.77,51.09c-.79-.22-1.49-1.23-1.51-2.23.11-.11.29-.41.41-.37.25.09.54.28.69.56.3.58.52,1.25.78,1.88-.12.06-.26.2-.37.17Z"/>
        <path class="cls-1" d="M208.08,52.88s.01,0,.02.01h8.24c0-.75.4-1.67.75-1.56.6.2,1.13.82,2.06,1.54,0,0-.01,0-.02.01h.84c1.09.86,1.95,1.71,3.35,1.71s2.18-.86,3.04-2.73c2.18-4.75,3.66-7.63,3.66-9.74,0-1.71-1.25-2.49-2.49-2.49-1.48,0-2.34,1.01-4.05,3.43-.07.1-.13.19-.2.28.01.02.02.05.04.07-.06.05-.13.1-.19.15-1.5,2.07-3.08,3.65-6.66,3.7.02.02.03.04.06.06-.07-.02-.13-.04-.18-.06,0,0-.02,0-.02,0h-9.58v-2.08c-.33.58-.65,1.16-.98,1.74-.16-.11-.32-.22-.48-.33l1.29-2.27c.06.03.11.06.17.09v-1.9c-.2.9-.32,1.51-.49,2.12-.04.15-.31.25-.53.42-.07-.56-.13-1.05-.2-1.59.32-.34.64-.67,1.23-1.28v-13.59h8.18c2.65,0,3.35,1.25,4.36,2.57,1.01,1.32,1.64,1.79,2.8,1.79,1.32,0,2.26-.86,2.26-2.1,0-1.71-1.48-5.06-2.65-8.02-.86-2.02-1.71-2.57-2.65-2.57-2.03,0-2.34,1.79-2.8,2.96h-9.5V7.24h10.2c3.04,0,4.13,1.64,5.84,4.44,1.32,2.18,2.1,3.58,3.74,3.58,1.48,0,2.49-.86,2.49-2.18,0-1.17-.47-2.41-1.01-3.97l-.11-.3c-.02.05-.03.11-.06.16-.09.2-.65.32-1.37.64.31-.87.41-1.43.71-1.88.05-.07.14-.12.26-.16l-1.14-3.05c-.78-2.18-1.48-4.52-3.66-4.52-1.56,0-2.49,1.09-3.43,1.71h-2.77c.17.15.34.31.52.44-.25.34-.51.68-.91,1.22-.38-.59-.66-1.02-.95-1.46.06-.06.13-.13.19-.2h-18.95s-.02.05-.04.08c.11,0,.22-.02.32-.03,0,0,.01.01.02.02-.11.01-.22.02-.33.04l-.02-.03.02.03-.09-.12h-6c-.31.31-1.01,1.17-1.01,2.57,0,2.03,1.25,3.19,3.12,3.19h1.87v.62c0,.2.01.45,0,.74-.08,2.24.1,8.97-.04,11.75,0,.24,0,.49,0,.73-.04,3.81-.1,3.2-.12,7.01,0,.24,0,2.35,0,2.58-.02.74-.03,1.68-.03,2.74,0-.13.02-.28.03-.44.37.04.75.04.74.08-.11.45-.26.9-.45,1.34-.03.06-.19.1-.33.15,0,1.59.02,3.36.05,5.09,0,.24,0,.47,0,.71.03,2.13.07,4.26.14,6.39v.16s-.47,0-.93,0c-.47,0-.93,0-.93,0-.47,0-.9.07-1.28.21-1.14.42-1.84,1.46-1.84,2.98,0,1.32.7,2.18,1.01,2.57h17.86s0,0,0-.01ZM228.78,42.44c.04.22.09.45.13.67-.12.04-.23.09-.35.13-.09-.23-.18-.46-.27-.69.16-.04.33-.08.49-.12ZM226.03,41.47c.03.08.06.16.09.24-.06.02-.11.04-.17.06-.02-.05-.07-.12-.06-.16.02-.05.09-.1.14-.14ZM223.53,52.94c.06.01.12.03.18.04-.03.15-.06.3-.09.45-.05-.01-.11-.02-.16-.04.03-.15.05-.3.08-.45ZM223.12,53.64c.17.1.33.2.49.31-.08.08-.16.17-.24.25-.13-.14-.26-.27-.37-.42-.01-.01.11-.14.12-.14ZM212.8,49.55c.13.09.25.19.38.28-.03.04-.07.08-.1.12l-.36-.3s.05-.07.08-.1ZM220.21,28.5c.03-.1.07-.2.1-.3.05.09.1.19.15.28-.08,0-.17.02-.25.02ZM220.73,22.03c.1.07.21.15.31.22l-.45.53-.18-.12c.11-.21.21-.42.32-.64ZM219.44,21.98c.33.04.67.08,1.01.13-.02.13-.04.26-.05.39-.34-.04-.67-.07-1.01-.11l.05-.41ZM218.08,22.53c.02.05.05.11.05.16,0,.02-.08.03-.12.05-.02-.05-.04-.11-.04-.16,0-.02.08-.04.12-.05ZM216.76,22.64c.13.08.27.15.4.23-.03.04-.06.08-.08.12-.13-.08-.26-.16-.39-.24.03-.04.05-.07.08-.11ZM217.01,24.9c-.31.68-.5,1.1-.78,1.71-.26-.68-.43-1.11-.63-1.64.41-.02.69-.03,1.41-.07ZM215.47,27.56c.1.08.2.15.3.23-.17.18-.35.37-.52.55-.09-.07-.17-.14-.26-.2.16-.19.32-.38.48-.57ZM207.51,24.98c.05.06.11.13.16.19-.15.14-.3.27-.45.41-.05-.06-.09-.12-.14-.18l.43-.42ZM227.56,9.95c.26.13.54.43.67.77.06.14-.22.56-.44,1.08-.31-.5-.58-.79-.68-1.16-.04-.14.36-.74.45-.7ZM223.39,8.03c-1.57.29-2.64-.22-3.66-.88,1.16.2,2.75-1.05,3.66.88ZM194.58,32.14l.17-.09.03.14-.19-.05ZM198.42,38.05c-.08-.38-2.8-1.86-2.88-2.24.14-.02,3-1.75,3.14-1.77.08.37.18,2.09.26,2.46-.14.03-.38,1.52-.52,1.55ZM201.53,34.59c.02.13.04.25.06.38-.28.07-.55.14-.83.2-.02-.13-.04-.26-.06-.39.28-.06.55-.13.83-.19ZM196.73,49.92h-.36s0-.05,0-.08c.12,0,.24.02.36.02,0,.02,0,.04,0,.06ZM199.78,21.39v-1.48h-.02s.03-.09.03-.09c0-.44,0-.88,0-1.32.13.02.26.04.39.06-.13.42-.27.84-.4,1.26,0,.03,0,.06,0,.09h.63c.23.61.22,1.11-.64,1.48ZM201.35,52.28c-.31-.08-.75-.64-.79-1.06-.12-1.19.55-1.1,1.41-1.06.08.08.57.27.65.64.15.66-.66,1.64-1.27,1.48ZM203.07,25.67c-.02-.06-.04-.12-.06-.18l.21.12s-.1.04-.15.06ZM203.47,34.84c0-.16,0-.33,0-.49.2.02.4.03.6.05,0,.09,0,.19,0,.28-.2.05-.39.11-.59.16ZM202.87,2.97c.24-.06.58-.15.92-.24.26.72.48,1.34.72,2.02-1.4-.44-2.07-1.13-1.64-1.78ZM206.6,10.61q-.61,1.8-1.69,2.02l1.69-2.02Z"/>
      </g>
    </g>
  </g>
</svg>