<?xml version="1.0" encoding="UTF-8"?>
<svg id="Layer_2" data-name="Layer 2" xmlns="http://www.w3.org/2000/svg" viewBox="0 0 200.15 200.15">
  <defs>
    <style>
      .cls-1 {
        fill: #f8b25c;
        stroke: #bf752b;
        stroke-miterlimit: 10;
        stroke-width: 6px;
      }

      .cls-2 {
        fill: #e62a30;
        stroke-width: 0px;
      }
    </style>
  </defs>
  <g id="Layer_19" data-name="Layer 19">
    <g>
      <circle class="cls-1" cx="100.07" cy="100.07" r="97.07"/>
      <g>
        <path class="cls-2" d="M107.91,167.79h2.58c24.49,0,34.98-11.97,34.98-37.19s-9.76-30.56-28.72-40.69l-21.19,22.83c15.47,8.29,17.12,9.76,17.12,19.88s-1.66,12.34-9.02,12.34l4.25,22.83Z"/>
        <path class="cls-2" d="M102.1,32.36h1.47c24.49,0,35.35,13.81,35.35,38.48v3.31h-27.25v-5.71c0-10.31-2.76-13.62-9.39-13.62l-.18-22.46Z"/>
        <path class="cls-2" d="M93.87,164.11c-25.04,0-34.98-13.44-34.98-38.48v-4.23h27.25v6.63c0,10.49,2.76,13.44,9.39,13.44l-1.66,22.65Z"/>
        <path class="cls-2" d="M83.04,113.22c-18.04-9.76-28.35-17.49-28.35-40.14,0-24.12,12.89-35.35,35.35-35.35l2.31,22.46c-6.08,0-9.02,3.13-9.02,11.23,0,9.76,7,13.44,17.12,18.78l-17.4,23.01Z"/>
      </g>
    </g>
  </g>
</svg>