<?xml version="1.0" encoding="UTF-8"?>
<svg id="Layer_2" data-name="Layer 2" xmlns="http://www.w3.org/2000/svg" viewBox="0 0 200.85 200.85">
  <defs>
    <style>
      .cls-1 {
        fill: #fff;
        stroke: #313131;
        stroke-miterlimit: 10;
        stroke-width: 5.67px;
      }

      .cls-2 {
        fill: #313131;
        stroke-width: 0px;
      }
    </style>
  </defs>
  <g id="Layer_19" data-name="Layer 19">
    <g>
      <circle class="cls-1" cx="100.42" cy="100.42" r="97.59"/>
      <g>
        <path class="cls-2" d="M108.3,168.5h2.59c24.62,0,35.17-12.03,35.17-37.39s-9.81-30.73-28.87-40.91l-21.3,22.95c15.55,8.33,17.21,9.81,17.21,19.99s-1.67,12.4-9.07,12.4l4.27,22.95Z"/>
        <path class="cls-2" d="M102.46,32.35h1.48c24.62,0,35.54,13.88,35.54,38.68v3.33h-27.39v-5.74c0-10.37-2.78-13.7-9.44-13.7l-.18-22.58Z"/>
        <path class="cls-2" d="M94.19,164.8c-25.17,0-35.17-13.51-35.17-38.68v-4.26h27.39v6.66c0,10.55,2.78,13.51,9.44,13.51l-1.67,22.77Z"/>
        <path class="cls-2" d="M83.3,113.64c-18.14-9.81-28.5-17.58-28.5-40.35,0-24.25,12.96-35.54,35.54-35.54l2.32,22.58c-6.11,0-9.07,3.15-9.07,11.29,0,9.81,7.03,13.51,17.21,18.88l-17.5,23.14Z"/>
      </g>
    </g>
  </g>
</svg>