<?xml version="1.0" encoding="UTF-8"?>
<svg id="Layer_2" data-name="Layer 2" xmlns="http://www.w3.org/2000/svg" viewBox="0 0 426.3 36.65">
  <defs>
    <style>
      .cls-1 {
        fill: #25272e;
        stroke-width: 0px;
      }
    </style>
  </defs>
  <g id="Layer_7" data-name="Layer 7">
    <g>
      <g>
        <g>
          <path class="cls-1" d="M4.02,35.84l1.2-.11c.91-.08,1.26-.29,1.26-.45v-15.77h-.88c-2.6.19-4.36,2.68-5.22,4.39l-.19.35h-.19l.78-4.98h15.02l.51,4.95h-.16l-.16-.35c-.91-1.98-2.68-4.31-5.14-4.36h-.91v15.85c0,.19.16.27,1.53.4l.91.08.08.16H3.94l.08-.16Z"/>
          <path class="cls-1" d="M17.13,35.84l.37-.03c.83-.05,1.12-.11,1.12-.43v-14.29c0-1.18-.16-1.39-1.07-1.63l-.62-.16.03-.11,4.71-1.18v8.51l.03.05c1.15-.99,2.76-2.38,4.58-2.38.88,0,1.55.29,2.11.86.62.62.86,1.74.86,2.94v7.41c0,.16.05.27,1.37.4l.29.03.08.16h-6.32l.08-.16.48-.03c.94-.05.99-.21.99-.43v-7.04c0-1.63-.8-2.25-2.2-2.25-1.04,0-1.79.38-2.38.83v8.51c0,.21.13.29,1.21.38l.37.03.08.16h-6.26l.08-.16Z"/>
          <path class="cls-1" d="M31.16,30.51c0-3.59,2.65-6.37,6.18-6.37,3.08,0,4.58,1.87,4.58,3.77,0,.16-.03.29-.05.46,0,0-6.67-.05-7.42-.08-.05.35-.05.94-.05,1.28,0,2.97,1.66,4.95,4.07,4.95,1.53,0,2.62-.56,3.45-2.09l.19.08c-1.15,2.46-2.84,3.88-5.38,3.88-3.21,0-5.57-2.57-5.57-5.89ZM38.95,27.99c0-1.66-.43-3.53-1.9-3.53-1.2,0-2.27,1.5-2.54,3.56l4.44-.03Z"/>
        </g>
        <path class="cls-1" d="M54.88,20.91l-2.02,5.66c-2.63,7.73-2.97,8.41,2.41,8.97l1.12.11.17.34h-12.33l.17-.34.95-.11c3.64-.45,4.09-1.23,7.73-11.21l6.28-17.6-.62-1.79c2.47-.73,3.7-2.41,4.76-4.93h1.01l9.64,28.3c2.07,6.05,3.03,7.06,5.49,7.23l1.57.11.11.34h-17.54l.17-.34,1.51-.11c2.8-.17,2.91-1.57,1.74-5.1l-3.14-9.53h-9.19ZM63.9,20.35l-4.2-12.78h-.06l-4.54,12.78h8.8Z"/>
        <path class="cls-1" d="M81.61,35.65l2.47-.22c1.96-.22,2.63-.62,2.63-.95V2.3c0-.39-.34-.56-3.19-.84l-1.85-.17-.17-.34h16.2c9.97,0,14.79,2.75,14.79,8.46s-5.94,9.64-15.24,9.64c-1.29,0-2.41-.11-3.31-.28v15.86c0,.39.28.62,3.14.84l2.41.17.17.34h-18.21l.17-.34ZM104.81,10.15c0-5.66-2.47-8.57-8.13-8.63l-2.75.11v16.36c.84.17,1.57.45,3.14.45,4.54,0,7.73-3.25,7.73-8.29Z"/>
        <path class="cls-1" d="M114.28,35.65l1.96-.22c1.96-.22,2.75-.62,2.75-.95V2.3c0-.39-.34-.56-3.19-.84l-1.46-.17-.17-.34h28.58l.56,11.43h-.34l-.22-.62c-2.13-7.45-5.43-10.37-12.22-10.2l-4.32.06v16.08h2.41c4.93-.28,7.12-1.57,8.29-5.21l.34-1.01.39.06-1.46,13.39-.39-.06-.06-1.01c-.34-4.09-1.91-5.16-7.62-5.49l-1.91-.11v16.92l5.49.22c7.17-.11,10.93-4.37,13.17-10.53l.28-.62h.34l-1.57,11.71h-29.81l.17-.34Z"/>
        <path class="cls-1" d="M196.26,34.69l-.62-8.97h.34l2.24,4.32c2.13,4.09,5.1,6.05,9.42,6.05,4.65,0,7.51-2.86,7.51-7.23,0-4.76-3.87-6.61-8.69-8.35-5.27-1.91-9.69-4.2-9.69-9.97S201.47.23,208.31.23c3.08,0,6,.78,7.84,1.4l2.24-.78.17,9.75h-.28l-4.71-8.24c-1.23-.9-2.86-1.57-5.38-1.57-3.64,0-6.33,2.47-6.33,5.77,0,4.15,3.81,5.77,8.29,7.4,5.77,2.02,10.2,4.59,10.2,11.1,0,5.94-5.32,11.6-12.94,11.6-4.15,0-8.18-.78-11.15-1.96Z"/>
        <path class="cls-1" d="M224.45,18.5c0-9.64,8.85-18.27,19.5-18.27s18.88,7.45,18.88,18.32c0,9.64-8.8,18.1-19.5,18.1s-18.89-7.29-18.89-18.16ZM254.93,18.44c0-11.1-4.37-17.54-11.43-17.54s-11.21,5.83-11.21,17.6,4.32,17.54,11.54,17.54,11.1-5.77,11.1-17.6Z"/>
        <path class="cls-1" d="M265.19,18.72c0-10.31,7.68-18.55,20.85-18.55,3.47,0,7.17,1.12,9.02,2.13l3.59-1.18.34,11.26h-.34l-5.66-9.92c-1.18-.84-3.98-1.62-7.06-1.62-8.29,0-12.89,7.68-12.89,17.54,0,10.82,5.66,17.65,12.66,17.65,6.22,0,9.64-3.08,12.44-8.41l1.74-3.31h.34l-1.91,9.92-1.85.28c-2.02.9-7.17,2.13-11.04,2.13-12.22,0-20.23-7.68-20.23-17.93Z"/>
        <path class="cls-1" d="M303.07,35.65l2.19-.22c1.9-.17,2.63-.62,2.63-.95V2.3c0-.39-.34-.56-3.19-.84l-1.62-.17-.17-.34h17.2l-.17.34-2.19.22c-1.91.17-2.63.62-2.63.95v32.17c0,.39.34.56,3.19.84l1.57.17.17.34h-17.15l.17-.34Z"/>
        <path class="cls-1" d="M322.07,35.65l1.96-.22c1.96-.22,2.75-.62,2.75-.95V2.3c0-.39-.34-.56-3.19-.84l-1.46-.17-.17-.34h28.58l.56,11.43h-.34l-.22-.62c-2.13-7.45-5.43-10.37-12.22-10.2l-4.32.06v16.08h2.41c4.93-.28,7.12-1.57,8.29-5.21l.34-1.01.39.06-1.46,13.39-.39-.06-.06-1.01c-.34-4.09-1.91-5.16-7.62-5.49l-1.91-.11v16.92l5.49.22c7.17-.11,10.93-4.37,13.17-10.53l.28-.62h.34l-1.57,11.71h-29.81l.17-.34Z"/>
        <path class="cls-1" d="M364.55,35.65l2.52-.22c1.91-.17,2.63-.62,2.63-.95V1.46h-1.85c-5.43.39-9.13,5.6-10.93,9.19l-.39.73h-.39l1.62-10.42h31.44l1.06,10.37h-.34l-.34-.73c-1.91-4.15-5.6-9.02-10.76-9.13h-1.91v33.17c0,.39.34.56,3.19.84l1.91.17.17.34h-17.82l.17-.34Z"/>
        <path class="cls-1" d="M399.74,35.65l2.47-.22c1.91-.17,2.63-.62,2.63-.95v-14.51l-7.51-13.28c-2.24-3.92-2.97-4.99-5.55-5.27l-1.18-.11-.17-.34h17.37l-.17.34-.95.06c-3.64.34-3.75,1.29-2.47,3.59l7.4,13.23h.11l4.2-7.85c3.87-7.34,3.98-8.35-1.01-8.85l-1.23-.17-.17-.34h12.78l-.17.34-1.57.17c-2.86.34-3.98,1.35-8.07,9.08l-4.43,8.18v15.91c0,.39.34.56,3.19.84l1.85.17.17.34h-17.71l.17-.34Z"/>
      </g>
      <g>
        <g>
          <path class="cls-1" d="M185.8,24.99l-30.69,1.61c-.08,0-.15.08-.15.16l.23,4.29c0,.08.08.15.16.15l30.69-1.61c.08,0,.15-.08.15-.16l-.23-4.29c0-.08-.08-.15-.16-.15ZM163.64,29.64h0c-.65.03-1.2-.46-1.24-1.11-.02-.31.09-.62.3-.85.21-.23.5-.37.81-.39h0c.64-.03,1.2.46,1.24,1.11.04.65-.46,1.2-1.11,1.24ZM170.65,28.8c-.42.03-.76-.29-.79-.7-.01-.2.06-.39.19-.54.13-.15.3-.23.52-.25.2-.01.39.06.53.19.15.13.24.31.25.51.02.41-.29.76-.7.79ZM177.71,28.9h0c-.65.03-1.2-.46-1.24-1.11-.02-.31.09-.62.3-.85.21-.23.5-.37.81-.39h0c.65-.03,1.2.46,1.24,1.11.04.65-.46,1.2-1.11,1.24Z"/>
          <path class="cls-1" d="M185.86,17.03c-.18-.06-.38,0-.49.15-.84,1.14-1.5,1.99-1.9,2.49-.02.02-.04,0-.05-.02l-.74-4.85c-.02-.17-.15-.32-.33-.36-.18-.04-.36.03-.46.18l-3.39,4.98c-.07.1-.18.16-.3.16-1.07,0-1.4,0-1.81.02-.11,0-.22-.04-.29-.13-2.51-2.93-4.75-6.42-5.83-7.95-.26-.37-.82-.34-1.05.05-.92,1.63-2.78,5.35-4.97,8.52-.06.09-.17.15-.28.16-.41.03-.73.06-1.8.17-.12.01-.24-.03-.32-.13l-3.89-4.6c-.12-.14-.3-.19-.48-.13-.17.06-.28.22-.29.39l-.23,4.9s-.03.04-.04.02c-.44-.45-1.19-1.23-2.15-2.28-.13-.14-.33-.18-.51-.1-.17.08-.27.26-.24.45l.86,5.76c.02.13.13.22.26.21l30.49-1.6c.13,0,.23-.11.24-.24l.25-5.82c0-.19-.11-.36-.29-.43ZM171.55,19.22l-1.06,2.33c-.08.17-.32.19-.42.02l-1.32-2.19c-.04-.07-.05-.15-.01-.22l1.06-2.33c.08-.17.32-.19.42-.02l1.32,2.19c.04.07.05.15.01.22Z"/>
        </g>
        <path class="cls-1" d="M190.06,35.98h-38.98c-.63,0-1.2-.33-1.51-.88s-.31-1.21.02-1.75l1.99-3.34c.24-.4.75-.53,1.15-.29.4.24.53.75.29,1.15l-1.99,3.34s-.02.03,0,.07c.02.04.05.04.06.04h38.98s.04,0,.06-.04c.02-.04,0-.06,0-.07l-2.26-3.75c-.24-.4-.11-.91.28-1.15.39-.24.91-.11,1.15.28l2.26,3.75c.33.54.34,1.2.03,1.76-.31.55-.88.89-1.52.89Z"/>
        <path class="cls-1" d="M161.81,15.31c-.15,0-.29-.04-.43-.12-.4-.24-.53-.75-.29-1.15l7.87-13.2c.32-.53.87-.85,1.49-.85h0c.62,0,1.17.31,1.49.84l7.54,12.5c.24.4.11.91-.28,1.15-.4.24-.91.11-1.15-.28l-7.54-12.5s-.02-.03-.06-.03h0s-.05.02-.06.03l-7.87,13.2c-.16.26-.43.41-.72.41Z"/>
      </g>
    </g>
  </g>
</svg>