<?xml version="1.0" encoding="UTF-8"?>
<svg id="Layer_2" data-name="Layer 2" xmlns="http://www.w3.org/2000/svg" viewBox="0 0 83.38 99.3">
  <defs>
    <style>
      .cls-1 {
        fill: #25272e;
        stroke-width: 0px;
      }
    </style>
  </defs>
  <g id="Layer_8" data-name="Layer 8">
    <g>
      <path class="cls-1" d="M83.14,96.07c-.17-.22-.43-.38-.71-.4-10.72-.95-11.37-14.01-11.84-15.17-.07-.18-.32-.19-.41-.02-3.18,5.88-5.49,7.75-9.97,10.14-.15.08-.26.21-.27.37-.21,4.01-3.94,4.27-7.95,4.71-.32.03-.62.17-.82.42l-.05.06c-.17.21-.27.47-.27.74v1.14c0,.31.12.6.34.82h0c.19.19.45.31.72.34,1,.09,1.18.09,2.76.09,1.41,0,3.83-.12,5.74-.38,5.1-.51,5.49-.51,8.04-.51,1.78,0,3.57.12,5.23.25,4.21.38,5.23.51,7.14.51h1.33c.29,0,.57-.12.77-.32l.12-.12c.21-.21.32-.48.32-.77v-1.2c0-.25-.08-.49-.24-.68h0Z"/>
      <path class="cls-1" d="M57.32,41.29l-4.76-13.2c-5.06-13.91-4.56-12.74-7.05-19.22-.14-.37-.5-.62-.9-.62-.53-.28-1.15-.37-1.74-.25-3.88.83-4.88,1.12-8.1,1.87-.28.07-.55.19-.78.36l-.19.15c-.31.24-.55.55-.69.92-1.22,3.18-1.97,4.96-3.53,9.05l-1.97,4.98c-.09.23-.06.49.09.69.97,1.28,2.16,2.65,3.83,3.86.19.14.46.05.54-.16l1.13-2.9,3.56-9.32c2.17,6.76,2.02,6.51,4.44,13.39,0,0,.87,2.56,1.55,4.45.05.19.2.25.38.34,6.12,2.77,8.18,3.73,13.34,6.2.59.28.96-.28.85-.59Z"/>
      <path class="cls-1" d="M64.58,51.31c-3.97-3.71-9.08-6.53-21.62-11.9-14.59-6.27-19.06-10.49-19.06-18.17,0-9.6,7.04-15.86,17.78-15.86,7.81,0,15.48,3.07,18.81,7.42,1.26,1.76,1.77,3.52,2.03,6.84,0,.13.04.26.09.37l.02.06c.17.41.56.68,1,.71l1.03.07s.06,0,.09,0h.68c.35,0,.69-.16.91-.43h0c.18-.22.28-.5.27-.78-.12-5.36-.23-10.61-.24-15.52,0-.43-.16-.85-.44-1.18h0c-.22-.25-.5-.44-.81-.55-4.8-1.56-10.99-2.4-17.17-2.4C27.48,0,14.42,9.98,14.42,25.59c0,10.88,6.4,17.53,24.18,25.08,12.28,5.25,13.95,6.14,17.53,9.59,3.07,3.07,4.61,6.78,4.61,11.13,0,10.37-7.17,16.38-19.58,16.38-6.24,0-10.64-1.56-15.04-3.99-.2-.11-.45-.01-.52.21-.38,1.18-1.17,6.96-1.05,8.48.03.32.27.58.59.63,3.3.5,5.43.56,8.86.56,23.16,0,36.85-10.11,36.85-27.13,0-6.14-2.18-11.52-6.27-15.23Z"/>
      <path class="cls-1" d="M5.73,97.54s-.05-.27.36-.29c6.63-.31,6.92-1.71,9.56-16.13l1.93-11.69c.93-5.28,1.28-7.64,1.28-8.64,0-1.36-.86-1.86-3.5-1.86-4,0-7.28.79-9.49,2.28-1.68,1.12-2.61,2.45-3.72,5.08-.04.09-.09.17-.17.23l-.14.12c-.11.09-.26.14-.41.13l-.88-.04c-.2-.01-.38-.12-.48-.3h0c-.08-.14-.1-.31-.06-.46l.57-1.97c1.17-3.95,1.63-5.49,2.18-7.02.11-.31.32-.56.6-.73h0c.19-.11.4-.18.62-.2.71-.05,1.29-.05,1.66-.05.57,0,1.43,0,2.78.07,3.07.14,5.5.14,11.7.14q3.85,0,11.77-.07l3.21-.07h3.28c1.21-.07,1.71-.07,2.64-.07.25,0,.93,0,1.67.05.21.01.41.1.57.24h0c.21.18.33.45.33.73,0,.95-.02,1.61-.14,2.91q-.21,3.35-.21,5.07v1.12c0,.2-.08.39-.22.53h0c-.13.13-.31.21-.5.22,0,0-.89.06-1.21.06-.33,0-.36-.28-.36-.28-.57-5.92-2.85-7.71-9.63-7.71-2.64,0-4.07.36-4.64,1.21-.57.79-1,2.57-2.21,9.28l-1.93,11.76c-.93,5.28-1.57,9.99-1.57,11.77,0,2.78.69,3.7,5.71,4.28.34.04.29.36.29.36l-.17.73c-.03.13-.09.25-.18.35h0c-.15.18-.36.28-.59.3-.51.04-.76.04-1.35.04-1.64,0-2.07,0-5.28-.43-1.14-.07-1.78-.14-2.64-.14-.36,0-2.64.14-5.71.43-1.21.07-2.85.14-3.43.14-.5,0-.86-.08-1.93-.07-.22,0-.14-.36-.14-.36l.14-1.07Z"/>
    </g>
  </g>
</svg>