<?xml version="1.0" encoding="UTF-8"?>
<svg id="Layer_2" data-name="Layer 2" xmlns="http://www.w3.org/2000/svg" viewBox="0 0 122.78 107.36">
  <defs>
    <style>
      .cls-1 {
        fill: #25272e;
        stroke-width: 0px;
      }
    </style>
  </defs>
  <g id="Layer_6" data-name="Layer 6">
    <g>
      <g>
        <path class="cls-1" d="M107.24,74.69l-92.61,4.85c-.26.01-.45.23-.44.49l.68,12.96c.01.25.23.45.49.44l92.61-4.85c.25-.01.45-.23.44-.49l-.68-12.96c-.01-.26-.23-.45-.49-.44ZM40.38,88.72h-.02c-1.95.1-3.62-1.39-3.73-3.34-.05-.95.26-1.86.89-2.57.63-.71,1.5-1.13,2.45-1.18h.02c1.95-.1,3.62,1.39,3.73,3.34.11,1.95-1.39,3.64-3.34,3.75ZM61.52,86.19c-1.28.08-2.3-.88-2.38-2.12-.04-.6.17-1.18.57-1.63.4-.45.9-.69,1.56-.75.6-.03,1.17.17,1.61.57.45.4.71.95.75,1.55.07,1.24-.88,2.3-2.12,2.38ZM82.82,86.49h-.02c-1.95.1-3.62-1.39-3.73-3.34-.05-.95.26-1.86.89-2.57.63-.71,1.5-1.13,2.45-1.18h.02c1.95-.1,3.62,1.39,3.73,3.34.11,1.95-1.39,3.64-3.34,3.75Z"/>
        <path class="cls-1" d="M107.42,50.66c-.55-.19-1.15-.01-1.49.46-2.54,3.44-4.53,6.01-5.72,7.51-.05.06-.13.02-.14-.05l-2.23-14.62c-.06-.52-.45-.96-.98-1.09-.54-.13-1.08.08-1.39.53l-10.23,15.03c-.2.3-.55.48-.91.48-3.24,0-4.21,0-5.45.05-.34.01-.66-.13-.88-.38-7.57-8.83-14.33-19.38-17.6-23.99-.8-1.13-2.49-1.04-3.16.17-2.77,4.92-8.39,16.13-15,25.7-.19.28-.5.45-.84.47-1.24.08-2.2.17-5.42.52-.36.04-.72-.1-.96-.38l-11.74-13.88c-.36-.42-.92-.57-1.44-.38-.52.19-.86.66-.86,1.19l-.69,14.78c0,.07-.08.12-.14.06-1.34-1.37-3.59-3.72-6.48-6.87-.39-.43-1.01-.55-1.53-.3-.52.25-.81.8-.73,1.37l2.6,17.38c.06.39.4.67.79.65l92.01-4.82c.39-.02.7-.34.72-.73l.77-17.55c.03-.57-.32-1.09-.87-1.28ZM64.24,57.29l-3.2,7.04c-.24.52-.96.56-1.26.07l-3.99-6.62c-.12-.2-.14-.45-.04-.66l3.2-7.04c.24-.52.96-.56,1.26-.07l3.99,6.62c.12.2.14.45.04.66Z"/>
      </g>
      <path class="cls-1" d="M35.2,44.86c-.31,0-.62-.08-.91-.25-.87-.5-1.16-1.61-.66-2.48L56.43,2.86c1.04-1.79,2.89-2.86,4.96-2.86s3.93,1.07,4.96,2.86l22.19,38.23c.5.87.21,1.98-.66,2.48-.87.5-1.98.21-2.48-.66L63.22,4.68c-.55-.95-1.46-1.05-1.82-1.05s-1.27.1-1.82,1.05l-22.79,39.27c-.34.58-.95.9-1.57.9Z"/>
      <path class="cls-1" d="M117.04,107.36H5.75c-2.08,0-3.94-1.08-4.97-2.88-1.04-1.8-1.03-3.95,0-5.74l5.45-9.39c.5-.87,1.61-1.16,2.48-.66.87.5,1.16,1.61.66,2.48l-5.45,9.39c-.55.95-.19,1.79,0,2.11.18.32.73,1.06,1.83,1.06h111.29c1.1,0,1.64-.74,1.83-1.06.18-.32.55-1.16,0-2.11l-6.34-10.93c-.5-.87-.21-1.98.66-2.48.87-.5,1.98-.21,2.48.66l6.34,10.93c1.04,1.8,1.05,3.94,0,5.74-1.04,1.8-2.9,2.88-4.97,2.88Z"/>
    </g>
  </g>
</svg>