<?xml version="1.0" encoding="UTF-8"?>
<svg id="Layer_2" data-name="Layer 2" xmlns="http://www.w3.org/2000/svg" viewBox="0 0 268.22 167.61">
  <defs>
    <style>
      .cls-1 {
        fill: #25272e;
        stroke-width: 0px;
      }
    </style>
  </defs>
  <g id="Layer_15" data-name="Layer 15">
    <g>
      <g>
        <path class="cls-1" d="M40.58,115.39l2.15-.19c1.62-.14,2.24-.52,2.24-.81v-28.09h-1.57c-4.63.33-7.77,4.77-9.3,7.82l-.33.62h-.33l1.38-8.87h26.75l.91,8.82h-.29l-.29-.62c-1.62-3.53-4.77-7.68-9.16-7.77h-1.62v28.23c0,.33.29.48,2.72.72l1.62.14.14.29h-15.16l.14-.29Z"/>
        <path class="cls-1" d="M64.52,115.39l.67-.05c1.48-.1,2-.19,2-.76v-25.47c0-2.1-.29-2.48-1.91-2.91l-1.1-.29.05-.19,8.39-2.1v15.17l.05.1c2.05-1.76,4.91-4.24,8.15-4.24,1.57,0,2.76.52,3.77,1.53,1.1,1.1,1.53,3.1,1.53,5.25v13.21c0,.29.1.48,2.43.72l.52.05.14.29h-11.25l.14-.29.86-.05c1.67-.1,1.76-.38,1.76-.76v-12.54c0-2.91-1.43-4.01-3.91-4.01-1.86,0-3.19.67-4.24,1.48v15.16c0,.38.24.52,2.15.67l.67.05.14.29h-11.16l.14-.29Z"/>
        <path class="cls-1" d="M90.09,105.9c0-6.39,4.72-11.35,11.02-11.35,5.48,0,8.15,3.34,8.15,6.72,0,.29-.05.53-.1.81,0,0-11.87-.1-13.21-.14-.1.62-.1,1.67-.1,2.29,0,5.29,2.96,8.82,7.25,8.82,2.72,0,4.67-1,6.15-3.72l.33.14c-2.05,4.39-5.05,6.92-9.59,6.92-5.72,0-9.92-4.58-9.92-10.49ZM103.96,101.41c0-2.96-.76-6.29-3.39-6.29-2.15,0-4.05,2.67-4.53,6.34l7.92-.05Z"/>
        <path class="cls-1" d="M130.43,98.56l-2.29,6.42c-2.99,8.78-3.37,9.54,2.73,10.18l1.27.13.19.38h-13.99l.19-.38,1.08-.13c4.13-.51,4.64-1.4,8.78-12.72l7.12-19.97-.7-2.04c2.8-.83,4.2-2.73,5.41-5.6h1.14l10.94,32.12c2.35,6.87,3.43,8.01,6.23,8.2l1.78.13.13.38h-19.91l.19-.38,1.72-.13c3.18-.19,3.31-1.78,1.97-5.79l-3.56-10.81h-10.43ZM140.67,97.93l-4.77-14.5h-.06l-5.15,14.5h9.98Z"/>
        <path class="cls-1" d="M161.53,115.29l2.8-.25c2.23-.25,2.99-.7,2.99-1.08v-36.51c0-.45-.38-.64-3.63-.95l-2.1-.19-.19-.38h18.38c11.32,0,16.79,3.12,16.79,9.6s-6.74,10.94-17.3,10.94c-1.46,0-2.74-.13-3.75-.32v18c0,.45.32.7,3.56.95l2.74.19.19.38h-20.67l.19-.38ZM187.86,86.35c0-6.42-2.8-9.73-9.22-9.79l-3.12.13v18.57c.95.19,1.78.51,3.56.51,5.15,0,8.78-3.69,8.78-9.41Z"/>
        <path class="cls-1" d="M199.36,115.29l2.23-.25c2.23-.25,3.12-.7,3.12-1.08v-36.51c0-.45-.38-.64-3.63-.95l-1.65-.19-.19-.38h32.43l.64,12.97h-.38l-.25-.7c-2.42-8.46-6.17-11.76-13.86-11.57l-4.9.06v18.25h2.74c5.6-.32,8.08-1.78,9.41-5.91l.38-1.14.45.06-1.65,15.2-.45-.06-.06-1.14c-.38-4.64-2.16-5.85-8.65-6.23l-2.16-.13v19.21l6.23.25c8.14-.13,12.4-4.96,14.94-11.96l.32-.7h.38l-1.78,13.29h-33.83l.19-.38Z"/>
      </g>
      <g>
        <path class="cls-1" d="M.7,165.37l-.7-10.25h.38l2.56,4.93c2.43,4.68,5.83,6.92,10.76,6.92,5.32,0,8.58-3.27,8.58-8.26,0-5.44-4.42-7.56-9.93-9.54-6.02-2.18-11.08-4.8-11.08-11.4s5.38-11.79,13.19-11.79c3.52,0,6.85.9,8.97,1.6l2.56-.9.19,11.14h-.32l-5.38-9.42c-1.41-1.02-3.27-1.79-6.15-1.79-4.16,0-7.24,2.82-7.24,6.6,0,4.74,4.35,6.6,9.48,8.46,6.6,2.31,11.66,5.25,11.66,12.68,0,6.79-6.08,13.26-14.8,13.26-4.74,0-9.35-.9-12.75-2.24Z"/>
        <path class="cls-1" d="M33.69,146.86c0-11.02,10.12-20.88,22.29-20.88s21.58,8.52,21.58,20.94c0,11.02-10.06,20.69-22.29,20.69s-21.59-8.33-21.59-20.75ZM68.53,146.79c0-12.68-5-20.05-13.07-20.05s-12.81,6.66-12.81,20.11,4.93,20.05,13.19,20.05,12.68-6.6,12.68-20.11Z"/>
        <path class="cls-1" d="M81.01,147.11c0-11.79,8.78-21.2,23.83-21.2,3.97,0,8.2,1.28,10.31,2.43l4.1-1.34.38,12.87h-.38l-6.47-11.34c-1.35-.96-4.55-1.86-8.07-1.86-9.48,0-14.73,8.77-14.73,20.05,0,12.36,6.47,20.18,14.48,20.18,7.11,0,11.02-3.52,14.22-9.61l1.99-3.78h.38l-2.18,11.34-2.11.32c-2.31,1.02-8.2,2.43-12.62,2.43-13.96,0-23.12-8.78-23.12-20.5Z"/>
        <path class="cls-1" d="M125.08,166.46l2.5-.26c2.18-.19,3.01-.7,3.01-1.09v-36.77c0-.45-.38-.64-3.65-.96l-1.86-.19-.19-.38h19.66l-.19.38-2.5.26c-2.18.19-3.01.7-3.01,1.09v36.76c0,.45.38.64,3.65.96l1.79.19.19.38h-19.6l.19-.38Z"/>
        <path class="cls-1" d="M147.56,166.46l2.24-.26c2.24-.26,3.14-.7,3.14-1.09v-36.77c0-.45-.38-.64-3.65-.96l-1.67-.19-.19-.38h32.67l.64,13.07h-.38l-.26-.7c-2.43-8.52-6.21-11.85-13.96-11.66l-4.93.06v18.38h2.75c5.64-.32,8.13-1.79,9.48-5.96l.38-1.15.45.06-1.67,15.31-.45-.06-.06-1.15c-.38-4.68-2.18-5.89-8.71-6.28l-2.18-.13v19.34l6.28.26c8.2-.13,12.49-5,15.05-12.04l.32-.7h.38l-1.79,13.39h-34.08l.19-.38Z"/>
        <path class="cls-1" d="M196.87,166.46l2.88-.26c2.18-.19,3.01-.7,3.01-1.09v-37.73h-2.11c-6.21.45-10.44,6.4-12.49,10.5l-.45.83h-.45l1.86-11.91h35.93l1.22,11.85h-.38l-.38-.83c-2.18-4.74-6.41-10.31-12.3-10.44h-2.18v37.92c0,.45.38.64,3.65.96l2.18.19.19.38h-20.37l.19-.38Z"/>
        <path class="cls-1" d="M237.86,166.46l2.82-.26c2.18-.19,3.01-.7,3.01-1.09v-16.59l-8.58-15.18c-2.56-4.48-3.4-5.7-6.34-6.02l-1.34-.13-.19-.38h19.86l-.19.38-1.09.06c-4.16.38-4.29,1.47-2.82,4.1l8.45,15.12h.13l4.8-8.97c4.42-8.39,4.55-9.54-1.15-10.12l-1.41-.19-.19-.38h14.6l-.19.38-1.79.19c-3.27.38-4.55,1.54-9.22,10.38l-5.06,9.35v18.19c0,.45.38.64,3.65.96l2.11.19.19.38h-20.24l.19-.38Z"/>
      </g>
      <g>
        <g>
          <path class="cls-1" d="M162.82,46.77l-58,3.04c-.16,0-.28.14-.27.3l.43,8.12c0,.16.14.28.3.27l58-3.04c.16,0,.28-.14.27-.3l-.43-8.12c0-.16-.14-.28-.3-.27ZM120.95,55.55h-.01c-1.22.06-2.27-.87-2.34-2.09-.03-.59.16-1.16.56-1.61.4-.44.94-.71,1.53-.74h.01c1.22-.06,2.27.87,2.34,2.09.07,1.22-.87,2.28-2.09,2.35ZM134.19,53.97c-.8.05-1.44-.55-1.49-1.32-.02-.38.11-.74.35-1.02.25-.28.57-.43.98-.47.37-.02.73.11,1.01.35.28.25.45.59.47.97.04.77-.55,1.44-1.33,1.49ZM147.53,54.16h-.01c-1.22.06-2.27-.87-2.34-2.09-.03-.59.17-1.16.56-1.61.4-.44.94-.71,1.53-.74h.01c1.22-.06,2.27.87,2.34,2.09.07,1.22-.87,2.28-2.09,2.35Z"/>
          <path class="cls-1" d="M162.93,31.73c-.34-.12-.72,0-.93.29-1.59,2.15-2.84,3.76-3.58,4.71-.03.04-.08.01-.09-.03l-1.4-9.16c-.04-.33-.28-.6-.62-.68-.34-.08-.68.05-.87.33l-6.4,9.41c-.13.19-.34.3-.57.3-2.03,0-2.64,0-3.41.03-.21,0-.41-.08-.55-.24-4.74-5.53-8.98-12.14-11.02-15.02-.5-.71-1.56-.65-1.98.1-1.73,3.08-5.25,10.1-9.39,16.09-.12.17-.31.28-.52.3-.77.05-1.38.11-3.4.32-.23.02-.45-.06-.6-.24l-7.35-8.69c-.22-.26-.58-.36-.9-.24-.32.12-.54.41-.54.74l-.43,9.25s-.05.07-.08.04c-.84-.86-2.25-2.33-4.06-4.3-.25-.27-.63-.34-.96-.19-.33.16-.51.5-.46.86l1.63,10.88c.04.24.25.42.5.41l57.62-3.02c.25-.01.44-.21.45-.46l.48-10.99c.02-.36-.2-.68-.54-.8ZM135.89,35.87l-2,4.41c-.15.33-.6.35-.79.05l-2.5-4.15c-.08-.13-.09-.28-.02-.42l2.01-4.41c.15-.33.6-.35.79-.05l2.5,4.15c.08.13.09.28.02.42Z"/>
        </g>
        <path class="cls-1" d="M117.71,28.09c-.19,0-.39-.05-.57-.15-.54-.31-.73-1.01-.41-1.55l14.27-24.59c.65-1.12,1.81-1.79,3.11-1.79s2.46.67,3.11,1.79l13.89,23.94c.32.54.13,1.24-.41,1.55-.54.31-1.24.13-1.55-.41l-13.89-23.94c-.34-.59-.91-.66-1.14-.66s-.8.06-1.14.66l-14.27,24.59c-.21.36-.59.57-.98.57Z"/>
        <path class="cls-1" d="M168.95,67.23h-69.69c-1.3,0-2.47-.67-3.11-1.8-.65-1.13-.65-2.47,0-3.6l3.41-5.88c.32-.54,1.01-.73,1.55-.41.54.31.73,1.01.41,1.55l-3.41,5.88c-.35.6-.12,1.12,0,1.32.11.2.46.66,1.14.66h69.69c.69,0,1.03-.46,1.14-.66.11-.2.34-.73,0-1.32l-3.97-6.84c-.32-.54-.13-1.24.41-1.55.54-.32,1.24-.13,1.55.41l3.97,6.84c.65,1.12.66,2.47,0,3.6-.65,1.13-1.81,1.8-3.11,1.8Z"/>
      </g>
    </g>
  </g>
</svg>